<svg xmlns="http://www.w3.org/2000/svg" viewBox="0 0 368.61 355.7"><g id="OBJECTS"><path d="M34.69,269.07c0-8.05,0-15.88,0-23.71,0-7.47.2-14.94.31-22.42,0-1.7,0-1.68-1.65-1.7l-32.61-.4-.6-.05L0,220.44a3.21,3.21,0,0,1,1-.38c3.27,0,6.55.06,9.83.1l22.9.28c.64,0,1.27.07,2,.11-.18,16-.37,31.85-.55,47.81H155.11l-1-.87c-6.41-5.14-9-15-5.67-22.24,2.51-5.51,7.07-8.39,12.86-9.48a18.49,18.49,0,0,1,10.47,1.06,12.34,12.34,0,0,1,7,7.33c1,2.44,1.64,5,2.36,7.53.19.69.38,1,1.15,1q8.69.08,17.38.23c1.44,0,2.88.09,4.31.24a2.33,2.33,0,0,1,2.4,2.58c.14,2.62-.07,2.18,2.36,2.2s5.1,0,7.78,0c-.31-1.79-.61-3.42-.85-5.06a2.63,2.63,0,0,1,.12-1.51,6,6,0,0,0,.56-3.67,10.44,10.44,0,0,1,2.76-7.7c8-9.67,21.51-9.43,29.13.52.23.3.47.6.86,1.08V230.44c-.38,0-.77-.08-1.15-.08q-19.42,0-38.87,0c-1.14,0-1.42.38-1.44,1.43,0,2.12-.18,4.23-.29,6.35-.1,1.8-.73,2.65-2.48,3a60.1,60.1,0,0,1-16.53,1.61,4.44,4.44,0,0,1-3.24-1.56q-4.25-4.82-8.48-9.63c-.74-.84-1.52-1.64-2.3-2.45a8.15,8.15,0,0,0-6.18-2.42c-2.8,0-5.6,0-8.39.2-.72,0-1.89.37-2,.82a1.79,1.79,0,0,0,1.39,2.18c3.21.94,6.43,1.83,9.66,2.73.74.21,1.5.35,2.26.53l0,.37a5.85,5.85,0,0,1-.92.09c-3.07-.16-6.14-.51-9.21-.48a27.2,27.2,0,0,0-16.12,5.67,10.08,10.08,0,0,0-3.63,5c-.33,1-.83,1.89-1.25,2.83,0,.06.09.15.14.16,2.91.61,3.22,1,3,3.94-.15,2.11-.42,4.22-.69,6.32a1.56,1.56,0,0,1-1.53,1.56c-3.24.05-6.48.08-9.71.05-.23,0-.64-.48-.65-.75-.08-2.79-.23-5.59-.06-8.37a10.45,10.45,0,0,1,1.32-3.8c3-5.88,6-11.73,9-17.61a2.58,2.58,0,0,1,2.45-1.59l11.51-.07h1.94c0-.53.06-1,.06-1.45,0-3.59-.06-7.19.11-10.78a31.68,31.68,0,0,1,3.3-12.05q3.54-7.53,6.93-15.13a3.07,3.07,0,0,1,2.95-2c6.19-.2,12.38-.45,18.57-.58,2.19-.05,4.39.13,6.58.27s2.55.57,2.59,2.72c.07,3.68.08,7.36.17,11,.17,6.91.37,13.82.56,20.72,0,.4.08.79.12,1.17h3.16c-.11-1.66-.2-3.2-.31-4.74-.51-7-1-13.94-1.52-20.92a4.46,4.46,0,0,1,.3-1.25,3.88,3.88,0,0,1,1.08.53,6.2,6.2,0,0,1,1.08,1.42,137.24,137.24,0,0,1,10.82,24.5,3.45,3.45,0,0,1-1.3,4.23c1.32.12,2.4.25,3.49.31l23,1.13c.72,0,1.44.11,2.16.11a2.1,2.1,0,0,0,2.39-2,5.58,5.58,0,0,0-1.61-5.06c-6.91-6.24-13.86-12.43-20.8-18.64a4.18,4.18,0,0,0-1.48-.89c.22.34.42.7.67,1,1.36,1.83,2.71,3.67,4.13,5.45a5.42,5.42,0,0,0,1.89,1.78c2.2.87,3.6,2.61,5.14,4.22,2.43,2.54,4.83,5.11,7.24,7.67,1.49,1.59,1.3,2.53-.73,3.4-1.5.64-3,1.26-4.56,1.79-2.1.73-2.88.48-4.22-1.31-2.86-3.8-5.72-7.6-8.51-11.45q-6.54-9-13-18.15a2.85,2.85,0,0,0-3.23-1.41,2.25,2.25,0,0,1-2.9-2,8.4,8.4,0,0,1,2.37-8.13c.17-.17.36-.32.54-.48s.28-.27.5-.46l-7.71-10.43q-3.7-5-7.43-10a2.23,2.23,0,0,1-.15-2.76c1.46-2.43,2.93-4.85,4.44-7.35l-10.26-10-5.65,4.92c1.64,1.7,3,3.17,4.44,4.62s3,3,4.4,4.57a21.67,21.67,0,0,1,1.7,2.51l-.27.43a7.67,7.67,0,0,1-2.14-.58c-2.82-1.74-5.6-3.55-8.36-5.39a3,3,0,0,1-1.23-4.23,2.17,2.17,0,0,0-.57-2.69q-6.67-6.81-13.34-13.63c-3.82-3.92-7.62-7.86-11.36-11.73-.57.33-1.2,1-1.87,1a4.69,4.69,0,0,1-2.2-.78c-2.05-1-4.08-2.16-6.3-3.34.21,3.08.39,5.94.58,8.8.06.84.14,1.67.24,2.5.13,1.06.74,1.62,1.8,1.43,1.73-.3,3.45-.67,5.16-1.06,2.06-.47,4.1-1,6.16-1.5a3.35,3.35,0,0,1,3.08.59,35.63,35.63,0,0,1-3.21,2.45c-3.72,2.25-7.53,4.36-11.25,6.63-1.65,1-3.15,2.29-4.74,3.42-.56.4-1.18.72-2.06,1.25.11-.71.06-1.11.24-1.36,1.43-2,.86-4.24.79-6.38-.12-3.76-.4-7.5-.62-11.25-.09-1.56-.57-2-2.16-2-1.24,0-2.48.14-3.72.11-1.74,0-2.31,1.1-2.75,2.69.66,0,1.27,0,1.89,0,1.82.08,2.57.89,2.68,2.67A54.19,54.19,0,0,1,131.14,140c-.3,1.38-.68,1.71-2.16,1.68-6.59-.11-13.18-.29-19.78-.38-8.91-.13-17.82-.2-26.74-.29H80.89c0-1.72,0-3.38,0-5,.13-5.79.29-11.58.43-17.37.05-1.81.54-2.4,2.36-2.41,7,0,13.92-.12,20.87,0,7.5.16,15,.57,22.51.84,1.79.06,3.58,0,5.53,0,0-1.23,0-2.49,0-3.76q-.65-16.89-1.3-33.77c0-1-.34-2,1.16-2.13,2.16-.2,3.26.34,3.4,1.87s.16,2.87.18,4.3q.18,12.84.32,25.67a9.48,9.48,0,0,1,0,1.19c-.21,2.27.52,3.23,3,3.79,0-1.37.1-2.72,0-4a17.1,17.1,0,0,1,2.05-9.23c.81-1.66,2.06-1.86,3.52-.72.69.54,1.34,1.53,2,1.54s1.38-.94,2.09-1.44c1.13-.79,1.77-.74,3.07.44,2.7,2.44,5.36,4.92,8,7.4q18.63,17.37,37.24,34.78c2,1.9,3.63,4.28,5.65,6.19,4.58,4.35,9.19,8.67,14,12.76,8.71,7.41,16.34,15.86,24,24.24.77.84,1,2.16,1.52,3.34a6.47,6.47,0,0,1-4.84-1.27c-9.86-6.79-18-15.49-26.34-23.9-4.83-4.84-9.6-9.74-14.41-14.6-.22-.23-.47-.43-.81-.72l-1.42,1.58L240.19,196l-.07.29c-.31-.05-.67,0-.9-.16a8.79,8.79,0,0,1-1.27-1.1c-2.22-2.18-4.45-4.36-6.64-6.58a7.62,7.62,0,0,0-5-2.48c-2.39-.14-4.78-.31-7.17-.41-1,0-2.18.08-2.37,1.16a3.19,3.19,0,0,0,.83,2.42q7.35,7.47,14.88,14.77c1.83,1.78,3.85,3.37,5.77,5.06a11.85,11.85,0,0,1,4.2,7.33,13.39,13.39,0,0,0,.77,2.2l.44-.06c0-1.4,0-2.8,0-4.2q.31-11.14.65-22.29c0-1.64.74-2.31,2.4-2.28,4.52.1,9,.23,13.54.36,1.36,0,1.81.49,1.86,1.95.26,7.19.52,14.37.74,21.56q.4,13.24.71,26.49c0,1.2.45,1.72,1.65,1.7.79,0,1.59.08,2.39.14,1.52.13,2.05.65,2.12,2.19.14,3,.23,6.06.33,9.1a19.09,19.09,0,0,1,0,2.27,1.57,1.57,0,0,1-1.52,1.59c-4,0-8-.19-12-.34-.32,0-.62-.36-.93-.55.26-.27.47-.66.78-.78a36.87,36.87,0,0,1,3.52-1.12c2.63-.67,3-1.19,2.94-3.9-.06-2.27,0-4.56,0-6.83a10,10,0,0,0-.1-1.06c-2.41.21-4.75.4-7.08.63-1.52.16-2.1,1.27-2.49,2.57s-.42,2.26.79,3.06a1.47,1.47,0,0,1,.61,1c.11,2.27.14,4.54.18,6.81,0,.1-.1.19-.19.35-1.76-2-1.6-4.57-2.48-7a4.87,4.87,0,0,0-.23.72c-.34,4.77-.7,9.54-1,14.31-.11,1.77.27,2.05,2.08,2.05q39.53-.12,79.06-.23c11.79,0,23.59.07,35.39.11a2.79,2.79,0,0,1,.71,0,1.91,1.91,0,0,1,.53.34c-.18.14-.35.36-.56.42a3.27,3.27,0,0,1-.83,0l-63.83,0-44.39,0c-2,0-3.92,0-5.88.11a6.23,6.23,0,0,0-2.05.54,8.55,8.55,0,0,1-6.79-.3A4.55,4.55,0,0,1,247.7,267c2.12,0,2.12,0,2.12-2.14v-3.49c-1.11,1.21-2.07,2.36-3.14,3.4a17.72,17.72,0,0,1-11.11,4.8c-4.13.36-8.15,0-11.73-2.44a18.86,18.86,0,0,1-6.18-7.2,1.48,1.48,0,0,0-1.56-.95c-3.1,0-6.21,0-9.38,0-.09,1.07-.12,2-.25,2.95a2,2,0,0,1-2.14,2c-4.48.11-9,.28-13.42.34-2.08,0-2.61-.63-2.56-2.7,0-1.07.43-2.46-.08-3.13s-2-.64-3-.9A23.14,23.14,0,0,0,183,257c-.8-.13-1-.51-.69-1.29,1.83-.09,3.66-.22,5.49-.22.4,0,.82.43,1.21.7s1,1.08,1.59,1.12c4.89.34,9.79.57,14.88.85,0-1,.07-1.8,0-2.61-.12-1.13-1-1.49-2-1.54-1.75-.09-3.51-.19-5.27-.19-5.31,0-10.63,0-16,.08-.23,0-.46,0-.76.06-.25,1.58-.47,3.12-.75,4.64a12.16,12.16,0,0,1-9.58,9.88,4.59,4.59,0,0,0-1.76.86c-1.39,1.1-3,1-4.57.94-5-.32-10-.84-15.07-.91-12-.15-24-.09-36-.12q-30.7-.08-61.42-.15c-5,0-9.91.11-14.87.14C36.47,269.23,35.48,269.11,34.69,269.07Zm219.13-74.73a3.19,3.19,0,0,1,0,.85,41.13,41.13,0,0,0-1.8,4.64,79.59,79.59,0,0,0-2.15,16.62c-.13,3.82.11,7.66.22,11.49a2,2,0,0,0,.39,1.33c1.16,1,3.66,0,3.9-1.56a107.84,107.84,0,0,0,.81-25.7c-.19-2.15-.65-4.28-1-6.54a5.51,5.51,0,0,1,1.63,3.84c.11,1.24.25,2.47.36,3.7a117.33,117.33,0,0,1-.86,25c-.21,1.62-.8,2.07-2.46,2.24l-2.88.29c.6,5.73-.61,11.53,1.85,16.95a5.52,5.52,0,0,0,.4-1.65c.25-2.74,1.19-3.67,3.91-3.83.32,0,.64,0,1-.05l5.48-.42c0-.89,0-1.6,0-2.32-.24-9.63-.44-19.25-.73-28.88-.17-5.79-.45-11.58-.71-17.37-.07-1.52-.57-2-2-2q-5.86-.21-11.74-.39c-1.7-.05-2.25.45-2.31,2.14-.22,6.19-.45,12.38-.6,18.57-.09,3.51,0,7,0,10.59h-.84v1.1c0,2.93-.56,3.56-3.52,3.45-8.11-.3-16.21-.68-24.31-1-2.78-.13-5.56-.3-8.5-.46.13,1.55.25,2.91.36,4.26h41.56c.09-5.16.19-10.23.29-15.3a87.5,87.5,0,0,1,1.43-15.14A6.16,6.16,0,0,1,253.82,194.34Zm-96.59,31.57c3.58,0,6.81.1,10,0a10.26,10.26,0,0,1,8.71,3.63c3.12,3.59,6.33,7.11,9.48,10.67a5.05,5.05,0,0,0,3.87,1.8,54.71,54.71,0,0,0,13.8-1.41c3-.68,3-.71,3.31-3.72,0-.28.07-.56.09-.84.12-2,.24-3.95.36-6-3.48,0-6.8,0-10.11,0a1.64,1.64,0,0,0-1.13.82,2.32,2.32,0,0,1-2.55,1.37c-1.11-.1-2.23-.19-3.33-.37a5.4,5.4,0,0,1-3.61-1.75c2.74-1.66,5.85-.62,8.68-1.29-.26-1.75-.51-3.37-.75-5s-.65-2-2.44-2l-29.85.48c-1.69,0-2.14-.48-2.09-2.14s0-3,.13-4.55c.24-3.29-.11-6.63,1.35-9.78,2.22-4.78,4.31-9.61,6.48-14.41A5.23,5.23,0,0,1,173.5,188a7.66,7.66,0,0,0,1.07,0l15.47-.28a1.45,1.45,0,0,1,1.67,1.58c.19,4.31.42,8.62.54,12.93a7.6,7.6,0,0,1-3.46,6.62c-2.13,1.54-4.22,3.16-6.26,4.83-1,.85-1.9,1.89-3.07,3.07a22.81,22.81,0,0,0,3.07.62c2.87.18,5.75.29,8.62.38,2,.07,2.27.24,3,2.07.13.31.45.7.73.74a19.5,19.5,0,0,0,2.44,0c-.23-11.69-.47-23.18-.71-34.81-1.37-.11-2.64-.3-3.9-.29-7.36.09-14.71.25-22.06.32a3.17,3.17,0,0,0-3.22,2.12c-2,4.45-4.05,8.86-6.11,13.27a32.5,32.5,0,0,0-3.42,10.67C157.51,216.48,157.45,221.11,157.23,225.91Zm22-9a11.5,11.5,0,0,1,3.66-4.79c1.94-1.47,3.8-3.06,5.78-4.48a5.72,5.72,0,0,0,2.54-5.33c-.16-3.79-.19-7.59-.26-11.39,0-1.93-.56-2.49-2.54-2.44-5.43.13-10.86.31-16.29.45a3.5,3.5,0,0,0-3.3,2.34c-2.36,5.24-4.78,10.45-7.13,15.7a8.67,8.67,0,0,0-.69,2.88c-.21,3.07-.31,6.14-.45,9.22-.1,2.19.18,2.51,2.4,2.47q12.1-.18,24.21-.42c2,0,4-.15,5.94-.22-.06-1.9-.21-2.08-1.93-2.15s-3.27-.12-4.91-.16A13.54,13.54,0,0,1,179.27,216.92ZM131.4,128.29a9.65,9.65,0,0,1-1.57.76,1.72,1.72,0,0,0-1.44,2.21c.13,1,.14,2,.3,3,.45,2.93.94,4-3.68,3.83-10-.35-20-.79-30.06-1.26a40.67,40.67,0,0,1-5.69-.75c-1.61-.3-2.31-1.63-2.08-3.52.19-1.52.92-2.09,2.64-2.13,2.51,0,5-.14,7.54-.2,8.23-.17,16.46-.31,24.69-.55a51.54,51.54,0,0,0,5.35-.7v-.46a5.28,5.28,0,0,0-2.75-.52c-5.64,0-11.27-.06-16.91,0-5.23.06-10.46.26-15.7.37a30.66,30.66,0,0,1-4.29-.12c-1.34-.15-1.74-.84-1.6-2.18a3.91,3.91,0,0,1,4-3.6q17.63,0,35.27.09c1.23,0,2-.33,2.15-1.66a1.91,1.91,0,0,1,2-1.76c1.79-.11,3.58-.28,5.38-.34s2.44.56,2.57,2.38c.27,3.55.52,7.1.8,10.64.14,1.84.32,3.68.5,5.63.42-.22.7-.37,1-.53q7.56-4.4,15.11-8.81a3.62,3.62,0,0,0,.74-.77,4.19,4.19,0,0,0-1.16-.07c-3.66.83-7.3,1.74-11,2.51-2,.42-2.91-.3-3.09-2.29-.3-3.18-.5-6.37-.69-9.56-.09-1.51-.5-2.85-2-3.34-1.85-.6-2.25-1.93-2.26-3.62q-.12-15.17-.27-30.34c0-2.18-.74-2.72-3-2.11.1,1.86.23,3.73.29,5.6q.52,15.4,1,30.79c.1,3.08.05,3.14-2.94,3.08h-.36c-8.07-.28-16.13-.65-24.2-.83C98.75,117,91.56,117,84.37,117c-1.5,0-2,.59-2.08,2-.17,5.15-.34,10.3-.48,15.45,0,1.74,0,3.49,0,5.27.39,0,.71.09,1,.1l25,.56q6.11.13,12.23.23l8.27.13c1.11,0,1.81-.38,1.89-1.62.06-1,.29-2.06.41-3.09.36-3.3.77-6.59,1-9.89.19-2.28-.48-2.83-2.71-2.5a5.51,5.51,0,0,0-.59.15C127.8,126.17,128.3,127.88,131.4,128.29Zm62.49,23.35c-1.3,2.06-2.51,4-3.73,5.89-.92,1.43-.92,1.83.11,3.22,4.47,6,8.9,12.11,13.43,18.1a36.87,36.87,0,0,0,3.42,3.3,8.53,8.53,0,0,1,1.62,1.94c.49.9.53,2.1,1.14,2.86a79.82,79.82,0,0,0,7.3,8.56c5.75,5.43,11.76,10.59,17.65,15.87,2.16,1.94,4.3,3.9,6.58,6a9.26,9.26,0,0,0-3.27-7.19c-5.47-4.92-10.84-9.93-16.27-14.89a27.31,27.31,0,0,1-5.51-6.28c-1.32-2.28-.72-3.85,1.91-4.17a46.25,46.25,0,0,1,6.45,0c.91,0,1.83.16,2.74.24l.12-.3ZM167.57,268.5c-2.53-2.89-.32-4.95,1.32-7.25l-.66.1c-4,.61-7.67,0-10.69-2.89a8.94,8.94,0,0,1-3.08-7.95c.57-4.09,4.41-7.45,8.91-8s7.59,1.24,9.47,5.45a20,20,0,0,1,.93,2.59c.43,1.4.81,2.82,1.21,4.25.88-.47.76-1.88,2.09-1.8a19.1,19.1,0,0,0,2.93-.25,14.31,14.31,0,0,0-1.66-8.3c-3.24-5.75-8.31-8.14-14.76-8-7,.18-13.21,4.54-15,10.74-1.83,6.44-.34,12.26,3.95,17.34a10.61,10.61,0,0,0,8.16,3.94C162.92,268.54,165.11,268.5,167.57,268.5Zm-36.06-10.67h8.41a1.42,1.42,0,0,0,1.57-1.34c.2-2.38.39-4.78.41-7.17,0-1.43-.73-1.87-2.15-1.56a3.11,3.11,0,0,0-1.23.43c-1.14.86-2.44.63-3.7.62-.21,0-.42-.24-.64-.38.17-.22.29-.57.51-.65a5.44,5.44,0,0,1,1.84-.44,2.85,2.85,0,0,0,2.75-1.77,29.82,29.82,0,0,1,1.39-3c.9-1.43,1.71-3.12,3-4.06,4.34-3.11,9.06-5.53,14.5-6.13.94-.11,1.89-.16,3.06-.26-2.14-1.29-5-1.4-4.94-4.72-4.19,0-8.3,0-12.41,0a2.85,2.85,0,0,0-2.83,1.76c-3,5.83-6,11.62-9,17.45a10.18,10.18,0,0,0-.83,2.36C130.56,251.87,131.16,254.79,131.51,257.83Zm118-10.44a10,10,0,0,0-2.66-7.26c-3.32-4-7.71-5.78-12.78-6.16a16.47,16.47,0,0,0-16.72,11.55,5.85,5.85,0,0,0,1.94,6.36,2.31,2.31,0,0,0,3,.3,8.59,8.59,0,0,0,3.28-3.7c3.49-6.67,10.84-7.86,16.3-2.7a3.06,3.06,0,0,0,1.36.92C245.26,247,247.36,247.16,249.5,247.39Zm-32.42,4-.32.32c.51,2.4.62,5,1.58,7.16,2.87,6.56,8.22,9.86,15.28,10.1,6.49.23,11.54-2.67,15.13-8.06a4.54,4.54,0,0,0,.81-2.21c.15-3.19.17-6.39.19-9.58a.93.93,0,0,0-.54-.72c-1.92-.27-3.86-.45-5.82-.67.18,1.59.42,3,.5,4.5.35,5.92-2.71,9.64-8.3,10.15s-9.27-2-10.78-7.47c-.21-.76-.38-1.52-.62-2.51C221.51,254.35,219.14,254,217.08,251.34Zm-34.22-112-28.6-27.73c-.76,1.6-1.46,3-2.1,4.41-.94,2-.85,2.64.73,4.26q9.31,9.58,18.66,19.14c1.65,1.68,3.42,3.23,5.22,4.91ZM165.48,260.91a8.61,8.61,0,0,0,8-6,3.91,3.91,0,0,0,.16-2.1,46,46,0,0,0-2.28-5.65,6.62,6.62,0,0,0-6.17-3.86,9.93,9.93,0,0,0-6.69,2.24c-2,1.74-3.44,3.89-3.07,6.68A10.32,10.32,0,0,0,165.48,260.91Zm41.1-69.67c.16.25.27.46.4.65q9,12.62,18.1,25.21c1.38,1.92,2.82,3.78,4.23,5.67a2.09,2.09,0,0,0,2.76.92c1.72-.72,3.52-1.27,5.28-1.92,1.15-.42,1.22-.79.37-1.67-1.83-1.9-3.63-3.83-5.51-5.68-2.1-2.06-4.27-4-6.35-6-1,2.16-2.12,3.08-4.5,2l2.95-2.67c-5.32-6.05-8.79-13.45-15.6-18Zm-79.16-61c-5.43.21-10.69.48-16,.62-7.15.19-14.31.29-21.46.41-1,0-1.78.35-1.93,1.5s.26,2.16,1.39,2.44a16.35,16.35,0,0,0,3.19.45q15.91.84,31.84,1.59A28.65,28.65,0,0,0,128,137Zm116,121.25-.33-.09a7.34,7.34,0,0,0-.25-2,3.19,3.19,0,0,0-1.29-1.7,5.69,5.69,0,0,0-3-.54c-3.31.5-6.61,1.11-9.88,1.87a4.18,4.18,0,0,0-3.35,4,7.37,7.37,0,0,0,4.46,7.39,12.57,12.57,0,0,0,9,.31,4.52,4.52,0,0,0,2.65-2.17A59.87,59.87,0,0,0,243.38,251.47Zm-1.89-62.34.42-.55a52.09,52.09,0,0,0-4-5c-7.8-7.64-15.59-15.28-23.56-22.72-4.87-4.55-10.07-8.76-15.12-13.12-.61-.52-1.29-.92-2-.12s.17,1.13.55,1.52c8.18,8.27,16.44,16.46,24.56,24.79a103.67,103.67,0,0,0,16.54,14A16.49,16.49,0,0,0,241.49,189.13Zm-42.84,32.5-.12.25a3.53,3.53,0,0,0,1,.43c3.42.35,6.83.73,10.26,1,2.5.18,3.2-.84,2.38-3.2A187.87,187.87,0,0,0,201.78,196a4,4,0,0,0-.74-.81,3.7,3.7,0,0,0-.27,1.14c.49,6.65,1,13.3,1.51,19.95.12,1.58.21,3.16.32,4.76ZM127,123.34h-1.62c-5.92,0-11.83-.07-17.75-.08s-11.68,0-17.52,0c-2.37,0-3.5,2-2.54,4.22l39.43-.59ZM156.57,108c-1.68,1.34-1.7,2.26-.17,3.8q11.39,11.42,22.77,22.85c1.32,1.33,2.56,2.73,3.79,4,2.68-1.7,2.69-1.71,4.72.25,2.82,2.71,5.63,5.44,8.48,8.19l.68-.61Zm42.32,38.44.39-.43c-15.73-16-32.4-31-49.3-46-.78.89-1.51,1.72-1.94,2.23l6.14,6.76c2.26-2.28,2.26-2.28,4.55-.18l.08.08q18.49,17.51,37,35C196.77,144.86,197.86,145.63,198.89,146.47Zm-19,107.26c-2.09-.38-3.43.63-4.64,2s-2.66,2.86-4,4.32-2.54,2.77-3.63,4.28-.45,2.82,1.31,3.07a7.46,7.46,0,0,0,3.15-.23C177.7,265.49,181.5,258.81,179.93,253.73Zm77.74,2.16.12.4c3.33,0,6.66,0,10,0a1.47,1.47,0,0,0,1.46-1.61c-.11-3.54-.27-7.09-.44-10.63a1.31,1.31,0,0,0-1.44-1.3c-.83,0-1.68,0-2.51,0s-1.19.24-1.17,1.14c.06,2.44,0,4.87.06,7.3,0,2.11-.68,3.12-2.65,3.7-.81.24-1.62.42-2.43.66A9.24,9.24,0,0,0,257.67,255.89ZM142,109.16l8.57,8.12c1-2.06,1.91-3.94,2.7-5.89a2,2,0,0,0-.26-1.72c-2-2.07-4.07-4-6.18-6.08Zm47.48,149c-.06,1-.09,2-.17,2.86-.14,1.71.35,2.29,2.06,2.28,3.8,0,7.59-.08,11.39-.12,2.91,0,3.26-.46,2.94-3.33-.09-.76-.47-.86-1.11-.89-3.2-.14-6.39-.33-9.58-.5Zm5.17-36.55c.44,2.52.86,4.9,1.28,7.29h10.63c0-.75-.08-1.46-.1-2.17-.1-2.25-.1-2.22-2.3-2.57s-4.61-.46-6.44-2C196.71,221.46,195.81,221.59,194.62,221.66ZM149.13,119.31l.39-.45a13.84,13.84,0,0,0-1.32-2c-1.94-2.06-3.95-4.06-5.94-6.08-1.35-1.37-1.36-1.75-.12-3.19,1.42-1.65,2.83-3.31,4.3-5l-3.22-2.07a12,12,0,0,0-3,7.16c-.07,2,.14,4,.15,6a2.3,2.3,0,0,0,1.32,2.22c1.9,1,3.78,2.07,5.7,3A8.39,8.39,0,0,0,149.13,119.31Zm77.39,129.53c4.47-2.23,9.28-2.29,14.14-2.34a6.38,6.38,0,0,0-5.8-3C231.05,243.6,228.4,245.6,226.52,248.84ZM184,139.24l.36-.17,9.85,10.51,1.06-1.45-9.91-10.32Zm17.65,47.47c1.74.23,3.34.54,4.95.63,1.17.07,1.59-.74,1-1.72a32.39,32.39,0,0,0-2.28-3.06,1.12,1.12,0,0,0-1.07-.12C202.64,183.33,202.18,184.92,201.69,186.71ZM177,147.43a2.29,2.29,0,0,0,.34,3,25.85,25.85,0,0,0,8.45,5.72,2.59,2.59,0,0,0,.64.11l.16-.25C183.39,153.17,180.21,150.33,177,147.43Zm33.26,42,.15-.33c-.44-.4-.89-1.15-1.32-1.15-1.6,0-3.2.27-5.07.46l1.79,2C207.36,190.06,208.28,187.77,210.23,189.46Zm-15.54,41.37c-1.2-1.08-5.44-1.09-6.66-.11C190.3,230.69,192.32,231.74,194.69,230.83Zm7-43.32c-.09,1.42-.31,2.64.77,3.32.54.34,1.4.15,2.11.19l.05-.37Z"/></g></svg>