<svg xmlns="http://www.w3.org/2000/svg" viewBox="0 0 368.61 355.7"><g id="OBJECTS"><path d="M368.61,241.39a11.76,11.76,0,0,0-1.18-.11H334.92c-.38,0-.77,0-1.28.06v21.94H279.06V236.33c-4.56,3.26-9.86,3.59-14.85,4.75q-15.67,3.64-31.48,6.82a28.38,28.38,0,0,1-7,.1c-3.71-.19-7.4-.62-11.11-.79-3.31-.15-5.48-1.92-7.16-4.54-1.25-1.92-1.24-1.91-3.5-1.41-8.61,1.92-17.22,3.87-25.84,5.71a57.74,57.74,0,0,1-14.56.93c-.51,0-1,0-1.55,0H73.1V225.59H.23L0,225.24a3.86,3.86,0,0,1,.75-.66c.18-.1.47,0,.71,0H74v22.21h75.38c-5-4.13-5.9-9.72-5-15.93.28-1.84,1.58-2.42,3.13-2.84l-1.94-.23a8,8,0,0,1,7.08-8.92c5.37-.45,10.76-.67,16.15-1,8.09-.43,16.19-.83,24.29-1.26,2-.1,2.17-.43,1.55-2.78h-1.33c-8.08,0-16.16,0-24.23-.05-3.14,0-4.31-1.18-4.17-4.34a79.29,79.29,0,0,1,.81-8c.27-1.85,1.72-2.9,3.8-3,.84-.05,1.68,0,2.51-.06a1.42,1.42,0,0,0,1.59-1.53q.13-3.35.38-6.69a7.77,7.77,0,0,1,3.17-6.08,6.76,6.76,0,0,0,3-5.87c.3-8,.93-15.95,1.39-23.92.13-2.15,0-4.32.15-6.46.3-4.62-1.48-8.44-4.44-11.78-6.49-7.33-13-14.61-19.55-21.92L138.46,92.48a4.56,4.56,0,0,0-.43-.32c-1.9,23.32-3.78,46.5-5.68,69.73H127l-.57-36.54h-.29c-.18,12.35-.37,24.69-.55,37.15H123c-4.6,0-9.19,0-13.79,0-.91,0-1.58-.14-1.77-1.33,1.14-.73,2.41-1.46,3.59-2.32a1.55,1.55,0,0,0,.55-1.21c-.31-2.54-.74-5.06-1.08-7.59a2.68,2.68,0,0,0-1.23-2.07,4.9,4.9,0,0,1-1.13-1.05c-1.08-1.37-.7-3.17,1-3.58,3.32-.82,4.06-3.11,4.18-6.09.38-9.38.8-18.76,1.33-28.13.56-9.93,1.16-19.85,1.92-29.77.58-7.68,1.41-15.35,2.17-23a5.77,5.77,0,0,1,2.9-4.59c1-.59,1.89-1.33,2.85-2s1.7-1.21,2.6-1.71c3.33-1.85,6.2-.19,6.18,3.62a5.94,5.94,0,0,0,1.46,4.07C139.4,61.34,144,67,148.9,72.46c2.64,3,5.78,5.53,8.44,8.5q9.58,10.73,18.92,21.67,9.26,10.77,18.33,21.71c4.88,5.89,7.32,12.85,8.24,20.37.27,2.21.41,4.44.61,6.66,1.93.07,2.07-.06,2.08-1.9,0-.84,0-1.68,0-2.51a2.72,2.72,0,0,1,.1-.45,14.09,14.09,0,0,1,2.51.05,1.51,1.51,0,0,1,.89,1,23.74,23.74,0,0,1,.34,2.78h11.88c-1.34-2.12-2.54-4.22.19-6a4.15,4.15,0,0,1,4.47.6c1.37,1.33,1.26,2.44-.64,5.57,3.65.56,7.22,1.14,10.79,1.66,3,.45,6.1.82,9.14,1.26s4.14,1.47,4.45,4.43.39,6.05.48,9.08c.12,4.56.16,9.11.26,13.67,0,.63.12,1.26.19,2l8.18.58a16.86,16.86,0,0,1,2,.22,4.47,4.47,0,0,1,4,4.43c.16,3.47.19,6.95.26,10.42.08,3.76.12,7.51.2,11.27.07,3.14-.82,4.25-4,4.46-8.49.56-17,1-25.47,1.58a7.31,7.31,0,0,0-1.84.36c2.11,0,4.22,0,6.32,0a269,269,0,0,1,31.34,1.75c1.31.14,2.64.19,3.92.45a6.23,6.23,0,0,1,5.26,5.87c.3,3.43.47,6.86-.64,10.21a3,3,0,0,0-.09.95v26.39c0,.23,0,.46.05.77h52.49v-22h34.59c.47,0,.95,0,1.43,0ZM202.49,152.9c-.21-2.61-.34-5.11-.62-7.6-.87-7.62-3.34-14.62-8.31-20.58-4.64-5.55-9.41-11-14-16.54-9.3-11.19-18.58-22.36-29-32.62-6.12-6-11.38-13-17-19.51a6,6,0,0,1-1.39-4,8,8,0,0,0-.12-1.55,2.46,2.46,0,0,0-3.2-2,7.06,7.06,0,0,0-2,1,54.53,54.53,0,0,0-5.28,3.73,5.48,5.48,0,0,0-1.66,2.78,37.51,37.51,0,0,0-.57,5.11c-1.18,11.92-2.53,23.83-2.66,35.84-.06,4.54-.87,9.06-1.12,13.61-.5,9-.87,18-1.24,27.05-.14,3.3-1.14,5.84-4.71,6.74-1.17.29-1.35,1.17-.56,2.11.36.42.92.67,1.25,1.1a4.85,4.85,0,0,1,1.1,1.9c.51,2.91.85,5.84,1.33,8.76a1.1,1.1,0,0,1-.62,1.34c-1,.56-1.9,1.2-3.06,1.94H124.6c.34-22.77.68-45.48,1-68.27l1.37.06c.35,22.59.69,45.09,1,67.67.92,0,1.68,0,2.44,0s1-.22,1-.94c.07-1.4.21-2.79.33-4.18q1-12.48,2-25,1-12.66,2.06-25.32c.37-4.5.73-9,1.15-13.5a1.43,1.43,0,0,1,.76-1,1.22,1.22,0,0,1,1.06.33c6,6.7,11.94,13.44,17.92,20.15q10.53,11.82,21.08,23.61c2.86,3.22,4.85,6.86,4.9,11.29,0,2.59,0,5.19-.15,7.78-.47,8.25-1.1,16.5-1.45,24.75a6.35,6.35,0,0,1-2.9,5.57A7.71,7.71,0,0,0,175,191.1c-.05,1.64-.14,3.27-.21,4.91-.11,2.76-.7,3.35-3.44,3.43-4,.12-4.29.3-4.83,4.25-.28,2.06-.48,4.13-.57,6.2-.08,1.88.61,2.59,2.49,2.84a19.23,19.23,0,0,0,2.28.11h25c.09.81.19,1.52.25,2.24.16,1.86-.29,2.41-2.13,2.51-7.9.43-15.8.83-23.7,1.25-5.62.3-11.24.58-16.86.95-4,.26-6.93,3.56-6.44,7.05l5.85.44.08.43c-1.7.49-3.39,1-5.11,1.45s-2,.67-2.28,2.3a16.63,16.63,0,0,0,2.38,12.17,5.33,5.33,0,0,0,4.26,2.53c2.82.24,5.66.39,8.49.56,5.71.35,11.44.5,17.07-.69,9.1-1.92,18.17-4,27.25-6,2-.45,2-.46,3.09,1.33a19,19,0,0,0,1.49,2.17,7,7,0,0,0,5.28,2.68c3.11.16,6.21.46,9.32.6,2.82.13,5.74.61,8.45.08,10.53-2.07,21-4.44,31.49-6.76,3.81-.84,7.61-1.79,11.37-2.85a5.68,5.68,0,0,0,4.3-5.23,46,46,0,0,0,.16-7.87c-.25-3.31-2.22-5-5.57-5.33-2.9-.27-5.81-.53-8.71-.81a238.1,238.1,0,0,0-28-1.14c-2.48.05-5,0-7.68,0a9.25,9.25,0,0,1,5.63-2.43c8.65-.49,17.3-1.06,26-1.6,2.16-.14,2.9-.94,2.86-3.12q-.19-10.37-.4-20.73c-.06-3.34-1.09-4.47-4.45-4.85-.55-.07-1.11-.08-1.67-.12l-8.06-.57c-.09-.81-.22-1.55-.24-2.3-.08-3.68-.11-7.36-.22-11-.13-4.07-.26-8.14-.52-12.21-.15-2.21-1-3.08-3.16-3.42-4.46-.68-8.94-1.26-13.4-1.91-4.08-.6-8.08-1.55-12.28-1.24-3.38.26-6.79,0-10.19,0h-1.26c-.08-1-.14-1.85-.21-2.68-.1-1.33-.18-1.38-1.59-1,0,1.09,0,2.21,0,3.33a1.12,1.12,0,0,1-.54.84C204.86,152.32,203.7,152.58,202.49,152.9ZM223,151c1-1.12,1.92-2,2.64-2.94a1.78,1.78,0,0,0-.49-2.46,2.93,2.93,0,0,0-3.23-.34c-.84.62-1.4,1.4-.86,2.46S222.18,149.7,223,151Z"/><path d="M128.77,162.3c-.2,2.57-.37,4.87-.54,7.18s-.35,4.49-.31,6.76l1.9-13.71a67.07,67.07,0,0,1,5.6,4.51c.55.54.53,1.88.42,2.82-.39,3.33-.93,6.64-1.42,10q-1.87,12.56-3.78,25.1c-.11.73-.37,1.44-.63,2.44-2.07-1.77-4-3.34-5.86-5-5.2-4.8-9.23-10.36-11.08-17.31-2.17-8.13.56-14.9,7.87-19C123.39,164.62,126,163.58,128.77,162.3Zm-1.15,1.6c-2.43,1.19-4.62,2.09-6.64,3.28-4.13,2.43-6.86,5.91-7.48,10.81-.51,4,.59,7.69,2.18,11.26,3,6.65,7.91,11.64,13.56,16,0,0,.15,0,.29,0,0-.21.1-.43.14-.66l1.56-10.42c1.23-8.3,2.47-16.59,3.65-24.9a2.43,2.43,0,0,0-.46-1.85c-1.12-1.05-2.42-1.91-3.83-3-1.25,9.09-2.48,17.94-3.71,26.87l-1.36-.13C126.21,182.15,126.9,173.2,127.62,163.9Z"/><path d="M123.17,163.26a25,25,0,0,1-2.38,2c-4.71,3.05-8,7.07-8.78,12.79a21.36,21.36,0,0,0,3.06,13.67c1.83,3.18,4,6.16,6,9.23l.82,1.25c-1.07.05-1.93.13-2.79.12L98.63,202a4.82,4.82,0,0,1-4.53-2.59c-1.48-2.73-3.14-5.38-4.44-8.19-3.55-7.66-2.38-13.93,3.66-19.83,3.92-3.83,8.42-6.77,14-7.6,2-.29,4-.18,6-.29,2.75-.16,5.5-.35,8.25-.52.5,0,1,0,1.5,0Zm-2.91.86c-1.62.1-3.13.22-4.65.29-2.62.12-5.28,0-7.87.36-6.19.88-11,4.31-15.08,8.84-4.21,4.69-5.13,10.11-2.59,15.89,1.43,3.24,3.29,6.28,5,9.42a3.75,3.75,0,0,0,3.53,2l18.92.32c.78,0,1.57,0,2.59,0l-2.33-3.36A38.9,38.9,0,0,1,112,187.44c-2.24-7.08-1.59-13.66,3.64-19.3A59.48,59.48,0,0,1,120.26,164.12Z"/><path d="M119.09,203.39a7.3,7.3,0,0,1,6.67,1.85,18.55,18.55,0,0,1,4.92,7c1,2.48,1.88,5,2.86,7.7-2.6-.22-4.36-1-5.66-3.12-2.63-4.33-5.57-8.47-8.37-12.68C119.38,203.93,119.28,203.72,119.09,203.39Zm2.07.63-.26.42c3,4.46,6,8.94,9.07,13.36.31.46,1.11.59,1.68.87l.26-.3c-1.64-4.94-3.37-9.85-7.88-13.09A14.52,14.52,0,0,0,121.16,204Z"/><path d="M125.54,219.76c-2.18-.5-4-1.14-5.25-3.19-2.62-4.28-5.52-8.4-8.3-12.59-.17-.25-.29-.53-.48-.87a7,7,0,0,1,4.92.81,14.39,14.39,0,0,1,5,4.91A28.26,28.26,0,0,1,125.54,219.76Zm-1.64-1.39.28-.33c-1.33-5-3.26-9.69-7.7-12.85a18.71,18.71,0,0,0-3.21-1.46,4.28,4.28,0,0,0,.27.69c2.83,4.24,5.63,8.5,8.52,12.7C122.45,217.69,123.27,218,123.9,218.37Z"/><path d="M104.12,203.24a6.37,6.37,0,0,1,5.08.94c4,2.53,6.35,6.31,7.72,10.73a43.16,43.16,0,0,1,.89,4.58,7.87,7.87,0,0,1-5.38-3.7C109.81,211.61,107,207.55,104.12,203.24Zm2,1a2.19,2.19,0,0,0,.19.42c2.61,3.91,5.19,7.84,7.86,11.71a12.26,12.26,0,0,0,2.18,1.87C116.3,212.66,110.77,204.54,106.15,204.24Z"/><path d="M109.9,218.85a7,7,0,0,1-5.47-3.49c-2.32-3.9-5-7.59-7.51-11.37-.22-.32-.41-.65-.69-1.1a8.54,8.54,0,0,1,6.34,1.45c3.74,2.47,5.71,6.13,6.69,10.38C109.57,216,109.68,217.38,109.9,218.85ZM98.27,204a3.38,3.38,0,0,0,.25.54c2.55,3.86,5.06,7.74,7.69,11.55a9.61,9.61,0,0,0,2.27,1.67C108.65,211.54,103.39,203.92,98.27,204Z"/><path d="M278.72,228.14c-.09,1.36-.17,2.71-.28,4.06a5,5,0,0,1-3.82,4.83c-2.76.77-5.57,1.39-8.39,1.92-11,2.08-22,4.1-32.94,6.16-4.39.82-6.7-.56-7.94-4.8C223.78,235,224.8,229.88,227,225a4,4,0,0,1,3.08-2.25c6.59-1,13.16-2.14,19.77-2.94a105.24,105.24,0,0,1,10.52-.34c3-.05,5.91-.11,8.87-.05a37.26,37.26,0,0,1,5.48.44,4.21,4.21,0,0,1,3.64,3.9,11.48,11.48,0,0,1,.18,1.42c0,1,0,2,0,3Zm-15.53-7.5c-4.16,0-8.29-.33-12.34.08-6.38.65-12.71,1.88-19.07,2.71a5.12,5.12,0,0,0-4.67,3.91c-1.45,4.34-2.15,8.68-.63,13.13,1.15,3.33,2.89,4.31,6.34,3.67,10.59-2,21.18-3.91,31.76-5.92,3.21-.61,6.4-1.34,9.57-2.12a4,4,0,0,0,3.24-3.84c.14-2.7.12-5.42,0-8.12a3.15,3.15,0,0,0-2.32-3.16c-3-.84-6.06-.51-9.18-.59,1,2.47.78,3.32-1.33,5.09C262.1,223.09,262.1,223.09,263.19,220.64Zm1.37,3.27c1.41-1.41,1.39-1.78-.08-3C263.2,222.46,263.2,222.85,264.56,223.91Z"/><path d="M206.21,236.61c.78,1.46.35,2.11-.77,2.34-2.31.49-4.61,1-6.93,1.39-7.81,1.41-15.65,2.73-23.44,4.24-2.62.51-4.82-.31-7-1.42-1.4-.72-2.66-1.71-4.23-2.73,1.59-.25,1.48-1.26,1.54-2.22.23-3.51.47-7,.73-10.52.25-3.33,1.84-5.39,5.1-5.85,4.5-.63,9-.92,13.87-1.38-.28.42-.31.53-.38.56-2.47,1.13-4.9,2.34-7.41,3.33a15.37,15.37,0,0,1-4.5,1.1,4,4,0,0,0-3.12,1.69,10.46,10.46,0,0,0-.35,11.62,3,3,0,0,0,3.18,1.44c2.09-.31,4.16-.76,6.25-1.08,5.83-.9,11.66-2,17.53-2.57C199.62,236.19,203,236.57,206.21,236.61Zm-1.2,1.44c-5-1.24-10-.51-15,.33-5.7,1-11.4,1.91-17.12,2.8a4,4,0,0,1-4.83-2.59c-.58-1.26-1-2.62-1.44-4-.1,1.59-.2,3.17-.29,4.74l2,.37-2.2,1a19.62,19.62,0,0,0,2.29,1.46c1.87.85,3.67,1.91,5.91,1.49,7.8-1.45,15.62-2.81,23.43-4.22C200.17,239,202.59,238.52,205,238.05Zm-38.08-8a38.07,38.07,0,0,1,1.83-3.43,4.6,4.6,0,0,1,4.11-2.23c2.42,0,4.47-1.1,6.43-2.46a71.51,71.51,0,0,0-8.3,1c-2.44.49-3.56,1.95-3.85,4.43C167.05,228.27,167,229.14,166.93,230.09Z"/><path d="M221.55,190.41H197.17c.39-3.29.77-6.5,1.18-9.7.84-6.66,1.72-13.31,2.56-20,.4-3.23,1.43-4.18,4.73-4.29,4.7-.17,9.41-.37,14.12-.57,2.1-.09,3.17.87,3.1,3q-.47,12.45-1,24.89C221.78,186,221.66,188.16,221.55,190.41Zm-1-1c0-.34.1-.61.11-.88q.62-14.78,1.2-29.55c.06-1.59-.46-2.06-2.1-2-4.66.16-9.33.35-14,.53-2.86.11-3.49.74-3.85,3.62-.92,7.37-1.87,14.73-2.8,22.09-.26,2-.49,4.09-.74,6.19Z"/><path d="M132.49,59.94a1.3,1.3,0,0,1,2.13.21c4.36,5,8.93,9.91,13.18,15.05S156,85.64,160,90.92a49.14,49.14,0,0,1,3.12,4.87c-2.8-1.19-4.73-3.41-6.83-5.4-2.78-2.64-5.51-5.33-8.22-8A13.12,13.12,0,0,1,146,79.87a14.78,14.78,0,0,0-7.67-6.55A3.72,3.72,0,0,1,136,70.61C134.86,67,133.65,63.49,132.49,59.94Zm1.7,1.38-.14.08c.78,2.38,1.73,4.71,2.3,7.14a6,6,0,0,0,4.11,4.73,10.73,10.73,0,0,1,5.3,4.5c3.45,5.22,8.45,8.94,12.83,13.27a8,8,0,0,0-1.11-1.63C156,87.6,154.42,85.82,153,84c-3.54-4.52-7-9.15-10.59-13.59C139.79,67.24,136.93,64.33,134.19,61.32Z"/><path d="M209.66,191c3.44,0,6.88,0,10.31,0,.73,0,1,.17,1.15,1,.54,3.51,1.18,7,1.79,10.5.45,2.63-.76,4.11-3.29,4l-17.71-.6c-2.26-.08-3.62-1.12-3.94-3.37-.43-3-.71-6-1-9a2.24,2.24,0,0,1,2.37-2.42c3.43,0,6.87,0,10.3,0Zm10.42,1.15a1,1,0,0,0-.3-.12l-20.26.05c-1.13,0-1.59.62-1.48,1.68.29,2.86.57,5.72.94,8.57a2.68,2.68,0,0,0,2.83,2.53q9,.31,18.08.56c1.51,0,2.3-.79,2.08-2.24C221.38,199.49,220.71,195.8,220.08,192.16Z"/><path d="M227.84,182.74c0-.44-.05-.83-.05-1.22q0-10.35,0-20.72c0-3.93.44-4.32,4.3-4.15,1.67.08,3.35.06,5,.09,2,0,2.58.63,2.58,2.58q0,10.37.08,20.73c0,1.72-.75,2.63-2.48,2.67C234.2,182.79,231.06,182.74,227.84,182.74Zm.95-1.05c3,0,5.9,0,8.76,0,1,0,1.29-.73,1.28-1.67q-.09-10.37-.11-20.73c0-1.09-.47-1.48-1.5-1.49-2.12,0-4.23-.08-6.35-.16-1.56-.07-1.89.15-1.91,1.67-.08,6.43-.12,12.86-.17,19.29C228.78,179.56,228.79,180.55,228.79,181.69Z"/><path d="M121,106.87v36.81c-.85-.17-1.67-.28-2.46-.48a3.5,3.5,0,0,1-2.68-3.73,42.4,42.4,0,0,1,1.23-8c.84-4.29,1.28-8.67,1.75-13A56.33,56.33,0,0,1,121,106.87Zm-1,35.45V118.45a3.1,3.1,0,0,0-.2.94c-.54,4.06-.94,8.15-1.69,12.18-.46,2.54-1.3,5-1.23,7.64C117,141.33,117.7,142.22,120,142.32Z"/><path d="M191.5,181.87l-6.21,1.28c0-1.48,0-2.82,0-4.16-.2-5.51-.43-11-.65-16.51-.08-1.84-.18-3.67-.22-5.51,0-1.68,0-1.68,1.86-1.68C188,164.09,189.73,172.91,191.5,181.87ZM185.76,158l-.24,0c.3,7.94.61,15.87.92,23.85l3.84-.8Z"/><path d="M239.79,184.63a47.89,47.89,0,0,1-.09,6.89,9.25,9.25,0,0,1-2,4c-1.66,2.19-3.53,4.21-5.34,6.28-.72.82-1.33,2-2.66,1.73s-1.48-1.54-1.83-2.58c-1-3-.69-6.08-.71-9.15,0-1.79.06-3.59.12-5.38a1.72,1.72,0,0,1,1.93-1.92c3.32,0,6.63,0,9.95,0C239.35,184.54,239.5,184.59,239.79,184.63Zm-.94.87h-9.54c-.9,0-1,.63-1,1.32,0,3.23-.16,6.47,0,9.71a21.87,21.87,0,0,0,.94,4.9c.39,1.38.88,1.42,1.86.34.21-.24.4-.5.61-.74,1.71-2,3.41-4,5.15-6a7,7,0,0,0,2-4.13C238.94,189.17,238.85,187.42,238.85,185.5Z"/><path d="M245.82,203.27c1.09-.25,2.16-.42,3.17-.74a33.64,33.64,0,0,0,4.35-1.59,12.74,12.74,0,0,1,7.6-.87,1.13,1.13,0,0,1,1.09,1.18c.08,1,.22,2.05.34,3.13a8.79,8.79,0,0,1-.88.1c-4.84,0-9.67,0-14.5,0C246.17,204.51,245.8,204.24,245.82,203.27Zm15.29.15c.07-2.39,0-2.34-2.29-2.57-3.17-.31-5.57,1.65-8.57,2.57Z"/><path d="M120.21,159.5a3,3,0,0,1-2.24-2.85c-.27-3.05-.66-6.09-1-9.2h4.38c0,3.44.06,6.82,0,10.19C121.28,158.28,120.58,158.9,120.21,159.5Zm-.23-1.24a7,7,0,0,0,.36-1.34c0-2.23.07-4.47.09-6.7,0-1.91,0-1.91-1.9-1.76a.72.72,0,0,0-.3.13C118.1,151.45,119.06,157.47,120,158.26Z"/><path d="M114.69,197.92H98.57l-.06-.32a53.4,53.4,0,0,1,6.55-1.39,56.77,56.77,0,0,1,7.49.1A2.24,2.24,0,0,1,114.69,197.92Z"/><path d="M113.05,194.1H96.41c5.56-1.46,11.11-3.31,16.69-.47Z"/><path d="M110.81,190.05c-4.15,0-8.3,0-12.44,0-.25,0-.5-.32-.75-.5.19-.19.36-.53.58-.57,3.38-.61,6.78-1.23,10.22-.57a11.59,11.59,0,0,1,2.58,1.21Z"/><path d="M238.2,238.92c-.14-2.74-.27-5.43-.41-8.21l10.52-1.55q8.59-1.24,17.19-2.46a4.82,4.82,0,0,0,3.22-1.84c1.11-1.37,2.36-2.52,4.3-2.46,2.28.08,3.73,1.54,3.61,4.16a33,33,0,0,1-1.05,6.7c-.55,2.13-2.35,3.28-4.33,2.49-3.77-1.51-7.4-.56-11.08,0-6.74,1-13.48,2.12-20.22,3.17A12.62,12.62,0,0,1,238.2,238.92Zm.64-7.36c.09,1.71.17,3.26.24,4.81s.08,1.63,1.64,1.39c6.86-1.08,13.71-2.21,20.58-3.22a51.48,51.48,0,0,1,7-.56,13.75,13.75,0,0,1,3.1.8,2.44,2.44,0,0,0,3.15-1.66,16.42,16.42,0,0,0,1-7.18,2.59,2.59,0,0,0-4.1-2.11,8.8,8.8,0,0,0-2,1.84,5.45,5.45,0,0,1-3.44,2l-8.65,1.27Z"/><path d="M237.44,235a9.93,9.93,0,0,1-3.6,7,3,3,0,0,1-4.49-.12,8.84,8.84,0,0,1-2.75-5.16c-.35-2.79.72-5.13,2.12-7.28a4,4,0,0,1,7.1.53A37.3,37.3,0,0,1,237.44,235Zm-1.26-.64a26,26,0,0,0-1.25-3.86c-1.19-2.52-4-2.67-5.52-.3a16.48,16.48,0,0,0-1.42,3.4c-1,2.94,0,5.38,2,7.47a2,2,0,0,0,3.08.14A8.37,8.37,0,0,0,236.18,234.31Z"/><path d="M251.79,221.09l2.83,2.92-2.87,2.66C248.77,224.1,248.78,223.59,251.79,221.09Zm0,1.49c-1.58,1.22-1.54,1.67.14,2.53l1.34-1.24Z"/><path d="M239.76,228.55c-.39-.44-.74-.81-1.06-1.19a2.93,2.93,0,0,1,.64-4.43,1.77,1.77,0,0,1,1.62.19c1.62,1.52,1.5,3.13-.19,4.54C240.47,227.91,240.17,228.18,239.76,228.55Zm.1-1.56c1.57-1.18,1.59-1.61.2-3.1C238.58,225.26,238.55,225.66,239.86,227Z"/></g></svg>