<svg xmlns="http://www.w3.org/2000/svg" viewBox="0 0 368.61 355.7"><g id="OBJECTS"><path d="M.05,224.15l88-.64c-1-3.67-.34-7.26-.31-10.83,0-2.11.15-4.23.21-6.34.07-2.38.66-3,3-3.29,4.25-.49,8.49-1,12.74-1.48,1-.11,1.31-.45,1.31-1.49,0-4.51,0-9,.08-13.54.1-3.72,1.69-5.27,5.44-5.38s7.51-.08,11.26-.11c.24,0,.47,0,.69-.05.59-2.51,1.1-2.92,3.71-2.9,4,0,7.92,0,11.87.09.91,0,1.23-.28,1.39-1.16,1.93-10.57,4.41-21,7.35-31.35,1.45-5.07,4.35-9.19,7.73-13.08q15.22-17.5,30.42-35c10.46-12.12,19.74-25.13,28.82-38.29,3.38-4.9,6.85-9.74,10.31-14.58A5.83,5.83,0,0,0,225.13,40a16.41,16.41,0,0,1,.26-4c2.4,0,4.57-.19,6.75.77C236,38.49,240,40,244,41.54a3.39,3.39,0,0,1,2.37,3.11c1.14,10.76,2.33,21.52,3.49,32.29q1.62,15,3.22,30t3.28,30.15q.87,8.16,1.7,16.33a5.09,5.09,0,0,1-.1,2.24,12.72,12.72,0,0,0-.32,7q2.89,17,5.64,34a30.3,30.3,0,0,1,0,4.77c.45,0,1.21.05,2,.16,1.54.23,2.11.93,2.2,2.49.12,2.35.16,4.72.45,7.05.48,3.93,3,6.95,7.27,6.7a13.48,13.48,0,0,1,3.22.27c4.1.76,6.31,3.38,6.24,7.93-.09,5.47-.44,10.94-.78,16.4a43.72,43.72,0,0,1-3.34,14.76,5.85,5.85,0,0,0-.31,1,1,1,0,0,0,0,.33h88.1l.23.32c-.25.23-.46.55-.76.66a3.47,3.47,0,0,1-1.07,0H269v-2.91l-.25-.05c-.23.75-.42,1.52-.72,2.24-.13.3-.49.69-.75.69-3.43.05-6.86,0-10.45,0v-6.35l-1.9,1.36a8.28,8.28,0,0,1-1.65-5.56c.27-5.23-1.37-10-3.28-14.72-1-2.51-1.85-5.1-2.68-7.68a4.52,4.52,0,0,1,.54-3.78,21.68,21.68,0,0,0,2.72-13.76c-.86-7-2-13.9-3.07-20.85Q245,172,242.53,155.75q-2.24-14.75-4.46-29.5l-4.65-30.8q-1.48-9.76-2.95-19.54c-.05-.31-.15-.6-.27-1.1-1,1.21-1.91,2.3-2.81,3.41q-30.22,36.93-60.47,73.83A34.44,34.44,0,0,0,160,167.51a98.45,98.45,0,0,0-1.72,17.38c-.14,5.67-.26,11.34-.39,17.16.88.08,1.77.17,2.67.24,3.61.27,5.44,2,5.89,5.57a11.44,11.44,0,0,0,.24,1.3c.65,2.63,2.09,3.65,4.79,3.4s4.5.89,5.3,3.67-.14,5.58-2.61,6.6a14.55,14.55,0,0,1-4.75,1c-3.51.17-7,.1-10.55.13H157.4v3.48c.71,0,1.42,0,2.12,0,4.39-.07,8.79-.23,13.18-.21,5.68,0,11.16,1.35,16.63,2.73,1,.26,2,.58,3,.78,4.77.91,6.88,4.29,7.93,8.58a12.31,12.31,0,0,1-.2,6.4,7.88,7.88,0,0,1-7.55,5.76h-1c-13.47,0-26.94.08-40.42.05a10.93,10.93,0,0,0-5.48,1.43c-3.93,2.18-8.17,2.14-12.46,2.14-10.94,0-21.76-1.41-32.6-2.63-2.62-.29-5.24-.57-7.87-.79a10,10,0,0,1-9-10.59c.29-3.57,1.22-6.82,3.91-9.39,2-1.94,4.65-2.42,7.19-3,5.77-1.36,11.64-1.44,17.52-1.34,3.91.07,7.83,0,11.71,0-.2-2-1.3-3-3.47-3q-19.06.07-38.13.21l-10.2.06-38.73.24q-16.18.1-32.37.22C.67,225.11-.23,225.45.05,224.15ZM230.59,72.66a21.71,21.71,0,0,1,.83,2.77q2.45,15.87,4.83,31.74c2.44,16.19,4.84,32.39,7.3,48.57,2.56,16.82,5.22,33.62,7.75,50.44.93,6.18.44,12.19-2.8,17.76a3,3,0,0,0-.29,2.05,48.68,48.68,0,0,0,2,6.37c2.46,5.74,4.39,11.56,4.09,17.93a10.6,10.6,0,0,0,.71,2.91l2.82-2v7.5h.91c.26,0,.51-.05.78-.08-1.38-4.76-.68-7,2.17-6.85-.45,2.27-.9,4.54-1.37,6.93,2.13,0,4.16,0,6.19,0,.24,0,.58-.46.67-.77.47-1.48.87-3,1.32-4.55l1.37.15v5.2c2.93,0,5.76,0,8.59,0a.88.88,0,0,0,.67-.48c.94-2.8,2.2-5.56,2.64-8.44.81-5.15,1.2-10.38,1.59-15.59a72.71,72.71,0,0,0,.13-9.1c-.16-3.28-1.9-5.11-5.11-5.73a24.06,24.06,0,0,0-3.8-.33,6.93,6.93,0,0,1-6.67-4.25,14.53,14.53,0,0,1-1.11-4c-.26-2-.27-4-.35-6-.07-1.7-.32-2-2-2.1l-5.55-.43c-1.42-11.92-2.83-23.73-4.25-35.62a2,2,0,0,1,1.79,1.89c1,6,2.05,12,3,17.95.72,4.37,1.35,8.75,2.05,13.12a3.89,3.89,0,0,0,.41.94l.42-.08a19.73,19.73,0,0,0,0-3.17c-1.84-11.35-3.76-22.69-5.61-34-.32-2-1-3.93-.24-5.9a11.34,11.34,0,0,0,.39-5.77c-.06-.48-.13-.95-.18-1.43q-1.39-13-2.77-26-1.37-12.75-2.75-25.5t-2.75-25.49c-1-9.26-2-18.51-3-27.77a3.2,3.2,0,0,0-2.29-3.08c-4-1.48-7.85-3.12-11.81-4.62a11,11,0,0,0-3.22-.65c-1.89-.11-2.07.14-2.1,2a3.32,3.32,0,0,0,.11.83A6.2,6.2,0,0,1,225,45.2c-3.05,4.25-6.09,8.51-9.08,12.8-8.17,11.75-16.19,23.61-25.47,34.53C179,106,167.3,119.36,155.73,132.76c-3.15,3.64-6.31,7.32-7.57,12.08-2.24,8.44-4.32,16.93-6.38,25.42-.71,2.94-1.18,5.93-1.76,8.9-.32,0-.52.05-.71.05-4,0-8.08,0-12.11-.08-3.22-.1-3.49,0-3.55,3-2.89,0-5.8,0-8.7,0-2,0-3.91.07-5.86.26a2.9,2.9,0,0,0-2.82,2.78c-.18,2-.24,4.06-.26,6.09,0,3.63,0,7.26,0,10.9-.28.07-.43.12-.58.14-5,.62-9.9,1.26-14.86,1.85-1,.12-1.57.53-1.6,1.56-.15,5-.34,10.06-.44,15.1,0,1.82.62,2.42,2.43,2.57.39,0,.79,0,1.19,0l28,0c3.46,0,5.25,1.75,5.37,5-4.39,0-8.78.05-13.17,0-6.89-.09-13.74.1-20.4,2.17A9.09,9.09,0,0,0,87.1,234,12.68,12.68,0,0,0,85,239.62a9.3,9.3,0,0,0,9,11.21c4,.09,7.94.81,11.91,1.25l6.28.68c-1.3-2.11-3.1-4,.05-5.72l.56.46c1.53,1.21,1.57,1.49.56,3.16-.38.63-.74,1.28-1.17,2a6.17,6.17,0,0,0,.82.21c6.78.42,13.55.88,20.33,1.23,4.18.22,8.33,0,12.09-2.16,2.43-1.4,5.08-1.42,7.78-1.42,12.92,0,25.83,0,38.74,0h.48a6.92,6.92,0,0,0,6.7-5,11.64,11.64,0,0,0-.58-8.31c-1.28-2.82-3.22-4.87-6.49-5.44-2.36-.41-4.65-1.15-7-1.7a56,56,0,0,0-16.62-1.62c-4,.26-8,0-12,0V223c3.73,0,7.37.08,11,0a33.28,33.28,0,0,0,5.78-.76,3.7,3.7,0,0,0,2.69-2.67,4.36,4.36,0,0,0-4.46-5.93c-3.36.16-5-1.14-5.76-4.43-.18-.82-.28-1.66-.47-2.47a4,4,0,0,0-3.4-3.15c-.89-.17-1.82-.21-2.73-.3l-2.16-.21c.13-6.11.23-12.06.39-18A102.11,102.11,0,0,1,159,167.13c1.18-5.7,3.17-11,6.94-15.57q27.48-33.45,54.85-67C224,80.71,227.16,76.85,230.59,72.66Zm30.35,128.62q-1.43-8.52-2.85-17l-.28,0,2,17Zm-148.8,49.25c.35-.75,1.43-1.44,0-2.11C111,249.12,111.37,249.79,112.14,250.53Z"/><path d="M254.76,209.13l-1.95.26c-.3-2-.62-3.93-.91-5.89l-4.44-29.37L243,144.77l-4.47-29.49L233.9,84.49l-5-32.68c-.66-4.3-1.32-8.6-1.93-12.91a1.45,1.45,0,0,1,.54-1.11c.39-.31.84-.64,1.46-.11,2.55,2.19,5.19,4.26,7.71,6.48a3.5,3.5,0,0,1,1,2.07c.77,6.83,1.46,13.66,2.16,20.49q1.17,11.39,2.32,22.77,1.24,12.21,2.49,24.43c.83,8.15,1.69,16.29,2.53,24.43s1.66,16.05,2.5,24.08,1.71,16.28,2.54,24.43c.61,5.88,1.16,11.76,1.78,17.64C254.21,206,254.5,207.49,254.76,209.13Zm-2.82-12.21.26,0c-.06-.73-.09-1.46-.16-2.18q-1.15-11.26-2.32-22.53Q248.37,159.08,247,146q-1.26-12.1-2.52-24.2-1.16-11.08-2.26-22.17-1.4-13.65-2.8-27.3c-.88-8.58-1.73-17.17-2.67-25.75a3.23,3.23,0,0,0-1-1.89c-2.15-1.91-4.4-3.71-6.61-5.54a12.84,12.84,0,0,0-1.13-.7C236,91.47,244,144.2,251.94,196.92Z"/><path d="M149.45,207.51h-6c0-1.36,0-2.67,0-4-.05-3.83,0-7.67-.21-11.5-.25-5.47,1.43-10.46,3.44-15.41q4.38-10.76,8.66-21.55a41.06,41.06,0,0,1,6.5-10.57q32.55-40.66,65.13-81.33c.65-.8,1.33-1.58,2.24-2.65.47,3.36,1,6.41,1.25,9.48A5,5,0,0,1,229,72.82c-4.26,5.3-8.57,10.55-12.87,15.8q-26.86,32.79-53.75,65.56c-2.2,2.68-2.88,5.9-3.57,9.15q-3.54,16.88-7.11,33.75c-.67,3.16-1.36,6.32-2.05,9.48C149.63,206.87,149.54,207.17,149.45,207.51ZM228.53,62.89l-1.09,1.31q-16,20-32.09,40-16.56,20.67-33.11,41.38a38,38,0,0,0-5.87,9.56q-4.49,11.23-9,22.43c-1.82,4.51-3.32,9.06-3.16,14,.13,4.07.15,8.15.21,12.22,0,.86,0,1.73,0,2.62h4.22c.08-.32.15-.55.2-.78q4.51-21.25,9-42.52c.72-3.41,1.43-6.79,3.74-9.6q25.17-30.67,50.31-61.38,8.18-10,16.3-20A4.14,4.14,0,0,0,229.37,70C229.27,67.71,228.86,65.48,228.53,62.89Z"/><path d="M238.76,45.08l5.4-.9c.34,2.94.69,5.83,1,8.71Q246.81,68,248.44,83q1.4,12.8,2.74,25.61,1.51,14.17,3,28.35c.59,5.64,1.15,11.29,1.75,16.93a3.9,3.9,0,0,1-1.29,3.45,5.24,5.24,0,0,0-1.66,5c1.45,11.61,2.79,23.23,4.21,34.84.32,2.59.69,5.15-.3,7.67-1.78.11-1.73.1-1.91-1.66-.75-7.47-1.54-14.94-2.3-22.41s-1.5-14.7-2.26-22.05-1.52-14.78-2.28-22.16q-1.26-12.23-2.51-24.44t-2.54-24.67q-1.26-12.15-2.5-24.31Zm13,116.15a6.78,6.78,0,0,1,2.16-4.61,3.59,3.59,0,0,0,1-2.42c-.37-4.74-.91-9.46-1.41-14.19q-1.48-14.17-3-28.36-1.49-13.94-3-27.88-1.63-15.19-3.3-30.37c-.29-2.65-.62-5.3-.94-8l-3.38.57Q245.81,103.66,251.73,161.23Zm1.05,7.51-.27,0q1.76,17.17,3.52,34.35h.35a16.06,16.06,0,0,0,.15-2.67q-1.21-10.89-2.52-21.76C253.62,175.38,253.19,172.06,252.78,168.74Z"/><path d="M143.1,179.72c-1.44,0-1.88-.52-1.64-1.79,1.41-7.25,2.84-14.5,4.22-21.75,1.77-9.28,6.15-17.26,12.22-24.35,9.77-11.41,19.67-22.71,29.51-34.07,10.05-11.59,20.13-23.16,30.1-34.83,2.49-2.91,5.72-4.67,8.81-6.72a1.56,1.56,0,0,1,2.25.27.86.86,0,0,1,.25.71,12.64,12.64,0,0,1-1.45,3.6q-22.06,27.74-44.24,55.36c-8.29,10.37-16.62,20.69-24.77,31.16a31.72,31.72,0,0,0-3.83,7.27c-3.27,7.8-6.39,15.66-9.57,23.49A2.23,2.23,0,0,1,143.1,179.72Zm-.7-1.25.28.28a4.69,4.69,0,0,0,1-.62,2.75,2.75,0,0,0,.48-.95c3.25-8,6.6-16,9.71-24.08,1.6-4.18,4.39-7.48,7.11-10.87l52-65.1L226.5,60.28a4.25,4.25,0,0,0,1-3.53c-3.17,2-6.37,3.54-8.76,6.32-7.51,8.77-15.1,17.47-22.66,26.2q-18.62,21.47-37.19,43c-5.6,6.49-9.92,13.74-11.79,22.2-1.38,6.27-2.47,12.61-3.7,18.92C143.11,175.06,142.75,176.76,142.4,178.47Z"/><path d="M92.52,243.42,86.26,243a10.24,10.24,0,0,1,3-9.78,4,4,0,0,1,3.6-.87c8,1.28,15.91,2.59,23.87,3.85,2.92.46,5.86.76,8.77,1.25,2.73.45,3.71,2,3.34,5.07a4,4,0,0,1-4.52,3.74c-4.42-.34-8.83-.73-13.25-1.12q-8.88-.78-17.77-1.59a5.75,5.75,0,0,1-.8-.18c1-.6,2.1-1.13,3.08-1.81a4.88,4.88,0,0,0,2-3.35c-.63.54-1,.84-1.35,1.15s-.68.67-1,1c-1.28,1.12-2.21,1.06-3.37-.23-1.32-1.46-1.56-3.26-.58-4.32s2.72-1,4.31.31l1.79,1.44a3.62,3.62,0,0,0-2.62-3.4,3.84,3.84,0,0,0-4.23,1.19,3.24,3.24,0,0,0-.52,3.89A46.8,46.8,0,0,0,92.52,243.42Zm3.38-.65.75.08,18,1.61c3.22.28,6.44.57,9.67.79,1.9.13,2.83-.57,3.32-2.24.78-2.7-.1-4.13-2.85-4.63l-.71-.11-20-3.05c-2.32-.36-4.62-.74-7-1.13C99.34,237.94,99.12,239.65,95.9,242.77Zm.35-4.73A24.41,24.41,0,0,0,94,236.38a1.47,1.47,0,0,0-2.13.32c-.55.75-.06,2.1,1,3.05.87.8,1.33.09,1.88-.4S95.66,238.56,96.25,238Zm-6.86-3.28a8.5,8.5,0,0,0-2.21,7.34h3C88.85,239.72,87.67,237.38,89.39,234.76Z"/><path d="M113.27,183.59h10.06v38.34h-7.56c-.21-2.08-.29-4.11-.67-6.09-.42-2.23-1.11-4.4-1.68-6.6a4.69,4.69,0,0,1-.19-1.17c0-7.95,0-15.9,0-23.85C113.22,184,113.25,183.84,113.27,183.59Zm9,37.37V184.6h-8c0,.29,0,.52,0,.75,0,7.47,0,14.94,0,22.41a6.19,6.19,0,0,0,.27,1.4c.65,2.87,1.36,5.74,2,8.62a23.92,23.92,0,0,1,.22,3.18Z"/><path d="M124.86,180.7H142v26.54H124.86Zm1,25.54H141V181.72H125.89Z"/><path d="M257.64,219.68c2.31,0,4.41,0,6.51,0,3.71.08,7.43.15,11.14.36a16.81,16.81,0,0,1,4.19.87,4.07,4.07,0,0,1,2.9,4.22c-.19,6.42-.43,12.84-.65,19.3H260.92c.32-2.32.75-4.56.89-6.82a66.66,66.66,0,0,0,.09-8.48,15,15,0,0,0-3-7.72C258.54,220.91,258.17,220.4,257.64,219.68Zm22.91,23.78c.07-.17.13-.24.13-.31.24-5.91.5-11.81.7-17.72a3.36,3.36,0,0,0-2.71-3.71A15.29,15.29,0,0,0,275,221c-4.75-.16-9.5-.22-14.26-.31a6.2,6.2,0,0,0-.7.07c.81,2,1.75,3.82,2.35,5.78,1.17,3.82.87,7.74.38,11.65-.22,1.72-.45,3.44-.68,5.24Z"/><path d="M150,242.3c-.39-2.43-.76-4.75-1.16-7.27h27.64a4.37,4.37,0,0,1,4.59,4.37,2.55,2.55,0,0,1-2,2.77,5.69,5.69,0,0,1-1.42.17H150.92C150.64,242.35,150.37,242.32,150,242.3Zm.89-1c.31,0,.46.06.62.06h26a6.37,6.37,0,0,0,1.06-.12,1.54,1.54,0,0,0,1.41-1.86,3.28,3.28,0,0,0-3.4-3.28c-2,0-4.07,0-6.11,0H150C150.33,237.91,150.59,239.56,150.87,241.29Z"/><path d="M90,222.13v-16.8c2.44-.3,4.85-.6,7.26-.87,2.65-.3,5.32-.55,8-.89a3.2,3.2,0,0,1,3.16,1.24c.57.72,1.12,1.47,1.75,2.13a15.54,15.54,0,0,1,4.29,11.56c0,1.19,0,2.38,0,3.63Zm23.38-1c0-.93,0-1.8,0-2.67a14.38,14.38,0,0,0-3.93-10.72,26,26,0,0,1-1.84-2.21,2.18,2.18,0,0,0-2.18-.92c-1.82.23-3.66.37-5.48.58-3,.33-5.93.69-8.92,1v14.9Z"/><path d="M256,251.45a28.66,28.66,0,0,1-.53-3.51c-.08-4.76-1.52-9.18-3.21-13.55-.77-2-1.55-3.93-2.41-5.86a6.46,6.46,0,0,1,.21-5.87c.21-.43.41-.86.63-1.29.88-1.69,1.57-2,3.47-1.42,3.67,1.08,5.48,3.77,6.3,7.3,1.1,4.74.62,9.45-.31,14.14-.4,2-1,3.94-1.41,5.93A7.22,7.22,0,0,1,256,251.45Zm.67-2.32.18.12a8.23,8.23,0,0,0,.69-1.59c.82-3.89,1.78-7.78,2.35-11.71a21.08,21.08,0,0,0-.84-9.83,7.45,7.45,0,0,0-5.43-5.23c-.49-.12-1.39,0-1.58.28-1.43,2.32-2.31,4.61-1.08,7.52a131.19,131.19,0,0,1,4.77,13.51A42.81,42.81,0,0,1,256.71,249.13Z"/><path d="M141.79,221.86H124.58v-13h17.21Zm-1-12H125.57v10.94H140.8Z"/><path d="M144.62,230.49c-.06,1.11.38,2.07-1.15,2.18-8.59.63-17.17,1.33-25.76,2-.24,0-.48,0-.82,0l-.14-1.43c1.56-.23,3.08-.48,4.59-.68,5.89-.81,11.77-1.67,17.67-2.34A35,35,0,0,1,144.62,230.49Zm-14.08,1.81,0,.33,12-.94,0-.37C138.46,230.79,134.54,232,130.54,232.3Z"/><path d="M148.77,223.42v5.24a4.58,4.58,0,0,1-.77.13c-5.91,0-11.82-.09-17.73,0a4.06,4.06,0,0,1-4.34-3c-.25-.74-.53-1.47-.84-2.31Zm-22.12,1c.7,2.72,1.31,3.29,3.87,3.31,5.54,0,11.09,0,16.63,0a3.75,3.75,0,0,0,.57-.09V224.4Z"/><path d="M156.58,221.59v-7.08c.31,0,.61-.1.91-.11,4.55,0,9.11,0,13.66,0,2.72,0,4.09,1.66,3.72,4.36a3,3,0,0,1-3,2.79C166.86,221.62,161.79,221.59,156.58,221.59Zm1-1.05c4.84,0,9.55,0,14.26,0a1.87,1.87,0,0,0,1.84-1.45c.7-2.09-.34-3.6-2.57-3.62-4.32,0-8.63,0-13,0a3.29,3.29,0,0,0-.58.09Z"/><path d="M269.37,218.33h-17c.63-3,1.09-5.92,2.69-8.54.84-1.39,1.57-2.86,2.33-4.31a3.28,3.28,0,0,1,3.81-2,22.68,22.68,0,0,0,2.85.25c.86,0,1.3.21,1.32,1.2.05,2.07.19,4.14.34,6.21a9.18,9.18,0,0,0,3.43,6.73,1.43,1.43,0,0,1,.23.26S269.38,218.23,269.37,218.33Zm-16-1h13.77c-3.23-3.74-2.25-8.26-2.8-12.42-1.09-.11-2.09-.16-3.07-.32-1.54-.26-2.17,0-2.91,1.4-.83,1.54-1.79,3-2.48,4.63C254.93,212.75,254.21,215,253.34,217.32Z"/><path d="M281.3,246l-.36,4.28H259.1c.42-1.46.83-2.89,1.22-4.28Zm-1.09.93H263.09c-2.08,0-2.09,0-2.53,2a1.13,1.13,0,0,0,0,.29H280C280.06,248.49,280.13,247.78,280.21,247Z"/><path d="M226.09,45.36c1.33,1.5,1.35,3.36,1.76,5.07a4.41,4.41,0,0,1-2.43,5.29c-2.65,1.48-5.31,2.93-7.39,5.23a35.33,35.33,0,0,1-3.31,3.28A21.88,21.88,0,0,1,212,66l-.28-.34Zm0,1.78c-3.33,4.69-6.42,9.06-9.52,13.44,1.39-1,2.55-2.16,3.87-3.11s2.8-1.69,4.21-2.52c.3-.19.59-.41.89-.61a2.84,2.84,0,0,0,1.37-3.08C226.71,50,226.43,48.77,226.11,47.14Z"/><path d="M147.74,247.44a5.37,5.37,0,0,1-4.31,1.55c-5.47-.05-10.94,0-16.53,0l-.34-2a16.22,16.22,0,0,1,7.17-1.37c3.92,0,7.83,0,11.74,0C147.72,245.6,147.2,245.33,147.74,247.44Zm-20,.09,0,.32a2.64,2.64,0,0,0,.52.13c5.5,0,11,0,16.5-.11a5.24,5.24,0,0,0,1.78-.78l-.11-.36a2.1,2.1,0,0,0-.42-.09c-5,0-10,0-15,.07A16.3,16.3,0,0,0,127.78,247.53Z"/><path d="M112,183.45v23.42c-3-2.41-5-5.06-4.83-9.05.17-3.58.07-7.17.09-10.76a10,10,0,0,1,.09-1.55,2.13,2.13,0,0,1,2.35-2C110.41,183.43,111.16,183.45,112,183.45Zm-1,1.16c-2.29-.32-2.72,0-2.75,2.13q-.06,5.91-.07,11.82A7.06,7.06,0,0,0,111,204.3Z"/><path d="M122.46,252.85c-.37-2.55.27-3.31,2.73-3.3l17.48,0c1.68,0,1.68,0,2,1.77a7.93,7.93,0,0,1-4.73,1.58c-5.46-.09-10.93,0-16.4,0C123.14,252.9,122.79,252.87,122.46,252.85Zm1-1a4.88,4.88,0,0,0,.72.09c5.55,0,11.11,0,16.66,0a9.16,9.16,0,0,0,2.58-.84l-.09-.39H129.19c-1.48,0-3-.06-4.43-.07C124,250.55,123.34,250.78,123.43,251.82Z"/><path d="M176.52,229.61c.41,1.2,0,1.6-1.14,1.75-7.4.95-14.78,2-22.3,3l-.34-1.61c2.65-.46,5.21-.83,7.74-1.34,2.77-.57,5.51-1.28,8.27-1.88a9,9,0,0,1,2.14-.17C172.75,229.42,174.62,229.52,176.52,229.61Zm-4.23,1.1c-2-.56-6.55.13-8.33,1.15Z"/><path d="M147.61,235.07c-.25,1.18-.91,1.55-2.17,1.56-5.46.08-10.92.31-16.38.48-.84,0-1.67,0-2.64,0l-.16-1.93c1.7-.16,3.31-.33,4.93-.46q6.19-.5,12.4-1C145.63,233.6,145.63,233.61,147.61,235.07Zm-1.51.37.08-.27a7.35,7.35,0,0,0-1.91-.41c-2,.08-4.06.27-6.09.43l-9,.75v.21Z"/><path d="M130.07,242l10.56-.2c2,0,4.06,0,6.09-.09a1.75,1.75,0,0,1,2,1.17,3.42,3.42,0,0,1-3.66,2c-4.38-.25-8.77-.23-13.15-.34C130,244.46,129.69,244,130.07,242Zm17.5,1H131.12l0,.31a3.13,3.13,0,0,0,.77.2c4.75.12,9.49.24,14.24.3C146.53,243.79,147,243.34,147.57,243Z"/><path d="M128.87,238.22l15-.47a3.36,3.36,0,0,0,.71,0,3.65,3.65,0,0,1,4.43,2.08,42.83,42.83,0,0,1-4.34.76,48.26,48.26,0,0,1-12.76-.41A3.65,3.65,0,0,1,128.87,238.22Zm4.73,1A37.6,37.6,0,0,0,147,239C142.51,238.59,138.06,239,133.6,239.25Z"/><path d="M179.94,242.07h3.51c3.72,0,7.43.07,11.15,0a6.86,6.86,0,0,1,4.07,1.3c-1.36,1.59-3.17,1.8-5.09,1.78-3.67,0-7.35,0-11,0a2.08,2.08,0,0,1-1.3-.75A17.06,17.06,0,0,1,179.94,242.07Zm16.71,1.62-.06-.58c-4.88-.08-9.77-.05-14.7.24a2,2,0,0,0,1.28.7q6.06,0,12.11,0A6.31,6.31,0,0,0,196.65,243.69Z"/><path d="M104.52,233.82c6.91-5.11,14.6-4.3,22.34-3.08Zm5.87-2.2.15.33,6.85-.94,0-.37Z"/><path d="M143.26,221.82V209.06h5.83v12.76Zm4.78-1V210.08h-3.76V220.8Z"/><path d="M198,246.61a10.57,10.57,0,0,1-6.81,2.92c-1.27.07-2.55,0-3.83,0-1.75,0-3.51.07-5.25,0a1.65,1.65,0,0,1-1.12-.73c-.12-.18.13-.73.35-1a3.13,3.13,0,0,1,2.74-1.17c4.19,0,8.38,0,12.58-.06C197.08,246.55,197.46,246.58,198,246.61Zm-3.85,1c-3.51,0-7,0-10.53,0a3.55,3.55,0,0,0-1.19.45l.09.34C186.43,248,190.39,249.4,194.18,247.63Z"/><path d="M155.66,184.49v18.57h-4c1.3-6.25,2.58-12.42,3.86-18.59Zm-1,9.8-.15,0c-.52,2.56-1.05,5.12-1.58,7.75h1.73Z"/><path d="M198.32,239.54c-.15,1.07-.72,1.43-1.85,1.4-3.79-.09-7.59-.12-11.39,0a3.44,3.44,0,0,1-3.24-1.62c.29-1,.95-1.35,2-1.32,3.56.07,7.12.1,10.67,0A4.06,4.06,0,0,1,198.32,239.54Zm-1.53.29.13-.36a7.15,7.15,0,0,0-1.65-.42c-3.23-.05-6.45-.05-9.68-.06h-2.31l-.09.38a4.16,4.16,0,0,0,1.18.44C188.51,239.84,192.65,239.83,196.79,239.83Z"/><path d="M156.88,204.59c1.31-.07,2.57-.2,3.83-.18a3.18,3.18,0,0,1,3.11,2.22c.7,2.09,1.19,4.25,1.81,6.56h-8.75Zm1,1.1v6.46h6.38c-.26-1.25-.45-2.39-.74-3.49C162.67,205.58,161,204.72,157.87,205.69Z"/><path d="M196.13,236.63H182c-.27,0-.54,0-.83,0v-1.82c3.94-.21,7.79-.43,11.64-.59a8.3,8.3,0,0,1,2.24.35C196.47,234.86,196.54,235,196.13,236.63Zm-1.69-1v-.25h-7.13v.25Z"/><path d="M189.57,233.19c-5,.27-9.61.53-14.23.74-.37,0-.76-.3-1.13-.46.34-.23.66-.6,1-.66,2.78-.5,5.56-1.05,8.36-1.34C185.62,231.26,187.49,232.07,189.57,233.19Z"/><path d="M155.39,213.13h-5.08c.21-2.45.36-4.83.63-7.19a1.69,1.69,0,0,1,1.93-1.57c.83,0,1.65.15,2.52.23Zm-4-1h3c0-1.93,0-3.8,0-5.67,0-.59-.08-1-.81-1s-1.58-.25-1.7.8C151.72,208.14,151.59,210.08,151.42,212.09Z"/><path d="M150.44,214.59l4.63-.32c0,2.4,0,4.73,0,7,0,.21-.53.55-.83.57-1.22.06-2.45,0-3.76,0Zm1,6.43,2.51-.18v-5.43l-2.51.13Z"/><path d="M86.62,244.16l7.93.68v4.33C91.08,250.07,87.88,248.1,86.62,244.16Zm6.89,1.62-5.08-.42a4.74,4.74,0,0,0,5.08,2.92Z"/><path d="M154.88,228.52l-4.5.23v-5.54h4.5Zm-3.49-4.32v3.49a19.12,19.12,0,0,0,1.94-.13.89.89,0,0,0,.6-.53c.06-.93,0-1.87,0-2.83Z"/><path d="M155.54,229.84c-.22.48-.3,1-.48,1a54.7,54.7,0,0,1-7,1.22c-1.89.13-1.9-.11-1.65-2.14a5.22,5.22,0,0,1,.57-.07Z"/><path d="M104.47,229.29l.32,1.75-7.06,1.45-.37-2Z"/><path d="M278.08,251.68c1.91,2.19-.05,4.29,0,6.39-1.29.35-1.67-.11-1.58-1.23a14,14,0,0,0,0-2.51A2.29,2.29,0,0,1,278.08,251.68Z"/><path d="M173.84,245.57c-.85.78-1.56,1.48-2.33,2.11s-1.43,1-2.21.15c-.64-.66-1.35-1.33-.81-2.39a2,2,0,0,1,2.51-1.09C171.93,244.69,172.82,245.13,173.84,245.57Zm-2.06.3c-.94-.57-1.79-1-2.4.3C170.2,247.54,170.41,247.52,171.78,245.87Z"/><path d="M160.09,246c2-2.37,2.24-2.38,5.44-.14-.54.56-1.05,1.16-1.62,1.69-1.19,1.08-1.66,1-2.72-.21C160.83,246.94,160.48,246.5,160.09,246Zm1.45,0,1,1.35,1.43-1.27C163.06,245.53,162.35,244.67,161.54,246.05Z"/><path d="M176,246c2.57-2.3,2.85-2.29,5.61,0a19.81,19.81,0,0,1-2.05,1.95,1.38,1.38,0,0,1-1.31,0A24.16,24.16,0,0,1,176,246Zm4,.11c-.88-.57-1.58-1.44-2.3-.09l1.14,1.26Z"/><path d="M153.88,243.24l2.83,2.61-2.78,2.7C151.66,246.51,151.66,246.22,153.88,243.24Zm.21,1.64c-1.08,1.33-1.08,1.37,0,2.15l1.12-1.17Z"/><path d="M119.56,252.11c-2.12-2.25-2.12-2.56-.1-5.48.61.7,1.21,1.37,1.79,2.07a1.3,1.3,0,0,1-.1,1.84C120.68,251.08,120.13,251.55,119.56,252.11Zm0-3.58c-.86,1.14-.86,1.16.11,1.92C120.74,249.53,120.74,249.52,119.59,248.53Z"/><path d="M97.41,245l2.88,2.41c-1.86,2-2.86,2.37-3.77,1.49C95.35,247.74,95.5,247,97.41,245Zm1.33,2.45-1.2-1c-1.05.67-.56,1.22,0,1.83Z"/><path d="M105.15,245.65c2.33,2.37,2.29,2.74-.51,5.25C102.82,247.89,102.87,247.31,105.15,245.65Zm-.56,3.3.68.09a9.12,9.12,0,0,0,.26-1.46c0-.08-.53-.18-.82-.27Z"/></g></svg>