<svg xmlns="http://www.w3.org/2000/svg" viewBox="0 0 368.61 355.7"><g id="OBJECTS"><path d="M0,214.64c6.07,8,14.18,12.82,23.83,15.21a27.09,27.09,0,0,0,10.58.79c11.33-1.72,22.77-1.2,34.15-1.87,9.25-.54,18.51-.87,27.76-1.31a3.53,3.53,0,0,0,1.46-.5c-3.1-1.5-4.59-4.21-5.93-7a19.49,19.49,0,0,1-.88-2.23c-.51-1.49-1.27-3,0-4.66-2.11-.19-4-.48-5.89-.52-2.86-.07-4.79-1.59-6.3-3.79-1.38-2-.68-3.42,1.73-3.66l.59-.07.38-3.38c-2.85-.45-3-.82-3.44-3.69-.72-4.83.06-9.54.73-14.29.32-2.24.52-4.52.66-6.79A5.47,5.47,0,0,1,82,172a4,4,0,0,0,1.15-1.33c.6-.95,1.1-1.95,1.68-2.9.35-.59.66-1.05.14-1.8-.22-.31.13-1.23.47-1.67A15.31,15.31,0,0,1,95,158.78c5.42-1,10.87-1.78,16.3-2.67,3.71-.6,7.4-1.25,11.11-1.82a2.77,2.77,0,0,0,2.47-2.09,4.86,4.86,0,0,1,4.66-3.71c3.4-.09,5.95-1.64,8.47-3.66,4.76-3.83,9.57-7.61,14.5-11.21A35,35,0,0,1,171,127.05c7.29-.55,14.56-1.36,21.84-1.92,6.45-.49,12.92-.79,19.37-1.18,2.36-.15,4.71-.46,7.06-.42,7.62.11,15.25.17,22.86.58,6.73.37,13.46,1,20.15,1.84a55.71,55.71,0,0,1,16.07,4.55,45.7,45.7,0,0,1,7,4.47,9.57,9.57,0,0,1,1.89,2.15q4.8,6.36,9.56,12.73c1.29,1.73,2.56,3.48,3.87,5.19a9.35,9.35,0,0,1,2,5.65c.13,6.11.38,12.22.41,18.33a105.1,105.1,0,0,0,.8,12.41,11.22,11.22,0,0,1-5.12,11.26,4.9,4.9,0,0,0-2.34,4.65c.2,4.46-1.6,8.32-3.93,12-.5.79-1,1.58-1.55,2.37,26.18.63,51.86-3.31,77.59-7.18,0,.38.08.57.08.76,0,.4,0,.8,0,1.32l-6.65.93c-9.41,1.33-18.81,2.71-28.22,4-3.4.45-6.84.67-10.27.81-9.54.4-19.08.63-28.62,1.05-4.58.2-9.15.74-13.74,1a41,41,0,0,1-6-.23,6.25,6.25,0,0,1-5.6-4.42c-.95-2.7-1.63-5.49-2.33-8.27-.47-1.9-.39-1.94-2.4-1.84l-41.53,2.06c-2.55.13-5.1.28-7.66.36-.82,0-1.17.25-1.28,1.13A30.18,30.18,0,0,1,207,229.73a5.67,5.67,0,0,1-4.36,2.12c-4.75.08-9.51.11-14.26.05a7.31,7.31,0,0,1-5.06-2.45A14.26,14.26,0,0,1,179,218.87c0-.79,0-1.59-.05-2.39,0-.07-.07-.14-.18-.36h-1.09c-10.5.16-21,.39-31.51.44-5.75,0-11.5-.22-17.25-.42-2.81-.09-3.34.18-4.18,2.81l-.33,1c-1.66,5.33-5.31,8.07-10.85,8.35-6.5.32-13,.68-19.51,1-11.69.5-23.38.92-35.07,1.42-6.71.28-13.41.64-20.11,1a85.4,85.4,0,0,1-9.3.45A41.93,41.93,0,0,1,3.36,220.67c-1.17-1.08-2.24-2.26-3.36-3.39Zm221.8-85.1c1.39-2.21,3.78-3.18,5.87-4.6-21,1-42,1.6-62.81,4.83a15.37,15.37,0,0,0,2.79.11c7.93-.45,15.86-1.14,23.79-1.32a222.05,222.05,0,0,1,30.4.94,6.86,6.86,0,0,1-.35,2.49c-4.07,7-8.22,14.06-12.35,21.08-.15.26-.27.54-.43.88h6.53a13.09,13.09,0,0,1,.66-2.34c2.6-5.34,5.16-10.71,7.91-16,2.9-5.56,7.86-7.93,14.13-7.25,10,1.08,20,2,30,3.06,4.16.42,7.7,2,10.22,5.47.6.83,1.3,1.59,2,2.44,1.75-3.69.74-6.34-2.92-7.61-2.86-1-5.75-1.94-8.68-2.7-10.67-2.77-21.58-3.46-32.55-3.31a21,21,0,0,0-10.8,2.65A17.64,17.64,0,0,1,221.8,129.54Zm-92.37,23.53a4.67,4.67,0,0,0,1,.36c1.4,0,2.8,0,4.2,0,8-.29,16-.83,24.06-.84,15.3,0,30.6.24,45.9.47a4.5,4.5,0,0,0,4.7-2.78c3.24-6.36,6.27-12.85,10.53-18.64.22-.3.37-1,.2-1.17a1.66,1.66,0,0,0-1.22-.41c-10.15.08-20.3.06-30.44.34-8.7.24-17.39.82-26.08,1.29a12.42,12.42,0,0,0-7.1,2.81c-6.55,5.09-13.24,10-19.92,15C133.54,150.72,131.59,151.74,129.43,153.07Zm89.14,33.76a1.07,1.07,0,0,0,0-.29c0-4.75.29-9.51,0-14.24a68.6,68.6,0,0,0-1.78-10c-.34-1.58-1-1.91-2.58-1.83-2.08.12-4.16.15-6.22.36-6.44.64-12.87,1.34-19.29,2-2.17.24-4.33.54-6.55.82a7.76,7.76,0,0,1-.05,2.7,7.28,7.28,0,0,1-5.67,4.81l-28.41,5a3.36,3.36,0,0,1-3.32-1.18,20,20,0,0,0-1.49-1.56,2.16,2.16,0,0,0-.8-.27,3,3,0,0,0,.13.8c.15.33.41.59.58.91a4,4,0,0,1,.54,3.54c-1.51,3.61-3,7.22-4.66,10.76a5.74,5.74,0,0,1-5.69,3.43c-7.35-.11-14.7-.15-22-.21-5.72-.06-11.43-.13-17.14-.16-3.12,0-5.06-1.58-6.14-4.43-.76-2-1.54-4-2.4-6-1.25-2.92-1.2-3.45.89-5.65-.25-.9-.55-1.77-.71-2.67-.2-1.18.17-1.63,1.35-1.76a17.11,17.11,0,0,1,2.15-.12l20.73.23c5.91.06,11.83.12,17.74.15,4,0,7.9,0,11.86,0a6.24,6.24,0,0,0,1.22-.31l-.05-.31a4.88,4.88,0,0,0-.75-.12H128.53c-6.39,0-12.78.07-19.18,0-4,0-8.06-.25-12.09-.2s-7.76.27-11.31-1.86a7.22,7.22,0,0,0-.4.69,7.34,7.34,0,0,1-2.76,3.64,4.11,4.11,0,0,0-1.51,2.34c-.85,3.69-.43,7.11,2.48,9.94a13.69,13.69,0,0,1,2.52,3.31,8.12,8.12,0,0,0,7.88,4.65c2.68,0,5.35-.18,8-.19q13,0,26,0a36.25,36.25,0,0,0,10.31-1.16c9.23-2.69,18.47-5.32,27.7-8,2.16-.62,3-.25,3.84,1.82,2.16,5.2,4.3,10.39,6.46,15.58.54,1.28,1,2.5,0,3.82-.59.76-.15,1.29.76,1.32,1.15,0,2.31,0,3.51,0,.11-.43.22-.81.3-1.19,1.13-5.31,2.1-10.65,3.4-15.91a29.77,29.77,0,0,1,8.95-15.54c5.39-4.79,12-5,17.13-.43A17.11,17.11,0,0,1,214,178C215.66,180.94,217.1,184,218.57,186.83Zm35.67,10.82c0-.42,0-.73,0-1-.17-2.39-.53-4.78-.47-7.17.14-4.7.56-9.4.77-14.11.13-3,.14-6.06.14-9.1,0-1.36-.59-1.8-1.9-1.61a14.26,14.26,0,0,1-2.14.28,37.74,37.74,0,0,1-4.64-.2,1.69,1.69,0,0,1-1.15-1.14,2,2,0,0,1,.67-1.58,4.36,4.36,0,0,1,2.19-.8c1.71-.12,3.43,0,5.15-.08.29,0,.57-.27.86-.41-.18-.26-.3-.69-.54-.76a13.37,13.37,0,0,0-3-.61c-1.67-.06-3.35.05-5,.12-4.86.23-9.72.42-14.58.75-3.06.21-6.1.82-9.18.24-.48-.09-1-.15-1.59-.24.2.71.32,1.26.5,1.78a36.24,36.24,0,0,1,1.82,13.08c-.26,8.66-.4,17.32-.58,26,0,.45,0,.9,0,1.61A15.15,15.15,0,0,0,224,201c1.66-1.73,3.68-2.16,6-2.22,6.58-.17,13.16-.47,19.74-.76C251.21,198,252.71,197.78,254.24,197.65Zm-31.79-43.5c-.4-4.46,0-5.08,4-7.09a.88.88,0,0,1,.22-.1c2.14-.59,4.25-1.51,6.42-1.69,4.74-.38,8.27,2.55,8.29,7.06a5.53,5.53,0,0,0,.7.07c11.19,0,22.37,0,33.56,0a12.44,12.44,0,0,0,8.12-3.07c1.39-1.17,1.47-2.09.26-3.39-3.31-3.56-6.67-7.09-10-10.67a4.37,4.37,0,0,0-2.78-1.44c-7.7-1.09-15.38-2.34-23.1-3.22-4.47-.51-9-.51-13.51-.59a8.53,8.53,0,0,0-8.32,5c-2.91,5.68-6,11.29-8.94,16.94-.83,1.57.2,5,1.81,6-.12-.39-.24-.73-.34-1.06-.49-1.53-.27-1.95,1.25-2.3C220.89,154.41,221.68,154.29,222.45,154.15Zm72,11.82c-3.78,1.42-5.79.74-7.65-2.34-.4-.65-.74-1.32-1.1-2-2.43-4.52-1.2-3.8-6.52-3.79-.32,0-.64.27-1,.41.27.26.48.67.8.77a18.83,18.83,0,0,1,2.86.8c.61.31,1,1.11,1.44,1.7-.56.35-1.1,1-1.68,1-1.79.11-3.59,0-5.39,0-.9,0-1.79-.4-1.71-1.27.05-.6.9-1.15,1.43-1.68a4.7,4.7,0,0,1,.84-.51c-.27-.26-.5-.66-.82-.74a7.64,7.64,0,0,0-2-.23c-.43,0-.86.17-1.3.18-3.67.13-7.34.22-11,.38-2.33.1-4.65.3-6.75.44.52,3.29,1.39,6.27,1.37,9.25-.05,7.62-.53,15.24-.79,22.86-.08,2.1,0,4.2,0,6.29,5.92-.31,11.86-1,17.69,1.24.09-.36.18-.65.24-1,.95-4.77,1.76-9.57,2.91-14.29a17.68,17.68,0,0,1,5.13-9.18,9.57,9.57,0,0,1,15.93,4.45c.49,1.72.83,3.49,1.2,5.25s.74,3.63,1.11,5.44l.41.05a5.37,5.37,0,0,0,.49-1.57c-.1-5.67-.21-11.34-.39-17a7.22,7.22,0,0,0-.65-3.33c-1.59-2.67-3.37-5.23-5.19-7.76a9.78,9.78,0,0,0-2.09-1.64l-.24.28C292.82,161,293.6,163.43,294.41,166Zm-207.69-.69a4.58,4.58,0,0,0,4.42,2.55c2.68,0,5.35-.12,8-.15,9.31-.11,18.62-.08,27.93-.32,7.58-.21,15.16-.62,22.72-1.16,5.29-.38,10.56-1.14,15.84-1.75,2.3-.26,4.62-.47,6.46-2.15a10.28,10.28,0,0,1,5.68-2.61l22.53-3.1a2.88,2.88,0,0,0,2.69-2.15h-2.66c-21.38,0-42.77-.05-64.15.1a102.38,102.38,0,0,0-14.29,1.27c-8.37,1.24-16.68,2.85-25,4.17A19,19,0,0,0,86.72,165.28Zm.42,8.15c.3.65.55,1.11.72,1.59a2.36,2.36,0,0,1-.65,2.93c-.89.63-.83,1.28-.49,2.14,1,2.37,1.86,4.75,2.77,7.14,1,2.57,2.3,3.5,5.06,3.55l6.35.08c10.59.09,21.18.16,31.76.3a5.22,5.22,0,0,0,5.38-3.54c1.25-3,2.59-5.92,3.89-8.88,1.22-2.78-.28-5.12-3.32-5.15-7.31-.06-14.62-.13-21.93-.15-9.36,0-18.71,0-28.06,0Zm98.94,33.67c1.34-.14,2.52-.31,3.7-.38a1.27,1.27,0,0,0,1.32-1.08c.7-2.46,1.35-4.93,2.19-7.33a28.83,28.83,0,0,1,2.63-6.13,6.67,6.67,0,0,1,11.15-.56,23.13,23.13,0,0,1,3.44,6.23c2,5.19,1.44,10.52.38,15.83a16.28,16.28,0,0,1-4.5,8.94c-3.19,3.06-6.64,3-9.42-.39a42.41,42.41,0,0,1-4-6.48c-1-1.85-.91-1.9-2.95-1.62l-2,.28-8.25,1.26c.93,3.4,1.58,6.74,2.78,9.87s3.84,4.8,7.35,4.73c4.43-.09,8.86-.16,13.29-.31a3.18,3.18,0,0,0,2-.8c3.92-4.3,6.84-9.19,7.47-15.08a67.42,67.42,0,0,0-1.23-20.72c-1.07-5.27-3.9-8.83-9.28-10.07-.66-.16-1.32-.33-2-.46-5-1-7.77.62-9.19,5.53-.59,2-1.14,4.07-1.68,6.12C188.25,198.63,187.19,202.79,186.08,207.1Zm68.53-7.55a27,27,0,0,0-2.79-.12c-7.38.34-14.76.69-22.14,1.09a7.2,7.2,0,0,0-5,2,3.62,3.62,0,0,1-4.2.75c-1.3-.47-1.64-1.75-1.77-3-.31-3.13-.47-6.29-1-9.4a27.85,27.85,0,0,0-6.33-14.25c-4.55-5.17-11-5.79-16.34-1.51a24.57,24.57,0,0,0-8.69,13.44c-1.14,4.48-2.1,9-3.09,13.52-.35,1.58-.58,3.18-.88,4.8a1.65,1.65,0,0,0,2.19-1.46c.25-1.13.49-2.26.81-3.37,1.65-5.87,3.21-11.77,5-17.59a11.46,11.46,0,0,1,8.9-8,25.16,25.16,0,0,1,3.67-.53c5.24-.43,9.16,1.76,11,6.24a11.72,11.72,0,0,1,1.05,3.9c.23,5.38.32,10.77.42,16.16.05,2.69,0,5.39,0,8.19l38.66-1.87C254.33,205.42,254.47,202.52,254.61,199.55Zm-79.68,7.31a2,2,0,0,0-2.21-1.12c-2.7.17-5.41.37-8.12.47q-7.23.28-14.48.47c-1.88,0-3.47-.65-4.05-2.54-.66-2.14-1.56-2.88-4.43-2.9-8.11,0-16.21-.1-24.32-.15l-26.84-.16c-1.44,0-3.24-.47-4.21.21s-1.25,2.56-1.79,3.92-.24,2.27,1.26,2.84a4.93,4.93,0,0,0,1.52.29q8,.23,15.92.41,10.95.26,21.91.47c6.07.12,12.14.27,18.21.28a5,5,0,0,0,3.06-1,5.37,5.37,0,0,1,3.91-1.37c7.71,0,15.42,0,23.13,0C173.85,207,174.3,206.92,174.93,206.86Zm9.79,6.56c2-.35,3.76-.62,5.51-1,2.48-.51,3.26.05,4.31,2.36a35.47,35.47,0,0,0,3.7,6.52c1.79,2.39,4.75,2.46,6.92.38a12.38,12.38,0,0,0,2.26-3.06c2.63-5,3.22-10.31,2.77-15.81a17,17,0,0,0-3.91-9.73c-2.66-3.19-6.08-3.2-8.77,0a15.32,15.32,0,0,0-3.23,6.47c-.5,2.06-.79,4.16-1.23,6.22-.33,1.59-.92,2.07-2.53,2.2-.87.07-1.75.1-2.62.18a2.62,2.62,0,0,0-2.64,2.18C185,211.24,184.93,212.19,184.72,213.42Zm-102.8-15,.25.18c1.26-2,3.17-2.21,5.26-2.18,11.46.17,22.93.27,34.39.38q9.17.07,18.34.07a10.47,10.47,0,0,1,8.05,3.32,4.65,4.65,0,0,0,3.75,1.53c4.22-.17,8.45-.32,12.68-.55,1.93-.1,3.85-.35,5.86-.54-.22-.56-.37-1-.54-1.37-1.12-2.73-2.32-5.43-3.35-8.19-.64-1.71-.29-2.17,1.46-2.64.32-.09.64-.21,1-.34l-1.13-2.4c-7.82,2.29-15.6,4.52-23.34,6.85-3.68,1.1-7.33,2.12-11.24,2.06-3.67-.06-7.35.16-11,.21q-15.51.21-31,.39a4.19,4.19,0,0,1-3.68-1.87c-.76-1.08-1.54-2.14-2.34-3.19-1.28-1.66-2.58-3.31-3.87-5l-.33.11Q81.54,191.82,81.92,198.39Zm94.86,14.14a29.36,29.36,0,0,1-.87-2.87c-.19-.94-.67-1.16-1.58-1.15-6.71,0-13.42,0-20.13,0a38.12,38.12,0,0,0-5,.14,9.35,9.35,0,0,0-2.52,1.2,10,10,0,0,1-2.19.94,11.22,11.22,0,0,1-2.39,0l-35.21-.69c-5.23-.11-10.46-.23-15.69-.31-3,0-5.79-.43-8.33-2.14a27.74,27.74,0,0,0-2.77-1.46c.23,2.48,1.71,4.36,3.6,4.58,2.26.26,4.52.56,6.79.68,11.24.59,22.48,1.43,33.73,1.61,15.18.23,30.36-.05,45.54-.15C172,212.92,174.34,212.67,176.78,212.53Zm-53.64,3.61-32-1.61c1.29,2.54,2.29,4.86,3.61,7a16.3,16.3,0,0,0,3.38,3.8,4.75,4.75,0,0,0,2.94,1.06c4.87-.15,9.72-.46,14.58-.78a5.73,5.73,0,0,0,4.94-3.13C121.55,220.5,122.24,218.38,123.14,216.14Zm163.7.55a11.3,11.3,0,0,0,2-.81,8.22,8.22,0,0,0,3.76-5.59c.51-2.25,1.06-4.5,1.57-6.75a2.12,2.12,0,0,0,0-1.06c-1-3.43-2-6.88-3.21-10.26a3.93,3.93,0,0,0-4.15-2.81,4.48,4.48,0,0,0-4.36,3,13.31,13.31,0,0,0-.81,3.11c-.47,3.55-1.81,7-.61,10.72.84,2.58,1.39,5.24,2.2,7.82A3.61,3.61,0,0,0,286.84,216.69Zm.49-67.54c-1.33.74-2.51,1.4-3.68,2.07a14.45,14.45,0,0,1-6.13,2.25,254.49,254.49,0,0,1-27.89.94c-4.62-.16-9.18.1-13.51,2a6.92,6.92,0,0,1-2.21.46c-2,.14-4.09.2-6.14.29l-.12.42a7.26,7.26,0,0,0,2,.68c1.72.07,3.44,0,5.15-.06,10.26-.43,20.51-1,30.77-1.28,8.74-.24,17.5-.19,26.25-.27.34,0,.68,0,1.23-.07ZM168.14,190.27l-.35.14c.68,1.64,1.37,3.28,2,4.93.56,1.4,1.17,2.8,1.59,4.25.5,1.74-.07,2.52-1.83,2.67s-3.27.22-4.9.3c-4.59.21-9.18.46-13.77.56a3.54,3.54,0,0,1-2.56-.9c-2.47-3.12-5.79-4.1-9.53-4.16-5.95-.09-11.9-.14-17.85-.21-4.67,0-9.35-.14-14-.17-7,0-13.9-.05-20.85-.07a2.24,2.24,0,0,0-2.4,1.76c-.37,1.3-.73,2.61-1,3.93a2.6,2.6,0,0,0,.17,1h.36c.33-.85.68-1.68,1-2.54.67-2,1.13-2.4,3.29-2.39,2.43,0,4.87.12,7.3.15,11.75.14,23.49.29,35.23.39,4.12,0,8.23-.09,12.35-.1a4.78,4.78,0,0,1,4.91,3.29c.74,1.83,1,2.05,3,2q9.41-.18,18.81-.4c1.53,0,3.06-.18,4.77-.29A35.72,35.72,0,0,0,168.14,190.27ZM277,196.37a2.75,2.75,0,0,0-.21.56c-.42,2.56-.87,5.11-1.21,7.68-.42,3.09-1.08,3.82-4.17,4.23-.23,0-.47,0-.71.06-2.11.18-2.13.18-1.83,2.2.5,3.37,1.2,6.7,3.35,9.47a4.14,4.14,0,0,0,2.24,1.62c3.1.41,6.23.56,9.55.83-.4-.62-.66-1.05-1-1.47a21.65,21.65,0,0,1-3.89-9.29C278.35,207,277.7,201.67,277,196.37Zm-2,2.77-.91.31a5.74,5.74,0,0,1-6-.46,3.26,3.26,0,0,0-1.94-.43c-3,.12-6.05.31-9.07.53a1,1,0,0,0-.74.65c-.2,2.37-.32,4.75-.47,7.2L257,207c4.47.28,9-.82,13.41.71a.93.93,0,0,0,.24,0c1.64.11,2.62-.45,3-2.07C274.21,203.61,274.52,201.49,275,199.14ZM171.3,164.94c1.31-.1,2.38-.19,3.45-.26,2.31-.14,4.53-.48,6.25-2.28a1.55,1.55,0,0,1,.87-.31c3.93-.48,7.84-1.05,11.78-1.38,7-.58,13.94-1,20.9-1.52a8,8,0,0,0,1.22-.27c-.18-2.74-1.36-3.74-3.94-3.56a24.07,24.07,0,0,1-4.07,0,6.8,6.8,0,0,0-4.79,1.46,4.5,4.5,0,0,1-1.92.89c-7.07,1-14.15,2-21.23,2.93A13.33,13.33,0,0,0,171.3,164.94ZM214,197.54l.42-.17c-.45-4.83-.34-9.72-1.64-14.46a7,7,0,0,0-5.25-5.09,16,16,0,0,0-11,1.11,6,6,0,0,0-2.91,2.73c1.36-.16,2.58-.34,3.8-.43,6.6-.49,13.16,2.63,15,10.63.38,1.59.7,3.2,1.07,4.79A5.53,5.53,0,0,0,214,197.54Zm11-42.48a7.88,7.88,0,0,1,4.36-1.56c2.52-.07,5,0,7.55-.07a7.1,7.1,0,0,0,1.66-.18,1.44,1.44,0,0,0,1.21-2,4.72,4.72,0,0,0-3.22-3.56c-4-1.39-7.7-.48-11.14,1.79C223.12,151.05,223,153.17,225,155.06Zm-80.27,17.81c1.12,1.37,2,2.1,3.67,1.77,4.18-.84,8.41-1.47,12.61-2.22,5.22-.93,10.44-1.87,15.65-2.87a5.14,5.14,0,0,0,4-3.25Zm150.12,27.5.44-.07c-.19-2-.24-4-.6-6-.56-3.13-1.18-6.28-2.88-9s-4.09-3.29-6.67-1.41a15.37,15.37,0,0,0-5.85,8,13.31,13.31,0,0,0,0,7.81,54.7,54.7,0,0,1,1.38-6.12,10.34,10.34,0,0,1,2.25-4,5.56,5.56,0,0,1,9.22,1.89,30.71,30.71,0,0,1,1.18,3.38C293.86,196.63,294.34,198.51,294.86,200.37ZM275.72,195c.12-.37.23-.74.35-1.1,1.45-4.34,2.83-8.71,4.4-13a7.63,7.63,0,0,1,4.59-4.62c4.37-1.67,8.91.66,10.62,5.47a23.78,23.78,0,0,1,1.25,9.43c-.05.85,0,1.71,0,2.61,1.05-.38,2.45-1.93,2.29-2.54-1.19-4.42-2.29-8.88-3.66-13.24a6.55,6.55,0,0,0-5-4.35,8.84,8.84,0,0,0-9.5,3.47C277.15,182.42,276.37,188.67,275.72,195ZM160.1,166.86l0-.32c-3.77.32-7.53.68-11.3,1-6,.46-11.94,1.13-17.92,1.24-11.31.21-22.62.08-33.93.09a2.28,2.28,0,0,0-.83,0,2.87,2.87,0,0,0-.71.56l.23.33c1.63,0,3.26,0,4.89,0,11.83.17,23.65.48,35.47.45,4,0,7.93-.83,11.88-1.38S156,167.52,160.1,166.86Zm119.4,21.23c.39-.56.62-.93.89-1.26a35.92,35.92,0,0,1,3.3-3.93,6,6,0,0,1,8.91.72,22.82,22.82,0,0,1,2,3.27c.36.66.66,1.36,1,2l.37-.11a53.66,53.66,0,0,0-1-6,6.92,6.92,0,0,0-9.35-4.91A9.91,9.91,0,0,0,279.5,188.09Zm2.67-50.86a7.34,7.34,0,0,0,1.64,5c2.93,3.88,5.84,7.79,8.75,11.68l2.48,3.31a4.1,4.1,0,0,0-.27-5c-3.81-4.8-7.68-9.57-11.54-14.33C283,137.57,282.64,137.48,282.17,137.23Zm-.58,77.59-.29.23a51.88,51.88,0,0,0,2.44,5.1,3.78,3.78,0,0,0,6.29.14,50.09,50.09,0,0,0,3.59-6.44,29.28,29.28,0,0,0,1.31-4.69l-.36-.1-.57,1.79a13.33,13.33,0,0,1-2.91,5.43,5,5,0,0,1-6.5,1,19.55,19.55,0,0,1-2.28-1.91ZM296.86,202c3.28-1.44,6-6.11,5.32-9.18-1.7,1.08-3.37,2.13-5,3.21a1,1,0,0,0-.29.72C296.85,198.48,296.86,200.19,296.86,202Zm-4-37.38A48.57,48.57,0,0,0,291,160a2.69,2.69,0,0,0-1.77-1.35,15.82,15.82,0,0,0-3.6.49c1.2,1.88,2.07,3.49,3.19,4.91S291.17,165.52,292.87,164.64ZM155,214.2v.44h10.24c4,0,8.06,0,12.09,0,.68,0,1.8-.32,1.94-.75.61-1.86.94-3.82,1.4-5.88-1,.09-1.8.18-2.59.23s-1,.5-.82,1.21.48,1.61.62,2.43c.23,1.4-.34,2.11-1.75,2.29a11.4,11.4,0,0,1-1.43.06H155Zm145.85-52.75a7.55,7.55,0,0,0-3.82-7.78C296.46,157.47,297.66,160,300.88,161.45ZM181,213.53c.06.12.12.47.29.54a.84.84,0,0,0,.74-.14,5.33,5.33,0,0,0,1-1.58c.28-.91.31-1.88.56-2.8.16-.63.15-1.25-.52-1.3a1.57,1.57,0,0,0-1.16.92C181.48,210.54,181.27,212,181,213.53Zm39.5-40a17.74,17.74,0,0,0-2-11.45Q219.44,167.78,220.46,173.5ZM79.87,188.39c-1.26,3.71-.52,7.41.06,11.11h.52Q80.15,193.94,79.87,188.39Zm147.47-30.06c-1.1-1-2-2-3.28-1.66a2.55,2.55,0,0,0-1.74,2.13Zm-96.3-8c-1.77-.24-3.41-.14-4.4,1.54-.15.25-.06.64-.08,1,.28,0,.61,0,.83-.11C128.62,152,129.83,151.17,131,150.37Zm12.49,20.39.07.63,10.83-1.79-.06-.43Zm140.3-35.46c-.38,1,3.22,5.61,4.54,5.93Zm17.26,31.83c.84-2.23.09-3.25-2.28-3C299.59,165.16,300.32,166.12,301.09,167.13Zm-54.46-4.25,0,.16h6.5v-.16Z"/></g></svg>