<svg xmlns="http://www.w3.org/2000/svg" viewBox="0 0 368.61 355.7"><g id="OBJECTS"><path d="M260.29,208.82l-6.41-3c-1.1.74-2.08,1.49-3.15,2.09a5.51,5.51,0,0,1-4.54.39c-3.29-1.12-5.74-3.18-6.65-6.65a8.49,8.49,0,0,1,2.75-8.9c5-4.62,11.86-4.34,16.55.75a13.93,13.93,0,0,1,3.75,12.82c-.07.34-.08.7-.15,1.33,4.28.79,8.48,1.76,12.74,2.3,9.69,1.25,19.4.42,29.11,0,7.62-.36,15.25-.76,22.88-.78a38.13,38.13,0,0,1,16.6,3.71c1.17.54,2.89.13,4.31-.12,3.7-.66,6.56-2.8,9.1-5.45a20.65,20.65,0,0,1,10.07-6c.42-.11.85-.2,1.36-.31,0,.5,0,1-.07,1.43-1.19.41-2.37.77-3.51,1.21-3.07,1.17-5.42,3.34-7.7,5.6a18.64,18.64,0,0,1-9.9,5.19,12.93,12.93,0,0,1-7.05-.82,33.86,33.86,0,0,0-9.53-2.06c-6.66-.25-13.34,0-20,.13-8,.16-16.07.35-24.11.63a78.47,78.47,0,0,1-20-2.14c-.86-.2-1.73-.34-2.58-.54a3.69,3.69,0,0,0-4.25,1.63,17.51,17.51,0,0,1-10.39,7c-9.64,2.36-19.86-4.24-21.22-14-1.16-8.36,2.44-17.34,14.07-19.94,4.41-1,8.57-.12,12.62,1.59,1.42.61,2.83,1.25,4.24,1.88l.19-.24a13.59,13.59,0,0,0-1-1c-5.66-5.1-17.69-7.23-26.15.61a23.68,23.68,0,0,0-7.23,14.51,12,12,0,0,1-.52,2.21,4,4,0,0,1-4.33,3q-38.9,0-77.79-.07a15.2,15.2,0,0,1-3-.83c-.42-.09-1.08-.16-1.33.08-4.66,4.44-12,2.67-14.63-3.66-1.32-3.22-2.48-6.49-3.84-9.69-1.63-3.79-4-7-7.78-8.95-7.71-4-19.34-2.65-24.71,6a18.4,18.4,0,0,0-2.75,10.86c.07,1.62.26,3.24.42,5.12,1.39-.71,2.62-1.26,3.78-1.94a2.91,2.91,0,0,0,1.24-2.59,38,38,0,0,1,.37-5.13,12.12,12.12,0,0,1,11-9.8c6.51-.51,12.23,1.31,16.51,6.46,5.68,6.84,4.84,16.05-1.88,21.88-7.45,6.46-19.78,6.61-26.92.18a28.55,28.55,0,0,1-4-5.08c-.51-.74-.84-.9-1.69-.56-7.73,3.15-15.39,6.5-23.25,9.28a136,136,0,0,1-30.86,6.65,72.21,72.21,0,0,1-24.27-2A31.14,31.14,0,0,1,.5,221.55c-.27-.1-.34-.72-.5-1.11a3.16,3.16,0,0,1,1.14-.2,99.83,99.83,0,0,0,18.2,2.87,88.45,88.45,0,0,0,19.23-1.38A160,160,0,0,0,79,209c4.07-1.94,4.4-2.2,3.72-6.52a18.12,18.12,0,0,1,2-11.5,4,4,0,0,0,.46-1.6l-5.48,6.13c-1.34,1.49-2.67,3-4,4.44a8.48,8.48,0,0,1-1.36,1.17c-1.17.79-1.85.67-2.66-.45s-2.06-1.38-3.33-1.68A21.06,21.06,0,0,1,63,197.43a8.24,8.24,0,0,1-2-12.86c1.61-1.78,3.66-1.94,5.85-1.64.27,0,.54.11.81.17.24-1.6.4-3.19.74-4.73,1-4.61,3.8-8.1,7.17-11.23a36.09,36.09,0,0,1,13.84-7.64c7.24-2.35,14.56-4.31,22.21-4.64,2.35-.11,4.72.16,7.07.1a44.59,44.59,0,0,0,4.86-.54c1.89-.25,3.78-.52,5.66-.88a2.9,2.9,0,0,0,1.46-.85q8.23-9,16.43-18.14l1-1.05c2-2.1,3.18-2.14,5.32-.06,1.68-2.84,4.43-3.15,7.35-3.13,8.28.06,16.56.06,24.84.13a239,239,0,0,1,35.83,2.95c2,.33,4.12.52,6.17.84A16.74,16.74,0,0,1,238,140.54c3.25,3.92,6.51,7.85,10.67,10.82a47.91,47.91,0,0,0,7.75,4.49,15.7,15.7,0,0,1,5.6,4.18,70.16,70.16,0,0,1,8.65,12.5,10.48,10.48,0,0,0,3.69,4.16,3.53,3.53,0,0,1,1.28,2.18c.32,1.84.39,3.72.55,5.58,0,.39,0,.79,0,1.22,1,0,2-.06,3,0a17.76,17.76,0,0,1,9.37,4c2.34,1.76,2.49,4.5.61,6.73a8.4,8.4,0,0,1-4.08,2.82,3.54,3.54,0,0,0-2.65,2.51,2,2,0,0,1-1.47,1.1c-5.65.24-10.82-.63-14.23-6-4.14-6.48-10.55-9.46-17.82-10.82a15.94,15.94,0,0,0-14.41,4.22c-4.36,4.11-5.27,9.41-3.84,15a14.27,14.27,0,0,0,10.95,10.95c6.22,1.55,11.48-.45,15.94-4.88C258.4,210.54,259.27,209.77,260.29,208.82Zm-119.44-3.64h59c6.6,0,13.2,0,19.8-.09,2.48,0,3-.63,3.52-3a58.14,58.14,0,0,1,1.94-7.64c5-13.47,19.27-16.24,27.46-13.43a21.11,21.11,0,0,1,10.26,7.57,6.19,6.19,0,0,0,5.55,2.71c1,0,2.08-.12,3.11-.18,1.47-.1,1.77-.55,1.55-2a3.65,3.65,0,0,1,.1-2.06,5.27,5.27,0,0,0,.16-4.95c-.58-1.31-1.15-2.64-1.85-3.89a2.2,2.2,0,0,0-1.3-.81,28.73,28.73,0,0,1-3-.45c-3-1-5.93-2.12-8.87-3.25-17.28-6.7-33.53,3.28-37.69,17.32-.78,2.64-1.38,5.33-2.07,8-.51,2-2.05,3.75-3.54,3.82-5.63.27-11.26.52-16.89.68-2.06.06-3.08-1.08-3.07-3.14,0-2.28.07-4.56.11-6.84q.28-12.78.56-25.55c.06-2.64-.58-3.42-3.2-3.51q-11.75-.39-23.5-.71c-5.39-.15-10.79-.3-16.19-.38-2.91,0-5.83,0-8.74.12-2,.11-2.85,1.11-3.06,3.06a26.91,26.91,0,0,0-.2,3.11q0,17,0,34.09Zm54.87-41.93a5.68,5.68,0,0,1,2.18,4.62c0,.72,0,1.44,0,2.16q-.55,14.43-1.13,28.88c-.09,2.23.69,3,2.91,2.9q6.77-.28,13.54-.64a3.58,3.58,0,0,0,3.63-2.85c.41-1.38.76-2.78,1-4.19,2.35-11.94,9.45-19.8,21-23.29,7.9-2.39,15.74-.93,23.29,2.2,2.17.9,4.41,1.62,6.64,2.35.36.12.82-.1,1.24-.17a3.73,3.73,0,0,0-.27-1.14c-.87-1.34-1.8-2.64-2.72-4l-6.6-9.42a13.39,13.39,0,0,1-6.17,3.18A49.38,49.38,0,0,1,234.88,165a126.13,126.13,0,0,0-15.12-1.64c-7.27-.28-14.56-.07-21.83-.07ZM149.18,134.9c1.15,1,2.29,1.85,3.32,2.84a3.61,3.61,0,0,1,.94,4.39c-2.91,5.84-6.51,11.21-11.65,15.36-3.28,2.65-7.64,2.79-10.51-.31a4.72,4.72,0,0,0-4.36-1.48c-2.38.35-2.5.52-1.64,2.73,1.63,4.19.08,7-4.32,8a8.23,8.23,0,0,1-1.31.16c-4,.25-8,.45-12,.74-2.47.17-4.93.48-7.67.75,3,.5,5.75.84,8.44,1.4,9.36,1.94,17.16,6.38,22.78,14.3a60.47,60.47,0,0,1,7.12,14.47c.1.25.23.49.35.73l.42-.06V184.76c0-5.84-.08-11.68,0-17.52.05-3.6,1.65-5.27,5.11-5.76.06,0,.12-.1-.05,0a17.75,17.75,0,0,1,1.06-4.09,70.16,70.16,0,0,1,9.09-12.33,4.76,4.76,0,0,1,4.35-1.53c.44,2.11-.55,3.62-1.93,4.92a21.11,21.11,0,0,0-5.59,9.26c2.19.29,4.35.69,6.54.83,2.76.17,4.06-1.11,4.45-3.89.43-3,.9-6.08,1.48-9.09a12.31,12.31,0,0,1,1.2-2.59,3.11,3.11,0,0,1,1.65,3.58c-.16.95-.38,1.89-.46,2.84-.21,2.79.86,4.1,3.65,4.18,4.27.12,8.55.1,12.83.11,3.32,0,6.64,0,10-.09,1.57,0,2-.48,2.32-2a30.76,30.76,0,0,0,.49-3.56c.12-1.82.44-3.49,2.45-4.35a5.48,5.48,0,0,0-1.82-.55c-3.56-.2-7.11-.44-10.66-.54-8.35-.23-16.71-.38-25.06-.57a5.62,5.62,0,0,1-5.29-3.28,28.65,28.65,0,0,0-2.77-4.19C151.12,133.25,150.21,133.37,149.18,134.9Zm77.41,26.39c1.22.28,2.42.58,3.62.83a52.41,52.41,0,0,0,27-1.08c.38-.12.94-.52.94-.78s-.41-.79-.75-1a4.46,4.46,0,0,0-1.12-.36,66.35,66.35,0,0,1-7.51-2.7c-4.58-2.24-8.2-5.81-11.82-9.32-4.2-4.07-8.85-7.12-14.79-8.3-11.76-2.35-23.54-4.11-35.57-3.7-7.19.24-14.39.36-21.58.55-3.22.09-6.44.2-9.68.31,1.13,3.78,2.3,4.67,6.08,4.67A377.24,377.24,0,0,1,208.56,143,20.18,20.18,0,0,1,226.59,161.29Zm-152.84,28c1.79-1.6,3.34-3,4.93-4.41,6.52-5.65,13.91-8.86,22.71-8,1.42.13,2.92.11,4.07,1.16a1.52,1.52,0,0,1,.52,1.05c-.1.86.31,1.16,1,1.28.48.07,1,.12,1.42.23,6.62,1.48,10.8,5.77,13.36,11.8,1.15,2.71,2,5.55,3,8.33,1.73,4.79,5.12,6.55,10,5.18,1.78-.5,2.47-1.45,2.16-3.28s-.74-3.43-1.2-5.12a36.18,36.18,0,0,0-42.23-26.4c-5.82,1.16-11.52,2.92-17.26,4.48-2.67.73-3.27,1.78-3,4.59,0,.36,0,.72.06,1.08Zm-1.8,0c0-.26,0-.52,0-.78-.15-2.92-.25-5.83-.47-8.74s.75-4.46,3.43-5.44c1.28-.47,2.58-.84,3.85-1.31a50.87,50.87,0,0,0,7.64-3c2.06-1.18,4-2.38,6.41-2.69.51-.07,1-.22,1.52-.34,6.94-1.56,13.87-3.11,21-3.32a34.11,34.11,0,0,0,5.34-.61c1.73-.33,2.22-1.28,1.86-3-.49-2.4-1.79-3.47-4.28-3.48-8.3-.07-16.35,1.5-24.32,3.68-5.34,1.47-10.53,3.28-15,6.66C74,170.6,70.16,175,69.61,181.56A9.43,9.43,0,0,0,72,189.27Zm20,11.84c1.9-.12,2.36-.6,2.49-2.73a8.11,8.11,0,0,1,4.67-7c3.89-2.05,8-1.32,11.18,1.91,4.67,4.67,4.83,10.77.37,15.34a16.69,16.69,0,0,1-6.27,3.88,7.75,7.75,0,0,1-9-2c-1.73-1.83-3.34-3.76-5.08-5.73-1.15.68-2.32,1.35-3.48,2.05a1.28,1.28,0,0,0-.41,2.11,32.92,32.92,0,0,0,2,2.7c6.73,7.64,19.52,8.06,26.8.91,4.44-4.37,5.67-10.65,3.09-15.83-3.2-6.4-12-10.24-18.91-8.23A10.54,10.54,0,0,0,92,201.11ZM198.21,143.7c2.1,5.58.49,10.87.74,16.08h25.47c0-.3,0-.5,0-.69a13.5,13.5,0,0,0-4.79-8.35A26.85,26.85,0,0,0,204.79,144C202.73,143.75,200.61,143.81,198.21,143.7Zm-34.15,9.88c-.79,2.48-.4,5.52-3.66,6.94h37V147.77a13.88,13.88,0,0,0-.59,3c-.27,4.39-1.58,4.64-5.3,4.67-5.68.05-11.35,0-17,0-3.4,0-6.8,0-9.9-1.77A3,3,0,0,0,164.06,153.58ZM94.53,202c-2.07,1.91-2.14,2.54-.6,4.81a5.51,5.51,0,0,0,.59.76c3.36,3.47,7.41,4.65,12.44,1.74,6.26-3.61,6.78-11.51,1-15.84a8,8,0,0,0-10.91,1.77,4.06,4.06,0,0,0-.63,3.68c.94-.5,1.74-1,2.56-1.35a20.22,20.22,0,0,1,2.62-1.15,4.1,4.1,0,0,1,5,1.54c1.57,2.06,1.79,4.05.65,5.88a5,5,0,0,1-7,1.88C98.27,204.56,96.46,203.23,94.53,202Zm165.88,4.89a12.18,12.18,0,0,0-3-12.31c-3.69-4-8.74-4.39-13-1.1s-4.49,7.75-.6,11.45a5.8,5.8,0,0,0,8,0c-.35-.27-.69-.53-1-.8-1.22-1-2.52-2-3.65-3.1a3.35,3.35,0,0,1-.87-4,4.84,4.84,0,0,1,4.08-3.11c2.13-.13,3.4,1.16,3.81,3.77.28,1.86.43,3.73.75,5.58a2.31,2.31,0,0,0,.94,1.5C257.23,205.53,258.76,206.12,260.41,206.84ZM131.13,154.79c4.42,3.82,7.64,3.8,11.28-.43,3.19-3.73,6.09-7.71,9-11.68,1.54-2.12,1.17-3.21-1.22-4.76ZM74.78,198a10.85,10.85,0,0,0,.86-.8c2.81-3.12,5.62-6.24,8.4-9.38,3.49-3.94,7.35-7.35,12.48-9,0,0,0-.12.12-.34-1.38.25-2.68.42-4,.75-6.14,1.6-11.1,5.19-15.6,9.47-1.66,1.59-3.2,3.16-6,2.38C72.83,193.23,75.23,194.8,74.78,198Zm-8.59-13.21c-.7.17-1.35.36-2,.48a3.6,3.6,0,0,0-3,3c-1,5,.94,8.39,6.43,8.78,2.12.15,2,.11,2-2,0-1.79-.43-2.76-2.32-3.12-1.48-.28-1.82-1-1.17-2.38A6.08,6.08,0,0,0,66.19,184.77Zm213.15,9.14c.3.45.59.92.91,1.38,2.29,3.22,6.18,3,8.18-.42a2.25,2.25,0,0,0-.62-3.27c-2.86-1.7-5.81-3.27-8.72-4.89l-.38.31a20.74,20.74,0,0,0,1,2.42C281.11,191.8,281.12,191.93,279.34,193.91Zm-32.47-41,.08-.21q-5.5-5.91-11-11.81a15.45,15.45,0,0,0-9.1-4.91c-5.45-.84-10.89-1.71-16.34-2.48-1.93-.27-3.89-.28-5.83-.41,3.45.74,6.94,1.2,10.39,1.82,5.23.94,10.41,2.13,15.16,4.65,3.59,1.91,6.52,4.72,9.55,7.38C242.08,149,244.49,150.91,246.87,152.9Zm33.94,47.74-.05-.36c-.82-.09-1.64-.14-2.45-.28-2.51-.41-3.64-1.57-3.95-3.95-.26-2.06.28-2.83,2.86-3.94l-2.35-5c-.13.88-.2,1.4-.27,1.91-.44,3.14-1.18,3.83-4.3,3.94-1.27,0-2.53,0-3.85,0,1.63,4.24,7.73,8.34,12.09,8.18A12.93,12.93,0,0,0,280.81,200.64ZM198.56,133v-.26c-3-.24-5.95-.64-8.93-.67q-13.6-.15-27.21,0a34,34,0,0,0-5.87,1c-.23,0-.41.37-.61.56.22.23.42.62.67.66a15.45,15.45,0,0,0,3.31.26c4.38-.38,8.73-1.06,13.12-1.24,6.14-.26,12.3-.19,18.45-.24C193.85,133,196.2,133,198.56,133ZM96.68,200.56a6.39,6.39,0,0,0,5.66,3.9,3.23,3.23,0,0,0,3.39-3.86,2.92,2.92,0,0,0-4.13-2.34C99.94,198.87,98.37,199.76,96.68,200.56Zm49-40.72,5.69.69c-2.55-3.39-2.54-4.53,0-7.92.14-.19.29-.38.45-.56,1.69-2,3.39-4,5.06-6.07a3.56,3.56,0,0,0,.39-1l-.4-.16A57.83,57.83,0,0,0,145.67,159.84Zm107.25,41.31.17,0a19.85,19.85,0,0,0-1-3.88c-.86-1.84-2.79-1.81-3.81,0a2.46,2.46,0,0,0,.46,3,20,20,0,0,0,3,2.54c.66.49,1.17.13,1.18-.73Zm22.86-6c0,2.29,1.7,2.73,3.2,3.35.25.1.81,0,.87-.12a1.19,1.19,0,0,0-.08-1,35.59,35.59,0,0,0-2.31-2.74,4.65,4.65,0,0,0-1.12-.63Z"/></g></svg>