<svg xmlns="http://www.w3.org/2000/svg" viewBox="0 0 368.61 355.7"><g id="OBJECTS"><path d="M0,200.87l13.11-2.74a60.56,60.56,0,0,1,6.32-1.3,63.49,63.49,0,0,1,7.17-.05c10.65.18,20.71,2.93,30.56,6.79a141.51,141.51,0,0,0,25,7.72,58.41,58.41,0,0,0,26.68-1.12c.23-.06.45-.17.69-.26-3-5.95-2.43-11.85.26-17.66,1.56-3.37,4-5.85,7.81-6.63,5.23-1.07,10.66,1.87,12,6.58,1,3.63-.17,6.77-2.34,9.63a17.07,17.07,0,0,1-5.83,4.71c-2.53,1.34-5.14,2.57-7.71,3.84l-.7.39a15.69,15.69,0,0,0,7.48,3.42A17.6,17.6,0,0,0,138.3,206a18.11,18.11,0,0,0,1.95-10.44c-.35-4.77-1.72-9.21-5-12.79-6.13-6.6-17.66-6.48-23.88.12-3,3.21-4.52,7.19-5.8,11.28-.67,2.13-1.23,4.3-1.89,6.43-1,3.24-2,3.86-5.29,3.17a115,115,0,0,1-18-5.36,8.55,8.55,0,0,1-1.18-.57c-2.4-1.35-2.92-3-1.56-5.36a1.9,1.9,0,0,0,.09-2,29.42,29.42,0,0,1-2.59-10.63c-.58-6.32,2.36-11.09,7.65-14.27a34.65,34.65,0,0,1,19.1-4.94,2.7,2.7,0,0,0,2.37-1c2.29-2.76,5.51-4.17,8.61-5.71,5.82-2.87,12.06-4.37,18.4-5.5,17.1-3.06,34.37-3.7,51.68-3.33a35.16,35.16,0,0,1,18.92,6q5.59,3.7,11.12,7.5c5.09,3.51,10.79,4.83,16.87,4.9a312,312,0,0,1,57.36,5.78,53.87,53.87,0,0,1,19.48,8c4.32,2.87,5.33,6,3.64,10.91-.58,1.69-1.14,3.4-1.55,5.14a5.28,5.28,0,0,0,1.2,4.8c3.09,3.71,2.25,6.66-2.45,7.66a94.16,94.16,0,0,1-12,1.53c-2.67.21-3.9-1.1-3.71-3.78a30.23,30.23,0,0,0-.75-10.81c-.52-1.75-1.26-3.44-1.87-5.17-.78-2.2-1.57-4.41-2.26-6.64a2,2,0,0,0-1.29-1.52c-6.48-2.5-13-3.15-19.62-.56-6.4,2.51-10.74,7.14-13.59,13.31a50.24,50.24,0,0,1-2.33,4.71,9.34,9.34,0,0,1-8.18,4.8c-5.63.2-11.26.73-16.88.65-8-.12-16-.61-24.05-1.06-7.82-.43-15.63-1-23.43-1.54-5.34-.39-10.7-.67-16-1.48a20.91,20.91,0,0,1-15.15-10.3c-.31-.51-.66-1-1-1.48a1.92,1.92,0,0,0-.92-.72c.13.5.25,1,.38,1.5.88,3.51,1.81,7,2.62,10.56.89,3.87,1.87,4.77,5.84,5.28a229.26,229.26,0,0,0,29.4,1.76c10.91,0,21.81.21,32.72.29,9,.07,18.06.17,27.09.1a23.65,23.65,0,0,1,15.92,5.5,24,24,0,0,0,12.11,5.67c4.67.63,8.67-1,12.43-3.89-2.39-1.05-4.54-1.91-7.14-1.21a15.72,15.72,0,0,1-10.68-.67c-4.87-2.2-7.13-6.23-7.85-11.36-1.18-8.41,4.5-17.06,12.65-18.79,6.61-1.41,13.27.3,16.51,6.57a30.58,30.58,0,0,1,2.57,7.66,24.24,24.24,0,0,1-2.61,17.29c2.77.65,5.4,1.33,8.06,1.88,8.3,1.71,16.59,1.31,24.89-.1,9.32-1.58,18.65-3.16,28-4.57,5.83-.87,11.57-.51,16.85,2.54.86.49,1.65,1.12,2.48,1.67,1.38.91,2.22,2.05,1.63,3.87-.08-.05-.24-.09-.31-.19-2.8-4.12-7-5.68-11.65-6.56-3.76-.72-7.48-.06-11.19.56-8.73,1.44-17.45,3.06-26.21,4.35a73,73,0,0,1-28.09-.92,14.22,14.22,0,0,0-10.2,1.3c-7.09,3.65-13.88,2.69-20.35-1.65a35,35,0,0,1-3.21-2.5,21,21,0,0,0-13.89-5c-5.48-.05-10.95-.05-16.42-.08-9.91,0-19.82-.07-29.73-.17-9.55-.11-19.1-.13-28.63-.54-5.74-.24-11.44-1.13-17.15-1.79a5.5,5.5,0,0,1-5-4.25c-1.45-5.26-2.79-10.56-4.17-15.84a8.6,8.6,0,0,1-.11-1,4.62,4.62,0,0,1,4,1.76c.8,1,1.45,2.1,2.17,3.15a20.23,20.23,0,0,0,14.07,8.88c4.84.77,9.71,1.48,14.59,1.88,9,.71,18,1.38,27,1.69q16.69.59,33.43.49c6.77,0,11.8-3.22,14.12-9.83,2.86-8.16,8.77-12.56,17-14.31A30.76,30.76,0,0,1,286.3,178c.33.12.66.22,1.1.36-.12-.71-.28-1.32-.32-1.93-.08-1.12.42-1.75,1.51-1.66,6.13.5,11.72,2.35,16.18,6.82a3.14,3.14,0,0,1,.75,1.46c.28,1.15.43,2.33.63,3.44a8.38,8.38,0,0,1-7.55-.63c-2.25-1.27-4.58-2.42-6.92-3.54a21.27,21.27,0,0,0-3-.89,21,21,0,0,0,.58,3c.74,2.06,1.56,4.1,2.43,6.11a20.69,20.69,0,0,1,1.61,9.82c-.1,1.52-.21,3.09.77,4.39a2.09,2.09,0,0,0,1.5.85c4.23-.55,8.44-1.21,12.66-1.86a4.29,4.29,0,0,0,1.23-.43,1.73,1.73,0,0,0,.77-2.69A5.63,5.63,0,0,0,309,199.3a5.36,5.36,0,0,1-1.73-6.35c.62-1.89,1.33-3.76,1.89-5.67a12.7,12.7,0,0,0,.53-3.29c0-2.23-1.32-3.71-3-4.91a50.94,50.94,0,0,0-19.78-8.43,291.71,291.71,0,0,0-43.59-5.31c-5.7-.28-11.41-.44-17.12-.68a24.26,24.26,0,0,1-13.31-4.46c-3.42-2.43-6.89-4.78-10.39-7.09a41.76,41.76,0,0,0-26.29-6.81c-7.65.46-15.32.69-23,1.11-9.73.53-19.45,1.17-28.91,3.81a58.23,58.23,0,0,0-14.71,6.27l9.75-3.05a132.17,132.17,0,0,1,26.87-5.14,214.74,214.74,0,0,1,34.12-.17c6.32.4,12.46,1.5,17.72,5.4q4.72,3.5,9.42,7c4.05,3,8.11,6.09,12.12,9.19,1.07.83,2,1.87,2.94,2.79a5.59,5.59,0,0,0,3.71,1.44c3.74.2,7.49.47,11.23.72,4,.27,5,2,3.45,5.6a8.42,8.42,0,0,1-7.43,5.41c-1.9.16-3.82.3-5.73.28-4.24,0-6.58-2.4-6.71-6.63,0-1.07.06-2.16,0-3.23a1.25,1.25,0,0,0-.73-.92,43,43,0,0,0-4.39-.45c-13-.76-26.08-1.48-39.11-2.26q-16.32-1-32.63-2.12a12.51,12.51,0,0,1-3.25-1.27c1.17-1,2-1.69,3.28-1.71,6.47-.06,12.94-.23,19.4-.2,5.43,0,10.86.27,16.29.43l28.26.81c.86,0,1.72-.09,2.58-.14l.07-.4a15.76,15.76,0,0,0-3.15-.83q-16.62-1.06-33.25-2c-13-.72-26.08-1.38-39.12-2.06-11.24-.6-22.49-1.3-33.74-1.74a32.19,32.19,0,0,0-16.62,3.81,33,33,0,0,0-4.67,3.22c6.66-.21,13.28-.32,19.85.85-1,2.87-4.63,5.21-8,5.08-2.91-.11-5.82-.39-8.72-.62-2.07-.16-4.13-.36-6.3-.55a15.8,15.8,0,0,0-.47,8.39,42.38,42.38,0,0,0,2.21,6.67c1.11,2.67,1.12,3.17-.92,5.18a7.56,7.56,0,0,0,4,3c5.44,1.59,10.83,3.33,16.24,5,2.41.74,3.44.19,4.21-2.27,1-3.24,1.86-6.52,2.94-9.73a20.84,20.84,0,0,1,6.33-9.7c7-5.81,22-6.77,27.91,6.29a23.29,23.29,0,0,1,1,17.83c-2.19,6.24-6.78,9.59-13.17,10.58a22.78,22.78,0,0,1-15.43-3,6.22,6.22,0,0,0-3.57-.47c-3.68.41-7.34,1.09-11,1.52A54.28,54.28,0,0,1,74.28,211c-6.8-2.15-13.46-4.71-20.19-7.09A96.94,96.94,0,0,0,25.73,198a38.34,38.34,0,0,0-10.3,1.18C10.3,200.35,5.14,201.43,0,202.55Zm211.59-34.22.22-.48q-7.42-5.34-14.86-10.67a18.08,18.08,0,0,0-2.53-1.36c-5.67-2.76-11.72-3.71-18-3.91-13.87-.46-27.7-.32-41.44,1.94-9.66,1.59-18.83,4.78-28,8.15-.27.09-.43.49-.84,1Zm63.94,42.94c-1.88-1.38-3.57-2.51-5.16-3.78a8.47,8.47,0,0,1-3.24-8.82c.62-3,2.83-5.52,5.26-5.93a8.64,8.64,0,0,1,8.57,3.87,10.94,10.94,0,0,1,1.52,8.5,51.07,51.07,0,0,1-2.37,6.07c.57.25,1.36.66,2.2.95,2.61.91,3.66.4,4.52-2.21a26.94,26.94,0,0,0-.13-17.62c-2.8-8.18-9.84-10.36-16.37-8.86-5.75,1.33-9.13,5.48-11.05,10.83-1.75,4.82-.31,12.44,4.93,15.67A12.81,12.81,0,0,0,275.53,209.59Zm-166.67-6.27a33.63,33.63,0,0,0,.77,3.72,2.26,2.26,0,0,0,2.74,1.76,5.28,5.28,0,0,0,1.85-.44c2.62-1.26,5.29-2.44,7.78-3.91a13.84,13.84,0,0,0,5.68-6.32,7.28,7.28,0,0,0-.65-7.81,9.09,9.09,0,0,0-14.25-.07C110,193.88,109.05,198.11,108.86,203.32Zm111.52-28.69a6.71,6.71,0,0,0-7-4.39,44.24,44.24,0,0,1-6.79.5c-9.37-.19-18.75-.5-28.12-.76-7.58-.22-15.16-.46-22.74-.63-3.47-.07-6.95,0-10.42,0-.25,0-.49.34-.73.53l.19.33Zm53.68,17.73a5.57,5.57,0,0,0-5.22,4c-1,2.71-.68,5.25,1.32,6.9s4.17,3.07,6.29,4.54c1.3.9,2.09.69,2.76-.71.85-1.79,1.65-3.62,2.43-5.45a1.49,1.49,0,0,0,0-1,43.67,43.67,0,0,0-2-4.59A6.54,6.54,0,0,0,274.06,192.36Zm-51.58-16.3c.09,2,.05,3.76.28,5.5a4.42,4.42,0,0,0,3.38,3.79,12.5,12.5,0,0,0,10.46-1.26,7.12,7.12,0,0,0,3.49-4.65,1.53,1.53,0,0,0-1.23-2.07,18.72,18.72,0,0,0-2.72-.33C231.74,176.71,227.33,176.41,222.48,176.06Zm65.72.95a19.67,19.67,0,0,0,7.09,5.51c2.1,1.06,4.26,2,6.36,3.07a3.9,3.9,0,0,0,3.31,0c-.3-.9-.36-2-.92-2.53a15.75,15.75,0,0,0-4.3-3.37c-3.47-1.58-7.1-2.78-10.71-4.15ZM78.92,172c.61.28,1,.46,1.32.6a20.75,20.75,0,0,0,8.1,1.3,16.06,16.06,0,0,0,7.4-1.65,15,15,0,0,0,1.62-1.16C91.21,171.23,85.09,169.5,78.92,172Z"/></g></svg>