<svg xmlns="http://www.w3.org/2000/svg" viewBox="0 0 368.61 355.7"><g id="OBJECTS"><path d="M368.61,221.6l-.58,1c-4.56-1.39-9.1-2.89-13.72-4.13a62.75,62.75,0,0,0-9-1.75,58.12,58.12,0,0,0-6.86,0q-30.1,0-60.21,0c-8.47,0-17,0-25.42-.18-8.86-.2-16.66-3.11-22.74-9.85a3.25,3.25,0,0,0-2.76-1.13c-7.46.4-14.92.8-22.38,1.11-5.07.2-10.14.3-15.22.37-9.83.14-19.66.27-29.49.31a125.07,125.07,0,0,1-12.55-.38c-3.88-.37-5.39-2.65-4.54-6.44a49.37,49.37,0,0,0,1.55-11c0-6.15,0-12.3,0-18.63a31.91,31.91,0,0,1-3.71.93,7.93,7.93,0,0,1-2.83-.13,1.68,1.68,0,0,1-1.4-2.34,5.72,5.72,0,0,1,1.11-2.2c2.92-3.42,6.66-5.83,10.4-8.22a120.57,120.57,0,0,1,25.28-12.22,49.11,49.11,0,0,1,15.68-2.42c9-.12,18.07.06,27.09-.22,10-.32,18.94,2.75,27.58,7.24A7.2,7.2,0,0,1,245,152c1.76,1.33,1.93,2.88.37,4.46A20.82,20.82,0,0,1,234,162.29c-4.43.8-8.93,1.23-13.41,1.73-5.72.63-11.45,1.18-17.17,1.77a5.51,5.51,0,0,0-.62.13c0,2,0,4,0,6,.22,7.83.44,15.66.73,23.48.1,2.78.87,3.48,3.68,3.61,1.31.06,2.64.07,3.95,0a62.16,62.16,0,0,1,17,1.5,5.35,5.35,0,0,0,.16-1.27c-.58-4.39,1.33-7.89,3.9-11.2,9-11.59,24.6-7.1,29.64.79,1.9,3,3.27,6.29,4.89,9.46.16.31.31.62.47.94a4.76,4.76,0,0,0,2.9-5.28c-.84-5.16-1.81-10.3-2.67-15.45-.21-1.25-1.07-1.7-2.09-2a19.42,19.42,0,0,1-9.73-6.87,8.65,8.65,0,0,1-1.29-2.27,2.1,2.1,0,0,1,1.49-3,17,17,0,0,1,3.78-.45c1.91-.06,3.82,0,6,0-.72-.77-1.32-1.43-2-2.06-2.23-2.23-4.48-4.44-6.71-6.67a14.69,14.69,0,0,1-1.13-1.24,2.7,2.7,0,0,1-.25-3.71c.38-.61.83-1.18,1.26-1.75s.89-1.12,1.57-2c-3.08-.42-5.92-.91-8.79-1.18-7.19-.67-14.4-1.31-21.61-1.84-8-.59-15.94-1.07-23.92-1.58a126.3,126.3,0,0,0-31.59,2.19,54.22,54.22,0,0,0-17.28,6.55c-14.52,8.46-30.12,14-46.45,17.72-5,1.16-9.92,3-14.85,4.61a5,5,0,0,0-2.12,1.52c3.87-.9,7.74-1.81,11.62-2.68,3-.66,5.92-1.27,8.89-1.87a4,4,0,0,1,1.43,0,1.94,1.94,0,0,1,1.24,3.42c-4.46,5-9.72,8.64-16.38,10-2,.41-4,.77-6,1-3.48.36-3.48.3-5.72-2.68-.39,1.72-.81,3.2-1,4.7-.6,3.94.11,7.8.79,11.66.1.59.25,1.17.35,1.76a3,3,0,0,0,2.7,2.67c6.08.59,12.18,1,18.27,1.53,0,0,.07,0,.24-.08.53-2.08,1.06-4.25,1.63-6.4.9-3.44,2.1-6.76,5-9.09,5.29-4.28,11.19-4.73,17.23-2.09,5.89,2.57,8.83,7.36,9,13.81a18,18,0,0,1-1.36,8.43c-2,4.3-5.68,6.42-10.14,7.15a51.08,51.08,0,0,1-8.11.52q-47.31.06-94.63.07c-8.78,0-17.57.11-26.36.17-.11,0-.23,0-.41-.05v-1.93H118.49l0-.29c-.33-.1-.66-.22-1-.31a10,10,0,0,1-7-6.08,3.17,3.17,0,0,0-3.2-2.14c-3.79-.15-7.59-.28-11.38-.47-2.07-.1-4.15-.25-6.21-.51-3.18-.4-4.53-1.7-5.06-5.25-.66-4.42-1.37-8.86-.83-13.35.58-4.77,1.89-9.32,5.63-12.61a15.46,15.46,0,0,1,5.54-3.18c7.79-2.37,15.6-4.68,23.5-6.62a109.41,109.41,0,0,0,28.31-11.09c6.27-3.54,12.66-7,19.55-9.26,8.09-2.66,16.45-3.48,24.91-3.66a297.33,297.33,0,0,1,30.3.84c8.56.69,17.09,1.64,25.63,2.51,2.82.29,5.64.65,8.45,1a14.92,14.92,0,0,1,3,.72c1.83.66,2.21,1.91,1,3.43a30.3,30.3,0,0,1-2.52,2.55,6,6,0,0,0-.49.47c1.88,2.1,3.69,4.28,5.67,6.3,2.15,2.2,4.51,4.18,6,7a11.87,11.87,0,0,1,1.29,7.3,30.84,30.84,0,0,0,.71,9.76c.7,3.72,1.58,7.43,1.31,11.26-.13,1.71-.41,3.41-.66,5.1a3.58,3.58,0,0,1-3,2.92,2.16,2.16,0,0,1-1.81-.57,21.13,21.13,0,0,1-2.58-3.7c-.95-1.7-1.61-3.56-2.56-5.27-2.89-5.24-7.43-7.82-13.35-8.16-4.43-.25-8.58.52-11.87,3.72a17.9,17.9,0,0,0-5.77,12.49c-.14,3.2.61,5.54,3.32,7.41a66.33,66.33,0,0,1,5.71,4.93c.09.07.2.13.33.22l.68-.72a17.15,17.15,0,0,0-1.95-1.42,10.43,10.43,0,0,1-5.91-10.27,24.62,24.62,0,0,1,.67-5.21c2.25-9,13-12.16,20.34-8.11a14.44,14.44,0,0,1,8,13.62c-.1,6.08-3,10.64-8.42,13.54-.46.24-.93.45-1.39.69a3,3,0,0,0-.42.34c.75.07,1.29.16,1.83.16h66.56c8.32,0,16.64-.09,25,.1a37.4,37.4,0,0,1,8.72,1.32c5.21,1.37,10.33,3.06,15.48,4.62ZM198.78,167.29l-4.21.45c-7.06.76-14.12,1.54-21.19,2.29-7.22.76-14.46,1.46-21.68,2.24-2.67.29-3,.8-3,3.55,0,4,0,7.91,0,11.87,0,2.71.08,5.43.23,8.13.13,2.36,1,3.29,3.37,3.61a23.14,23.14,0,0,0,3.23.14l40-.16c.31,0,.63,0,.95,0,1.94-.16,2.31-.56,2.31-2.55V167.29ZM147.45,171a5.34,5.34,0,0,0,.8,0c3.72-.49,7.43-1.07,11.16-1.48,7.3-.82,14.61-1.56,21.92-2.32,4.61-.48,9.22-.93,13.83-1.42,1.76-.2,2.42-.94,2.42-2.66,0-5.23,0-10.47,0-15.71,0-.79-.3-1-1-1.08a55.57,55.57,0,0,0-20.29,1.81c-8.82,2.42-16.87,6.53-24.71,11.13-3.86,2.26-7.71,4.55-10.89,7.76-.79.8-1.5,1.68-2.34,2.63A8.32,8.32,0,0,0,147,165.8a12.91,12.91,0,0,1,1.67-2.32c2.41-2.55,6.29-3.42,9-2.1a3.67,3.67,0,0,1,2,4.3c-.25,1.41-1.16,2.08-3.08,2.27-.4,0-.8,0-1.2,0-1.91,0-3.83-.06-5.74.11C148,168.24,147.37,169.18,147.45,171Zm54.49-7.36.56.07a237.52,237.52,0,0,0,29.26-3.31,44.79,44.79,0,0,0,7.5-1.9,11.48,11.48,0,0,0,5.21-4.22,3.78,3.78,0,0,0-.54-.48c-2-1-4-2.13-6.07-3.08-4.48-2.05-9.07-3.81-14-4.26-2.46-.22-4.94-.17-7.42-.21-3.83-.07-7.67-.15-11.5-.15-1.83,0-2.79,1.09-2.82,2.92,0,2.12-.13,4.23-.15,6.35C201.92,158.07,201.94,160.82,201.94,163.6ZM112.26,206a8,8,0,0,0,2.4,4.42A5.35,5.35,0,0,0,117,211.5a30,30,0,0,0,10-.22,10.79,10.79,0,0,0,8.68-12.4c-.75-5.43-8.25-10.19-14.41-7.23-4.33,2.07-6.09,5.74-6.2,10.37C115,204.8,114.73,205.17,112.26,206Zm89.28-28.39-.45-.17a5.9,5.9,0,0,0-.34,1.26c0,6.36,0,12.71,0,19.07,0,2.72-.55,3.3-3.21,3.58a13.56,13.56,0,0,1-1.43.07l-29.26.09c-.39,0-.79,0-1.19,0-4.48,0-9,0-13.42-.1a5,5,0,0,1-4.83-3.51c-.26-.7-.51-1.4-.76-2.11l-.35-.07a44.77,44.77,0,0,0-1.23,5.15c-.29,2.5.7,3.86,3.22,4.14a70.32,70.32,0,0,0,8.59.28c10.63-.11,21.25-.3,31.88-.46,11.26-.17,22.53-.33,33.79-.54a24.26,24.26,0,0,0,3.68-.49,1,1,0,0,0,.57-.6.69.69,0,0,0-.35-.58,21.87,21.87,0,0,0-4.89-1.4c-3.5-.26-7-.17-10.54-.22-1.55,0-3.11,0-4.67-.07-3.21-.14-4.33-1.24-4.64-4.43a5.79,5.79,0,0,1,0-.72c0-3.8-.09-7.59-.12-11.39C201.52,182.14,201.54,179.87,201.54,177.6Zm54.72,22.07a26.59,26.59,0,0,0-.56-3.35c-1.1-3.82-4.2-5.18-7.68-6-5.08-1.13-9,1.32-10.15,6.37a16.46,16.46,0,0,0,0,7.83c.72,2.89,2.66,4.78,5.58,5a21.22,21.22,0,0,0,6.16-.47c3.08-.73,5.43-2.54,6.13-5.86C256,202.1,256.09,201,256.26,199.67Zm-142.86-28c-.67.05-.83,0-1,.07-7.11,1.83-14.22,3.64-21.31,5.53-.48.13-.93.76-1.19,1.26a4.68,4.68,0,0,0-.29,1.64c-.15,1.73.84,2.66,2.59,2.3,2.85-.58,5.71-1.16,8.52-1.89a22.79,22.79,0,0,0,11.87-7.27A8.13,8.13,0,0,0,113.4,171.63Zm-1.07,31.85c.25-.91.47-1.62.63-2.34a38.11,38.11,0,0,1,1.06-4.9c1.73-4.73,6.3-7.49,12-7.27a11.75,11.75,0,0,1,10.39,6.24c2.23,4,1.74,8-.48,11.86-1.93,3.35-5.09,5.07-8.58,6.34-.68.25-1.35.53-2,.79a13.37,13.37,0,0,0,14.15-13.13c.13-7.64-5.77-13.8-13.93-14.15-8.72-.37-13.43,5.88-14.34,12.3A4.52,4.52,0,0,0,112.33,203.48Zm132.72,8.64a8.63,8.63,0,0,0,6.36-.24c6.34-2.55,9.44-9.88,7.08-16.67a12.84,12.84,0,0,0-12.64-8.66c-5.42.17-9.64,3.56-11.14,9a11.45,11.45,0,0,0,.74,8.65c.11-1.22.14-2.13.28-3A73.49,73.49,0,0,1,237,193.8c.89-3.39,3.06-5,6.57-5.31.4,0,.79-.07,1.19-.09,7.31-.42,12.71,2.8,13.42,10.11.49,5.17-.45,8.63-5.92,11.15a31.81,31.81,0,0,1-3.23,1.27C247.79,211.35,246.52,211.69,245.05,212.12Zm11.15-45.77a15.8,15.8,0,0,0,10.07,8.18,14,14,0,0,0-1.55-6.67,4,4,0,0,0-3.83-2.23C259.36,165.72,257.86,166.09,256.2,166.35ZM149.89,166c2,0,4,.1,6-.06.61,0,1.16-.79,1.73-1.22-.47-.58-.94-1.16-1.43-1.73-.07-.08-.22-.09-.33-.12A5.51,5.51,0,0,0,149.89,166Zm50-14.36h-.16v13.52h.16Z"/></g></svg>