<svg xmlns="http://www.w3.org/2000/svg" viewBox="0 0 400 400"><defs><style>.cls-1{fill:#1d1d35;}</style></defs><g id="OBJECTS"><path class="cls-1" d="M138.84,237.07c-.44-8.44-1-16.46-1.22-24.48a11.53,11.53,0,0,1,6.57-11.17,12.47,12.47,0,0,1,18.45,10.34c.53,7.44,1.33,14.85,1.86,22.28.18,2.43,1.13,3.31,3.58,3.3q31.95-.09,63.91,0c2.49,0,3.44-.92,3.63-3.23.56-6.83,1.43-13.64,1.72-20.47.34-8.3,5.36-13.84,13-13.7,7.3.13,12.64,6,12.35,14-.27,7.56-1,15.1-1.54,23.08,1.1.08,2.37.26,3.64.26,13.6,0,27.21-.08,40.8.09,3.22,0,4.31-1.08,4.85-4.13,8.93-50.62-14.67-97.79-61-121.6-5.32-2.74-8.17-7.59-7.52-12.79.69-5.5,4.49-10.16,10-10.9a16.15,16.15,0,0,1,9,1.43c38.9,19.85,63.75,51.18,73.25,93.65C350.72,257,303.94,330,230.08,346.68c-59.61,13.47-122-14.95-150.84-68.7C50.51,224.4,59.3,160.35,101.53,116.48A131.69,131.69,0,0,1,137.14,90.3c7.26-3.68,14.65-1.59,18,5s.82,13.61-6.43,17.49c-31.73,17-51.45,43.07-58.75,78.33-2.91,14-2.6,28.2-.19,42.33.48,2.81,1.46,4,4.61,4,13.72-.19,27.44-.08,41.16-.09C136.56,237.29,137.62,237.16,138.84,237.07Zm32.95,83.42c-.43-.89-.63-1.45-.94-1.94a231,231,0,0,1-25-53.77c-.69-2.21-2-2.32-3.75-2.31-9.87,0-19.73,0-29.6,0H100.27C105.71,284.21,148.64,319.06,171.79,320.49Zm128.65-57.68a17.07,17.07,0,0,0-2-.31c-13.71,0-27.42,0-41.13-.07-2.29,0-2.6,1.33-3.28,2.95C248.81,278,243.65,290.67,238,303.12c-2.71,6-6.38,11.51-10.14,18.18C260.79,311.88,284.46,292.6,300.44,262.81Zm-72.16-.13H171.8a217.72,217.72,0,0,0,28.27,54A221.86,221.86,0,0,0,228.28,262.68Z"/><path class="cls-1" d="M187.5,162.87v-3.23c0-19.74,0-39.47,0-59.2a5.64,5.64,0,0,0-2.39-5.14A24.92,24.92,0,0,1,177.06,65c4.28-9.84,15.51-16.29,25.75-14.78C215,52,223.86,60.71,225,72.8c.89,9.15-2.69,16.61-9.79,22.5a7,7,0,0,0-2.45,4.63c-.17,19.73-.11,39.47-.1,59.2,0,1,.19,2,.36,3.71,1.33-1.19,2.22-1.91,3-2.71,4.36-4.33,8.58-8.79,13.07-13A12.58,12.58,0,0,1,246.9,165c-9.09,9.29-18.17,18.6-27.59,27.54-10.93,10.37-28.08,10.06-39.24-.61-8.87-8.48-17.47-17.26-26.06-26-5.35-5.44-5.41-13-.4-18.09,5.21-5.28,12.64-5.21,18.32.3,4.84,4.68,9.57,9.49,14.36,14.23A6.48,6.48,0,0,0,187.5,162.87Z"/></g></svg>