<svg width="173" height="150" viewBox="0 0 173 150" fill="none" xmlns="http://www.w3.org/2000/svg">
<path d="M125.138 54.388H124.5C112.602 52.9005 99.0048 52.688 85.8329 52.688C72.661 52.688 59.0623 52.9005 47.1652 54.388C45.4652 54.6005 43.9776 53.963 42.9152 52.688C41.8527 51.4129 41.4276 49.7129 42.0652 48.227C48.6511 27.4048 66.286 13.3827 86.046 13.3827C105.806 13.3827 123.44 27.4048 129.816 48.0145C130.241 49.502 130.028 51.2021 128.966 52.4754C127.903 53.7504 126.628 54.388 125.141 54.388H125.138ZM86.0453 43.1286C96.6687 43.1286 107.503 43.3411 117.914 43.9786C111.541 31.2301 99.4297 22.9438 86.0453 22.9438C72.6608 22.9438 60.5495 31.0175 54.1761 43.9786C64.5858 43.1286 75.4218 43.1286 86.0453 43.1286Z" fill="#1D1D35" fill-opacity="0.72"/>
<path d="M28.0432 102.409C18.9072 102.409 11.6836 94.9728 11.6836 86.0492C11.6836 77.1257 19.1197 69.6896 28.0432 69.6896C36.9668 69.6896 44.4029 77.1257 44.4029 86.0492C44.4029 94.9728 37.1793 102.409 28.0432 102.409ZM28.0432 79.0365C24.2181 79.0365 21.2448 82.0116 21.2448 85.835C21.2448 89.6601 24.4323 92.6335 28.0432 92.6335C31.6558 92.6351 35.056 89.8726 35.056 86.0492C35.056 82.2241 31.8684 79.0365 28.0432 79.0365Z" fill="#1D1D35" fill-opacity="0.72"/>
<path d="M144.047 102.409C134.911 102.409 127.688 94.9728 127.688 86.0492C127.688 77.1257 135.124 69.6896 144.047 69.6896C152.971 69.6896 160.407 77.1257 160.407 86.0492C160.407 94.9728 152.971 102.409 144.047 102.409ZM144.047 79.0365C140.222 79.0365 137.249 82.0116 137.249 85.835C137.249 89.6601 140.224 92.6335 144.047 92.6335C147.872 92.6335 150.846 89.6584 150.846 85.835C150.846 82.0115 147.658 79.0365 144.047 79.0365Z" fill="#1D1D35" fill-opacity="0.72"/>
<path d="M172.092 83.4991C172.092 63.7395 166.569 55.0281 149.785 50.1421C147.022 22.0963 113.665 0 86.0462 0C58.4272 0 25.0702 22.0958 22.308 50.1421C5.52322 55.0281 0 63.5266 0 83.4991C0 97.3086 5.09855 106.87 13.3844 113.668V139.377C13.3844 145.113 18.0579 150 24.0079 150H32.5064C38.2425 150 43.1298 145.327 43.1298 139.377V125.992C56.3017 128.542 71.3882 129.392 86.2588 129.392C101.129 129.392 116.217 128.755 129.388 125.992V139.377C129.388 145.113 134.061 150 140.011 150H148.51C154.246 150 159.133 145.327 159.133 139.377L159.131 113.668C166.993 106.87 172.092 97.3086 172.092 83.4991ZM86.0454 9.77455C111.116 9.77455 137.461 30.1717 140.223 50.5672C129.812 54.8173 122.376 66.7143 115.365 78.188C106.654 92.21 98.5805 105.596 86.0445 105.596C73.5086 105.596 65.4348 92.2117 56.7239 78.188C49.7128 66.7143 42.2767 54.8173 31.8658 50.5672C34.6283 29.9592 60.9739 9.77455 86.0437 9.77455H86.0454ZM33.3519 139.377C33.3519 140.014 32.9269 140.439 32.2894 140.439H23.7909C23.1534 140.439 22.7284 140.014 22.7284 139.377V119.617C25.916 121.105 29.3144 122.592 33.1398 123.655V139.377L33.3519 139.377ZM9.5561 83.4991C9.5561 67.1394 12.7437 62.4643 26.9781 58.8535C35.264 60.9786 41.8503 71.602 48.8614 83.0744C57.9974 98.1592 68.6209 115.156 86.2558 115.156C103.891 115.156 114.514 98.1588 123.65 83.0744C130.661 71.6008 137.247 60.9786 145.534 58.8535C159.343 62.4645 162.531 67.1394 162.531 83.4991C162.531 109.207 140.435 119.831 86.0441 119.831C31.6532 119.831 9.55736 109.207 9.55736 83.4991H9.5561ZM149.144 139.377C149.144 140.014 148.719 140.439 148.082 140.439H139.583C138.946 140.439 138.521 140.014 138.521 139.377V123.655C142.133 122.592 145.744 121.104 148.932 119.617V139.376L149.144 139.377Z" fill="#1D1D35" fill-opacity="0.72"/>
</svg>
