<svg xmlns="http://www.w3.org/2000/svg" viewBox="0 0 368.61 355.7"><g id="OBJECTS"><path d="M368.61,199.05c-4.37.36-8.75.68-13.12,1.08q-11.81,1.1-23.59,2.29c-8.5.87-17,1.82-25.48,2.75-3.13.35-6.28.61-9.39,1.11-5.41.85-10.83.34-16.25.42-7.35.1-14.7,0-22,.05a7.67,7.67,0,0,1-5.76-2.42Q205.33,156.64,157.65,109a14.72,14.72,0,0,0-1.91-1.8,4.3,4.3,0,0,0-2-.73c-1.31-.08-1.83.94-1.1,2.07a8.39,8.39,0,0,0,1.2,1.33l88.8,88.81c2.93,2.94,5.83,5.91,8.78,8.84a5.7,5.7,0,0,1,1.76,4.29c0,11.87-.05,23.73-.1,35.59,0,1-.14,2-.25,3.36l-5.42-5.48c-1.6-1.61-3.19-3.24-4.8-4.85a5.74,5.74,0,0,1-1.79-4.17c0-7.07,0-14.14,0-21.21a8.58,8.58,0,0,0-2.66-6.44l-49.43-49.36-34.1-34q-13.09-13.08-26.21-26.14A8,8,0,0,1,126,92.5c.16-2.67,0-5.35.06-8,0-.38.21-1,.42-1.07a1.56,1.56,0,0,1,1.19.4c5.34,5.23,10.64,10.48,16,15.73.31.31.62.62,1,.91a1.37,1.37,0,0,0,2.11,0,1.47,1.47,0,0,0,.12-2.23,11.62,11.62,0,0,0-.89-1q-7.75-7.74-15.54-15.47c-.62-.62-1.33-1.15-2-1.72l.2-.44H161c1.76,0,3.52,0,5.27-.08A8.49,8.49,0,0,1,173,82.32q16.89,17,33.85,33.94,42.7,42.72,85.42,85.42a23.29,23.29,0,0,1,1.9,1.81c1.34,1.66,3,1.78,5,1.55q17.42-2,34.87-3.84c11.15-1.14,22.33-2.1,33.49-3.15a10.05,10.05,0,0,0,1.07-.2ZM252.05,248.31c0-.43.07-.7.07-1q0-17.86,0-35.71a4.75,4.75,0,0,0-1.55-3.5c-1.56-1.55-3.11-3.11-4.66-4.66l-62.84-62.91Q168.35,125.77,153.55,111c-.5-.51-1.05-1-1.51-1.53a2.6,2.6,0,0,1-.4-3.12,2.32,2.32,0,0,1,2.89-.82,7.66,7.66,0,0,1,2.78,1.73q24.75,24.65,49.45,49.35,23.57,23.55,47.11,47.13a6.45,6.45,0,0,0,4.8,2c11.54,0,23.09,0,34.63,0a15.26,15.26,0,0,0,1.52-.15c-3.87-3.82-7.6-7.47-11.29-11.17q-36.69-36.69-73.36-73.4-19-19-38-38.06a7.51,7.51,0,0,0-5.66-2.35c-11.5,0-23,0-34.51.06-.33,0-.67,0-1.07.07a2.13,2.13,0,0,0,.24.4l11.65,11.57c1.58,1.58,3.19,3.14,4.7,4.79a2.39,2.39,0,0,1,.09,3.54c-1.21,1.36-2.65,1.32-4.15-.17-3.94-3.91-7.85-7.85-11.79-11.77-1.45-1.44-2.95-2.85-4.63-4.48,0,2.79.13,5.3,0,7.79a7.63,7.63,0,0,0,2.55,6.28q18.79,18.66,37.52,37.39,18.54,18.48,37.07,37,17.25,17.22,34.52,34.45a10.23,10.23,0,0,1,3.26,7.79c-.11,6.63,0,13.26-.08,19.89a6.14,6.14,0,0,0,2,4.92c1.75,1.63,3.37,3.41,5.06,5.1C249.87,246.21,250.9,247.19,252.05,248.31Z"/><path d="M208.83,233.63c-.75-.7-1.32-1.2-1.85-1.73l-78.72-78.72c-8.9-8.9-17.77-17.81-26.7-26.67a9,9,0,0,1-2.82-6.85c.08-5.59,0-11.18,0-16.77v-1.47c.82.74,1.47,1.29,2.07,1.89q6.18,6.1,12.32,12.25c.34.33.69.66,1,1a1.39,1.39,0,0,0,2.12-.05,1.43,1.43,0,0,0,.06-2.22c-1.32-1.38-2.69-2.73-4-4.09l-10-10.16c-.16-.16-.29-.37-.59-.75a8.85,8.85,0,0,1,1.77-.43c4.87-.1,9.74-.11,14.61-.23a11.54,11.54,0,0,1,7.75,2.64,41.53,41.53,0,0,1,3.56,3.19q35.94,35.92,71.83,71.88,15.21,15.21,30.4,30.44c.65.64,1.39,1.2,2.07,1.81s.5,1.3-.31,1.49a12.17,12.17,0,0,1-2.48.29c-4.76,0-9.51,0-14.26,0a9.41,9.41,0,0,1-7.17-3q-26.42-26.46-52.86-52.88-15.58-15.6-31.16-31.2a7.26,7.26,0,0,0-1.27-1.09,1.5,1.5,0,0,0-2,.38,1.32,1.32,0,0,0,0,1.93,14,14,0,0,0,1,1l50.67,50.68q16.11,16.1,32.23,32.16c1.78,1.76,3.55,3.49,4,6.1a15.77,15.77,0,0,1,.15,2.38c0,5.87,0,11.74,0,17.7-4.51.45-8.93,1-13.38,1.33-9.27.69-18.54,1.45-27.83,1.82-9,.36-18,.44-27.06.34q-12.69-.15-25.36-1c-8.6-.58-17.18-1.44-25.74-2.41a261.81,261.81,0,0,1-28.76-4.94A142.86,142.86,0,0,1,1.28,199.7,10.48,10.48,0,0,1,0,198.11l.34-.33a9.24,9.24,0,0,1,1.11.73,142.33,142.33,0,0,0,60.92,30.27,307.18,307.18,0,0,0,34.11,5.56q17.67,2,35.45,2.56a473.78,473.78,0,0,0,51-.91c8.4-.63,16.78-1.47,25.17-2.21C208.22,233.77,208.37,233.72,208.83,233.63Zm23.73-24.41c-2.75-2.79-5.37-5.46-8-8.11Q195.3,171.82,166,142.53q-18.89-18.9-37.8-37.78a33.31,33.31,0,0,0-3.73-3.18,10,10,0,0,0-6.28-2c-4.15.09-8.3.12-12.45.18-.68,0-1.36.06-2.37.12l7.48,7.39c2,1.94,3.93,3.86,5.85,5.84,1.5,1.56,1.55,2.81.29,4.06s-2.41,1.14-4.06-.35c-.32-.29-.64-.59-.95-.91q-5.6-5.58-11.18-11.18c-.29-.29-.6-.55-1.1-1,0,.71,0,1.1,0,1.49,0,4.83.11,9.66,0,14.49a7.81,7.81,0,0,0,2.47,6q20.84,20.76,41.61,41.59l62.34,62.38c.87.88,1.79,1.72,2.84,2.72,0-.6.06-.91.06-1.23,0-4.55,0-9.1.11-13.65a9.59,9.59,0,0,0-3.17-7.68c-3.3-3.14-6.48-6.39-9.7-9.61Q162.65,166.55,129,132.86c-2.46-2.46-4.94-4.89-7.36-7.38a2.44,2.44,0,0,1-.18-3.63,2.61,2.61,0,0,1,3.85-.14c.61.51,1.14,1.12,1.71,1.68l60.92,60.92q11.36,11.35,22.7,22.71a7.93,7.93,0,0,0,5.95,2.35c4.75,0,9.5,0,14.26,0C231.37,209.35,231.91,209.27,232.56,209.22Z"/><path d="M278,210.28h18.81c2.23,0,2.64.42,2.64,2.67V249.5a13.26,13.26,0,0,1-.11,1.67A2,2,0,0,1,297.6,253a11.66,11.66,0,0,1-1.78.16c-6.39,0-12.78-.07-19.17-.07-5.23,0-10.46,0-15.69.07h-1.08c-2.69-.07-3.32-.7-3.32-3.37q0-18.21,0-36.43a11.87,11.87,0,0,1,.07-1.19c.16-1.45.6-1.86,2.09-1.87H278Zm0,1v0h-12.1c-2.36,0-4.72,0-7.08,0-.84,0-1.27.32-1.24,1.19,0,.4,0,.8,0,1.2v35.23c0,3.21,0,3.22,3.28,3.21,8.15,0,16.29-.06,24.44-.07,3.51,0,7,.06,10.54.07,2.31,0,2.56-.25,2.56-2.53V212.94c0-1.61-.05-1.66-1.7-1.66Z"/><path d="M237.22,213.79c0,5.05,0,10,0,14.86,0,2,0,4.07-.08,6.11,0,1.83-.53,2.47-2.42,2.52-3.62.1-7.26.07-10.89.08-2.39,0-4.79,0-7.18,0s-2.87-.64-2.87-2.95q0-8.93,0-17.84c0-2.23.48-2.75,2.74-2.76,4.35,0,8.7,0,13.06,0Zm-1,1H216.44c-1.49,0-1.66.18-1.66,1.65,0,6,0,12.06,0,18.09,0,1.13.36,1.73,1.56,1.73q9.1,0,18.2,0c1.28,0,1.61-.57,1.61-1.76,0-6.07,0-12.14.05-18.21C236.19,215.85,236.18,215.38,236.18,214.83Z"/></g></svg>