<svg xmlns="http://www.w3.org/2000/svg" viewBox="0 0 368.61 355.7"><g id="OBJECTS"><path d="M368.61,246.94c-1.39.12-2.77.34-4.16.34q-32,0-64-.1-12.75,0-25.48,0-13.87.06-27.75.21c-1.25,0-2.5.17-3.76.26l-.21-.35c.38-.36.71-.94,1.15-1,1-.22,1.19-.81,1.22-1.64,0-.43,0-.87,0-1.31.16-2.4.8-4.5,3.73-5.37l-2.51-.42c1.9-1.44,1.73-3.18,1.28-5.07s-.73-4.08-1.11-6.11c-.62-3.38-1.46-4.28-4.88-4.35-6-.12-12-.07-17.92.05a20.93,20.93,0,0,0-5,1,2,2,0,0,0-1.24,1.36c-.11,3.38-.06,6.76-.06,10.21h2.67a30,30,0,0,1,1-3.38c2.4-5.6,8.91-8.05,15-5.7,3.48,1.34,5.79,4,7.81,7a5.82,5.82,0,0,1,.77,2.49,15.21,15.21,0,0,1-2.48,10.69,8,8,0,0,1-5.66,3.67c-4.48.58-8.92.47-13-1.7a10.74,10.74,0,0,1-6.08-8.23c-.19-1.36-.78-1.66-2-1.65q-13.45.1-26.91.1c-12.52,0-25,0-37.56-.07H150c-.27,1.19-.5,2.31-.78,3.42-1.41,5.6-5.09,8.44-10.87,8.46-2.72,0-5.43-.05-7.9-1.42a11,11,0,0,1-5.86-8.65c-.1-.83-.38-1.08-1.18-1-1.1.08-2.5-.31-3.24.23s-.62,2-.9,3c-.11.42-.25.84-.4,1.25-1.83,5.1-3.84,6.51-9.23,6.51-4.07,0-8.14,0-12.2,0l-94.6.23H0v-2H97.51a14.24,14.24,0,0,1-3.69-7.53A18.21,18.21,0,0,1,95,229.92c1.71-3.92,5-5.78,9-6.07a23.27,23.27,0,0,1,7.21.57c4.64,1.17,6.82,4.8,8,9.13.34,1.22.52,2.48.8,3.86h2c2.38,0,3.32-.82,3.65-3.16,1.14-8,10.3-12.17,17.53-8a12.44,12.44,0,0,1,5.89,7.79c.21.76.4,1.53.6,2.32h68c-1.92-2.63-1.17-5.57-1.28-8.38a35.78,35.78,0,0,1,.08-3.59c.1-1.75.62-2.52,2.34-2.83a44.22,44.22,0,0,1,6.87-.79c5.73-.12,11.48-.15,17.21,0,3.08,0,4.5,1.44,5.2,4.45.82,3.49,1.86,6.94,1.46,10.6,0,.32.28.67.43,1l.43.08a5.78,5.78,0,0,0,.7-1.79,41,41,0,0,0-2.08-13.63c-.69-2-.91-2.27-3-2.27l-21.89.08c-2.19,0-4.38-.07-6.57-.07-1.52,0-1.79.29-2,1.76-.47,4-.94,8.08-1.48,12.1a12.21,12.21,0,0,1-.82,2.33l-.36,0a23,23,0,0,1-.87-2.49q-.85-3.84-1.59-7.72a2,2,0,0,0-2.2-1.86l-12.2-.08c-1.07,0-1.58.44-1.56,1.59,0,2.84,0,5.67,0,8.5a3.32,3.32,0,0,1-.45,1.08c-.28-.28-.74-.52-.83-.86a9.75,9.75,0,0,1-.28-2.35c0-2.47,0-4.94.06-7.41,0-1.39-.33-1.82-1.57-1.82H163.21c-1.81,0-1.84,0-2,1.87-.14,2.14-.21,4.29-.34,6.44s-.75,3-2.92,3.69c-1-1.08-.84-2.44-.85-3.73,0-5.58,0-11.17,0-16.75v-1.46H94.38c-.23,2.74-.46,5.46-.67,8.19-.42,5.4-.84,10.8-1.23,16.21a1.77,1.77,0,0,1-1.7,1.83c-1.82.15-3.66.18-5.49.15a2.18,2.18,0,0,1-2.2-1.95c-1.13-4.62-1.06-9.33-1-14,.09-5.3.22-10.6.36-15.89.06-2.11.17-4.22.28-6.33a1.57,1.57,0,0,1,1.58-1.63c1.66-.14,3.34-.22,5-.39s2.15.42,2.31,2.05.09,3.42.11,5.13c0,.63,0,1.27,0,2H143.1v-.28c-3-.13-6.05-.37-9.08-.38-7.66,0-15.31,0-23,.07-3.26,0-6.53.21-9.79.16a39.9,39.9,0,0,1-5.22-.59c-1.42-.2-1.81-.68-1.83-2.16,0-2.39,0-4.78,0-7.17,0-4.39.06-8.77.07-13.16,0-2.19-.26-2.5-2.3-3.13a18.66,18.66,0,0,1-2.24-1v-.38a27.49,27.49,0,0,1,3.18-.82c2-.27,2.12-.12,2.69,1.85h9.92V162.87c-2,1-3.86,1.86-5.69,2.85-4.52,2.44-9,5-13.52,7.39A2.44,2.44,0,0,0,84.9,176a7.07,7.07,0,0,1-.75,4.49c-1.38,3-2.66,6.13-4,9.2-.14.33-.22.75-.46,1-.43.36-1,.85-1.45.77s-.84-.82-.89-1.31a18.92,18.92,0,0,1,.08-3.1q.34-5.73.71-11.46c.1-1.51.89-2.24,2.59-2.1,2.23.19,2.9-.54,2.84-3-.13-4.94-.07-9.88-.1-14.83a1.72,1.72,0,0,1,1.62-1.86,73.09,73.09,0,0,1,19.54-.7c1,.09,1.49.67,1.55,1.73.09,1.79.29,3.57.45,5.36.09.93.41,1.42,1.53,1.18,2-.42,2.44,0,2.47,2.13,0,4.35.06,8.69.09,13q.08,11.12.15,22.24c0,1-.12,2-.15,3,0,1.3.54,2,1.62,2.06s1.48-.44,1.48-1.95c0-13.12,0-26.24,0-39.36a75.13,75.13,0,0,1,.67-8.19c.16-1.46.77-1.86,2.27-1.86,5.58,0,11.16,0,16.74,0a2.49,2.49,0,0,1,2.54,1.6c.75,1.62,1.52,3.23,2.3,4.9a12.83,12.83,0,0,1,1.41-.91,1.71,1.71,0,0,1,2.12.64,1.21,1.21,0,0,0,1.67.38c6.84-3.8,14.32-5.93,21.63-8.53,15-5.36,30-10.82,45-16.22q21.06-7.58,42.14-15.11c1.91-.68,2.45-.53,3.68,1.07s2.44,3.25,3.67,4.86c1,1.35,1.33,1.43,2.76.61,2.83-1.62,5.64-3.27,8.53-4.94-.27-.83-.48-1.55-.75-2.24-.7-1.89-1.14-2-2.89-1.07-2.48,1.36-5,2.69-7.5,4a6.46,6.46,0,0,1-1.85.31l-.24-.47a8.65,8.65,0,0,1,1.34-1.3c3.07-1.83,6.21-3.56,9.27-5.43a21.22,21.22,0,0,1,10.17-3.09c2.63-.13,5.25-.33,7.88-.46s3.1.4,3.22,2.93q.22,4.78.4,9.55a1.83,1.83,0,0,1-.14,1c-1.14,1.7-1.3,3.65-1.49,5.6a3.63,3.63,0,0,1-1.49,3,2.7,2.7,0,0,0-.9,1.95c0,3.1.1,6.21.28,9.31a2.42,2.42,0,0,0,1,1.53,7.62,7.62,0,0,1,3.25,6.46c0,1.81-.52,3.41-2.34,4.22a2.67,2.67,0,0,0-1.66,3.13c.22,2,.25,4,.36,5.92l3.2.36-.06.33-3.37,1.37.18.58c.6-.12,1.22-.22,1.82-.38,1.69-.47,2.29-.06,2.14,1.67a43,43,0,0,1-.75,5.43,5.63,5.63,0,0,1-1.32,2.49,1.86,1.86,0,0,0-.31,2.37c.51,1,1.08,2,1.6,3.07,1.83,3.66,1.1,7.61-1.82,9.81-3.37,2.56-8.78.46-9.49-3.68a3.53,3.53,0,0,1,1.1-3.27c.67,1,1.38,1.84,2,2.8a1.85,1.85,0,0,0,2.53.84l.22-.1c3.3-1.12,3.59-2.41,1.34-5.62a15.49,15.49,0,0,0-1.52-1.51c-.21-.23-.49-.54-.48-.8.05-1.7-1.24-2.49-2.28-3.41a8.29,8.29,0,0,1-2.77-7c.06-1.15.16-2.3.23-3.46a2.15,2.15,0,0,1,2.25-2.2c.43,0,.86,0,1.38,0,0-2.63,0-5.22,0-7.8,0-.28-.32-.61-.57-.83a2.55,2.55,0,0,0-.88-.36c-2.94-.87-3.1-.86-3.07-4.38,0-4.3,0-8.61.06-12.91,0-1.31.22-2.62.36-4.1-3.84-1.17-4.55-4.14-4-7.91a3.22,3.22,0,0,0-1.14.21c-6.3,4-13.35,6.33-20.3,8.88-3,1.09-5.9,2.17-8.82,3.34a27.86,27.86,0,0,0-3.61,1.84c-1.31.77-1.37,1.1-.67,2.51,1.22,2.42,2.47,4.82,3.71,7.23.16.32.33.64.47,1a3.33,3.33,0,0,1-1,4.28,24.49,24.49,0,0,1-2.76,1.89c-1.79,1.08-2.53.95-4.08-.65l-70.1,35.7.06.29h2l42,0c2.59,0,3,.41,3.31,3s.73,5.29.94,7.95c.23,2.9-.89,4-3.83,4l-38.87,0c-2,0-2.39.34-2.25,2.37.08,1.08.15,2.15.25,3.22.14,1.39.52,1.8,1.87,1.78q13.27-.12,26.54-.31c3.91-.06,7.81-.2,11.71-.36,1.51-.07,3-.31,4.52-.47s1.95-.62,1.93-2.15c0-5.78-.16-11.56-.12-17.34,0-3.42.28-6.84.47-10.26.08-1.4.59-2,2-2.08,5.64-.35,11.28-.7,16.93-.93,3.42-.14,6.85-.06,10.27,0a8.29,8.29,0,0,1,2.6.32,4.92,4.92,0,0,1,2.24,1.41c4.44,5.89,8.8,11.84,13.18,17.77a10.82,10.82,0,0,1,1.74,6.35c.13,4,.25,8.05.31,12.07,0,1.18-.17,2.37-.28,3.67,1.61-.08,3.18-.18,4.76-.21,1.92,0,2.52.43,2.51,2.33,0,3.86-.2,7.72-.37,11.58a2.36,2.36,0,0,1-2.44,1.89c-4-.1-8-.22-11.93-.5-.86-.06-1.67-.83-2.24-1.14-2,.77-3.78,1.56-5.64,2.2-2.83,1-3.52,1.86-3.53,4.89,0,.63,0,1.26,0,1.93,2.15-.11,4.13-.29,6.11-.29q57.13,0,114.25,0c.47,0,.95.08,1.42.12Zm-211-53.84c-.44-2.38-.77-2.56-2.82-1.67a14.15,14.15,0,0,1-1.77.7,1,1,0,0,1-.81-.2c-.09-.08,0-.52.1-.69a25.39,25.39,0,0,1,2.22-2.81,1.71,1.71,0,0,1,1.52-.38c1.27.9,2.4.48,3.6-.06l55.69-25.17c5.51-2.49,11-5,16.55-7.43,3-1.29,3-1.16,2.19-4.29-.42-1.57-.31-1.7,1.34-1.52.18,0,.37,0,.74,0-.61-1.45-1.25-2.77-1.69-4.15-.39-1.22-.95-1.37-2.11-1q-30.57,10.56-61.17,21c-6.24,2.13-12.53,4.14-18.83,6.12a8.68,8.68,0,0,1-2.65,0l-.15-.56a10.73,10.73,0,0,1,2.33-1.71c5.21-2,10.41-4,15.71-5.68,14.16-4.56,28.39-8.89,42.55-13.48,7.71-2.5,15.31-5.36,23-8.08-.3-.53-.53-1-.77-1.36-.93-1.61-1.28-1.75-3.09-1.28l-10.85,2.86q-33.91,9-67.84,18c-1.65.44-1.9.81-1.92,2.51a180.63,180.63,0,0,0,1,22.55,46.59,46.59,0,0,0,1,6,2.43,2.43,0,0,0,1.51,1.58A47.24,47.24,0,0,0,157.61,193.1ZM152,197.59a19.28,19.28,0,0,1,2.55-1.32c1.13-.39,2.33-.54,3.48-.84.23-.07.4-.38.6-.57-.18-.12-.35-.34-.53-.34-2.46,0-4.92,0-7.43,0,.17,1.45.39,2.75.47,4.05a28.83,28.83,0,0,1,0,4c-.26,3.2-1.64,4.45-4.82,4.58a7.82,7.82,0,0,0-.8.13c2,.86.44,2,.25,3.29,3.76-.29,7.36-.55,11-.85,1.29-.1,1.78.27,1.76,1.56,0,.95-.18,1.9-.18,2.86q0,8.37,0,16.74a13.89,13.89,0,0,0,.18,1.58l.42,0a18.43,18.43,0,0,0,.5-2.32c.2-2.54.32-5.08.49-7.63.09-1.44.55-1.92,2-1.93q15.26,0,30.5,0a2,2,0,0,1,1.5.53c.61,1,1.48.89,2.39.88,4.27-.08,8.53-.18,12.79-.23,1.9,0,2.47.5,2.79,2.38.4,2.33.79,4.66,1.19,7l.31,0a9.93,9.93,0,0,0,.38-1.68c.24-3.61.44-7.22.65-10.84.07-1.14.41-1.37,1.55-1.1a5.94,5.94,0,0,0,1.39.23l23.68-.07c1.87,0,3.75,0,5.62,0,1.29,0,2.62.41,2.95,1.79,1,4.14,1.94,8.29,2.69,12.48a30.15,30.15,0,0,1,.05,5.21c1.55-.14,2.08-.62,2-2a14.66,14.66,0,0,0-.32-3c-1-4.63-2.1-9.24-3.16-13.86-.87-3.78-.23-3.5-4.46-3.59q-7.57-.18-15.17-.47c-.6,0-1.61-.39-1.69-.77-.3-1.34-1.15-1.38-2.21-1.46-1.79-.14-2.39-.77-2.49-2.49q-.58-10.58-1.09-21.13c-.08-1.58.27-1.91,1.85-1.9,1.3,0,2.43-.18,3-1.6.13-.3.8-.52,1.23-.53,4.5-.16,9-.3,13.5-.38a6.83,6.83,0,0,1,5.53,2.32c3.86,4.29,7.82,8.5,11.75,12.74a7.82,7.82,0,0,0,.6.55,2,2,0,0,0-.42-.9c-3.07-4.12-6.16-8.23-9.18-12.38A8.26,8.26,0,0,0,244.4,183c-8.16.24-16.32.55-24.48.84-1.35,0-2,.55-2,1.87q-.23,11.47-.39,23c0,1.63.07,3.27,0,4.9,0,1.35-.53,1.88-1.84,2.06s-2.85.42-4.27.49c-5.65.27-11.3.6-17,.68-7.81.12-15.63,0-23.44,0a2.21,2.21,0,0,1-2.51-2.4c-.13-1.83-.19-3.66-.29-5.49-.08-1.45.29-1.89,1.74-1.91l18.29-.2,22.36-.17a2.27,2.27,0,0,0,1.27-.19c.46-.34,1-.88,1.07-1.37a28,28,0,0,0-1.23-10.23h-1.32c-11,0-21.93,0-32.89-.09-4.94,0-9.89-.14-14.83-.19-1.84,0-2.39.5-2.88,2.2a1.85,1.85,0,0,1-1,1.09c-1.31.46-2.69.72-4,1.13S152.69,199.18,152,197.59Zm-4.77-27.09.2,0c0-2.63,0-5.26,0-7.88,0-1.92.5-2.78,2.38-3.32,4.35-1.25,8.7-2.56,13.08-3.72q30.52-8.06,61.06-16c2-.54,4.08-1.09,6.13-1.58,1.56-.37,2.11-.09,2.83,1.26a16.11,16.11,0,0,0,.91,1.81,1.39,1.39,0,0,0,1,.61,1.57,1.57,0,0,0,1.3-2.5,17.77,17.77,0,0,1-1.22-2.32,2,2,0,0,1,.18-1.72,1.86,1.86,0,0,1,1.72,0,34.44,34.44,0,0,1,4,2.77,2.11,2.11,0,0,0,2.28.48c5.51-2.07,11-4.11,16.54-6.19a12.3,12.3,0,0,0,1.64-1l-2.55-.8c.12-.44.19-.75.3-1.05a3.85,3.85,0,0,0-.74-4.19c-.9-1-1.63-2.16-2.47-3.22-1.36-1.7-1.81-1.81-3.9-1.06-18.39,6.57-36.8,13.09-55.17,19.72-17,6.14-33.92,12.39-50.88,18.6-.88.32-1.74.7-2.65,1.07C144.58,163.71,145.91,167.11,147.23,170.5Zm-13.14,8.05c-.53,0-.92,0-1.31,0l-13.62.42c-1.92.06-2.37-.33-2.37-2.22s.08-4,.07-6c0-4.35,0-8.69-.07-13,0-1.77.31-2.28,1.68-2.29,3.91,0,7.82,0,11.72,0a2.79,2.79,0,0,1,2.76,1.9c1.39,3.3,2.86,6.57,4.17,9.9a72.55,72.55,0,0,1,2.5,7.46c1.24,4.58,1.09,9.32,1.18,14,.08,3.94,0,7.89-.25,11.82a39.88,39.88,0,0,1-1,5.43l2.86.26c1.07.11,1.64-.27,1.63-1.46,0-1.71.09-3.42.14-5.13.16-5.42.26-10.84.49-16.25a31.51,31.51,0,0,0-3.27-16.08c-2.08-4-4.15-8.07-6.17-12.13a2.55,2.55,0,0,0-2.5-1.65H117.5a1.58,1.58,0,0,0-1.72,1.49c-.28,2.89-.7,5.79-.7,8.68,0,6.46.27,12.91.34,19.37s0,12.68,0,19v1.31h1.12l15.55-.23c2,0,2.15-.17,2.15-2.19q0-10.53-.08-21.05C134.17,179.51,134.13,179.12,134.09,178.55Zm95.39,7.29,0,.45c.52.15,1,.32,1.56.44,1.5.32,1.71.57,1.51,2.11-.38,3.08-.84,6.16-1.18,9.25-.28,2.54.48,3.29,3,3.4,2.71.1,5.41.23,8.11.47,4.25.37,5.64,1.59,6.76,5.65a15.15,15.15,0,0,0,.94,2.95c.33.63,1.06,1.46,1.64,1.48,3.26.14,6.53.11,9.79,0a1.6,1.6,0,0,0,1.7-1.66c-.07-3.64-.56-7.2-3.17-10-4.19-4.54-8.45-9-12.7-13.49a3.85,3.85,0,0,0-3-1.24c-4.55,0-9.09,0-13.64,0A8.44,8.44,0,0,0,229.48,185.84ZM115.14,204.71v.61a18.44,18.44,0,0,0,1.95.21c3.79,0,7.58.1,11.36,0,2.86-.08,5.71-.42,8.57-.67a1.63,1.63,0,0,0,1.69-1.65c.08-.95.41-1.88.42-2.83.07-5.85.15-11.7.1-17.55a36.07,36.07,0,0,0-2.78-12.65q-2.25-5.78-4.53-11.56c-.59-1.49-1.05-1.81-2.68-1.82-3.07,0-6.13,0-9.2-.05-1.74,0-2,.26-2,2,0,5.46,0,10.92,0,16.38,0,2.13.25,2.35,2.43,2.28l12.78-.36c2.17,0,2.5.28,2.5,2.44q0,10.35-.09,20.69c0,1.29-.22,2.59-.34,4C128.53,204.42,121.83,204.38,115.14,204.71ZM95.49,181.9c0,.48-.07.83-.07,1.18q0,7.95,0,15.89c0,1.4,0,2.8.07,4.18.12,1.56.5,2.06,2,2.15,5.16.31,10.33.49,15.5.72.11,0,.28,0,.35,0,.24-.23.64-.5.62-.72a1,1,0,0,0-.67-.67,5.06,5.06,0,0,0-1.55.06c-2.06.29-2.31.09-2.31-2V164.91c0-.48,0-1,0-1.43,0-.89-.48-1.21-1.28-1.2-1,0-1.31.65-1.28,1.59.14,5.26.25,10.51.38,15.76,0,1.55-.55,2.23-2.07,2.26-1.12,0-2.23,0-3.35,0Zm-4.31,55c.54-8.15,1.06-16.1,1.61-24,.14-2,.69-2.46,2.71-2.53.36,0,.72,0,1.07,0q21.3,0,42.59,0c1.23,0,2.46.09,3.69.19.71.06,1.18-.14,1.3-.88s-.37-1.09-1.06-1.09c-.91,0-1.83.05-2.74.05q-22.25.13-44.49.23c-1.81,0-3.6-.13-5,1.8a10.27,10.27,0,0,1-.56-2.08c-.08-2.51-.07-5-.11-7.53,0-1.29-.29-1.56-1.57-1.46s-2.76.3-4.19.47c-.07.72-.19,1.34-.21,2-.22,8.44-.51,16.89-.6,25.33a55,55,0,0,0,.81,8.07c.08.55.78,1.39,1.26,1.43C87.48,237,89.35,236.91,91.18,236.91ZM85,172.54c6.7-3.75,13.22-7.4,19.72-11.07a1.18,1.18,0,0,0,.54-.9c-.07-1.58-.2-3.17-.39-4.75a1.65,1.65,0,0,0-1.65-1.59,77.89,77.89,0,0,0-17.26.71c-.88.16-1,.52-1,1.33,0,5.09,0,10.19,0,15.28C85,171.82,85,172.09,85,172.54ZM235.8,155.66l-.31-.47a11.36,11.36,0,0,0-1.66.49c-1,.47-2,1.06-3,1.52l-55.6,25.13c-5.29,2.39-10.59,4.78-15.87,7.21a2.36,2.36,0,0,0-1.29,1.23c-.32,1.29,2,3.12,3.21,2.64,1.52-.59,3.05-1.17,4.5-1.9q20.81-10.45,41.59-21,13.48-6.83,26.94-13.67A9.12,9.12,0,0,0,235.8,155.66ZM118.42,237.24c-.13-.93-.2-1.64-.33-2.35-.87-5-3.8-8.43-8.16-9.35a16.33,16.33,0,0,0-8.38.38,7.71,7.71,0,0,0-4.88,3.77c-2.75,5.46-2.22,10.76,1,15.85a4.43,4.43,0,0,0,3.55,2.15c2.32.17,4.65.22,7,.32l-.5-3.19c-4.61.74-6.63-.58-7.81-5.06-.25-.93-.41-1.87-.61-2.8-1-4.76,3.88-8.08,7.06-7.81a8,8,0,0,1,7.17,7c.05.5-.06,1.08.75,1.06C115.63,237.22,116.93,237.24,118.42,237.24Zm143.9-106.3a6.19,6.19,0,0,0,1.26-.37c2.83-1.36,5.63-2.79,8.46-4.14a2.22,2.22,0,0,0,1.35-1.8c.27-1.61.63-3.2.86-4.82a2.74,2.74,0,0,1,1.69-2.17c1,2.3-.07,4.52-.09,6.89l4.49-2.34,4.45-2.34,4,4.26L289,124l-.87-11.66a3.81,3.81,0,0,0-.6-.08l-9.54.49a15.44,15.44,0,0,0-6.8,1.54c-1.2.65-1.32,1-.58,2.11a11.46,11.46,0,0,1,1.07,2c1.07,2.63,1,2.92-1.53,4.33s-4.95,2.71-7.43,4.06c-.74.4-1.38.77-1,1.84A14.66,14.66,0,0,1,262.32,130.94ZM220.11,236c-.37.89-1,1.68-.93,2.39a9,9,0,0,0,3.65,6.83,17,17,0,0,0,11.51,3.13c2.37-.2,4.7-.65,6.42-2.49a11.27,11.27,0,0,0,3-10.89c-1.22-4.95-6.17-8.68-11.5-8.83a9.45,9.45,0,0,0-10,7.37,2.06,2.06,0,0,0-.12,1.16,1.92,1.92,0,0,0,.87,1c.19.09.67-.23.92-.46a9.79,9.79,0,0,0,.87-1.14,10.45,10.45,0,0,1,8.32-4.47,7.85,7.85,0,0,1,7.67,4.31c1.54,2.87,1,5.68-1,8.15-3.44,4.44-9.23,4.8-14,1.38a5.33,5.33,0,0,1-2-2.83C223.42,238.42,221.9,237.34,220.11,236Zm36.74-11.59c-.14,3.52-.32,6.93-.39,10.35a2,2,0,0,0,2.16,2.18c3.38.2,6.76.38,10.14.57l2.43.12V224.39ZM144.32,236.65c-.81-2.44-1.94-4.25-4.29-5-3.53-1.16-6.65.24-8.63,3.88-1.81,3.33-1.81,3.33-5.44,2.66a9,9,0,0,0,3.91,8,13.38,13.38,0,0,0,10.29,2,9.16,9.16,0,0,0,7.71-6.9,19.18,19.18,0,0,0,.39-3.33c-2.19-.18-2.18-.17-2.68,1.62a14.12,14.12,0,0,1-.61,1.8,5.07,5.07,0,0,1-4.88,3.4,21.26,21.26,0,0,1-4.83-.57,5.88,5.88,0,0,1-4.1-3.7c-.74-1.76-.34-2.74,1.51-3.26a14.54,14.54,0,0,1,3.4-.55C138.74,236.6,141.41,236.65,144.32,236.65Zm95.87.5.31-.13a14.79,14.79,0,0,0-1.47-3.39,6.84,6.84,0,0,0-6.13-2.58c-3.86.25-6.38,2.6-8.39,5.61a2,2,0,0,0-.07,1.49,7.57,7.57,0,0,0,6.31,6,9.11,9.11,0,0,0,5-.82A6.2,6.2,0,0,0,240.19,237.15Zm9-25.24c-.56-1.68-1.09-3.21-1.6-4.75-.87-2.66-1.65-3.3-4.43-3.52s-5.87-.46-8.8-.71c-3.08-.26-4.33-1.59-4.28-4.7a41,41,0,0,1,.38-4.28c.2-1.58.52-3.14.68-4.72.06-.69,0-1.55-1-1.56s-.87.88-.89,1.48c0,.87.09,1.75.13,2.62q.39,8.65.77,17.3c.07,1.54.46,1.93,2,2C237.73,211.37,243.33,211.63,249.17,211.91ZM139.29,160.48c.34.63.65,1.27,1,1.87a36.54,36.54,0,0,1,5.57,21.5c-.25,4-.37,8-.51,11.92-.1,2.91-.13,5.81-.18,8.72,0,1.45.56,1.88,1.94,1.49a3.5,3.5,0,0,0,2.58-3.56c.18-8.36-1.69-16.53-2.34-24.82-.46-5.77-3.21-10.95-5.22-16.3C141.68,160.09,140.68,159.86,139.29,160.48ZM100.6,236.62a8.35,8.35,0,0,0,2,5.39c2.29,2.8,5,2.31,6.23-1.06a5.28,5.28,0,0,1,2.74-3.31,1.79,1.79,0,0,0,.7-1.44,6.53,6.53,0,0,0-6.42-5.47C102.57,230.93,100.6,233.14,100.6,236.62Zm150.16-23.18v.41c.79.25,1.57.53,2.37.74a2.1,2.1,0,0,1,1.78,2.32c-.06,1.23-.19,2.46-.35,3.68s.22,1.86,1.55,1.94c1.11.07,2.22.17,3.33.19,1.65,0,3.29,0,4.94,0V212.66a7.89,7.89,0,0,0-1,.27,11.46,11.46,0,0,1-5.62.68c-1.79-.15-3.57-.32-5.36-.41A7.83,7.83,0,0,0,250.76,213.44ZM148.18,236.29c-.92-6.2-5.56-10.3-11.56-10.11-6.42.19-9.26,5.25-9.63,9.55a1.74,1.74,0,0,0,.7,1.44c.39.14,1.1-.26,1.5-.61a4.22,4.22,0,0,0,.84-1.43,8.12,8.12,0,0,1,8.32-5.21,6.83,6.83,0,0,1,6.81,5.31C145.6,236.65,146.66,237,148.18,236.29Zm141.4-67.4-2.38.27c-.87.08-1.47-.18-1.64-1.15-.05-.26-.26-.65-.48-.71a19.77,19.77,0,0,0-3.11-.73,1.4,1.4,0,0,0-1.67,1.3,10,10,0,0,0,2.21,8.93,3.07,3.07,0,0,0,4.19.54,4.36,4.36,0,0,0,2-3C289,172.6,289.27,170.83,289.58,168.89Zm-60.74,41.65c0-.26,0-.53,0-.8-.35-6.91-.73-13.82-1-20.73,0-1-.4-1.21-1.28-1.19s-1.51.2-1.54,1.21c0,.44,0,.88,0,1.32.33,6.11.68,12.22,1,18.33C226.16,210.73,226.75,211.15,228.84,210.54ZM118.42,238.82c-1.45,0-2.8,0-4.14,0a1.82,1.82,0,0,0-1.21.63c-1.3,1.81-2.59,3.62-3.75,5.52-.72,1.17-.2,2.27,1.12,2.74a4.15,4.15,0,0,0,4.36-.78C117.2,244.83,118,242,118.42,238.82Zm20.73,4.87a5.47,5.47,0,0,0,5.27-5c.08-.77-.35-.87-.94-.84-3.29.13-6.58.25-9.87.42-1,.05-1.55.69-1.08,1.6a5.69,5.69,0,0,0,2.11,2.4A25.66,25.66,0,0,0,139.15,243.69Zm140.57-97.27,2.74-.85c2.17-.67,2.17-.67,2.17-2.89v-8.07c-1,.1-1.79.16-2.61.26-2.3.3-2.29.31-2.3,2.65Zm-42,10.21,0,.38a2.5,2.5,0,0,0,.95,0c1-.52,2.05-1.06,3-1.67a2.35,2.35,0,0,0,1-3.1c-1.28-2.86-2.65-5.68-4-8.51a1.52,1.52,0,0,0-2.12-.77c-.5.18-1,.47-1.64.8,1.56,3.25,3.05,6.4,4.6,9.52.62,1.25.59,1.66-.58,2.5ZM83.38,174.48c-.68.08-1.27.13-1.86.22-1.61.22-1.89.46-2.06,2.08q-.55,5.4-1,10.82a8,8,0,0,0,.19,1.66l.38,0c.35-.86.72-1.71,1.06-2.58a58.26,58.26,0,0,1,2.38-6A11.21,11.21,0,0,0,83.38,174.48ZM279.6,150.13a4.39,4.39,0,0,0,1.42,3.64c1.42,1.17,1.9,1.1,2.72-.53a10.41,10.41,0,0,0,1.12-2.73,15,15,0,0,0,0-3.28.88.88,0,0,0-.55-.62A4,4,0,0,0,279.6,150.13Zm.78,39.53a5.21,5.21,0,0,0,5.06,2.62c2.42-.38,4.05-2.43,4.26-5.2.17-2.42-.95-4.36-2.07-6.35-.57-1-1.23-1.37-2.63-.78.47.74.89,1.44,1.35,2.11a17.91,17.91,0,0,1,2,2.8c1,2.22.08,4.19-2.13,5.22a4.59,4.59,0,0,1-3.8.25C281.8,190.09,281.19,189.93,280.38,189.66Zm4-59.86h.08a5.09,5.09,0,0,0,0-1.41,1.71,1.71,0,0,0-.77-1,3.71,3.71,0,0,0-1.4,0,2.57,2.57,0,0,1-.47-.08c-.84-.2-1.28.15-1.38,1-.17,1.42-.41,2.83-.48,4.25a1.46,1.46,0,0,0,.74,1.12,2.67,2.67,0,0,0,3.7-2.34C284.45,130.83,284.41,130.31,284.41,129.8ZM180.62,161.15l-.12-.38c-.38.1-.77.17-1.14.3l-23.1,7.62c-.64.21-1.29.41-1.91.67-.15.06-.21.33-.3.5a1.3,1.3,0,0,0,.49.14,2.81,2.81,0,0,0,.68-.21l24.41-8.23C180,161.45,180.29,161.29,180.62,161.15Zm95.25-34.37c-.6,3.39.44,5.73,2.58,6.4.25-1.93.49-3.83.75-5.84Zm11.05,19.81-.5.18c-.15,1.23-.66,2.55.18,3.68,1,1.39,1.26,2.59,0,3.92a1,1,0,0,0,0,.94,1,1,0,0,0,.94.14c.78-.42,1.48-1,1.33-2a39.7,39.7,0,0,0-.58-4.36A11,11,0,0,0,286.92,146.59Zm-56,65.63-.05.31a73.28,73.28,0,0,0,18,.91l0-.32Zm53.89-55.35c-1.48,1.32-1.45,7.1,0,8.54,1.66-2.41-.1-5.09.63-7.52C285.53,157.65,285.09,157.27,284.83,156.87Zm-31.49,66,1.46,7.07c0,.05.11.08.29.19.18-1.37.35-2.68.53-4,.31-2.4.3-2.41-2-3.28Zm-12.79-84-4.17-2.94-.33.32c.38.79.75,1.58,1.15,2.37,1,1.94,1.43,2,3.06.59A2.33,2.33,0,0,0,240.55,138.84Zm42.22-16.63-6.52,3.44C279.54,126.46,280.33,125.87,282.77,122.21Zm3.47,10A7,7,0,0,0,287.3,127C285.47,127.58,285.06,129.51,286.24,132.21ZM281,125.75l.18.28h3.07v-3.35Zm-29.51,89.67c.42,1.83.84,3.6,1.25,5.38a8.63,8.63,0,0,0,.72-2.25,7.13,7.13,0,0,0,.09-.94C253.69,216.07,253.29,215.61,251.52,215.42Zm34.21-92.51c-.09,1.12-.18,2.15-.26,3.17l.44.27c.45-.47,1.26-.95,1.26-1.42C287.17,124.18,287.13,123.06,285.73,122.91ZM262.85,202l1.06,4.24.34-.09C264.39,204.59,264.32,203.1,262.85,202ZM109.64,242.15l.34.14c1.38-1.53,1.86-2.7,1.21-3.23Z"/><path d="M0,249.86c-2.82-.1-5.65-.23-8.47-.27-4.38-.07-8.76-.07-13.15-.09l-30.24-.16-9.91-.08L-63,249.2c0-.42-.07-.76-.07-1.11,0-8.65,0-17.29-.09-25.94,0-8.28-.16-16.57-.22-24.86a4,4,0,0,0-1.89-3.37,7.76,7.76,0,0,1-3.35-8.64A7.18,7.18,0,0,1-65.45,181a4.34,4.34,0,0,0,2.08-4.23c-.12-2.94,0-5.89,0-9-.83-.06-1.57-.15-2.32-.15l-29.4-.05c-.4,0-.8,0-1.2,0-3.17-.28-4.56-1.75-4.57-4.95q0-7.35,0-14.7c0-3.42,1.56-4.94,5-4.95l22.83-.09a19,19,0,0,0,2-.24,2.62,2.62,0,0,0-2.47-1.32c-1.15-.11-2.31-.1-3.46-.1h-38.5c-.78,0-1.57.08-2.42.12v61.52c1.32.52,1.82.33,2.64-1.1a26.83,26.83,0,0,1,7.42-8.64c16.78-12.12,38.51-1.56,41.17,16.37.48,3.26.58,6.57.87,10-2.1,0-4,.07-6,0-.85,0-1.11-.84-1.09-1.61,0-1.08.12-2.15.16-3.22a19.33,19.33,0,0,0-13.23-19.13A19,19,0,0,0-108,202.59c-1.48,2.13-3.19,3.18-5.82,2.83a25,25,0,0,0-4,.07c-1.61.06-2.08-.27-2.65-1.77a1.23,1.23,0,0,0-.81-.6c-1.81-.31-2.2-.7-2.2-2.6,0-3.74,0-7.49.07-11.23,0-.42,0-.85,0-1.36a4.23,4.23,0,0,0-2.64,2.44,20,20,0,0,1-10,9.84,24.5,24.5,0,0,1-9.68,1.78c-2.11,0-2.21.11-2.23,2.24,0,.59,0,1.19,0,2,1.07.06,2.08.16,3.09.16,6.1,0,12.2,0,18.3,0,4.7,0,9.4,0,14.1.1A5,5,0,0,0-107.8,204a18.3,18.3,0,0,1,21.54-7.47,18.58,18.58,0,0,1,12.42,19.39,18.21,18.21,0,0,1-15.71,16.49A18.19,18.19,0,0,1-109.49,221c-.19-.48-.36-1-.58-1.44a2.37,2.37,0,0,0-2.25-1.49H-191.1c-2.65,0-2.82.11-3.77,2.53a18.53,18.53,0,0,1-18.25,12.09c-7.27-.12-14.11-5.34-16.72-12.74-.65-1.87-.65-1.86-2.62-1.89-1,0-2-.14-3-.07a6.32,6.32,0,0,0-5,3.2,20.45,20.45,0,0,0-1.23,2.31,14.66,14.66,0,0,1-11.92,8.83c-4.82.73-9.47.2-13.68-2.43-4.78-3-7.37-7.44-8.59-13l-51.59-.7v14.58h-41.07c-.12-1.07-.12-1.09,1-1.08,4.82,0,9.64,0,14.46,0h24.4V215.07c.52,0,.9-.09,1.28-.08,12,.21,24,.44,36.07.62,4.62.07,9.25,0,13.87.06.85,0,1.41-.28,1.48-1.17.15-1.82.28-3.64.42-5.61h-7.52v-7.06c-2.47,0-4.81.15-7.14,0a19.94,19.94,0,0,1-18.3-19.19q-.27-12.78,0-25.58a20,20,0,0,1,19.83-19.83c2.3-.07,4.62-.08,6.92-.08q44,0,88,0c.63,0,1.46.41,1.83-.61a2.06,2.06,0,0,0-.59-2.58c-1.67-1.29-1.25-3.06-1.06-4.72,0-.4.76-.89,1.26-1a7.93,7.93,0,0,1,2.24-.19h25.23c3.34,0,4.28,1.19,3.41,4.47-.13.49-.64.88-.94,1.33a4.53,4.53,0,0,0-.9,1.48c-.28,1.58,0,1.88,1.63,1.89q8.67,0,17.33.08a20.12,20.12,0,0,1,20,17.9c.08.69.23,1.37.35,2.06h.33c.05-.71.15-1.42.15-2.13,0-2.63-.06-5.26-.07-7.88,0-3.19,0-3.19,3.08-4-.18-1.86-.38-3.75-.53-5.64-.2-2.53.46-3.24,3-3.24h47.34c2.29,0,3.31.48,3.66,1.95.71,3,.46,4.15-1.62,5.23-.06,0-.1.11-.24.25.91,3,1.89,6,2.76,9,1.38,4.82,3,9.6,3.94,14.5.74,3.75.7,7.67,1,11.52A5.55,5.55,0,0,0-60,180.39a3.22,3.22,0,0,1,.37,1.93c0,3.34-.06,6.69-.12,10A2.61,2.61,0,0,1-60,193.5a12.69,12.69,0,0,0-1.17,6.16q.08,11.29.12,22.59,0,11.64.08,23.3c0,.47,0,.95.07,1.72,1.9,0,3.76,0,5.62,0l13.74.07c9.88.06,19.76.1,29.64.17,4,0,8,.13,11.94.19Zm-126.15-88.54c-.11-1.89-.18-3.71-.34-5.53a17.79,17.79,0,0,0-15.43-16.12,87.8,87.8,0,0,0-10.14-.31q-37.23,0-74.45,0h-59.4c-6,0-11.49,1.37-15.68,6s-5.23,10-4.51,16Zm-90.07,16.37q-44.22,0-88.45,0c-1.16,0-1.63.41-1.63,1.49,0,1.51-.12,3,0,4.52.83,8.49,8.58,15.76,17.1,16,4.58.12,9.16,0,13.74.13a19.09,19.09,0,0,0,9.43-2,19.19,19.19,0,0,1,10.26-2.21,24.43,24.43,0,0,1,8.23,2.69,12.25,12.25,0,0,0,4.49,1.38c5.09.19,10.19.13,15.29.14a10.37,10.37,0,0,0,5.38-1.31q10.14-5.88,20.28,0a10,10,0,0,0,5.13,1.33h51.16a20.42,20.42,0,0,0,10.12-2.39c6.75-3.8,9.39-9.87,9.26-17.35,0-2.34-.15-2.33-2.55-2.33Zm-89.88-2.64h179.56V164H-306.1Zm241.86-9.72a7.32,7.32,0,0,0-.13-1c-1.84-6.08-3.71-12.16-5.54-18.25a1.28,1.28,0,0,0-1.49-1c-8,0-16.09,0-24.14,0-2.46,0-3.2.78-3.21,3.23q0,6.69,0,13.38a11.29,11.29,0,0,0,.13,1.54,2.1,2.1,0,0,0,2.07,1.95c.51.05,1,.1,1.55.1h30.75ZM-110.44,209h-83.72c.24,2.19.48,4.31.72,6.5h80.57a4.72,4.72,0,0,0,1.19,0c.27-.07.66-.35.69-.57C-110.77,213-110.62,211.06-110.44,209Zm-147.18,21.33c9,0,16.54-7.27,16.57-15.91a16.44,16.44,0,0,0-16.41-16.69c-8.64,0-16.27,7.36-16.31,15.78C-273.81,222.82-266.58,230.35-257.62,230.37Zm165.25,0A16.56,16.56,0,0,0-75.92,214a16.54,16.54,0,0,0-16.65-16.18,16.4,16.4,0,0,0-16.1,16.46A16.4,16.4,0,0,0-92.37,230.36Zm-119.93,0a16.44,16.44,0,0,0,16.44-16.13,16.41,16.41,0,0,0-16.47-16.46,16.5,16.5,0,0,0-16.28,16.43A16.53,16.53,0,0,0-212.3,230.36Zm61.56-28.05h-46.48a4.36,4.36,0,0,0,4.46,4c3,.09,6,0,9.07,0l29.76,0c1.06,0,2.12-.09,3.19-.14Zm82.27,11.13c-.08-1.07-.08-2.15-.25-3.21a23.75,23.75,0,0,0-29-19.38,21.79,21.79,0,0,0-14.48,10.27,6.74,6.74,0,0,0-.67,1.75.84.84,0,0,0,.36.75c.16.09.58-.11.74-.3.78-.91,1.49-1.88,2.25-2.79,4.9-5.88,11-9.05,18.82-8.29s13.93,4.18,17.67,11.31A26.56,26.56,0,0,1-70.25,216c0,.57-.06,1.2.78,1.18s1-.58,1-1.23C-68.45,215.12-68.47,214.28-68.47,213.44Zm-.83-76.8h-49.43v2H-69.3Zm-96.46-2.71h-4.38c-5.88,0-11.77,0-17.65,0-.87,0-1.68.06-1.62,1.33,0,1.08.28,1.58,1.56,1.56,6.92-.07,13.84,0,20.76,0h1.33Zm-61.46,68.31h-15.72a25.9,25.9,0,0,0,1.73,2.87,2.69,2.69,0,0,0,1.63,1.06,73.67,73.67,0,0,0,8.79.11A4.18,4.18,0,0,0-227.22,202.24Zm-3.74,13.3c.22-2.3.42-4.41.62-6.54h-9c.2,2,.37,3.93.61,5.85a1,1,0,0,0,.73.66C-235.69,215.56-233.39,215.54-231,215.54Zm168.77-33.16a4.69,4.69,0,0,0-4.4,4.92,4.71,4.71,0,0,0,4.4,5ZM-280.58,202.3v1.08c0,3.19.05,2.87,3.09,3.12a4.67,4.67,0,0,0,5.11-4.2Zm116-71.52h-25.94A109.8,109.8,0,0,0-164.54,130.78Zm43.72,15.53-.08-.05v53.9h.08Z"/></g></svg>