<svg xmlns="http://www.w3.org/2000/svg" viewBox="0 0 368.61 355.7"><defs><style>.cls-1{fill:none;stroke:#000;stroke-miterlimit:10;}</style></defs><g id="OBJECTS"><path class="cls-1" d="M233,221.64H215.08a11.72,11.72,0,0,1-.14-1.3c0-2.52.1-5,0-7.56a32.17,32.17,0,0,1,1.92-11.92c.78-2.36.57-5.06.65-7.61,0-.47-.7-1-1.08-1.45a9.79,9.79,0,0,0-1.16,1.53,4.08,4.08,0,0,0-.13,1.41h-9.84a4.1,4.1,0,0,0-.13-1.43,9.78,9.78,0,0,0-1.24-1.5,7.78,7.78,0,0,0-1,1.49,3.84,3.84,0,0,0,0,1.36v24.47c-2.09-.15-4.11-.3-6.13-.42-.28,0-.75,0-.81.15-.72,1.69-2.2,1.11-3.42,1.15-2,.06-4,0-6,0a11.76,11.76,0,0,1-2.06-.1c-3.25-.56-3.9-3-2.17-5.9.75-1.24.37-3.31.16-5s-.93-3.18-1.29-4.79c-.27-1.24-.1-2.61-.52-3.78a24.3,24.3,0,0,0-2.12-3.68c-.92-1.55-2.47-2.57-2.86-4.65-.23-1.21-2-2.23-3.26-3.11s-2.89-1.61-4.32-2.45c-1.13-.66-1.45-2.26-3.06-2.46a25.1,25.1,0,0,1-4-1c-1.78-.52-3.67-.1-5.48-1.26-1.1-.7-3.12-.16-4.68.09s-3.17.94-4.79,1.29c-1,.2-2.1-.16-2.95.21-1.64.73-3.1,1.85-4.69,2.71s-2.36,2.33-4.36,2.57c-1.05.12-2,1.75-2.86,2.82-1.57,2-2.36,4.4-4.25,6.34-1.42,1.45-1.4,4.32-2,6.57-.36,1.41.1,3-1.22,4.26-.5.48-.24,1.87-.11,2.83a3.78,3.78,0,0,1-1,3.09,43.8,43.8,0,0,1-10.38,8.91c-1.6,1-3.24,1.92-3.36,4.14a2.32,2.32,0,0,1-.44.91l-1.2-20.24,2.11,1.68c1.16-2.16,2.34-4.28,3.44-6.44,1.8-3.51,3.54-7,5.31-10.57a33.78,33.78,0,0,1,11.21-12.75c.43-.29.84-.59,1.26-.89,0,0,0-.1.07-.27h-3.1l-.39-1.62H115.38a22.11,22.11,0,0,0,2.73,8.58,2.24,2.24,0,0,1,0,2.6c-2,3.64-3.9,7.37-5.83,11.07-.31.6-.63,1.2-1.09,2.07a18.21,18.21,0,0,1-1.55-8c0-5.56,0-11.1-1.42-16.55a3.93,3.93,0,0,1,1.85-4.28c1.62-.82,2.71-.49,4.31,1.24a1.55,1.55,0,0,0,1,.57c3.94,0,7.88,0,11.85,0l.28-1.85h2c6.47,0,12.95-.21,19.41.05,6.63.27,12.92-1.49,19.33-2.58,1.74-.3,3.57-.41,4.51-2.4-1.54-3.17-1.07-7.64,1.23-8.68v8.27h2.11v-8.46c2.73,0,5.09.57,6.85,2.61a3.16,3.16,0,0,1-.38,4.6,13,13,0,0,1-1.28,1,23.33,23.33,0,0,1,.82,4c.11,3.3,0,6.62.24,9.94,1.66-17.3,6.4-33.87,11.69-50.45-1.61-.58-3.87.6-4.7-1.6-.27-.75,0-1.72.13-2.92-2-2.36-1.92-7.6.75-8.84v8.57h2.12v-9.3c2.17.77,4.1,1.16,5.71,2.11,2.73,1.61,2.65,4.39,0,6.26a3.09,3.09,0,0,0-1,1h41.19a7.91,7.91,0,0,1,1.54,0,2.14,2.14,0,0,1,1.89,2.29,2,2,0,0,1-2,2.16c-.62.07-1.24.07-1.95.11v45.85l.43.05c.05-.55.15-1.1.15-1.65,0-5,0-10.08,0-15.12,0-2.33.75-3.11,3.07-3.12,22.72-.1,43.14,6.9,61.61,19.94,3.43,2.43,4.24,6,4.69,9.87s1,7.48,1.57,11.21c.34,2.33-.74,3.65-3.05,3.66-5.26,0-10.53-.05-15.8.05-1.46,0-2.36-.29-2.76-1.81a9.18,9.18,0,0,0-1.09-1.91c-1.1-2-3.17-3.16-3.67-5.7-.24-1.25-2.18-2.19-3.4-3.21-1.73-1.44-4.15-1.72-5.57-3.9-.68-1-2.72-1.28-4.2-1.67-2.29-.61-4.74-.12-7-1.46-1.08-.64-2.9-.1-4.38.05-2.33.25-4.33,1.79-7,1.27-1.2-.24-2.75,1.14-4.11,1.84-2,1-3.22,3.31-5.87,3.7-1.11.17-2.07,1.86-2.94,3-1.52,2-2.16,4.41-4.2,6.18-1.2,1.05-1.27,3.43-1.78,5.23s.09,3.87-1.32,5.65c-.59.75-.31,2.37-.1,3.53C231.57,215.35,232.31,218.35,233,221.64Zm-30.91-68.48h0c0,5.67,0,11.34,0,17a3.77,3.77,0,0,0,5.21,3.79,8.85,8.85,0,0,0,2.86-1.48c3.4-2.79,6.81-5.57,10-8.61a6.19,6.19,0,0,0,1.53-4c.14-7.89.08-15.79.07-23.69,0-2-.55-2.51-2.58-2.51q-7.12,0-14.25,0c-2.27,0-2.82.56-2.82,2.85C202.11,142.06,202.12,147.61,202.12,153.16Zm-5.84-18.74-.58,0c-4.87,15.51-9.23,31.12-10.58,47.62,2.18,0,4.12.07,6,0a5.44,5.44,0,0,0,5.41-6c0-.57-.05-1.14-.05-1.71q0-18.89,0-37.76A18.75,18.75,0,0,0,196.28,134.42ZM235.5,145.8h0c0-3.6,0-7.2,0-10.8,0-1-.34-1.43-1.39-1.39-1.54.07-3.09,0-4.63,0a2,2,0,0,0-2.2,2.13q-.07,10.88,0,21.77c0,1.59,1.17,2.34,2.72,1.89,1.37-.39,2.7-.92,4.08-1.26a1.54,1.54,0,0,0,1.4-1.76C235.47,152.89,235.5,149.34,235.5,145.8Zm53.69,40.54h.25c0,2.52-.09,5,0,7.55.12,2.69,1.46,4.38,3.62,4.46,2.62.11,5.26,0,7.89-.08a2.14,2.14,0,0,0,2.19-2.51,27.71,27.71,0,0,0-.32-3.41c-.48-3-.28-6.43-2.6-8.72a56.61,56.61,0,0,0-8.17-6.44c-1.85-1.25-2.83-.52-2.87,1.77C289.15,181.42,289.19,183.88,289.19,186.34Zm-175.52-9.75a1.94,1.94,0,0,0-2.08-2,2.11,2.11,0,0,0-2.14,2.16,2.16,2.16,0,0,0,2.3,2A2,2,0,0,0,113.67,176.59Z"/><path class="cls-1" d="M235.26,199.82l3.4.57c0-.14.11-.24.09-.31-.32-.89-1.15-2-.88-2.61a70.15,70.15,0,0,1,3.65-6.4l2.91,1.75c.13-.15.26-.25.25-.31-.61-2,.34-3.2,1.94-4.19,1.39-.87,2.68-1.88,4.11-2.89l2,2.65c.17-.07.32-.1.33-.16.8-3.94,4.4-3,6.91-4a4.78,4.78,0,0,1,1.48,0c.24,1,.48,2,.72,2.92.17,0,.32,0,.38-.05.67-.6,1.35-1.74,2-1.72,2.41.1,4.81.58,7.33.93-.21,1.41-.35,2.4-.49,3.4.17,0,.28.08.37.05.83-.31,1.9-1.12,2.46-.86,2.24,1,4.32,2.42,6.49,3.69-.76,1.22-1.28,2-1.78,2.84.13.12.22.27.27.25,3.94-.75,4.45,2.93,6.3,4.87a5.13,5.13,0,0,1,.62,1.38l-2.42,1.76c.06.17.06.32.12.36.84.43,2.2.65,2.44,1.3a68.08,68.08,0,0,1,1.88,7.06l-3.26.74c0,.17,0,.31.07.38.59.73,1.73,1.47,1.7,2.16a41.74,41.74,0,0,1-1.1,6.54c-.05.24-.83.43-1.27.42a12.79,12.79,0,0,1-2-.32c.34,1.1,1.14,2.27.83,3a67.33,67.33,0,0,1-3.63,6.38l-2.85-1.74c-.12.13-.26.22-.25.29.7,3.93-3,4.46-4.93,6.28a4.51,4.51,0,0,1-1.34.55l-1.93-2.6c-1.31,4.69-5.36,3.48-8.51,4.59l-.8-3.29a1.88,1.88,0,0,0-.47.21c-.67.59-1.36,1.74-2,1.69a48.19,48.19,0,0,1-6.7-1.17c-.19,0-.36-.75-.34-1.13a15.16,15.16,0,0,1,.33-2c-.2-.05-.32-.12-.39-.09-.84.3-1.9,1.12-2.46.86-2.2-1-4.24-2.36-6.45-3.65l1.7-2.92c-.15-.13-.24-.27-.3-.26-3.9.82-4.37-2.87-6.2-4.75a4.72,4.72,0,0,1-.64-1.46l2.78-2c-2.14-.35-3.38-1.25-3.61-3.32a43.08,43.08,0,0,0-1.19-5l3.21-.82c0-.17,0-.32,0-.38-.6-.67-1.75-1.34-1.72-2C234.42,204.79,234.9,202.39,235.26,199.82Zm25.31-1.27a12.49,12.49,0,0,0-12.87,12.9,12.77,12.77,0,0,0,25.54.05A12.53,12.53,0,0,0,260.57,198.55Z"/><path class="cls-1" d="M135.1,226.68c-3.22,1.42-4.21-.81-5.48-2.49-.77-1-1.43-2.14-2.19-3.29l3-2.2c-2.19-.28-3.38-1.24-3.64-3.28-.22-1.7-.73-3.38-1.12-5.12l3.68-.86c-3.59-1.69-2-4.38-1.86-6.71a13.58,13.58,0,0,1,.75-2.82l3.2.43c-.32-1.05-1.11-2.22-.8-2.91a66.63,66.63,0,0,1,3.62-6.36l2.84,1.74c.12-.13.25-.21.25-.29.06-.89-.26-2.18.21-2.61,1.77-1.64,3.81-3,5.8-4.51l2.23,2.9c1.1-4.44,4.85-3.59,7.74-4.32.26-.07.84.54,1,1a12.34,12.34,0,0,1,.55,2.25c2.28-3.59,5.35-1.57,8.12-1.4a1.37,1.37,0,0,1,1.29,2,10.52,10.52,0,0,0-.26,1.47c.2.08.32.17.4.14.84-.29,1.91-1.08,2.46-.81a49.8,49.8,0,0,1,5.8,3.59c.18.12.14.82,0,1.15a18.76,18.76,0,0,1-1.21,2c4.76-.41,5.28,3.67,7.48,6.19l-2.64,1.9c.06.17.07.34.11.35,2.07.29,3,1.58,3.22,3.56a7.1,7.1,0,0,0,.33,1.15c1,3.54,1,3.54-2.47,4.42,0,.1,0,.25,0,.31.62.71,1.81,1.43,1.78,2.1a40.91,40.91,0,0,1-1,6.56c-.05.25-.79.5-1.22.5A12.32,12.32,0,0,1,175,222a2.25,2.25,0,0,0,0,.54c.27.83,1,1.89.75,2.44a52.5,52.5,0,0,1-3.63,5.76c-.11.15-.82,0-1.18-.15a16.53,16.53,0,0,1-1.7-1c-.16.2-.29.29-.27.36.8,3.87-2.87,4.35-4.74,6.19a4.78,4.78,0,0,1-1.47.63l-1.94-2.65a6,6,0,0,1-.59,1.47c-.48.6-1,1.38-1.68,1.61-2,.66-4,1.09-6.23,1.66l-.76-3.24c-.21,0-.35,0-.41,0-.72.6-1.45,1.76-2.13,1.73a70.6,70.6,0,0,1-7.23-1c.24-1.4.41-2.34.57-3.29-.15,0-.25-.11-.33-.08-.89.28-2,1.07-2.63.79-2.2-1-4.24-2.37-6.37-3.61Zm18.22-28.12a12.52,12.52,0,0,0-12.95,12.71A12.83,12.83,0,0,0,153.08,224a12.7,12.7,0,0,0,12.8-12.37A12.43,12.43,0,0,0,153.32,198.56Z"/><path class="cls-1" d="M79.09,237.16c-5.55,0-11.1,0-16.65,0-2.4,0-3.86-2-2.76-4,4.24-7.74,6.12-16.33,9.08-24.53,2-5.47,3.73-11,5.55-16.57a11.65,11.65,0,0,0,.25-1.8c.11-.62.09-1.53.46-1.76a2.29,2.29,0,0,1,1.84.23c3.94,2.08,7.74,4.46,11.78,6.31a93,93,0,0,0,11.09,3.95c2.56.8,4,2.29,4.22,5,.67,7.27,1.4,14.54,2,21.83a13.7,13.7,0,0,1-.5,4.4c-1.12,4.31-5.11,7-10.21,7.06-2.69,0-5.38,0-8.07,0H79.09Z"/><path class="cls-1" d="M289,216.58c.34-2.16,1-4.19.88-6.18s-.94-4.2-1.48-6.45h18c0,1.71.1,3.42,0,5.11a3.53,3.53,0,0,1-2.52,3.18c-4.61,1.5-9.26,2.87-13.9,4.28A4.35,4.35,0,0,1,289,216.58Z"/><path class="cls-1" d="M254.36,155.16l-6.13-.54v-5.09c0-2.63-.1-5.27.05-7.89a5.59,5.59,0,0,1,1.1-3.3c2.6-2.8,5.42-5.38,8.35-8.23,0,2.78,0,5.43,0,8.07,0,.45-.63.91-1,1.29a7,7,0,0,0-2.33,5.66C254.45,148.38,254.36,151.63,254.36,155.16Z"/><path class="cls-1" d="M205.28,197.23h10.19c-.52,1.77-.94,3.38-1.46,5-1,3.16-1.07,3.15-4.39,3.15h-4.34Z"/><path class="cls-1" d="M212.47,216.79h-7.16v-9h7.16Z"/><path class="cls-1" d="M212.5,219.16v2.61c-2.12-.12-4.2-.17-6.25-.42-.4,0-.7-.87-1.05-1.34.39-.28.77-.79,1.18-.81C208.35,219.12,210.33,219.16,212.5,219.16Z"/><path class="cls-1" d="M290.8,178.55a8.22,8.22,0,0,1,1.61.68c2.09,1.59,4.21,3.14,6.2,4.85,1.76,1.51,2.08,3.74,2.42,5.88.26,1.64.34,3.3.59,4.94.19,1.3-.33,1.74-1.6,1.71-1.88,0-3.77.08-5.65.07-2.6,0-3.39-.73-3.47-3.33s-.08-5.49-.09-8.23C290.79,183,290.8,180.94,290.8,178.55Z"/><path class="cls-1" d="M260.54,221.8a10.61,10.61,0,1,1,.18-21.21,10.61,10.61,0,0,1-.18,21.21Zm-.15-5.82a4.76,4.76,0,0,0,4.89-4.7,4.87,4.87,0,0,0-4.57-4.88,4.7,4.7,0,0,0-5,4.73A4.6,4.6,0,0,0,260.39,216Z"/><path class="cls-1" d="M163.76,211.3a10.46,10.46,0,0,1-10.43,10.49c-6.24,0-10.87-4.6-10.77-10.67a10.44,10.44,0,0,1,10.77-10.52A10.55,10.55,0,0,1,163.76,211.3Zm-5.83-.07a4.73,4.73,0,0,0-4.75-4.82,4.78,4.78,0,0,0-4.83,4.79,4.79,4.79,0,0,0,9.58,0Z"/><line class="cls-1" x1="80.07" y1="237.18" y2="237.18"/><line class="cls-1" x1="301.37" y1="203.95" x2="368.61" y2="203.95"/><path d="M0,236.66H59.75c-1.3-1.68-.85-3.13,0-4.68,2.7-5.06,4.33-10.54,6.1-16,2.5-7.66,5.11-15.28,7.63-22.94a35,35,0,0,0,.79-3.85c.24-1.23.68-1.57,1.91-1.32a6.74,6.74,0,0,1,1.66.65c4.54,2.33,9,4.81,13.64,7a76.2,76.2,0,0,0,8.47,2.92c3.09,1,4.38,2.72,4.66,5.94.56,6.6,1.23,13.2,1.76,19.81a19.48,19.48,0,0,1-.21,5.23c-.92,4.76-4.67,7.86-9.62,8.2-.48,0-1,0-1.44,0h-94c-.36,0-.72,0-1.08,0Zm75.44-47.93a31.25,31.25,0,0,1-.74,3.88c-2.53,7.69-5.16,15.35-7.67,23-1.89,5.81-3.62,11.66-6.51,17.08-1.24,2.34-.3,3.88,2.38,3.89q6.36,0,12.71,0c6.55,0,13.1.09,19.66,0s10.64-4.17,10.17-11.15-1.23-13.83-1.85-20.75c-.3-3.3-1.24-4.44-4.41-5.47a65.08,65.08,0,0,1-7.69-2.63c-4.8-2.25-9.46-4.78-14.19-7.17C76.75,189.19,76.15,189,75.44,188.73Z"/><path d="M203.68,192.77a8.38,8.38,0,0,0-.3,1.62q0,12.35,0,24.7a4.27,4.27,0,0,1-.08.54c-1.75-.1-3.52-.19-5.29-.32-.88-.07-1.71-.28-2.32.7a1.68,1.68,0,0,1-1.27.54c-3.4,0-6.8.07-10.18-.22-2.9-.24-4.31-2.71-3-5.31s.82-5,.28-7.56a41.87,41.87,0,0,0-1.23-5.7,39.55,39.55,0,0,0-2.77-5.37c-.79-1.45-1.61-2.89-2.49-4.3a4.85,4.85,0,0,0-1.28-1.39c-1.38-.94-2.85-1.76-4.23-2.7-1.14-.78-2.19-1.67-3.29-2.5a3.62,3.62,0,0,0-1.18-.78c-2.21-.5-4.44-.91-6.67-1.36a5.74,5.74,0,0,1-1.74-.39c-2.22-1.35-4.49-.74-6.72-.19-2,.49-3.94,1.32-6.08,1.14a2.25,2.25,0,0,0-1.21.46c-1.92,1.21-3.82,2.46-5.73,3.68a5.15,5.15,0,0,1-1.76,1,4.36,4.36,0,0,0-3,2.21c-1.15,1.77-2,3.79-3.47,5.29-2.58,2.7-2.74,6.08-3.38,9.38-.2,1.06-.72,2.06-1,3.11a3.67,3.67,0,0,0-.2,1.72,5,5,0,0,1-1.32,4.63,51.28,51.28,0,0,1-10.88,9.15,8.8,8.8,0,0,0-2.32,2.6,15.57,15.57,0,0,0-1.13,2.72,5.25,5.25,0,0,1-.39.5c-.46-7.74-.91-15.23-1.37-23l2.56,1.9c1.12-2.11,2.23-4.13,3.27-6.17,1.69-3.31,3.34-6.64,5-10a34.23,34.23,0,0,1,10.37-12.38c.35-.25.69-.52,1.21-.92-.46-.07-.73-.12-1-.15s-.56,0-.89,0l-.44-1.47H116.08a15.17,15.17,0,0,0,2,6.58c1.2,2,1,3.61-.14,5.54-2.16,3.78-4.08,7.69-6.1,11.54-.18.35-.38.68-.63,1.12a17.92,17.92,0,0,1-2-9.13,76.67,76.67,0,0,0-1-14.44,18.79,18.79,0,0,1-.49-2.94,4,4,0,0,1,2.54-4c1.64-.75,3-.12,4.09,1.07a2.79,2.79,0,0,0,2.23.9q4.5-.06,9,0c.83,0,1.43-.09,1.37-1.12,0-.79.54-.74,1.08-.74,6.47,0,13-.14,19.42.05a72.59,72.59,0,0,0,16.5-1.78c1.92-.39,3.85-.7,5.76-1.1a5.76,5.76,0,0,0,1.65-.66,1.24,1.24,0,0,0,.57-1.71,8.63,8.63,0,0,1-.11-6,3.64,3.64,0,0,1,2.73-2.6c0,2.52,0,4.94,0,7.37,0,.63,0,1.28,1.07.92V158.9c4.08-.51,8.55,1.64,8.71,4.47,2.8-10.19,5.78-21.06,8.79-32.05-.42,0-1,0-1.57,0-1.84-.06-2.86-1.06-2.74-2.87a6.31,6.31,0,0,0-.61-3.19,7.49,7.49,0,0,1-.14-5.84,3.83,3.83,0,0,1,2.67-2.5v8.56c1.06.14,1.08.14,1.09-.79,0-2.36,0-4.72,0-7.08v-1.43c1.87.63,3.58,1.16,5.25,1.77,3.25,1.21,5.17,4.25,1.48,7.78h39.71a11.5,11.5,0,0,1,1.55.08,2.74,2.74,0,0,1,.1,5.42c-.5.09-1,.11-1.6.18v25.93c2-1.59,4.31-1,6.47-1A101,101,0,0,1,278.52,163a113.41,113.41,0,0,1,24.61,13.24c3.18,2.23,4.33,5.5,4.85,9.12q.82,5.88,1.63,11.75a11.5,11.5,0,0,1,.08,2,2.78,2.78,0,0,1-2.32,2.68,7.54,7.54,0,0,1-1.43.14c-5.11,0-10.23,0-15.34.09a3.37,3.37,0,0,1-3.66-2.37c-.55-1.41-1.76-2.54-2.6-3.84-.73-1.13-1.33-2.34-2-3.5a3.75,3.75,0,0,0-.78-1.16,46.1,46.1,0,0,0-4.22-2.93,12.07,12.07,0,0,1-4-3,2.79,2.79,0,0,0-1.53-.85c-1.59-.38-3.21-.61-4.8-1a39.87,39.87,0,0,0-4.72-1.12,19.19,19.19,0,0,0-4.72.29,33.9,33.9,0,0,0-3.92,1.06,2,2,0,0,1-.83.12c-3-.54-5,1.42-7.11,3-1.34,1-2.57,2.13-4.29,2.49a2.25,2.25,0,0,0-1.21.91c-.95,1.28-1.81,2.62-2.73,3.93s-2.05,2.83-3,4.26a4,4,0,0,0-.71,1.37c-.41,2-.69,3.92-1.11,5.87-.24,1.11-.69,2.18-1,3.29a5.7,5.7,0,0,0-.29,2.29c.64,3.41,1.4,6.8,2.12,10.2,0,.18.06.37.1.64h-19c-.06-.61-.16-1.19-.17-1.78,0-2.72,0-5.43-.06-8.15-.11-3.81.85-7.41,1.75-11.07a49.77,49.77,0,0,0,.79-7.46c0-.27-.18-.57-.29-.85l-.43-.08-.84,2.5H205l-.77-2.46Zm-1.46,25.78a6,6,0,0,0,.1-.72c0-7.71.05-15.43,0-23.14a5.19,5.19,0,0,1,1.71-3.75l2.19,3.23h8l2.19-3.46c.64,1.09,1.47,1.86,1.51,2.67a20.24,20.24,0,0,1-.8,8.18c-2.32,6.25-1.66,12.76-1.64,19.21,0,.07.08.14.16.27h16.66c-.09-.49-.17-.92-.26-1.34-.56-2.66-1.19-5.3-1.64-8a8.76,8.76,0,0,1,.19-3.05c.25-1.26.77-2.47,1.06-3.73.41-1.82.67-3.68,1.1-5.5a5.86,5.86,0,0,1,1-1.76c.93-1.34,1.9-2.65,2.83-4s1.83-2.81,2.86-4.13a6.34,6.34,0,0,1,1.81-1.3,33,33,0,0,0,3.1-1.69c2.65-2,5.07-4.24,8.8-3.87,1,.1,2.14-.58,3.23-.82,2.05-.45,4.18-1.29,6.22-.51a21,21,0,0,0,5.09,1.17,29.55,29.55,0,0,1,4.56,1,6.49,6.49,0,0,1,1.93,1.12c1.15.84,2.24,1.76,3.39,2.58,1.56,1.11,3.18,2.13,4.72,3.27a4.51,4.51,0,0,1,1,1.43c.66,1.13,1.23,2.3,1.93,3.4a30.28,30.28,0,0,1,2.65,4,2.57,2.57,0,0,0,2.8,1.82c5-.07,10.07-.07,15.11-.1,2.49,0,3.23-1,2.86-3.47-.57-3.83-1.12-7.67-1.6-11.51a12.81,12.81,0,0,0-5.7-9.74c-15.9-10.79-33.26-17.36-52.51-18.65-2.54-.17-5.11-.18-7.66-.19-1.77,0-2.24.5-2.36,2.29,0,.4,0,.8,0,1.2,0,4.51,0,9,0,13.55,0,.91-.11,1.81-.18,2.82l-1.31-.13V130.42l2.36-.23a1.47,1.47,0,0,0,1.45-1.59,1.58,1.58,0,0,0-1.42-1.77,8.85,8.85,0,0,0-1.55-.07H196.34l-.17-.35c.75-.72,1.52-1.43,2.26-2.17,1.55-1.54,1.54-3.36-.27-4.44a46.48,46.48,0,0,0-5.37-2.37v9.25c-.77,0-1.45,0-2.11,0a1,1,0,0,0-.74.4c-.84,1.73,0,3.12,1.95,3.18.89,0,1.78.16,2.78.26-.78,2.49-1.48,4.73-2.17,7a254.33,254.33,0,0,0-7.95,31.56c-.65,3.73-1.07,7.51-1.58,11.27-.16,1.15-.14,1.15-1.35.94,0-2.43.07-4.9,0-7.37a33.47,33.47,0,0,0-.58-5.09c-.2-1-.24-1.7.76-2.4,1.72-1.23,1.93-2.82.72-4.21a7.19,7.19,0,0,0-5.94-2.33v8.3h-3.11V160.9a2.06,2.06,0,0,0-.76,1.07,7.23,7.23,0,0,0,.23,5.16,1.85,1.85,0,0,1-.66,2.49,5.83,5.83,0,0,1-2.09,1.06c-1.91.45-3.84.73-5.76,1.11a73.53,73.53,0,0,1-14.23,1.89c-7.07,0-14.15-.07-21.22-.1-.35,0-.69,0-1,.06l-.37,1.81c-3.52,0-7,0-10.47,0a4.58,4.58,0,0,1-3.84-1.46c-1.18-1.28-2.73-1.08-3.82.29a3.81,3.81,0,0,0-.68,3.15c.5,3.23,1,6.47,1.26,9.73s.16,6.39.33,9.58a29.92,29.92,0,0,0,.76,3.85,4.71,4.71,0,0,0,.45-.55c2.07-3.91,4.17-7.81,6.16-11.77a3,3,0,0,0-.13-2c-.73-2.19-1.61-4.32-2.33-6.51a15,15,0,0,1-.41-2.69h12.67l.51,1.56h3.11c.22,1.13-.59,1.49-1.22,1.92A33.53,33.53,0,0,0,118.76,193c-1.71,3.34-3.34,6.72-5.05,10.06-1.32,2.59-2.71,5.14-4.11,7.78l-1.73-1.21c.32,5.45.63,10.66.94,15.85,1.31-.94,2.47-1.84,3.68-2.65a44.31,44.31,0,0,0,9.59-8.27,3.88,3.88,0,0,0,1-3.52,3.19,3.19,0,0,1,.69-3.13,2.14,2.14,0,0,0,.42-1.1c.28-1.61.52-3.23.75-4.85a8.82,8.82,0,0,1,2.2-5.07,20.65,20.65,0,0,0,1.85-2.78c1-1.46,1.91-2.95,3-4.33a7,7,0,0,1,2-1.47c.8-.49,1.71-.8,2.52-1.29,2-1.23,4-2.54,6-3.75a4.59,4.59,0,0,1,1.59-.4c1.37-.25,2.74-.44,4.1-.7,1.8-.34,3.59-.81,5.4-1.07a5.9,5.9,0,0,1,2.2.36c.88.22,1.72.6,2.61.79,2.33.51,4.69.92,7,1.46a2.69,2.69,0,0,1,1.48.94,10.23,10.23,0,0,0,3.5,2.62,34,34,0,0,1,4,2.59,7.59,7.59,0,0,1,1.65,2c.68,1.06,1.25,2.19,1.87,3.29a46.84,46.84,0,0,1,3.33,6,34.19,34.19,0,0,1,1.44,6.63c.38,2.25,1.1,4.52-.15,6.78-1.53,2.79-.56,4.55,2.61,4.85.39,0,.79,0,1.19,0,2.48,0,5,.08,7.43.05a2,2,0,0,0,1.45-.62,1.72,1.72,0,0,1,1.74-.74Zm-19.45-46,.12,0c.39-2.26.77-4.51,1.12-6.52a20.56,20.56,0,0,0-1.69,1.34,1.15,1.15,0,0,0-.3.87C182.23,169.72,182.51,171.15,182.77,172.58Zm6.87-53.67a5.6,5.6,0,0,0,0,6.65Z"/><path d="M125.1,209.94l2.82-.73c-1.67-1.44-1.51-3.21-1.14-5,.33-1.58.64-3.17,1-4.8l3,.3c-1.32-1.82-.26-3.18.51-4.55.91-1.59,1.88-3.14,2.85-4.75l2.87,1.7c-.69-2.15.65-3,1.82-3.88,1.51-1.16,3.06-2.29,4.66-3.48l1.95,2.41c1.63-3.59,5.06-3,8-3.59.39-.07,1,.67,1.39,1.13a3.92,3.92,0,0,1,.5,1.16c1.56-1.43,3.34-1.44,5.21-1,.77.18,1.56.34,2.35.46,1.86.26,2.33.88,2,2.7,0,.19,0,.39-.08.88,1.67-1.37,3-.5,4.27.32,1.08.68,2.15,1.38,3.21,2.08,1.25.83,1.4,1.34.77,2.68l-.38.8c4.19.4,4.84,4.36,7.09,6.84l-2.25,1.72c3.22,1.69,2.87,5,3.59,7.78.1.42-.64,1.16-1.13,1.6a5.45,5.45,0,0,1-1.59.63c2,1.13,1.48,2.83,1.27,4.43-.15,1.11-.42,2.2-.63,3.3-.3,1.53-.8,1.9-2.39,1.8l-1-.07c1.21,1.58.6,2.88-.28,4.16-.71,1.06-1.38,2.15-2.1,3.2-1,1.46-1.32,1.53-2.94.71l-.63-.31c.12,2.17-1.11,3.39-2.72,4.39-1,.65-2,1.36-3.1,2a1.24,1.24,0,0,1-2-.6,6.62,6.62,0,0,0-.75-1c-2.07,3.55-5.92,2.88-9.05,4.19l-.74-2.93c-.09,0-.21-.07-.23,0a3.53,3.53,0,0,1-3.86,1.13c-1.91-.38-3.85-.61-5.91-.93l.47-3.14c-2.06,1.38-3.53.13-5.06-.74s-2.81-1.67-4.3-2.56l1.57-2.73c-2.13.23-3.23-1-4.2-2.43s-1.93-2.82-3-4.34l2.38-1.82c-2.27-.78-2.77-2.57-3-4.6C125.91,212.92,125.45,211.47,125.1,209.94Zm49.17,11.5c.86.14,1.4.22,1.94.32,1,.2,1.7,0,1.81-1.24a27.55,27.55,0,0,1,.54-2.94c.29-1.42.36-2.68-1-3.71-1-.7-.72-1.32.39-1.63l1.16-.31a1.1,1.1,0,0,0,.88-1.61,22.06,22.06,0,0,1-.79-3c-.27-1.55-.93-2.69-2.6-3a1.06,1.06,0,0,1-.67-.67c0-.26.23-.63.46-.83.57-.49,1.19-.91,1.82-1.37-1.91-2.77-2.91-6.52-7.72-5.38l1.54-2.45c.35-.56.38-1-.27-1.4-1.5-.91-3-1.89-4.48-2.76a2.37,2.37,0,0,0-1.33,0c-.72.09-1.42.24-2.13.37a19.9,19.9,0,0,1,.05-2.05c.08-.66.11-1.22-.71-1.37-1.38-.24-2.75-.5-4.13-.7a3.35,3.35,0,0,0-3.34,1.44c-.29.37-.55.76-.83,1.15-.11-.09-.2-.12-.22-.18q-.12-.41-.21-.81c-.63-2.63-.63-2.6-3.31-2.37s-4.64,1.17-5.12,4.08c0,.11-.12.2-.24.37l-2.49-3.17c-1.62,1.25-3.18,2.36-4.62,3.62a2.91,2.91,0,0,0-.71,1.71c-.1.74.14,1.55-.8,1.93l-2.68-1.56c-.86,1.45-1.62,2.81-2.47,4.11a3.16,3.16,0,0,0-.24,3.67,7.09,7.09,0,0,1,.45,1.33l-3.69-.44c-.29,1.75-.6,3.46-.87,5.18a2.79,2.79,0,0,0,1.68,3.13l1.53.8-4.43,1.09c.37,1.86.68,3.59,1.07,5.29a2.51,2.51,0,0,0,1.93,1.94c.68.17,1.38.3,2.27.49l-3.51,2.68c1.12,1.56,2.14,3,3.22,4.47a2.4,2.4,0,0,0,3,.83l2-.74L133.76,230c1.63.94,3.19,1.81,4.71,2.74a2.35,2.35,0,0,0,2.56.12,6.87,6.87,0,0,1,1.93-.38l-.53,3.43c1.25.21,2.39.38,3.52.58,1.73.31,3.42.76,4.73-1.07.5-.7,1.24-.34,1.48.57.18.69.35,1.38.56,2.2.73-.17,1.41-.35,2.1-.49,2.63-.55,5.28-1.06,5.75-4.77.8,1.08,1.39,1.81,1.9,2.6.36.54.76.66,1.28.3,1.18-.81,2.38-1.61,3.53-2.46a3.05,3.05,0,0,0,1.27-2.93,5.21,5.21,0,0,1,.42-1.64c.71.47,1.16.73,1.58,1,.75.54,1.32.57,1.84-.35.67-1.18,1.44-2.3,2.21-3.42a2.24,2.24,0,0,0,.2-2.64A8.94,8.94,0,0,1,174.27,221.44Z"/><path d="M282.92,222.79c1,1.48.51,2.71-.21,3.92l-3.16,5.34-2.66-1.53c0,2.44-1.45,3.66-3.19,4.69-.82.49-1.58,1.1-2.4,1.59s-1.77.65-2.34-.54a5.65,5.65,0,0,0-.75-.95c-1.85,4-5.85,2.85-9,4.07l-.87-3.19c-1.2,2.23-3,1.62-4.63,1.35-1.07-.18-2.12-.42-3.17-.64-1.64-.34-1.89-.68-1.76-2.37,0-.22,0-.45.07-.92-1.51,1.21-2.76.57-4-.17-1.72-1-3.44-2-5.23-3.07l1.52-2.76c-2.41.16-3.6-1.28-4.63-3-.57-1-1.23-1.85-1.82-2.8a1.26,1.26,0,0,1,.6-2,8.12,8.12,0,0,0,1.06-.81c-2.06-.72-2.71-2.27-3-4.19-.22-1.57-.71-3.09-1.11-4.76l2.9-.84c-2.36-1.85-1-4.17-.89-6.32.07-1.19.34-2.36.54-3.61l3.32.5c-1.42-1.67-.64-3,.15-4.33,1-1.68,2-3.35,3-5.05l2.61,1.5c0-2.18,1.26-3.3,2.84-4.29,1.38-.87,2.67-1.86,4.05-2.83l1.84,2.37c.83-2.31,2.66-2.85,4.66-3.15,1-.15,2-.4,3.05-.57s1.64.08,1.73,1.21a9.74,9.74,0,0,0,.41,1.58c1-2,2.59-1.65,4.14-1.43,1.85.28,3.71.53,5.67.8l-.37,3.32c1.65-1.4,2.94-.56,4.24.19l5.14,3c-.53.87-1,1.67-1.52,2.53,4.3.57,4.91,4.43,7,7l-2.46,1.86c2.1.27,2.56,1.76,2.93,3.32.45,1.85.9,3.7,1.37,5.61l-3.12.78c2.33,1.56,1.3,3.62,1.1,5.53a14.83,14.83,0,0,1-.36,1.76C285.74,222.83,285.55,223,282.92,222.79Zm-44.1-4.31c-1,.74-1.8,1.43-2.69,2-.65.42-.63.81-.24,1.36.55.78,1.12,1.56,1.61,2.38.92,1.54,2,2.65,4,2.32.9-.14,1.19.45.74,1.27s-.79,1.37-1.26,2.19c1.71,1,3.37,1.9,5,2.88a2,2,0,0,0,2.12,0,9.74,9.74,0,0,1,2.07-.52c-.14.89-.2,1.45-.33,2-.24.93,0,1.42,1,1.56,1.46.21,2.92.46,4.36.78a1.85,1.85,0,0,0,2-.71,16.45,16.45,0,0,1,1.79-1.43l.87,3.38c6.14-.74,6.54-.92,8-4.85l2.32,3.1c1.49-1,2.93-1.9,4.31-2.89a3.19,3.19,0,0,0,1.28-2.95,4.92,4.92,0,0,1,.45-1.48l2.89,1.74c.88-1.49,1.7-2.94,2.6-4.35A2.91,2.91,0,0,0,282,223a6.89,6.89,0,0,1-.49-1.53c.95.16,1.69.31,2.44.39s1.1-.09,1.22-.81c.25-1.5.52-3,.8-4.48a2.24,2.24,0,0,0-.78-2.23,8.08,8.08,0,0,1-1.15-1.74l3.37-.85c-.25-1.11-.45-2.12-.73-3.11-.49-1.79-.55-3.84-3-4.36-.64-.13-.92-.89-.08-1.44a4.66,4.66,0,0,0,1.23-.94,1.33,1.33,0,0,0,.22-1.15c-.63-1.1-1.4-2.13-2.11-3.19a3.42,3.42,0,0,0-3.34-1.68,4.17,4.17,0,0,1-1.45-.48l1.78-2.89c-1.68-1-3.27-1.86-4.83-2.81a2.12,2.12,0,0,0-2.44-.05,7.08,7.08,0,0,1-1.87.43c.15-1.35.27-2.4.4-3.59-1.88-.25-3.66-.44-5.42-.74a2.13,2.13,0,0,0-2.29.84,8,8,0,0,1-1.65,1.13c-.26-1-.46-1.73-.6-2.43s-.43-1-1.16-.77c-1.08.27-2.19.45-3.28.66a3.62,3.62,0,0,0-3.21,2.65c-.11.39-.59.68-1,1.06l-2-2.63c-1.55,1.07-3,2-4.48,3.12a2.53,2.53,0,0,0-1.07,2.73c.09.43-.22.95-.37,1.53l-3-1.77c-.71,1.18-1.36,2.23-2,3.29-.86,1.44-1.89,2.85-.55,4.56a.45.45,0,0,1,0,.11c.13.77,0,1.29-1,1.08-.8-.17-1.62-.28-2.52-.43-.28,2-.52,3.77-.79,5.58a2.1,2.1,0,0,0,.83,2.19,7.42,7.42,0,0,1,1.13,1.64l-3.24.93a45.77,45.77,0,0,0,1.17,5.26,4.23,4.23,0,0,0,1.82,1.86A7.79,7.79,0,0,0,238.82,218.48Z"/><path d="M368.61,203.5v.95H306.79c0,1.47,0,2.86,0,4.24a3.93,3.93,0,0,1-3,4.09q-6.67,2.1-13.38,4.12a15,15,0,0,1-2.2.29,18.09,18.09,0,0,0-.66-13.69Zm-79.68,1a16.44,16.44,0,0,1,.51,11.63c5.05-1.59,9.81-3,14.52-4.62a2.78,2.78,0,0,0,1.57-1.78,42.49,42.49,0,0,0,.37-5.23Z"/><path d="M258.12,129c0,3.37,0,6.39,0,9.41a1.93,1.93,0,0,1-.74,1.16,7.34,7.34,0,0,0-2.53,6.28c.14,3.26,0,6.53,0,9.93l-7.19-.62c0-2.58,0-5.08,0-7.59,0-1.91,0-3.82.08-5.74a6.07,6.07,0,0,1,1.89-4.49C252.43,134.63,255.15,131.89,258.12,129Zm-1,2.42c-2.08,2-3.86,3.92-5.8,5.63a7.38,7.38,0,0,0-2.66,6.1c.09,3.67,0,7.34,0,11.06l5.1.46c0-3,.1-5.86,0-8.73a8.36,8.36,0,0,1,2.68-7,2.06,2.06,0,0,0,.65-1.31C257.19,135.64,257.15,133.69,257.15,131.38Z"/><path d="M204.85,205.75v-8.93h11.38c-.89,2.64-1.69,5.24-2.67,7.78a2.32,2.32,0,0,1-1.68,1.1C209.58,205.82,207.27,205.75,204.85,205.75Zm10-7.9h-8.94v6.92c1.9,0,3.74.07,5.56-.05a1.93,1.93,0,0,0,1.4-1C213.58,201.83,214.15,199.89,214.82,197.85Z"/><path d="M204.86,217.2v-9.83h8v9.83Zm7-8.79h-6v7.8h6Z"/><path d="M204.46,220.1a3.29,3.29,0,0,1,3-1.45c1.79.09,3.58,0,5.46,0v3.67c-2.24-.17-4.51-.23-6.72-.59C205.54,221.65,205,220.68,204.46,220.1Zm7.47-.42c-1.76,0-3.46,0-5.16,0-.25,0-.49.29-.74.45.22.23.42.66.66.68,1.72.18,3.45.28,5.24.4Z"/><path d="M201.61,153.19V137.12a13.51,13.51,0,0,1,.09-1.68c.17-1.41.85-2.16,2.25-2.17q8.09-.06,16.18,0a1.94,1.94,0,0,1,2.06,1.91,15.52,15.52,0,0,1,.12,1.79c0,7.32-.07,14.63-.06,21.95a7.76,7.76,0,0,1-2.82,6.43c-3,2.45-5.85,5.09-8.89,7.48a10.58,10.58,0,0,1-3.86,1.79,3.93,3.93,0,0,1-5-3.57c-.18-2.15-.11-4.31-.12-6.47C201.6,160.78,201.61,157,201.61,153.19Zm1,0v11.51c0,1.88,0,3.75,0,5.63a3.2,3.2,0,0,0,4.52,3.16,8.91,8.91,0,0,0,2.72-1.45c3.14-2.59,6.21-5.27,9.31-7.91a5.59,5.59,0,0,0,2-4.33c0-1.52.08-3,.08-4.55,0-6.35,0-12.7,0-19.05,0-1.67-.31-1.92-2-1.93-4.63,0-9.27,0-13.9,0-2.49,0-2.69.21-2.69,2.75Z"/><path d="M196.81,134.12c.08,1.14.23,2.29.23,3.44q0,18.45,0,36.9a20.19,20.19,0,0,1-.11,3.21,5.05,5.05,0,0,1-4.28,4.58,81.69,81.69,0,0,1-8.2.44c.47-3.73.81-7.18,1.33-10.6,1.91-12.65,5.39-24.92,9.18-37.11C195.27,134,195.7,133.75,196.81,134.12Zm-11.12,47.41h4.46a11.61,11.61,0,0,0,1.67-.1A4.65,4.65,0,0,0,196,177a25.42,25.42,0,0,0,0-2.62V136C191.12,150.85,187.06,165.8,185.69,181.53Z"/><path d="M226.79,146.62q0-5.2,0-10.41c0-2.09.74-2.9,2.85-3,1.39-.08,2.78,0,4.18,0,1.76,0,2.2.42,2.2,2.18q0,8.44,0,16.88c0,1.36,0,2.72,0,4.07a2.13,2.13,0,0,1-1.82,2.43c-1.3.39-2.58.82-3.88,1.19-2.23.62-3.52-.33-3.53-2.64C226.78,153.72,226.79,150.17,226.79,146.62Zm1.05.09c0,3.52,0,7,0,10.55,0,1.59.67,2.09,2.22,1.66,1.23-.34,2.42-.84,3.66-1.13,1.05-.24,1.32-.84,1.31-1.8,0-3.68,0-7.35,0-11,0-3.23,0-6.47,0-9.71,0-.75-.26-1.09-1.06-1.07-1.39,0-2.79,0-4.19,0s-1.95.51-1.95,1.95C227.83,139.68,227.84,143.19,227.84,146.71Z"/><path d="M297.08,198.88c-1.24,0-2.47,0-3.71,0a4.13,4.13,0,0,1-4.31-3.69,13.7,13.7,0,0,1-.21-2c-.09-4.59-.19-9.17-.23-13.75,0-1.14-.09-2.45,1.11-3.1s2.23.17,3.16.85c2.11,1.57,4.18,3.21,6.27,4.8a9.48,9.48,0,0,1,3.73,6.84c.22,2.06.5,4.12.7,6.18.27,2.72-.7,3.78-3.4,3.81h-3.11Zm-.32-1v0h3.47c1.95,0,2.52-.62,2.33-2.58-.2-2.14-.53-4.27-.74-6.42a8.21,8.21,0,0,0-3.3-6c-2.06-1.57-4.09-3.19-6.19-4.7a9.23,9.23,0,0,0-2.12-.86,9.89,9.89,0,0,0-.54,2.26c0,4.55.12,9.09.23,13.64a9.92,9.92,0,0,0,.4,2.59,2.84,2.84,0,0,0,2.87,2.11C294.36,197.86,295.56,197.84,296.76,197.84Z"/><path d="M114.21,176.65a2.52,2.52,0,0,1-2.59,2.67,2.71,2.71,0,0,1-2.64-2.58,2.63,2.63,0,0,1,2.67-2.64A2.44,2.44,0,0,1,114.21,176.65Zm-1-.05a1.42,1.42,0,0,0-1.51-1.45,1.57,1.57,0,0,0-1.63,1.54,1.69,1.69,0,0,0,1.6,1.61A1.61,1.61,0,0,0,113.19,176.6Z"/><path d="M153.28,224.46a13.32,13.32,0,0,1-13.4-13,13.28,13.28,0,1,1,13.4,13Zm0-1a12.23,12.23,0,0,0,12.15-12.12,12.24,12.24,0,1,0-24.47,0A12.36,12.36,0,0,0,153.24,223.46Z"/><path d="M273.69,211.28a13.26,13.26,0,0,1-26.51-.07,13.26,13.26,0,0,1,26.51.07Zm-25.47.06a12.24,12.24,0,0,0,24.47,0,12.24,12.24,0,1,0-24.47,0Z"/><path d="M290.24,177.61c1.27.72,2.32,1.2,3.24,1.86,1.47,1,2.83,2.22,4.29,3.27a8.29,8.29,0,0,1,3.53,6.11c.24,2.1.55,4.2.77,6.3.13,1.21-.4,1.9-1.57,1.93-2.43.07-4.87.12-7.3,0a2.52,2.52,0,0,1-2.73-2.72c-.16-3.55-.18-7.1-.22-10.65C290.22,181.81,290.24,179.9,290.24,177.61Zm1.08,1.67c0,4.39,0,8.55,0,12.7,0,.67,0,1.35.1,2,.11,1.5.65,2.08,2.19,2.12,2.11.05,4.23,0,6.34,0,.91,0,1.2-.39,1.08-1.26-.21-1.62-.42-3.25-.56-4.88a9,9,0,0,0-4.31-7.2c-1.3-.84-2.48-1.88-3.73-2.82C292.14,179.74,291.79,179.57,291.32,179.28Z"/><path d="M153.25,222.27a10.89,10.89,0,0,1-11.21-11,11.14,11.14,0,1,1,22.27,0A10.9,10.9,0,0,1,153.25,222.27ZM143.1,211.15a9.91,9.91,0,0,0,9.69,10.12,10.08,10.08,0,0,0,1-20.13C147.78,200.9,143.32,205.1,143.1,211.15Z"/><path d="M249.42,211.23a10.77,10.77,0,0,1,11.08-11.15,11.12,11.12,0,0,1,.05,22.23A10.72,10.72,0,0,1,249.42,211.23Zm11-10.11c-5.86,0-10,4.38-10,10.39a9.85,9.85,0,0,0,10.23,9.8,10.1,10.1,0,0,0-.26-20.19Z"/><path d="M153.19,205.92a5.3,5.3,0,1,1-5.31,5.32A5.25,5.25,0,0,1,153.19,205.92Zm4.25,5.32a4.26,4.26,0,1,0-8.52,0,4.26,4.26,0,0,0,8.52,0Z"/><path d="M255.18,211.25a5.11,5.11,0,0,1,5.25-5.33,5.3,5.3,0,1,1,.08,10.59A5.12,5.12,0,0,1,255.18,211.25Zm1-.07a4.22,4.22,0,0,0,4.32,4.33,4.3,4.3,0,0,0,.05-8.59A4.23,4.23,0,0,0,256.18,211.18Z"/></g></svg>