<svg xmlns="http://www.w3.org/2000/svg" viewBox="0 0 368.61 355.7"><g id="OBJECTS"><path d="M368.61,245.32l-1.56,0H309.44c.76,1.53,0,2.7-.71,3.9-3.07,5.12-7.64,7.16-13.53,6.87-4.7-.23-9.41-.16-14.12-.22-.52,0-1,0-1.56,0a3.34,3.34,0,0,1-3.36-2.71c-.44-1.45-.92-2.89-1.4-4.33a7.47,7.47,0,0,0-.35-.75c-.7.62-1.31,1.25-2,1.76a1.3,1.3,0,0,1-1.1.19,1.19,1.19,0,0,1-.57-1c.6-5.52-1.9-10.37-3.32-15.43a8.84,8.84,0,0,0-5.25-5.76,3.26,3.26,0,0,1-1.34-1.29c-2.59-4.28-6.28-6.59-11.36-6.55a2.94,2.94,0,0,1-1.49-.36c-4.14-2.53-8.35-2.14-12.66-.5a15.34,15.34,0,0,1-3.9.89,12.59,12.59,0,0,0-9.65,5.93,7.07,7.07,0,0,1-2.19,2.1,11.69,11.69,0,0,0-5.83,8.61,38.34,38.34,0,0,1-1.56,5.64c-.84,2.51-1.57,5-.28,7.67H192.57c.27-4.43-1.26-8.54-2.32-12.72a31.42,31.42,0,0,0-2.15-5.57,8,8,0,0,0-4.21-3.92,2.72,2.72,0,0,1-1.3-1.25,10,10,0,0,0-7.26-5.87q-3.3-.83-6.54-1.92a14.92,14.92,0,0,0-9.06-.43c-2.84.81-5.7,1.53-8.53,2.35a15.79,15.79,0,0,0-7.21,4.35c-2.14,2.26-4.37,4.45-6.38,6.82a9,9,0,0,0-2.35,7.65,2.61,2.61,0,0,1-.24,1.27c-.78,2.06-1.62,4.09-2.37,6.15a1.25,1.25,0,0,1-1.31,1c-.84,0-1.68.06-2.51,0-3.73-.09-6-2.33-6-6.06,0-6,0-12,0-18,0-4.24.09-8.48,0-12.72-.09-3.08,1-5.37,3.93-6.75-.58-1-1.13-1.86-1.66-2.78-3.45-6-3.16-12.75,1-17.84a23.38,23.38,0,0,1,4.29-3.76,3.28,3.28,0,0,0,1.57-2.88c0-14.6,0-29.2,0-43.8a3.61,3.61,0,0,0-1-2.53c-2.37-2-4.91-3.69-7.47-5.56-2,5.36-4.79,10.46-4.16,16.43a5.77,5.77,0,0,1,0,.72q0,49.5.06,99a21.92,21.92,0,0,1-.45,4.64c-1.07,4.82-4.3,7.68-8.79,9.32-.9.33-1.81.62-2.72.91a5.89,5.89,0,0,0-3.68,3,4.64,4.64,0,0,1-4,2.44c-5.34.3-10.7.52-16-.8A33.11,33.11,0,0,1,59,232.44a22.5,22.5,0,0,1-.12-4.18,6.52,6.52,0,0,1,3-5H.13c-.24-.7-.19-1.09.59-1.05.36,0,.72,0,1.08,0q32.16,0,64.32,0,12.82,0,25.67,0a13,13,0,0,1,13.5,13c.1,2.4,0,4.8.29,7.28a8.16,8.16,0,0,0,.45-1.22,7.26,7.26,0,0,0,0-1.32q0-43.86,0-87.71c0-5.28,0-10.56,0-15.84a26.3,26.3,0,0,1,2-9.09c1.26-3.36,2.58-6.71,4-10,2-4.62,5.74-7.23,10.13-7.11a11.71,11.71,0,0,1,6.69,2.34c4,2.88,7.95,5.79,11.87,8.76a11,11,0,0,1,4.46,9.25c0,15.23,0,30.47-.08,45.71a4.22,4.22,0,0,0,2.18,4,13.94,13.94,0,0,1,6.75,10,1.86,1.86,0,0,0,2,1.81c2,.12,4,.37,6.18.58V136.68c.89,0,1.67-.12,2.46-.12h64.56a9.8,9.8,0,0,1,1.79.12c3.23.62,5.18,3,5,6a5.84,5.84,0,0,1-5.9,5.62c-2.39.07-4.8,0-7.2,0h-1.52c.32.5.52.86.77,1.2,3.63,4.82,7.19,9.69,10.91,14.45,3.1,4,4.59,8.49,5.66,13.31,1.83,8.3,3.87,16.56,5.81,24.84a1,1,0,0,0,1.07,1c7.5.91,15,1.87,22.48,2.82,1,.13,2,.23,3,.43,2.61.51,3.9,2.15,3.92,4.93,0,3.64,0,7.28,0,10.92a6.1,6.1,0,0,0,1.25,3.79q6.13,8.15,12.21,16.33a4.7,4.7,0,0,0,4.08,2q23.52-.06,47,0,14.52,0,29,0ZM128.27,204.9c-.63.3-1.14.52-1.63.77a4.71,4.71,0,0,0-2.76,4.44q0,15.9,0,31.8c0,3,1.66,4.72,4.68,5,.63.06,1.28-.08,1.91,0,.91.1,1.25-.36,1.52-1.13.51-1.47,1.18-2.89,1.66-4.37a8.53,8.53,0,0,0,.46-2.78,8.93,8.93,0,0,1,1.86-6.19,109.51,109.51,0,0,1,8.3-8.93,17.39,17.39,0,0,1,5.36-3.27,59.14,59.14,0,0,1,7.76-2.42c3.53-.94,7.09-1.53,10.73-.32,2.77.91,5.6,1.61,8.38,2.47a10.51,10.51,0,0,1,6.88,5.88,2.24,2.24,0,0,0,1,1.08,9.45,9.45,0,0,1,5.14,5.28,50.66,50.66,0,0,1,2.2,6.57c.87,3.38,1.54,6.81,2.31,10.27h16.28a13.51,13.51,0,0,1,1-7.34,33.47,33.47,0,0,0,1.41-5.19,12.51,12.51,0,0,1,6.62-9.44,4.16,4.16,0,0,0,1.41-1.39,13.41,13.41,0,0,1,10.8-6.63,11.91,11.91,0,0,0,3.32-.79c4.58-1.77,9.07-2.15,13.49.47a2.6,2.6,0,0,0,1.26.29,13.39,13.39,0,0,1,12,7,2.63,2.63,0,0,0,1.1,1A9.27,9.27,0,0,1,268,232.3c1.92,5.34,4,10.68,4,16.59l3.05-2.7c.78,2.37,1.52,4.52,2.17,6.69a2.55,2.55,0,0,0,2.39,2c.56.05,1.12,0,1.68,0,4.59,0,9.2-.16,13.77.2,5.78.45,10.71-2,13.34-7.21.7-1.37.45-1.91-1.07-2.28a4.26,4.26,0,0,0-.95-.12c-4.51,0-9-.07-13.54,0a5.78,5.78,0,0,1-5.08-2.38c-4.08-5.54-8.21-11-12.35-16.53a6.28,6.28,0,0,1-1.32-3.89c0-3.56-.06-7.11-.07-10.67,0-3.33-1-4.39-4.33-4.8-8.25-1-16.49-2.08-24.74-3.09-.72-.09-1-.31-1.17-1-1.94-8.32-4-16.62-5.86-25-1-4.68-2.29-9.2-5.3-13.08-3.8-4.9-7.49-9.88-11.2-14.84-.63-.83-1.12-1.77-1.78-2.83,3.36,0,6.43,0,9.51,0a10.47,10.47,0,0,0,2-.18,4.79,4.79,0,0,0,3.88-4.44,4.4,4.4,0,0,0-3.32-4.79,9.06,9.06,0,0,0-2.59-.37q-32.1,0-64.2,0c-.5,0-1,.06-1.66.09v56.23c-2.45-.24-4.74-.48-7-.68-2.14-.18-2.65-.62-3.08-2.77a13.25,13.25,0,0,0-6.3-9.21,4.94,4.94,0,0,1-2.62-4.71c.07-15.24,0-30.48.08-45.72a10.42,10.42,0,0,0-4.4-8.86l-2.13-1.56c-3-2.24-6-4.5-9.07-6.7-2.85-2.06-6-3.07-9.48-1.93a10,10,0,0,0-6.11,6.05c-1.41,3.34-2.77,6.72-4,10.12a25,25,0,0,0-1.86,8.62c0,8.48-.07,17-.07,25.44q0,39.18,0,78.36a5.65,5.65,0,0,1-1.22,3.74c-1.16-.14-1.61-.73-1.54-1.92.1-1.75,0-3.52,0-5.28,0-8.62-4.94-13.57-13.54-13.59q-12.3,0-24.59,0c-4.21,0-6.61,2.55-6.42,6.76a32.26,32.26,0,0,0,21.8,29.2c6,2.08,12.11,1.92,18.26,1.43a4.29,4.29,0,0,0,3.24-2.2,8.32,8.32,0,0,1,2.71-2.57,21,21,0,0,1,3.79-1.44c3.62-1.3,6.63-3.36,7.85-7.16a19.4,19.4,0,0,0,.87-5.77q0-49.62-.06-99.23a31.73,31.73,0,0,1,2.48-13.05c.8-1.85,1.46-3.75,2.21-5.67,2.75,2,5.4,4,8.1,5.93a4.11,4.11,0,0,1,1.91,3.63q0,22.08,0,44.16a3.79,3.79,0,0,1-2,3.55c-7.18,4.43-9.27,12.8-5,20.13C126.67,202.25,127.44,203.51,128.27,204.9Z"/><path d="M163.22,271.54c-1.14-.35-2.49-.79-3.86-1.16-1.76-.48-3.51-1-5.3-1.32-2.47-.41-4.56-1-5.58-3.76a6.19,6.19,0,0,0-3.83-3.42,5.74,5.74,0,0,1-3.34-5.64,6.44,6.44,0,0,0-1.39-5.49,5.61,5.61,0,0,1,.1-6.46,6.28,6.28,0,0,0,1.38-5,5.54,5.54,0,0,1,3.42-6,6.07,6.07,0,0,0,3.57-3.39c1-2.75,3.18-3.5,5.62-3.68a15.67,15.67,0,0,0,6.18-1.63,5.17,5.17,0,0,1,6,.48,7.07,7.07,0,0,0,5.28,1.08,5.75,5.75,0,0,1,5.69,3.45,7.68,7.68,0,0,0,3.83,4,6.35,6.35,0,0,1,3.32,3.6,3.3,3.3,0,0,1-.11,1.41c0,.14-.18.3-.15.41.6,2,.27,4.24,1.69,6a4,4,0,0,1,.22,4.92,10.27,10.27,0,0,0-1.38,4.4,26.29,26.29,0,0,1-1,4.17,6.71,6.71,0,0,1-2.72,3.65,16.1,16.1,0,0,0-3.61,3.62,7.62,7.62,0,0,1-5.69,3.31c-2.18.24-4.36.37-6.16,1.93C165,271.35,164.18,271.31,163.22,271.54Zm.2-1,2.18-1a12.22,12.22,0,0,1,2.17-.95c1.4-.32,2.83-.46,4.25-.69a6.29,6.29,0,0,0,4.33-2.68,13.32,13.32,0,0,1,3.45-3.6c2.56-1.58,3.33-4,3.71-6.64.3-2,.49-4,1.67-5.78a3,3,0,0,0-.32-3.78c-.3-.37-.72-.77-.77-1.19-.23-2.28-1.58-4.44-.77-6.84a.54.54,0,0,0-.15-.44,14.78,14.78,0,0,0-2.66-2.48,10,10,0,0,1-4.27-4.53,4.74,4.74,0,0,0-4.74-2.83,7.88,7.88,0,0,1-5.75-1.19,4.58,4.58,0,0,0-5.54-.26,12.8,12.8,0,0,1-5.49,1.47,11,11,0,0,0-3.43.87,3.38,3.38,0,0,0-1.62,1.61,8.27,8.27,0,0,1-4.72,4.65,4.78,4.78,0,0,0-2.57,4.57,7.41,7.41,0,0,1-1.53,6.07,4.44,4.44,0,0,0,0,5.3,7.35,7.35,0,0,1,1.5,6,4.76,4.76,0,0,0,2.67,4.72,7.4,7.4,0,0,1,4.42,4c.89,2.26,2.59,2.93,4.66,3.06a15.73,15.73,0,0,1,5.75,1.49A27.31,27.31,0,0,0,163.42,270.56Z"/><path d="M241.66,223.54c1,.45,1.94.83,2.83,1.35a8,8,0,0,0,5,1.28,5.46,5.46,0,0,1,6,3.44,7.23,7.23,0,0,0,3.81,3.82,5.5,5.5,0,0,1,3.34,5.72,7.58,7.58,0,0,0,1.25,4.79,6.82,6.82,0,0,1,0,7.26,7.82,7.82,0,0,0-1.18,5.61,2.24,2.24,0,0,1-.42,1.68,42.41,42.41,0,0,1-3.2,3.5c-1.29,1.29-2.67,2.5-4,3.77-1,1-1.94,2.11-3,3.07-.49.43-1.18.9-1.87.14a.41.41,0,0,0-.32-.09c-1.66.39-3.62.36-4.91,1.27-2.39,1.7-4.7,1.46-7,.43a16.38,16.38,0,0,0-6.5-1.78c-2.14,0-3.57-1.15-4.63-3.19a8.47,8.47,0,0,0-3.7-3.53c-2.44-1.15-3.27-3.13-3.59-5.39a20.08,20.08,0,0,0-1.67-6.55,5.47,5.47,0,0,1,.55-5.95,7.75,7.75,0,0,0,1.17-4.77c-.31-2.89,1.11-4.66,3.11-6.13a16.62,16.62,0,0,0,4.43-4.3,5.77,5.77,0,0,1,5.06-2.73,13.11,13.11,0,0,0,5.39-1.41A38.36,38.36,0,0,1,241.66,223.54Zm0,1.09a25.32,25.32,0,0,0-3.38,1.09,13.2,13.2,0,0,1-6,1.57,4.63,4.63,0,0,0-4.08,2.14,18.65,18.65,0,0,1-5,4.87c-1.56,1.15-2.75,2.61-2.45,4.95a7.51,7.51,0,0,1-1.33,5.59,4.26,4.26,0,0,0-.43,5,16.75,16.75,0,0,1,1.63,6.31,5.76,5.76,0,0,0,3.2,5.06,9.33,9.33,0,0,1,4,3.76c1,1.9,2.21,2.85,4.12,2.84a15.16,15.16,0,0,1,6.5,1.79c1.95.89,4,1.4,5.91-.34a2.77,2.77,0,0,1,1.27-.63c1.64-.34,3.34-1,4.94-.8s2-.71,2.72-1.41c.35-.32.57-.78.92-1.11,1.48-1.43,3-2.82,4.48-4.26a36.14,36.14,0,0,0,2.66-2.88,1.78,1.78,0,0,0,.41-1.32,8.67,8.67,0,0,1,1.3-6.19,5.76,5.76,0,0,0,0-6.22,8.82,8.82,0,0,1-1.36-5.49,4.51,4.51,0,0,0-2.8-4.61,8.2,8.2,0,0,1-4.37-4.55,4.63,4.63,0,0,0-4.47-2.65,8.77,8.77,0,0,1-6.14-1.46A19,19,0,0,0,241.61,224.63Z"/><path d="M171.46,147.41c.4,0,.72,0,1,0l34.43,0a4.33,4.33,0,0,1,3.69,1.86q8.19,11,16.43,21.85a14.36,14.36,0,0,1,2.22,5.63q3,12.69,6.07,25.39c0,.19,0,.39.1.73-2-.2-3.94-.36-5.87-.6q-16.29-2-32.59-4c-2.61-.32-3.26-.95-3.78-3.5-1.55-7.63-3.1-15.26-4.72-22.88-.82-3.84-3.11-5.22-7-4.33-2.39.55-4.68,1.43-5,4.24a14.67,14.67,0,0,0,.49,4.49c1.26,6.3,2.59,12.59,3.89,18.89,0,.26,0,.54.09.94l-9.5-1Zm62.62,54.29c-.07-.48-.09-.76-.16-1-2-8.38-4-16.78-6-25.14a11,11,0,0,0-1.8-3.85c-5.36-7.27-10.82-14.46-16.23-21.7a3.66,3.66,0,0,0-3.16-1.58q-16.62,0-33.22,0c-.31,0-.62,0-1.05.08v43.81c0,1.85,0,1.87,1.87,2.1s3.59.38,5.48.57c-.75-3.56-1.45-6.92-2.14-10.28s-1.39-6.81-2.08-10.21c-.76-3.7.67-6.25,4.21-7.5a11.64,11.64,0,0,1,2.09-.53c4.05-.68,6.65,1,7.59,5,.31,1.32.58,2.65.86,4q2,9.67,4,19.36c.38,1.86.63,2.08,2.47,2.37l.95.13q14,1.76,28.06,3.5C228.48,201.12,231.21,201.39,234.08,201.7Z"/><path d="M92.86,234.82c0,4.4,0,8.71,0,13,0,1-.95,1.73-2.2,1.75a16.79,16.79,0,0,1-10-3.29c-3.86-2.63-6.91-5.92-8.12-10.6a8.56,8.56,0,0,1-.12-.88Zm-19.14,1a6.07,6.07,0,0,0,.14.63c1.76,5.86,9.81,12,15.93,12.1,1.79,0,2.06-.19,2.07-2,0-3.54,0-7.08,0-10.69Z"/><path d="M138.6,200.44a6.94,6.94,0,1,1,.07-13.88,6.94,6.94,0,1,1-.07,13.88Zm.05-12.84a5.92,5.92,0,1,0,5.93,6.08A5.93,5.93,0,0,0,138.65,187.6Z"/><path d="M163,255.75a16.47,16.47,0,0,0-2.43,2,1.4,1.4,0,0,1-1.91.5,11.23,11.23,0,0,1-6.26-5.79,1.42,1.42,0,0,1,.22-1.73c.56-.67,1.06-1.4,1.59-2.1a1.7,1.7,0,0,0-.07-2.38A14,14,0,0,0,153,244.9c-1-.85-.87-1.7-.32-2.75a11.3,11.3,0,0,1,6.35-5.36c.29-.11.74.16,1.11.28.1,0,.16.17.24.25,2,2.21,3,2.23,4.91,0a1.2,1.2,0,0,1,1.61-.43,11.64,11.64,0,0,1,6.45,5.94,2.58,2.58,0,0,1-.56,3.29,2,2,0,0,0-.31,2.77c1.42,2.44,1.46,2.71-.3,4.89a29.58,29.58,0,0,1-3.62,3.8c-1.42,1.24-2.7,1-4-.38C164.15,256.72,163.67,256.34,163,255.75Zm9.71-11.53a10.68,10.68,0,0,0-.35-1,11.47,11.47,0,0,0-4.64-4.87,1.6,1.6,0,0,0-2.33.36c-1.63,1.81-3.31,1.77-5.08.07-.18-.17-.31-.42-.52-.5a1.84,1.84,0,0,0-1.11-.2,10,10,0,0,0-5.08,4.54,1.25,1.25,0,0,0,.15,1.61c2.68,3.25,2.67,3.32.07,6.7l-.08.1a1.07,1.07,0,0,0-.16,1.49,10.3,10.3,0,0,0,4.68,4.48,1.38,1.38,0,0,0,1.93-.38c1.84-2.05,3.36-2,5.28,0a1.52,1.52,0,0,0,2.4.18,42.32,42.32,0,0,0,3.44-3.65c1.44-1.75,1.38-1.79.24-3.76a2.91,2.91,0,0,1,.37-3.91A8.88,8.88,0,0,0,172.72,244.22Z"/><path d="M251.9,244.24a12,12,0,0,1-.81,1.59c-1,1.44-1,2,0,3.48a3.13,3.13,0,0,1,.23,3.49,10.71,10.71,0,0,1-6.31,5.53c-.33.12-.8-.17-1.21-.28-.06,0-.11-.11-.16-.17-2.22-2.3-2.79-2.29-5.05-.06a1.73,1.73,0,0,1-1.41.37,9.84,9.84,0,0,1-6.41-5.7,1.6,1.6,0,0,1,.28-1.94c.51-.56.94-1.19,1.41-1.79a1.72,1.72,0,0,0-.13-2.56c-.2-.19-.37-.42-.57-.62-1.39-1.45-1.41-1.58-.59-3.38a10.19,10.19,0,0,1,6-5.37,1.92,1.92,0,0,1,1.14.2c.21.07.35.32.52.49,2.05,2,3,1.9,4.77-.27.25-.29.83-.61,1.12-.51a10.9,10.9,0,0,1,7,6.43A7.38,7.38,0,0,1,251.9,244.24Zm-1-.11c-.12-.34-.19-.61-.3-.86a10.15,10.15,0,0,0-4.77-5,1.42,1.42,0,0,0-2.11.39c-1.35,1.68-2.85,1.77-4.6.47-.39-.28-.71-.66-1.11-.91s-.69-.33-.92-.22a8.75,8.75,0,0,0-5.2,5.29,1.48,1.48,0,0,0,.28,1.23c2.45,2.71,2.48,3.23.19,6.08a2,2,0,0,1-.23.28,1.21,1.21,0,0,0-.19,1.69,9.35,9.35,0,0,0,4.18,4.14,1.81,1.81,0,0,0,2.56-.36c1.6-1.68,3.05-1.61,4.82-.08.21.18.38.47.62.56.42.15,1,.37,1.3.22a9.46,9.46,0,0,0,4.94-4.65,2.26,2.26,0,0,0-.17-2.56c-1.19-1.7-1.12-2.9.08-4.61C250.49,244.87,250.68,244.48,250.88,244.13Z"/><path d="M159.46,247.63a3.24,3.24,0,0,1,3.39-3.5,3.39,3.39,0,0,1,3.48,3.47,3.43,3.43,0,0,1-3.52,3.44A3.2,3.2,0,0,1,159.46,247.63ZM162.7,250a2.48,2.48,0,0,0,2.62-2.26,2.43,2.43,0,0,0-2.31-2.55,2.41,2.41,0,0,0-.31,4.81Z"/><path d="M244.58,247.56A3.36,3.36,0,0,1,241,251a3.45,3.45,0,0,1-3.38-3.47,3.52,3.52,0,0,1,3.56-3.44A3.4,3.4,0,0,1,244.58,247.56ZM241.13,250a2.36,2.36,0,0,0,2.44-2.52,2.44,2.44,0,0,0-4.88.13A2.36,2.36,0,0,0,241.13,250Z"/></g></svg>