<svg xmlns="http://www.w3.org/2000/svg" viewBox="0 0 368.61 355.7"><g id="OBJECTS"><path d="M0,181.73c.36.26.85.45,1.05.8A178.38,178.38,0,0,0,18,206.92c8,9.61,16.23,19.05,25.7,27.29A97.33,97.33,0,0,0,92.6,257.47a106.73,106.73,0,0,0,28.56.84,170.69,170.69,0,0,0,57.69-16.61c1.39-.68,2.79-1.39,4.12-2.19a1.78,1.78,0,0,0,.79-1.24q-.12-16.61-.34-33.22a34.49,34.49,0,0,0-.38-5.48c-.4-2.35-2-3.25-4.34-2.6a17,17,0,0,0-7.67,5.14c-7.48,8-14.95,15.91-23.87,22.32-.69.5-1.47.88-2.21,1.32l-.32-.38a11.3,11.3,0,0,1,1.06-1.78c4.46-5.07,7.84-10.88,11.5-16.51a33.85,33.85,0,0,1,9.37-10.14c3.37-2.25,7-3.51,11.09-2.75a2.42,2.42,0,0,0,.6,0,3.36,3.36,0,0,0,.47-.1c-.69-1.22-1.44-2.35-2-3.57-1.06-2.31-2.13-4.63-3-7-1.08-3.06,0-6,1.08-9.21l7,5c-.17-2.79-.31-5.49-.5-8.18q-.42-6.09-.91-12.19a8.23,8.23,0,0,0-.32-1.77c-.32-1-1.08-1.79-2.14-1.45-5.07,1.65-10.61,1.67-15.37,4.37a69,69,0,0,0-14.27,11.06c-2.88,2.83-5.66,5.75-8.5,8.62a4.87,4.87,0,0,1-.73.53l-.32-.14a6.61,6.61,0,0,1,.44-1.43c5.09-8.71,11.36-16.32,20.16-21.57,1.68-1,3.3-2.11,4.88-3.27a15.84,15.84,0,0,1,11.55-3.39,10.35,10.35,0,0,0,1.15,0c-2.32-5.35-3.32-10.65-.36-16.15l3.25,2.46.3-.11-.78-6.57a4.4,4.4,0,0,1-.1-.47c.06-2-.89-2.76-3.11-2a12.62,12.62,0,0,0-4.07,2.6c-3.49,3.19-5.63,7.32-7.51,11.58s-3.65,8.34-5.47,12.51c-.24.54-.53,1.06-.9,1.8a2.69,2.69,0,0,1-.2-.8c1.17-6.36,2.12-12.77,3.66-19,.65-2.66,2.48-5.06,3.91-7.49,1.95-3.32,5.21-4.67,8.77-5.48l.58-.13a1.2,1.2,0,0,0,.19-.11c-.1-.22-.19-.46-.31-.68L171,115.46c-1.38-2.6-.62-4.84,1.14-6.92,1.84.76,2.78,1.82,6.12,6.88,0-.88-.07-1.52-.12-2.17-.13-1.67-.29-3.34-.4-5a6.75,6.75,0,0,0-3.12-5.4,23,23,0,0,0-9.52-3.36A46.26,46.26,0,0,0,145,101.14a39.41,39.41,0,0,0-3.94,1.63l-.27-.22a8.94,8.94,0,0,1,1.13-1.38,22.18,22.18,0,0,1,13.45-5A32.83,32.83,0,0,1,171.11,99a5.58,5.58,0,0,0,.84.24c-.64-1-1.19-1.92-1.71-2.8a6.75,6.75,0,0,1-.66-5.42,21.8,21.8,0,0,0,.35-3.68c2.17.37,3.31,2.31,5.42,3.27-.35-3-.63-5.87-1-8.69a1.73,1.73,0,0,0-2.12-1.49,22.45,22.45,0,0,1-3.31.5,54.71,54.71,0,0,1-8.21-.54c-3.8-.69-7.53-1.79-11.28-2.73a12.08,12.08,0,0,1-1.61-.75,16.09,16.09,0,0,1,8.66-.84c3.54.73,7,1.88,10.5,2.8,1.33.35,2.7.54,4.05.8l.19-.36a6.77,6.77,0,0,0-.83-.86c-2.92-2.19-4-5.25-4.28-8.74,0-.72-.13-1.43-.24-2.14-.14-.93.19-1.43,1.17-1.54a4.12,4.12,0,0,1,3.81,1.26,9,9,0,0,0,.71.65c.73-1.91.23-3.28-1.55-4a15.49,15.49,0,0,0-3.2-.95c-4.89-.87-8.89-3.42-12.63-6.5-.62-.52-1.19-1.09-1.79-1.63l.28-.51,13.73,4.12c-1.61-2.89-3.56-5.73-4.18-9.31,3.48,1.41,4.47,4.87,6.54,7.36l.27-.13c-.3-1.74-.59-3.49-.89-5.23-.39-2.28-.81-4.56-1.18-6.84a2.83,2.83,0,0,1,.18-.92c.28.22.67.37.81.66,2.22,4.33,4,8.81,4.24,13.74a2,2,0,0,0,.19.75c2.38-7.06,7.81-11.1,14.18-14.5a6.09,6.09,0,0,1-.3,1.54,25.07,25.07,0,0,1-5.61,7.83c-2.12,1.88-4,4.06-5.89,6.14a6.09,6.09,0,0,0-1.45,5.09l2.44-4c3.21,4.59,4.52,9.39,2.83,15l2-1.77A19.9,19.9,0,0,1,190,69.25l16.26-3.52c.35-.07.71-.09,1.06-.13l.2.32a15.91,15.91,0,0,1-3.18,2c-5,1.74-10.15,3.34-15.23,5a25.21,25.21,0,0,0-10.74,6.31,5.36,5.36,0,0,0-1.74,4.51c.24,2.28.44,4.57.9,6.85.43-.84.8-1.72,1.28-2.53a6.7,6.7,0,0,1,3.77-3.16c1.36-.44,1.93-.29,2.09,1.13a25.09,25.09,0,0,1,0,5.68c-.22,1.93-.79,3.82-1.26,6L186.08,96a23.46,23.46,0,0,1,12.43-3.41,11.5,11.5,0,0,1,8.18,3.45,19.16,19.16,0,0,1,2.81,3.1c2,2.91,3.85,5.91,5.77,8.88a7.13,7.13,0,0,1-3.71-2.33,39.67,39.67,0,0,1-2.66-3.39c-3.94-5.59-13.06-9.25-20-5.22a58.13,58.13,0,0,0-8.2,6.39,3.21,3.21,0,0,0-.76,2.39c.25,3.38.67,6.74,1.23,10.14a14,14,0,0,0,.47-1.65c.41-2.66,2-4.55,3.94-6.26.74-.67,1.29-.44,1.8.67a11.25,11.25,0,0,1,.3,9.52c-1.06,2.4-2.42,4.66-3.68,7,.31-.22.64-.45,1-.69A57.28,57.28,0,0,1,198,117.14c4.68-1.94,8-1.26,11.57,2.26a44.56,44.56,0,0,1,7.1,9c1.91,3.21,3.64,6.57,6.8,9a2.57,2.57,0,0,1-3.23-.9c-1.91-2.46-3.87-4.89-5.62-7.46-2.06-3-4.13-6-7.54-7.68-4.67-2.34-9.15-2.32-13.66.44C189.9,124,186.29,126,182.7,128a1.83,1.83,0,0,0-1.14,2.19c.49,2.78.84,5.58,1.25,8.36l.4.05,1.25-3.24a2.88,2.88,0,0,1,3.17-2.17,1.51,1.51,0,0,1,1.49,1.1c1.63,4.07,1.33,8.14.06,12.21-.55,1.74-1.2,3.44-1.88,5.36.94-.33,1.71-.62,2.48-.88a27.75,27.75,0,0,1,20.13.72,15.42,15.42,0,0,1,4.6,3.7,23.13,23.13,0,0,1,2.79,4c1.45,2.39,2.81,4.82,4.28,7.34-1.94-.67-3.88-1.35-4.68-3.37-2.1-5.27-6.18-7.95-11.49-9.1-4.55-1-9.12-1.68-13.75-.39-1.38.39-2.76.75-4.15,1.11a5.48,5.48,0,0,0-4.46,6.19c.31,3.86.84,7.7,1.29,11.55.5,4.21,1,8.41,1.53,12.61a1,1,0,0,0,.25.59c.26-1.82.51-3.63.77-5.44a3.34,3.34,0,0,1,2.65-3.15,8.9,8.9,0,0,0,1.94-1.06c1.83,2,3.38,4.07,2.9,7.06-.58,3.61-1.11,7.23-1.68,11l3.08.2c6,.35,10.76,3.19,15,7.27a38.42,38.42,0,0,1,8.83,14c1.67,4.3,4.36,7.58,8.78,9.27a8.3,8.3,0,0,1,1.51,1l-.09.38a13.55,13.55,0,0,1-2.19.17c-1.18-.11-2.36-.35-3.54-.58a9.79,9.79,0,0,1-7.87-7.2c-.65-2.06-1.43-4.07-2-6.14a15.2,15.2,0,0,0-4.77-7.18c-4.69-4.28-10.32-6.77-16.24-8.71-2.22-.73-4.39,0-6.33,1-.52.28-.8,1.45-.79,2.2,0,4.28.15,8.56.3,12.83.26,7.35.57,14.69.86,22,.11,2.74,0,5.52.34,8.22.7,5.11,3.45,9.23,7,12.81,7.11,7.15,15.82,11.38,25.48,13.82A48.2,48.2,0,0,0,236.9,271c7-.71,12.38-4.16,17-9.16,6.62-7.14,12.28-15,18-22.88,11.79-16.09,23.48-32.25,35.31-48.31a178,178,0,0,1,16.67-20.11,61.47,61.47,0,0,1,7.89-6.78c6.4-4.57,13.27-4.79,20.29-1.47,5.55,2.63,9.79,6.84,13.62,11.52q1.44,1.77,2.75,3.63c.2.3.12.78.17,1.18l-.44.13c-.28-.36-.57-.72-.84-1.09-3.63-5-7.65-9.57-12.91-12.88-5.58-3.51-11.5-4.95-17.91-2.45a28.47,28.47,0,0,0-8.72,5.84,127.82,127.82,0,0,0-16.09,18.38c-12.8,17.28-25.45,34.66-38.18,52-5.82,7.92-11.5,16-18.14,23.24-3.87,4.25-8.17,7.9-13.9,9.38a38.39,38.39,0,0,1-13.33,1,57.64,57.64,0,0,1-30-11.55,33.47,33.47,0,0,1-9.26-10.41,21.82,21.82,0,0,1-2.68-10.2c-.27-10.54-.66-21.09-1-31.63-.21-7.47-.19-14.95-.56-22.41-.26-5.47-1-10.9-1.5-16.35-.2-2-.45-4-.78-5.94,0,.91,0,1.82,0,2.72.47,10.1,1,20.2,1.38,30.3.35,10.3.51,20.61.7,30.92.06,3.6-.06,7.2,0,10.8a2.29,2.29,0,0,1-1.43,2.31,165.4,165.4,0,0,1-37.27,14.22,140.86,140.86,0,0,1-36.22,5C83.23,259.76,60.15,251,40.84,233,25.16,218.41,11.37,202.17.49,183.6a8.22,8.22,0,0,0-.49-.67Zm182-61.58c.11-.1.31-.19.32-.29.28-3.22,1.58-6.13,2.78-9.07a5.33,5.33,0,0,0,.19-.9l-.34-.1a8.59,8.59,0,0,0-2,4.26c-.42,2-.62,4.07-.9,6.12-.21,1.56-.41,3.11-.61,4.66l.58,0C182,123.29,182,121.72,182,120.15Zm-3.43,27.78c.24-.22.64-.41.69-.66a12.79,12.79,0,0,0-1-8.26,15,15,0,0,0-1-1.52l-.23.12c.51,3.45,1,6.91,1.54,10.36a3.9,3.9,0,0,1-.54-1c-.52-2.45-1-4.91-1.47-7.37-.08-.42-.11-.85-.16-1.28-1.31,4.8,1.08,12.08,4.33,14.36C180.08,151.26,179.31,149.59,178.54,147.93ZM177,195.06l0-.27c-.22,0-.44-.08-.66-.1a14.44,14.44,0,0,0-9.65,2.95c-3.81,2.66-6.55,6.3-9.13,10.07q-4.69,6.87-9.33,13.78s0,.14.11.3a5.08,5.08,0,0,0,.58-.53c2.88-3.53,5.81-7,8.62-10.6,5-6.35,10.64-11.82,18.21-15C176.1,195.48,176.52,195.26,177,195.06Zm.42.78a11.13,11.13,0,0,0-1.4.41c-4.28,1.92-8.43,4.1-11.58,7.68-4,4.6-7.94,9.29-11.9,13.93l-2.82,3.31a1.4,1.4,0,0,0,1-.4c3.33-3.16,6.69-6.29,9.94-9.53,3.51-3.48,6.82-7.18,10.4-10.58A66.22,66.22,0,0,1,177.37,195.84Zm12-44.26.09.41c4.32-1,8.64-2,13-.05A30.2,30.2,0,0,0,188.3,153a2.81,2.81,0,0,0,.95.08c3.34-.23,6.68-.65,10-.66a20.81,20.81,0,0,1,16,6.6c.89.95,1.68,2,2.7,3.19-.09-.4-.08-.56-.16-.67-1.35-2-2.61-4.12-4.1-6a10.67,10.67,0,0,0-7.26-4.49c-4.08-.42-8.2-.63-12.3-.65C192.59,150.4,191,151.17,189.42,151.58Zm-10.18,2.87,0-.45a9.31,9.31,0,0,0-2.66-.8c-4.33.05-8.6.76-12.24,3.18-6.86,4.55-13.47,9.45-18.77,15.87a5.39,5.39,0,0,0-.38.62A53.41,53.41,0,0,1,179.24,154.45Zm35.18,54.42a34,34,0,0,0-8.2-8.52,22.79,22.79,0,0,0-10.89-4.17,27.11,27.11,0,0,0,2.67.92c8.46,2.74,14.82,7.77,17.64,16.48a44,44,0,0,0,4.09,8.89,4.57,4.57,0,0,0,5,2.24s0-.09,0-.11a11.69,11.69,0,0,0-.87-1,22.82,22.82,0,0,1-6-9.28,23.36,23.36,0,0,0-1-2.42c-.68-1.37-1.41-2.71-2.26-4.32Zm-72-34.36.29.23c.26-.31.54-.62.8-.94a73.42,73.42,0,0,1,15.25-14.46c5-3.43,10.07-6.35,16.25-6.78.93-.06,1.85-.15,2.77-.23l.06-.34a5,5,0,0,0-1.56-.69c-3-.16-5.95-.31-8.64,1.28-1.85,1.1-3.64,2.31-5.48,3.44a62,62,0,0,0-14.58,12C145.74,170.08,144.12,172.33,142.4,174.51Zm34.72-49.8c-3.08-1.13-7.46,0-9.4,2.55a45.77,45.77,0,0,0-4.42,6.8,25.59,25.59,0,0,0-2.73,12.21,3.77,3.77,0,0,0,.46-1.05c.79-2.63,1.54-5.28,2.37-7.9a18.36,18.36,0,0,1,5.66-8.86A18.81,18.81,0,0,1,177.12,124.71Zm42.77,10.72.22-.13a3.73,3.73,0,0,0-.28-.68c-1.65-2.6-3.28-5.2-5-7.78a34.35,34.35,0,0,0-7.24-8.25c-2.63-2.11-5.48-2.66-8.59-1.11-3.46,1.74-6.93,3.44-10.34,5.27a39.37,39.37,0,0,0-3.76,2.6l.18.28c.92-.53,1.81-1.09,2.74-1.59,3.16-1.7,6.25-3.55,9.51-5a9.73,9.73,0,0,1,10.51,1.23,22.77,22.77,0,0,1,4,4.05c2.5,3.31,4.81,6.77,7.2,10.16C219.35,134.79,219.63,135.1,219.89,135.43ZM175.61,63.15c-.13.14-.21.22-.28.31a1.24,1.24,0,0,0-.15.33,29.61,29.61,0,0,0-.4,12.81,8.37,8.37,0,0,0,.85,1.74C178,74.3,178,64.84,175.61,63.15Zm34.89,39.37c-.19-.59-.25-.85-.36-1.09a16.65,16.65,0,0,0-6-6.39,10.41,10.41,0,0,0-6.35-1.8,24.56,24.56,0,0,0-12.93,4.2,20.74,20.74,0,0,0-2.35,2.16l.22.25c4.32-3.08,8.86-5.64,14.4-5.32S206.78,98.17,210.5,102.52Zm-22.47,32c-2.66,2.48-6.46,15.14-5.5,18.09C185.16,146.74,187.94,141,188,134.52Zm-9.61-8.25a3.83,3.83,0,0,0-3.93-.26,18,18,0,0,0-10.61,11.62c-.68,2.1-1.23,4.23-1.84,6.35l.3.13c.22-.4.45-.79.66-1.19,1.76-3.35,3.43-6.75,5.3-10a19.5,19.5,0,0,1,3.08-3.93C173.2,127.1,175.62,126.51,178.42,126.27Zm-23.84-70.6c4.55,4.75,10.32,6.14,16.31,7.63C167.88,59.64,161.35,57.25,154.58,55.67Zm-11.2,45.26A43.91,43.91,0,0,1,157,98.35a61,61,0,0,1,13.34,1.22C162.46,95.56,149.39,95.79,143.38,100.93Zm38.75,92c-1.45-7.75-3.94-14.16-6.21-16.06C176.34,183.05,178.17,188.41,182.13,192.93Zm7.14,1.23c2.51-1.26,3.44-11.82,1.78-15.7C189.3,183.75,188.18,190.16,189.27,194.16Zm-10.41-92.91c2-2.15,4.77-12.13,4-14.48C180.35,88.08,177.44,98.52,178.86,101.25ZM150.61,77.14c5.52,1.41,11,3.37,16.8,3C162.09,77.57,156.65,75.71,150.61,77.14Zm32.31-3.92a38.75,38.75,0,0,1,13.51-4c-1,.37-2.1.64-3.16.92s-2.08.56-3.11.88-2.13.68-3.16,1.1-1.9.91-2.85,1.37c6.27-2.31,13.07-2.94,19.29-6.2C197.38,67,186.08,70.3,182.92,73.22Zm.24,80.36c4.23-1.13,7.56-12.84,5.72-16.25C188.26,143.17,185.05,148.05,183.16,153.58ZM178,123.29a25.85,25.85,0,0,0-6.25-13C172.14,115.45,174.87,119.46,178,123.29Zm8.16-13.4c-.87,2.2-1.84,4.34-2.55,6.56a18,18,0,0,0-.7,7.16C185.54,119.64,186.91,113.71,186.13,109.89Zm-11.2,67.61c-2.26,3.33,1.71,14.95,5.25,15.71-1.11-2.58-2.13-5.12-3.3-7.58S174.44,180.6,174.93,177.5Zm14.65.83c-.93.33-1.68.42-1.78,1.44-.45,4.16-1,8.31-1.36,12.48a5.36,5.36,0,0,0,.56,2c.87-4.84,1.73-9.6,2.57-14.37A10.46,10.46,0,0,0,189.58,178.33ZM171.41,89.09c-.8,2.59,2,7.75,4.76,9.5a7,7,0,0,0-.25-1.34c-.83-2-1.62-4.08-2.59-6A10.8,10.8,0,0,0,171.41,89.09Zm2-29.12a17.89,17.89,0,0,1,4.24-6.92c1.85-2,3.63-4,5.44-6C177.84,49.85,174.28,53.92,173.4,60Zm-5.17-13.26A22.33,22.33,0,0,0,171.1,58.2,19.83,19.83,0,0,0,168.23,46.71Zm3,15.43c-1.79-4.25-4.53-7.42-7.33-10.76C164.42,54.57,167.94,59.78,171.25,62.14Zm.9,16.22c-1.52-3.12-3-6-4.53-9.27C167,73.3,169,77.36,172.15,78.36Zm8.34,71.09.35.06q2.72-7.55,5.45-15.09l-.33-.13c-1.74,4-3.56,7.92-5.19,11.94A10.61,10.61,0,0,0,180.49,149.45Zm-6.88-70.67c.39-2.4-2.71-8.4-5-9.75A32.38,32.38,0,0,0,173.61,78.78Zm9,109.68c.4-4.05-1.23-9.19-4.14-10.64C179.78,181.25,181.21,184.93,182.58,188.46Zm-6.47-87.6-5.75-8.66C169.51,94.47,172.08,98.62,176.11,100.86Zm1.52-.17c.32-2.4.44-4.82,1-7.14s1.48-4.56,2.18-6.66C178.25,88.2,176.3,97.39,177.63,100.69Zm14.08,92.18.2.06a5.71,5.71,0,0,0,.48-1.19c.44-3.48.88-7,1.24-10.45a4.42,4.42,0,0,0-.48-1.57l-.24.06ZM179.6,122.38l.41,0c.07-5.15.34-10.3-.8-15.38h-.32Q179.25,114.69,179.6,122.38Zm7.72-11.08c-.3,1.87-.5,3.85-1,5.77s-1.19,3.67-1.89,5.75C187.07,120,188.83,113.13,187.32,111.3ZM176,56.5c2.55-2.76,6-4.67,7.69-8.27C180.78,50.63,177.9,53.09,176,56.5Zm2,63.58c-.38-3.48-1.43-6.67-4.07-9.14Zm-2.85,1-4-7.9C171.19,115.53,172.88,118.91,175.2,121.12Zm6.31-22a20.49,20.49,0,0,0,2.33-9.82Q182.67,94.26,181.51,99.16Zm-1.33,43.41a4.36,4.36,0,0,0-1.81-5.26C179,139.14,179.58,140.81,180.18,142.57Zm28.56,58.72.28-.46q-3.35-2.12-6.68-4.24l-.25.39ZM174.15,64.94a5.88,5.88,0,0,0-.54,5.72Zm-2.32,6.68.27-.26c-1-1.4-1.44-3.26-3.1-4.17l-.29.21Zm6.76-3-.49-.05-.4,5.4.48,0C178.31,72.24,178.45,70.45,178.59,68.65ZM175,92.22l-.32.13c.5,1.23,1,2.46,1.48,3.69l.44-.18Z"/></g></svg>