<svg xmlns="http://www.w3.org/2000/svg" viewBox="0 0 368.61 355.7"><g id="OBJECTS"><path d="M368.61,169.08c-.36.23-.75.43-1.09.68-9,6.87-18.41,13-29.08,17a53.6,53.6,0,0,1-18.23,3.59c-6,.07-11.67-1.47-17.23-3.61A51.55,51.55,0,0,0,288.67,183a44.11,44.11,0,0,0-21.44,3.92c-2.61,1.12-4.64,2.56-5.65,5.36a9.93,9.93,0,0,1-4.27,4.86,53.86,53.86,0,0,1-12.15,6.4c-5.68,1.92-9.75,0-11.87-5.66-1.79-4.76-.52-8,4.29-9.7a119.06,119.06,0,0,1,11.69-3c1.79-.42,3.6-.72,5.42-1a2.79,2.79,0,0,1,1.56.24c1.89,1,3.77,1.93,5.6,3a1.91,1.91,0,0,0,2.09,0,44.82,44.82,0,0,1,23.48-5.57c5.61.25,10.89,1.93,16.09,3.93,5.59,2.16,11.3,3.66,17.37,3.49a55.9,55.9,0,0,0,20.28-4.75c9.45-4,17.93-9.58,26-15.81.42-.32.8-.83,1.42-.34ZM235.37,193.64c.85.59,1.65,1.12,2.42,1.68a6.79,6.79,0,0,0,6.8,1c4.85-2,9.61-4.17,14.54-6.33C253.8,185.37,240,187.56,235.37,193.64Z"/><path d="M177,155.12c1.11-3.66,2.18-7.29,3.33-10.89.63-2,1.32-3.94,2.12-5.84,1.93-4.6,5.18-5.14,8.51-1.46,1.17,1.3,2.27,2.68,3.45,4a12.54,12.54,0,0,1,3,7.75c.29,3.27.63,6.51-.05,9.77a6.89,6.89,0,0,1-4.76,5.64c-2.95,1-5.93,1.87-8.88,2.82-1.95.63-1.91.65-1.95,2.7a30.47,30.47,0,0,1-.3,4.28,6.11,6.11,0,0,1-3.87,4.83c-4.41,1.8-8.6,1.22-12-2a47.68,47.68,0,0,1-11.42-16.65c-.06-.14-.12-.29-.17-.44-.84-2.76-.47-3.67,1.8-5.43,2.87-2.22,6.05-2.21,9.35-1.54C169.05,153.44,172.94,154.27,177,155.12Zm18,3.8c.25-2,.44-4,.76-6,.64-4-.95-6.9-4.38-8.9l-4.54-2.65a1.89,1.89,0,0,0-3,1.06,7.53,7.53,0,0,0-.32,1.15c-.64,2.88-1.22,5.77-1.95,8.63-.29,1.13,0,1.74,1.16,2.08l1.42-3.85c1.66,2.11,3.28,4,4.73,6.07S192.46,159.1,195,158.92Zm-16.64,7.32c-.23-.82-.41-1.67-.69-2.49-1.8-5.33-5.85-8.7-10.9-8.79-3.85-.06-4.33.06-5.91,4.15a3.17,3.17,0,0,0,.5,3.24C165.27,167.88,173.06,168.67,178.32,166.24Z"/><path d="M246.43,136.31c.3,3.73.57,7.26.86,10.78a14.13,14.13,0,0,1-1.45,7.43c-.25.54-.42,1.11-.64,1.7,1.77-.22,3.48-.56,5.19-.62,10.24-.33,20.09,8.82,19,19.68-.23,2.3-4.21,5.84-6.49,5.62A46.05,46.05,0,0,1,250,177.57a30.72,30.72,0,0,1-3.89-1.84c-4.06-2.33-5.63-5.68-4.75-10.29.46-2.37,1.14-4.7,1.71-7-1.27.71-2.52,1.55-3.88,2.16-5.6,2.51-11.26-.24-12.66-6.16a10.09,10.09,0,0,1,2.32-9,17.65,17.65,0,0,1,8.09-5.93C240,138.51,243.11,137.43,246.43,136.31Zm.58,24.23,15.85,14.18c2.6-2.85,3.13-6,1.11-8.7a61.5,61.5,0,0,0-6.26-7.05,5.38,5.38,0,0,0-6.55-.93C249.79,158.73,248.52,159.62,247,160.54Zm-2.6-18.15a8.62,8.62,0,0,0-7.65-.15c-4.32,2.07-6.49,5.91-8.3,10.18,3.71.67,7,.1,9.8-2.25C240.83,148.05,242.48,145.21,244.41,142.39Z"/><path d="M222.54,98.78c-.15,4.51-2.12,8.8-5.18,12.63a26.35,26.35,0,0,1-14.5,9.58,2.52,2.52,0,0,1-2.4-.53c-2.12-1.69-4.36-3.23-6.48-4.92a10.27,10.27,0,0,1-3.65-5.07,7.83,7.83,0,0,1,2.28-8.31,16.56,16.56,0,0,1,5.09-3.47c5.62-2.24,11.32-4.29,17.06-6.2C219.16,91,222.55,93.68,222.54,98.78Zm-29.43,10.79c.36,0,.63.09.73,0,1-.93,2.15-.62,3.28-.64,1.75,0,3.51,0,5.26,0a13.65,13.65,0,0,0,9-3.25c2.32-2.07,4.61-4.15,7-6.33-4.71-3-9.54-2.86-14.4-1C198.77,100.35,194.81,103.8,193.11,109.57Z"/><path d="M224.18,170.25c1.79,0,3.51-.13,5.21,0,3.74.35,5.49,3.7,3.64,7a29.61,29.61,0,0,1-10,10.34A57.75,57.75,0,0,1,208.81,194a1.27,1.27,0,0,1-1-.06c-2-1.45-4-2.9-5.92-4.46-3.33-2.73-3-10.3,0-13a21.47,21.47,0,0,1,11.72-5.23C217.16,170.8,220.71,170.57,224.18,170.25Zm4.71,8.34a32.31,32.31,0,0,0-1.06-3.12,1.46,1.46,0,0,0-1.09-.72q-10.12.84-20.26,1.79a1.38,1.38,0,0,0-.95.53c-1.79,3-.47,5.83,2.94,6.3a4.44,4.44,0,0,0,1.54-.08c2.56-.57,5.13-1.13,7.68-1.77C221.39,180.59,225.08,179.59,228.89,178.59Z"/><path d="M144.14,104.9a21.07,21.07,0,0,1-8.43-2.35,5.37,5.37,0,0,1-3.23-4.31,34.48,34.48,0,0,1,0-6.18,7.53,7.53,0,0,1,3.8-5.68c2.1-1.3,4.27-2.49,6.43-3.69a1.43,1.43,0,0,1,1,0q11,3.38,22.05,6.81a9.26,9.26,0,0,1,2,.86,2.72,2.72,0,0,1,.54,4.61,4.4,4.4,0,0,1-1,.79c-5.84,3-11.57,6.13-17.86,8.05C147.67,104.28,145.88,104.53,144.14,104.9Zm-7.46-15.36c2.62,3.74,5.77,6.59,10.34,7.28,5.62.85,10.62-1.26,15.61-3.43-.07-.19-.08-.29-.13-.32-4.24-3.2-8.75-5.88-14-6.89A12.44,12.44,0,0,0,136.68,89.54Z"/><path d="M112.2,192.07a5.88,5.88,0,0,1-2.58-5.36,15.46,15.46,0,0,1,1.82-8.31,4.93,4.93,0,0,1,1.74-1.59c5.32-3,11.14-4.71,17-6.28,1.23-.32,2.49-.59,3.7-1a2.12,2.12,0,0,1,2.19.51c3,2.49,3.8,5,2.57,8.72-1.88,5.63-5.82,9.55-10.73,12.6a21.54,21.54,0,0,1-10.11,3.38c-.39,0-.91.12-1.17-.08-2.33-1.82-5.15-1.53-7.8-1.8a148.5,148.5,0,0,1-44.38-11.22C49.67,175.25,35,168.58,20.24,162.09c-6.43-2.83-12.92-5.51-19.38-8.26-.6-.25-1.28-.44-.53-1.36C4.64,154.29,9,156,13.21,157.92q24.15,10.67,48.25,21.39a153,153,0,0,0,41,11.77c2.81.4,5.63.67,8.45,1C111.24,192.1,111.55,192.07,112.2,192.07Zm7.28,0c3.23.11,5.43-.79,7.22-3.6,2.43-3.83,4.59-7.84,6.83-11.8a1.29,1.29,0,0,0-.09-1.06,5.26,5.26,0,0,0-5.84-2.8c-6.78,1.47-11.9,5.4-15.81,11a1.42,1.42,0,0,0-.21.9A8.62,8.62,0,0,0,119.48,192.06Z"/><path d="M143.79,146.49c-1,0-1.92,0-2.87,0-2-.1-4.06-.61-4.95-2.57s0-3.81,1.32-5.3c2.75-3.16,5.56-6.29,8.47-9.31,2.07-2.15,4.3-4.17,6.56-6.12a16.45,16.45,0,0,1,8.88-3.86,5.46,5.46,0,0,1,5.19,1.83,42.79,42.79,0,0,1,2.94,4.21c.65,1,1.09,2.16,1.83,3.09a3.31,3.31,0,0,1,.44,3.35c-2.11,6.84-6.87,11-13.6,12.73-4.61,1.16-9.43,1.51-14.16,2.22Zm21-25.6a17.44,17.44,0,0,0-6.87,1.53c-3.51,1.69-5.87,4.58-8.23,7.52a71.33,71.33,0,0,1-6.48,7.49c-1.29,1.22-1.71,2.22-1.23,3.79.13.44.23.89.36,1.4l1.55-.54c3.84-1.43,7.65-3,11.53-4.29,2.93-1,6-1.71,8.9-2.75,3.29-1.17,4.22-3.12,3.58-6.56a1.72,1.72,0,0,0-1.67-1.61c-1.48-.22-2.93-.59-4.54-.92Z"/><path d="M133.42,140.41c-1.72,2.46-3.47,4.85-5.08,7.32-2.26,3.45-5.67,5.37-9.29,6.89-4.89,2-9.88,3.83-14.83,5.72l-.23.08c-1.51.37-3.07.62-4.26-.66s-.87-2.85-.26-4.29c2.3-5.43,4.51-10.9,7-16.23,1.32-2.81,3.09-5.42,6-6.94a20.15,20.15,0,0,1,9.56-2.28,6.78,6.78,0,0,1,5.2,2.8C129.35,135.3,131.35,137.85,133.42,140.41Zm-11.4-8.6c-4.41.36-8.41,1.41-11.3,4.78-3.85,4.52-5.59,10-6.35,15.76-.26,2,.25,2.41,2.22,2.86,3.67.82,6.91-.39,10.14-2.15l-4.22-4.36,16-5.13A2.52,2.52,0,0,0,126,141c-1.52-.19-3-.64-4.84-1l3.76-1.06c-2.11-.38-2.49-1.75-2.65-3.25C122.18,134.46,122.12,133.22,122,131.81Z"/><path d="M226.13,147.24c-1.55,3.48-3,7-4.67,10.37-.94,1.87-2.18,3.76-4.53,4.12A14,14,0,0,1,206,159.2c-2.72-2.11-3.56-5.4-3.52-8.81a4.15,4.15,0,0,1,.73-1.86c2.86-4.91,6.68-9.05,10.6-13.1a12.19,12.19,0,0,0,1.51-1.54c.86-1.26,1.87-1.11,3.12-.66,3.69,1.31,5.53,3.84,5.53,7.76,0,1.27.2,2.55.17,3.82,0,1,.22,1.7,1.25,2A4,4,0,0,1,226.13,147.24Zm-7-8.31c.1.08,0,0-.08-.06-2.62-1.3-5-1-7,1.15a86.85,86.85,0,0,0-6,7.29,7.23,7.23,0,0,0-.37,8.32,2.08,2.08,0,0,0,2.52,1.16c4.41-.77,6.92-3.5,8.08-7.66C217.22,145.78,218.13,142.41,219.08,138.93Z"/><path d="M157.09,197c-1.4,0-2.81-.1-4.19,0a4.22,4.22,0,0,1-3.42-1.36c-3.45-3.25-3.24-5.67.68-8.37a12,12,0,0,1,6-1.91c1.63-.16,3.28-.13,4.9-.29a17.22,17.22,0,0,0,2.29-.61,1.83,1.83,0,0,1,.7,0c4.84,1,9.68,2,14.51,3a4.64,4.64,0,0,1,1.81.85c1.12.86,2.27,1.85,1.86,3.46a4.75,4.75,0,0,1-3.76,3.23c-7.12.55-14.22,1.32-21.33,2Zm19-5.14c-7.66-5.92-21.12-5.91-26.41,0Z"/></g></svg>