<svg xmlns="http://www.w3.org/2000/svg" viewBox="0 0 368.61 355.7"><g id="OBJECTS"><path d="M368.62,153.38c-2-.27-3.93-.53-5.89-.82-24.35-3.57-47.05.69-67.79,14.25-9.07,5.92-17.05,13.17-25,20.46-10.89,9.95-20.41,21.14-29.9,32.38a116.79,116.79,0,0,1-8.7,9.24c-8.43,8-18.36,10-29.37,6.59-2.77-.86-5.41-2.13-8.21-3.25-.37,1.3-.77,2.75-1.18,4.19a13.7,13.7,0,0,1-2.83,5.74c-1.35,1.48-2,1.63-3.72.57a6.83,6.83,0,0,1-3.55-6c0-1.08-.08-2.16,0-3.24.27-3.6-4.13-6.48-7.48-5-4.35,1.91-8.7,3.81-13.08,5.65a505.6,505.6,0,0,1-62.61,22,254.24,254.24,0,0,1-34.33,7c-9.44,1.22-18.8,1.17-28-1.73a59,59,0,0,1-25.75-16.67A78.55,78.55,0,0,1,.32,229.63c-.29-.52-.73-1.08.42-1.35l.73,1.29c5.59,9.73,12.65,18.14,22.11,24.36a53.51,53.51,0,0,0,28.88,8.95c7.83.16,15.53-1,23.19-2.42,24.27-4.45,47.57-12.18,70.5-21.11,7.7-3,15.28-6.27,22.91-9.42.22-.09.42-.2.76-.36-1.63-.17-3.16-.21-4.64-.51a22.65,22.65,0,0,1-10.76-6c-5.38-4.93-9.75-10.55-12-17.59a28.32,28.32,0,0,1-1.43-8.95c0-9.07,0-18.15.1-27.22.1-10.55.28-21.1.47-31.64.21-11.51.49-23,.7-34.51.1-5.09.79-10,3.28-14.57A27.26,27.26,0,0,1,158.25,76.9a37.18,37.18,0,0,0,11.81-8c4.69-5,6.87-11.14,7.38-17.91.12-1.55.12-3.11.27-4.66a2.83,2.83,0,0,1,1.61-2.7,15.89,15.89,0,0,1,3.6,7.77c.55,3.5.79,7,1,10.59.28,4.26.29,8.55,1.81,12.88.32-.47.57-.78.77-1.13a16.68,16.68,0,0,0,2.17-8.49c0-3-.2-6.07-.3-9.11a19.9,19.9,0,0,1,1.51-9.36c.08-.17.18-.34.43-.8a21.46,21.46,0,0,1,.85,3c1,8.36,5.35,14.64,12,19.54a59.11,59.11,0,0,1,15.58,16.41,54,54,0,0,1,7.86,26.33c.42,9.18.67,18.37,1,27.55a257.63,257.63,0,0,1-.31,27.79,133.42,133.42,0,0,1-8.18,36.8q-3.24,8.82-6.67,17.57c-2.14,5.44-4.86,6.82-10.6,5.7a10.47,10.47,0,0,0-3.42-.27c-2.53.39-3.67,1.75-4.2,4.61a38,38,0,0,0,10.36,4.15c10.77,2.53,20-.45,27.45-8.39,5.26-5.57,10.22-11.43,15.21-17.26a268.42,268.42,0,0,1,41.43-39.58,93.66,93.66,0,0,1,42.42-18.37,97.37,97.37,0,0,1,26.63-.64c3.33.38,6.63,1,9.95,1.45a7.46,7.46,0,0,0,.95,0Zm-168,69.7c1.29.37,2.45.77,3.65,1a4.79,4.79,0,0,0,5.42-2.13,16.5,16.5,0,0,0,1.73-2.86c2.49-6.13,5.11-12.22,7.27-18.46a101.94,101.94,0,0,0,5.72-29.28c.18-4.38,0-8.78,0-13.17,0-7.47.08-14.94.16-22.41.07-6.31.2-12.62.31-18.93a52.85,52.85,0,0,0-7.76-29.33c-5.13-8.31-12.12-14.79-20-20.38-1.7-1.21-3.46-2.34-5.19-3.51a1,1,0,0,0,.13.77c3,5.1,6,10.18,9,15.3a31.69,31.69,0,0,1,4.33,10.7q.95,6,1.83,12a316.06,316.06,0,0,1,3.24,36.74,290.56,290.56,0,0,1-1.33,39,263.71,263.71,0,0,1-5.76,34.09C202.55,215.79,201.62,219.33,200.67,223.08Zm-20.86-78.44V117.57l-5.5,1.61c-2.59.77-5.27,1.46-7.88.52-3.47-1.25-6.81-2.87-10.29-4.37l5.72-10.55-2.74-3.46c-6.15,7.09-8.06,25-4.35,31.3,6.13-8.12,15.27-10,24.41-12a1.81,1.81,0,0,1,0,.36l-7,17.54a12,12,0,0,1-10,7.86c-.79.11-1.58.24-2.37.32-1.85.2-3.7.37-5.61.55.34,3.51.67,6.88,1,10.26.76,8,1.48,16,2.27,24,.82,8.35,1.86,16.68,2.47,25a35.19,35.19,0,0,0,4.88,14.75,5.66,5.66,0,0,0,7,2.89c5.12-1.4,8.35-4.8,9.2-10a75.93,75.93,0,0,0,.73-11.69c.07-16.31,0-32.62,0-48.92,0-.35,0-.69-.08-1-1.35-.13-1.36-.13-1.77.95a36,36,0,0,1-5.22,9.79,37.27,37.27,0,0,1-5.13,5.15,5.74,5.74,0,0,1-5.07,1.23,1.15,1.15,0,0,1-1.06-1.31c0-2.84-.09-5.67,0-8.51a33.83,33.83,0,0,1,.46-6c1.2-6,6.46-10.3,12.13-10.07A23,23,0,0,1,179.81,144.64Zm23.12,53.25q2.4-18.15,4.7-35.49a19.57,19.57,0,0,1-4.07-.91c-3.77-1.74-7.44-3.67-11.17-5.5a5.24,5.24,0,0,1-3-4.07c-1.56-8.61,4.38-18.71,12.69-21.49a6.06,6.06,0,0,1,.92-.16c1.33,8.11,2.64,16.13,4,24.19l2.57-.36c-.48-4.22-.94-8.3-1.39-12.38-.91-8.29-1.78-16.6-2.74-24.89-1.05-9.12-2.24-18.23-3.27-27.36-.85-7.61-5.9-12.24-11.36-16.73-.28.38-.47.64-.65.9-3.94,5.77-5.36,12.34-5.7,19.15-.33,6.46-.35,12.94-.47,19.41,0,2.71,0,5.42,0,8.37l2.26-1.09c1.83-.88,3.63-1.83,5.51-2.61a6.3,6.3,0,0,1,5.57,0c2.24,1.19,4.39,2.55,6.7,3.91-1.54,1.94-2.9,3.76-4.38,5.48a9.5,9.5,0,0,1-9.09,3.44c-1.88-.3-3.71-.85-5.59-1.3v48.29a1.42,1.42,0,0,0,.28.09l.83-.05c3.86-.09,7.61.26,10.71,2.93a13.47,13.47,0,0,1,4.17,7.52C201.7,190.6,202.24,194.09,202.93,197.89ZM151,194.6l-.53.1a12.77,12.77,0,0,1-.62-2.12c-.18-1.38-.22-2.79-.32-4.18-.6-8.61-1.43-17.21-1.75-25.83-.41-11.21-.49-22.43-.58-33.66-.05-6,.28-11.9,2.42-17.58,1.11-2.94,2.1-5.94,3.23-8.88a4.46,4.46,0,0,1,1.33-1.87,68.9,68.9,0,0,0,13.34-13.52c1-1.44,1.9-3,2.84-4.47l-.28-.21-10.93,9.53-.31-.28q5-5.92,10-11.86c1.4-1.69,2.86-3.34,4.1-5.13A6.9,6.9,0,0,0,174.07,70a2.66,2.66,0,0,0-.39.14c-6.39,4.59-12.84,9.1-19.14,13.81A20.29,20.29,0,0,0,146,99.06c-.8,10.12-1.77,20.22-2.36,30.35-.69,12-1.25,24.1-1.48,36.16-.15,8.22.38,16.45.57,24.68A46,46,0,0,0,148,210.94c2.81,5.36,6.22,10.18,11.68,13.14,1.78,1,3.74,1.62,5.61,2.42l.17-.35a5,5,0,0,0-.42-.38,23.94,23.94,0,0,1-7.94-10.61c-2.14-5.47-2.72-11.23-3.1-17-.41-6.34-.66-12.69-1.07-19-.64-10-1.37-19.93-2-29.89q-.89-13-1.76-25.95a11.63,11.63,0,0,0-.18-1.16,109.78,109.78,0,0,0-.81,11.4c-.18,9,.54,18,1.24,27,.67,8.6,1.17,17.21,1.66,25.82C151.15,189.12,151,191.87,151,194.6Zm34.61-13.8q-.36,6-.73,12c-.71,12.09-1.4,24.17-2.14,36.25a9.91,9.91,0,0,0,1.07,5.87c1,1.72,1.72,3.59,2.57,5.4.64,1.36.73,1.38,2.27.73-.27-1.84-.57-3.69-.8-5.54-.94-7.27,1.85-12,8.65-14.73l1.43-.62c-.52-.07-.74-.08-.95-.13a71.09,71.09,0,0,1-6.95-1.69c-2.24-.76-3.24-2.64-3.19-5,.06-2.86,1.36-5.3,2.79-7.74-2,4.22.27,7.73,1.61,11.46,1.48-.4,2.82-.8,4.17-1.12a6.23,6.23,0,0,0,4.81-4.22c1-2.95,1.92-5.91,2.86-8.87.26-.81.48-1.63.78-2.63l-13.6,3.8c-.55-4-1.07-7.92-1.61-11.79s-1.11-7.78-1.66-11.7ZM176,123.67a30.46,30.46,0,0,0-12.7,4.11,18,18,0,0,0-7.85,9.23c-1.23,3.46-.42,7,4.07,6.75a3.3,3.3,0,0,0,1.56-.5c1.82-1.16,3.63-2.33,5.37-3.6a16.11,16.11,0,0,0,5.4-6.16C173.29,130.33,174.55,127.06,176,123.67Zm1.21,22.69c-1.32.22-2.74.39-4.12.7-5.52,1.23-8.14,4.53-8.12,10.17,0,2.31,0,4.63,0,6.94v3.62a2.21,2.21,0,0,0,.54-.08c4.32-2,8.08-4.66,10.46-8.92A14.31,14.31,0,0,0,177.18,146.36ZM181,112.51l-9-5.62a9.49,9.49,0,0,0-1-.5,8.1,8.1,0,0,0-10.33,2.9c-2.08,3.26-1.08,6.32,2.57,7.63C169.29,119.07,175.54,117.82,181,112.51Zm-.3-20.76c.14-.13.23-.17.26-.23.11-.3.21-.6.3-.91a34.47,34.47,0,0,0,1.43-13.14c-.65-7.3-1.57-14.57-2.38-21.85l-.29,0c-.22,1.07-.53,2.14-.65,3.22-.52,4.56-.91,9.13-1.48,13.68-.6,4.84-2.12,9.33-5.5,13-.66.72-1.36,1.4-2.14,2.2Zm9,87.12a38,38,0,0,0,2.77,18,3.14,3.14,0,0,0,1.31,1.61c1.4.71,2.91,1.2,4.32,1.75,1.86-2.7,2.84-5.39,2.12-8.58s-1.34-6.68-3.25-9.56A7.08,7.08,0,0,0,189.75,178.87Zm13.85-45.53a8.91,8.91,0,0,0-2.52-.49,16.24,16.24,0,0,0-3,.88,3.22,3.22,0,0,0-2.13,1.94c-1.06,2.66-2.11,5.33-3.19,8a12.1,12.1,0,0,0,.21,10.25c1.46-.67,3-1.35,4.49-2.07a3.94,3.94,0,0,0,2.3-2.73C201,144,202.28,138.81,203.6,133.34Zm-41.13-31.29,14.75,3.38C173.72,99.39,168.46,97.56,162.47,102.05ZM178.53,98c-1.92-5.21-7.36-7-11.86-4.06Z"/></g></svg>