<svg xmlns="http://www.w3.org/2000/svg" viewBox="0 0 368.61 355.7"><g id="OBJECTS"><path d="M368.61,240.78a8.51,8.51,0,0,1-1.05-.93,98.82,98.82,0,0,0-29.27-23.67c-9.33-5-19.06-5.15-29-1.59a71.65,71.65,0,0,1-7.78,1.86c-11.68,2.8-22.6,7.56-33.23,13-7.64,3.92-15.25,7.89-23.57,10.21-14.5,4-28.75,3.58-42.63-2.55a24.59,24.59,0,0,1-13-13.29c2-.1,4-.17,5.93-.3,19.42-1.29,36.33-8.42,50.48-21.83,12.72-12.05,20.36-26.95,24.31-43.87a95.39,95.39,0,0,0,2.59-21.48,85.34,85.34,0,0,0-8.94-38.12A89.53,89.53,0,0,0,242.3,69.92c-10.32-9.11-22.3-15-35.53-18.6a83.89,83.89,0,0,0-28.94-2.87,90,90,0,0,0-19.24,3.72c-.22.07-.44.16-.7.26.75,2.32,2.49,3.88,3.92,5.67,2,2.47,4.16,3.63,7.31,2.36a22.88,22.88,0,0,1,3.89-.84l-5.75-6.91c2.74-.39,5.25-.79,7.77-1.1,1.55-.19,3.11-.24,4.66-.4a1.91,1.91,0,0,1,2.19,1.21c.73,1.56,1.6,3,2.38,4.57a2.18,2.18,0,0,0,2,1.35c2.22.11,4.44.36,6.87.57l-3.39-7.65c1.42.12,2.63.16,3.82.33,2.45.33,4.89.76,7.35,1.09a1.87,1.87,0,0,1,1.7,1.57c.53,2,1.13,3.91,1.64,5.88a2.6,2.6,0,0,0,2,2c2.07.59,4.11,1.25,6.42,2-.61-2.93-1.18-5.67-1.79-8.63a10.22,10.22,0,0,1,1.43.36c3.5,1.45,7,2.94,10.49,4.38a1.62,1.62,0,0,1,1.09,1.88c-.16,1.83-.24,3.66-.44,5.49a2.18,2.18,0,0,0,1,2.25c1.83,1.29,3.6,2.64,5.57,4.09.44-3,.85-5.78,1.28-8.69a3.49,3.49,0,0,1,.64.29c3,2.33,6,4.69,9,7a1.7,1.7,0,0,1,.52,2.13c-.58,1.82-1.11,3.66-1.7,5.48a1.94,1.94,0,0,0,.43,2.08c1.5,1.71,2.94,3.47,4.55,5.38,1.1-2.81,2.12-5.45,3.21-8.23l.8,1c2,2.53,3.9,5.06,5.87,7.58,1.51,1.93,1.53,3.48.06,5.42-.68.89-1.34,1.79-1.94,2.73a3.2,3.2,0,0,0,0,3.42c1,1.79,2,3.56,3,5.48l4.8-6.83c.38.78.73,1.4,1,2,1.24,3.07,2.42,6.16,3.7,9.21a1.88,1.88,0,0,1-.5,2.44c-1.44,1.33-2.79,2.74-4.22,4.08a1.79,1.79,0,0,0-.58,1.92c.51,2.24.94,4.49,1.45,6.94l6.54-5.49c.35,2.56.68,4.83,1,7.12.21,1.7.3,3.42.52,5.12A2,2,0,0,1,268,133.9c-1.53.66-3,1.49-4.51,2.22a2.24,2.24,0,0,0-1.39,1.92c-.23,2.22-.51,4.44-.8,6.92l8.15-3.32c-.65,4.24-1.22,8.26-1.94,12.25-.08.49-.93,1-1.53,1.21-1.51.49-3.08.83-4.64,1.17a2.2,2.2,0,0,0-1.74,1.6c-.69,2.11-1.42,4.2-2.21,6.53l7.47-1.25a9.42,9.42,0,0,1-.39,1.53c-1.38,3.27-2.82,6.51-4.18,9.79a1.85,1.85,0,0,1-2,1.3c-1.92-.06-3.84,0-5.75,0a1.7,1.7,0,0,0-1.67.9c-1.22,2-2.51,3.88-3.89,6l8.14.67c-.66,1-1.17,1.81-1.79,2.57-1.82,2.28-3.7,4.51-5.51,6.8a2.16,2.16,0,0,1-2.55.75c-1.73-.48-3.45-1-5.19-1.42a1.87,1.87,0,0,0-1.45.16c-1.9,1.56-3.73,3.21-5.76,5L240.6,200l-1.43,1.09c-2.75,2.06-5.51,4.1-8.24,6.19a1.92,1.92,0,0,1-2.42.11c-1.5-.9-3-1.86-4.57-2.61a3,3,0,0,0-2.21-.1c-2.08.91-4.07,2-6.29,3.15l6.66,4.53c-1.24.54-2.24,1-3.27,1.41-2.62,1.05-5.27,2.06-7.9,3.13a1.69,1.69,0,0,1-2.21-.53c-1-1.23-2.05-2.45-3.17-3.59A2.2,2.2,0,0,0,204,212c-2.4.26-4.79.67-7.44,1.05l4.91,6.44c-2.88.38-5.52.75-8.17,1.08-1.27.15-2.55.17-3.82.34a1.67,1.67,0,0,1-1.93-1c-.73-1.42-1.57-2.78-2.27-4.22a2.31,2.31,0,0,0-2.52-1.57,8.52,8.52,0,0,1-1.61-.13c.65-2,1.25-3.81,1.87-5.64.76-2.27,1.55-4.53,2.31-6.8s.76-2.24,3.22-2.29a64,64,0,0,0,22.81-4.38c15.52-6.21,25.77-17.44,31.3-33.11a78.91,78.91,0,0,0,4.35-24.54c0-1.74,0-3.49,0-5.42-1.64.22-3.17.37-4.68.67-.24.05-.47.75-.49,1.16-.16,2.79-.16,5.59-.4,8.38-1.73,20.15-10.91,35.6-28.91,45.36a57.73,57.73,0,0,1-20.18,6.09c-8.63,1.13-17.23.81-25.43-2.19-21.53-7.86-35.42-22.54-39.13-45.62-3-18.37,2-34.62,14.66-48.3A55.7,55.7,0,0,1,176,79.85c2.8-.42,5.64-.6,8.56-.9V90.23c-2,.21-4.06.32-6.06.65-2.44.4-4.85.94-7.26,1.52-2.84.68-3.94,2.38-3.58,5.29.3,2.43.31,2.43-1.82,3.55l-4,2.12a1.17,1.17,0,0,1-.25,0,6.57,6.57,0,0,1-.63-.71c-1.69-2.54-4.23-3-6.65-1.1a35.13,35.13,0,0,0-7.46,8.07c-3.58,5.25-6.47,10.82-7.64,17.15-.34,1.84-.56,3.6.91,5.18a4.81,4.81,0,0,0,4,1.29c1.31,0,1.7.54,1.75,1.76.05,1.55.27,3.1.43,4.65.11,1-.34,1.47-1.33,1.54-4.8.3-6.36,2.09-5.25,6.68a43.76,43.76,0,0,0,13,22.18,7.46,7.46,0,0,0,1.05.8,4.14,4.14,0,0,0,5.93-1c.66-.85,1.21-1.78,1.9-2.79l6.61,3.72c-.55,1.14-1.07,2.2-1.57,3.27-1.25,2.68-.5,4.74,2.22,5.79a43.38,43.38,0,0,0,30.47.41c1.54-.52,2.89-1.38,3.16-3.11a7.18,7.18,0,0,0-.25-2.87,14.92,14.92,0,0,0-1.17-2.5c2.13-1,4.16-2,6.24-2.91.35-.14,1.14.27,1.44.65,1.95,2.48,4.14,2.88,6.71,1a28.52,28.52,0,0,0,6.8-7.52c3.08-4.65,5.69-9.52,6.88-15,0-.2.09-.39.12-.59.65-4.17-1-6.12-5.23-6.16h-1.44c-.05-.34-.11-.57-.12-.8-.09-2.23-.09-2.23-2.3-2.31-.35,0-.7,0-1.14,0l-.39,3.15c-.84,0-1.71,0-2.56,0a5.34,5.34,0,0,0-5.08,3.57,33.09,33.09,0,0,1-6.28,10.8,4.94,4.94,0,0,0-.66,5.42c.52,1.25,1.15,2.45,1.78,3.79l-6.36,3.93c-.62-1-1.19-1.85-1.81-2.72-1.83-2.61-3.5-3.23-6.58-2.5a28.35,28.35,0,0,1-13.76-.09,5,5,0,0,0-5.7,1.95c-.87,1.14-1.63,2.37-2.54,3.71l-5.75-5.06c.46-1,.93-1.87,1.34-2.82a5.37,5.37,0,0,0-.92-6,29.39,29.39,0,0,1-5.78-10,5.62,5.62,0,0,0-5.42-4c-.74-.05-1.47-.12-2.21-.18l-.07-.41,11.5-3.64c.45,1.2.79,2.31,1.3,3.34a2.46,2.46,0,0,0,1.27,1.27,10.67,10.67,0,0,1,5.53,3.6c.63.71,1.21,1.46,1.81,2.2l.38-.37c-1-1.06-1.92-2.18-3-3.17a1.74,1.74,0,0,1-.23-2.71,4.15,4.15,0,0,0,.35-5.29,2.92,2.92,0,0,0-1.28-1.07,12.27,12.27,0,0,0-1.86-.41,2.17,2.17,0,0,0-2.45.79,3.66,3.66,0,0,1-4,1.24q-4.67-1.06-9.32-2.18a1.74,1.74,0,0,1-1-.71c.72-.06,1.44-.15,2.17-.16,3.62,0,5.09-1.09,6.23-4.55a29.88,29.88,0,0,1,7.1-11.93,4.91,4.91,0,0,0,1.12-5.62c-.44-1.15-1-2.24-1.59-3.45l6.39-3.91c.61.92,1.19,1.76,1.75,2.63a5.8,5.8,0,0,0,6.45,2.81,27.92,27.92,0,0,1,11.19,0A5.58,5.58,0,0,0,196,107c.66-.89,1.25-1.83,1.91-2.82l6.71,3.45c-.52,1-1,2-1.51,3-1.2,2.55-.94,4.22,1,6.34a32.41,32.41,0,0,1,7.08,12.23c.92,2.9,2.49,4.08,5.54,4.18.75,0,1.5,0,2.33,0,0,1-.08,1.87-.12,2.81h3.52c.05-.84.1-1.7.15-2.66,1.23-.13,2.42-.23,3.6-.38a3.71,3.71,0,0,0,3.47-4.42,43,43,0,0,0-15.45-27.28,4.1,4.1,0,0,0-6.38,1.11c-.23.37-.49.71-.8,1.15l-6.93-3.43.6-1.42a4.44,4.44,0,0,0-2.24-6.23,21.56,21.56,0,0,0-7.85-2c-1.38-.14-2.78-.22-4.36-.34.17-3.64.35-7.28.54-11.07,14.17.13,26.52,4.6,36.87,14.3s15.6,21.69,17.62,35.52l5.18-.53a59.65,59.65,0,0,0-16-34.47,61,61,0,0,0-42.41-20.14A62.75,62.75,0,0,0,121.84,131c-3.28,37.5,26.79,68.73,62.85,68.39-.13.44-.24.84-.37,1.23q-2,5.82-4,11.65c-.56,1.64-.7,1.73-2.41,1.57-.51-.05-1-.07-1.69-.11,1.13,2.44,2.21,4.74,3.39,7.27-1.62-.14-3.07-.2-4.49-.4-2.65-.35-5.3-.73-7.93-1.25a2.19,2.19,0,0,1-1.28-1.33c-.64-1.8-1.14-3.65-1.65-5.5a2,2,0,0,0-1.6-1.56c-2.19-.55-4.36-1.2-6.73-1.87.57,2.58,1.1,5,1.67,7.61a12.78,12.78,0,0,1-1.49-.43c-3.09-1.28-6.17-2.61-9.28-3.86a1.82,1.82,0,0,1-1.31-2c.07-1.92.1-3.84,0-5.76a2.47,2.47,0,0,0-.76-1.73c-1.95-1.37-4-2.6-6.24-4-.21,2.82-.4,5.46-.61,8.3-.59-.36-1.07-.6-1.49-.92-2.7-2.07-5.35-4.19-8.07-6.22a1.79,1.79,0,0,1-.74-2.17c.52-1.84,1-3.71,1.52-5.54a2.32,2.32,0,0,0-.64-2.59c-1.54-1.55-3-3.18-4.61-4.91-.91,2.67-1.78,5.18-2.7,7.89a9.33,9.33,0,0,1-1-1c-2.13-2.74-4.23-5.51-6.38-8.25a1.83,1.83,0,0,1-.07-2.4c1-1.5,1.9-3.05,2.9-4.54a2.14,2.14,0,0,0,.17-2.44c-1-2-2-4-3-6.19l-5,6.87c-.32-.6-.61-1-.82-1.54-1.3-3.09-2.53-6.21-3.89-9.27a2.33,2.33,0,0,1,.6-3c1.42-1.41,2.77-2.88,4.16-4.32a2.37,2.37,0,0,0,.62-2.51c-.58-2.07-1-4.18-1.61-6.54l-6.7,6.13c-.39-2.5-.76-4.77-1.07-7-.21-1.5-.27-3-.48-4.52a2,2,0,0,1,1.17-2.34c1.79-.95,3.52-2,5.29-3a2.09,2.09,0,0,0,1.16-2.05c-.05-2.15,0-4.31,0-6.72l-7.59,3.76a12.62,12.62,0,0,1,0-1.53c.44-3.49.93-7,1.32-10.46a2.2,2.2,0,0,1,1.81-2.07c2.07-.58,4.13-1.24,6.2-1.83a2.07,2.07,0,0,0,1.57-1.6c.56-2.19,1.2-4.36,1.88-6.75l-8.62,2a11.35,11.35,0,0,1,.38-1.51c1.24-3,2.53-5.94,3.74-8.94a2.22,2.22,0,0,1,2.3-1.51c2.12,0,4.23-.07,6.34-.22a2.34,2.34,0,0,0,1.6-.78c1.28-2,2.44-4,3.78-6.28l-8.73-.44c.35-.58.58-1.07.9-1.5,2-2.7,4.15-5.37,6.18-8.1a1.93,1.93,0,0,1,2.38-.79c2,.58,4,1.08,6,1.66a2.12,2.12,0,0,0,2.3-.48c1.64-1.56,3.35-3,5.17-4.7l-8.44-3a10.34,10.34,0,0,1,1-1c2.81-2.18,5.65-4.33,8.45-6.52a1.73,1.73,0,0,1,2.19-.1c1.75,1,3.53,2,5.28,3.09a1.89,1.89,0,0,0,2.11,0c2-1.1,4.08-2.13,6.25-3.25l-7.27-4.91,9.92-4.36-1-2.22C125.24,63.3,94.4,95.55,96.71,141c1.18,23.31,10.7,42.78,27.44,58.84s37.19,23.66,60.59,24.16a4.77,4.77,0,0,1-.79.71c-4.59,2.35-8.06,5.94-11.18,10a76.25,76.25,0,0,1-6,7.14c-4.23,4.23-9.6,6.15-15.45,6.91-16,2.08-29.84-2.83-42.09-13-6-5-12-10-18.21-14.84-6.81-5.33-14.22-9.61-22.75-11.63a22.1,22.1,0,0,0-9.71-.54,5.08,5.08,0,0,1-5.66-2.88,11.87,11.87,0,0,1,4.62-15.38c3.26-1.77,4.2-3.6,3.8-7.33-.6-5.67-2.77-10.8-5.41-15.75-4-7.43-8.82-14.18-15.5-19.44-3-2.32-6.15-4.18-10-4.56-4.36-.44-7.66,1.6-10.5,4.45,1.91,2.15,3.94,4.08,5.56,6.32a28.15,28.15,0,0,1,5.28,20.61c-.85,6.58-5.42,10.22-12.1,10.16-5.74-.06-9.11-3-9.51-8.75C8.42,166,11.75,157,17.84,149c.19-.26.39-.5.58-.75,0,0,0-.08,0-.21A32.22,32.22,0,0,0,.05,141.24l0-.42a6.1,6.1,0,0,1,1.39-.22,31.51,31.51,0,0,1,13.39,4.13c1.45.83,2.84,1.78,4.36,2.75l1.15-1c4.7-4.23,9.92-5,15.61-2.19a34.27,34.27,0,0,1,10.32,8.08,65.54,65.54,0,0,1,15.06,26.52,17.17,17.17,0,0,1,.64,7.34,5.62,5.62,0,0,1-2.89,4.3l-.84.47A10.91,10.91,0,0,0,53,204.12c1,3.18,3,4.27,6.31,3.81a25.36,25.36,0,0,1,9.48.86A57.89,57.89,0,0,1,90.21,219.6c6.26,4.82,12.32,9.91,18.47,14.89,5.48,4.44,11.17,8.56,17.89,11a49.86,49.86,0,0,0,29.79,1.6c5.41-1.39,9.55-4.65,13-8.94,1.87-2.34,3.72-4.7,5.65-7a28.06,28.06,0,0,1,7.2-6.09c.16-.1.3-.22.69-.52-24.46-1-45.25-9.67-62.14-27.24s-25.06-38.51-24.68-62.8c.67-42,30-72.21,58.81-81.51.47,1.07,1,2.14,1.47,3.3l-9.56,4.09,7.27,4.9c-2.81,1.44-5.4,2.82-8.05,4.08a2.32,2.32,0,0,1-1.65-.36c-1.72-.93-3.41-1.92-5.08-2.93a1.72,1.72,0,0,0-2.18.13c-2.83,2.14-5.7,4.21-8.74,6.44l8.83,3.12c-1.82,1.65-3.59,3.07-5.13,4.71a3.77,3.77,0,0,1-4.58,1c-1.52-.58-3.14-.89-4.72-1.33a1.79,1.79,0,0,0-2.18.7c-1.9,2.47-3.88,4.87-5.83,7.31-.24.3-.46.62-.86,1.17l8.8.44a8.39,8.39,0,0,1-.44,1.09c-1.21,2-2.45,4-3.64,6A2,2,0,0,1,116.74,98c-2.11,0-4.23.12-6.35.15a2,2,0,0,0-2.09,1.37c-1.26,3.06-2.64,6.06-4.09,9.35l8.78-2c-.09.57-.13,1-.23,1.39-.58,2.16-1.19,4.31-1.74,6.48a2.25,2.25,0,0,1-1.76,1.73c-2.15.6-4.29,1.24-6.39,2a2.19,2.19,0,0,0-1.29,1.34c-.61,3.5-1.08,7-1.59,10.54a4,4,0,0,0,0,.64l8-3.92c0,.82,0,1.48,0,2.13,0,1.63,0,3.27,0,4.9a4.35,4.35,0,0,1-2.8,4.09c-1.36.68-2.66,1.46-4,2.2a1.69,1.69,0,0,0-.94,1.87c.4,3.4.74,6.81,1.14,10.54,2.33-2.13,4.44-4.08,6.72-6.16.19.76.34,1.39.52,2,.32,1.15.6,2.32,1,3.44,1,2.75.49,4.7-1.72,6.64a30.08,30.08,0,0,0-3,3.08,1.8,1.8,0,0,0-.38,1.49c1.29,3.51,2.68,7,4.14,10.73l5.23-7.25c1.3,2.77,2.58,5.37,3.71,8a2.38,2.38,0,0,1-.35,1.77c-.87,1.57-1.84,3.09-2.82,4.6a1.69,1.69,0,0,0,.09,2.26c2.12,2.69,4.17,5.44,6.41,8.38l2.76-8c1.67,1.77,3.19,3.49,4.83,5.1a3.75,3.75,0,0,1,1,4.33c-.49,1.38-.76,2.85-1.16,4.27a2,2,0,0,0,.81,2.48c2.43,1.81,4.79,3.72,7.19,5.58.27.21.58.36,1.06.66.2-2.8.38-5.4.58-8.17.41.22.72.35,1,.53,1.71,1,3.41,2.07,5.13,3.08a3.87,3.87,0,0,1,2.14,3.84c-.1,1.31-.22,2.63-.27,3.94a2.66,2.66,0,0,0,1.52,2.77c3,1.31,6,2.49,9.31,3.83-.59-2.66-1.12-5.07-1.7-7.68.82.22,1.49.42,2.16.59,1.31.33,2.62.69,4,1a4.53,4.53,0,0,1,4,4c.21,1,.44,2,.71,3a2.68,2.68,0,0,0,2.17,2.16c3.42.52,6.86.95,10.49,1.44-1.14-2.49-2.19-4.79-3.29-7.18,1.15,0,2.16,0,3.17,0a1.2,1.2,0,0,0,.9-.48c1.5-4.2,2.95-8.42,4.47-12.77-21.18-.81-38.25-9.32-50.84-26.36-9.73-13.18-13.4-28-11.64-44.19a63.08,63.08,0,0,1,67.65-56c36.46,2.74,56.39,33,57.9,55.59l-6.05.67c-.54-2.6-1-5.14-1.62-7.65-2.9-11.61-8.4-21.69-17.63-29.52a51.86,51.86,0,0,0-33.33-12.71,7.84,7.84,0,0,0-1,.08c-.17,3.23-.34,6.41-.51,9.7,2.39.34,4.77.58,7.1,1a26.14,26.14,0,0,1,4.9,1.49c2.32,1,3.29,3.21,2.77,5.87-.42,2.13-.42,2.13,1.55,3.12l3.43,1.7.26,0a4.43,4.43,0,0,0,.65-.85c1.15-2.5,5.21-2.68,6.82-1.25a50.42,50.42,0,0,1,5.76,5.55c4.9,6.06,8.63,12.75,10,20.55.32,1.82.52,3.64-.85,5.23a4.28,4.28,0,0,1-3.42,1.67c-.48,0-1,.07-1.44.07-.92,0-1.41.37-1.36,1.36.06,1.16-.58,1.67-1.68,1.68s-2,0-3,0l.13-2.79c-1-.09-1.88-.14-2.78-.25a5.3,5.3,0,0,1-4.79-3.78A33.48,33.48,0,0,0,203.38,117a5.29,5.29,0,0,1-1-6.21c.42-.94.9-1.86,1.41-2.93l-5.66-3c-.56.81-1.06,1.57-1.59,2.31a6.18,6.18,0,0,1-6.67,2.7,27.29,27.29,0,0,0-10.84,0,6.39,6.39,0,0,1-7.18-3.07l-1.37-2.1L165.06,108c.45,1,.9,1.87,1.27,2.79,1,2.51.48,4.62-1.32,6.72a59.94,59.94,0,0,0-5.1,7.2,13.29,13.29,0,0,0-1.45,3.78c-.73,2.78-2.25,4.72-5.13,5.43a3.41,3.41,0,0,0-.58.28c2.74.6,5.3,1.22,7.88,1.69a2.23,2.23,0,0,0,1.76-.6c1.59-1.75,3.47-1.81,5.49-1.14s2.55,2.27,2.64,4a6.85,6.85,0,0,1-.8,2.77,8.23,8.23,0,0,1-1.14,1.55c2,2,3.9,4,5.9,6a4.29,4.29,0,0,0,1.84.81,3.8,3.8,0,0,1,3,2.82,1.63,1.63,0,0,0,2,1.32c2.22-.23,4.46-.35,6.67-.69a3.35,3.35,0,0,0,2-1.23c1.51-2.17,2.38-2.56,4.93-1.8a5.81,5.81,0,0,0,.59.12c1-2.62,2-5.2,2.84-7.85a5.29,5.29,0,0,0-.13-3.05,2.94,2.94,0,0,1,.71-3.17c.39-.44.77-.9,1.18-1.38-1.59-2.36-3.07-4.74-4.76-7a3.8,3.8,0,0,0-2.46-1.17c-2-.2-3.2-1.07-3.58-3a1.13,1.13,0,0,0-1.49-1,63.78,63.78,0,0,0-7,1.33c-1.13.33-2.05,1.43-3,2.24-.16.14-.14.62-.06.89.41,1.33.87,2.65,1.35,4.07,1.07-.41,2-.83,3.06-1.17a7.16,7.16,0,0,1,9.36,4.51,7.36,7.36,0,0,1-4.5,9.43,7.24,7.24,0,0,1-7.51-1.43,6.62,6.62,0,0,1-2.17-7.16,9.34,9.34,0,0,0-.41-6.26,3.77,3.77,0,0,0-3.71-2.83,1.59,1.59,0,0,1-.89-.25c-1.37-1-1.83-4.6-.78-5.89,1.78-2.16,3.83-2.7,6.34-1.5a2.9,2.9,0,0,1,1.12,1.43c.95,2.11,1.17,2.24,3.47,1.8,1.17-.23,2.36-.43,3.54-.63a8.61,8.61,0,0,0,4.55-2.2,4.46,4.46,0,0,1,7.14,1.87c.51,1.52.69,3-.79,4.13a6.76,6.76,0,0,0-.93,1.14c1.64,2.42,3.21,4.84,4.9,7.15a2.89,2.89,0,0,0,1.84.88c2.37.28,3.54,1.16,4.1,3.33a4.46,4.46,0,0,1-2,4.94,3.6,3.6,0,0,1-3.33.27c-1.55-.5-1.56-.48-2.13,1s-1.24,3.28-1.83,4.94a4.84,4.84,0,0,0,.09,4.19c1,1.66.41,2.86-.63,4.1a4,4,0,0,1-4.13,1.56c-1.6-.32-3-.88-3.23-2.81-.12-1.07-.8-1.27-1.78-1.15-2.22.27-4.45.5-6.68.66a2.66,2.66,0,0,0-2.18,1.23c-1.45,2.09-3,2.59-5.37,1.8a4.3,4.3,0,0,1-2.71-4.58,6.06,6.06,0,0,1,1.16-2.38,16.25,16.25,0,0,1,1.62-1.74c-2.32-2.06-4.51-4.13-6.85-6-.69-.56-1.83-.55-2.67-1a3.48,3.48,0,0,1-1.44-1.38,25.39,25.39,0,0,1-1.16-3.1l-8.7,2.72c.52.17.78.27,1,.34a6.47,6.47,0,0,1,4.81,4.4,23.15,23.15,0,0,0,4.87,8.73c2.59,2.83,2.94,5.79,1,9.07-.15.28-.27.58-.43.92l4.88,4.34c.7-1.05,1.31-2,2-3a5.73,5.73,0,0,1,6.61-2.39,25.56,25.56,0,0,0,13.39.08c3.37-.9,5.53.27,7.37,2.94.45.65.86,1.32,1.34,2.05l5.43-3.34c-.44-.93-.89-1.8-1.3-2.69a6.39,6.39,0,0,1,1.13-7.53,22.68,22.68,0,0,0,5-8.4c1.13-3.54,3.38-5.39,7.12-5.4.31,0,.63-.06.95-.09l.21-.08.28-2.73h4.44l.12,2.77c.83.07,1.65.14,2.47.23a4.73,4.73,0,0,1,4.46,5.64,36.43,36.43,0,0,1-4.72,13,42.24,42.24,0,0,1-8.54,11c-3.12,2.81-6.18,2.53-8.6-.83a1.84,1.84,0,0,0-.34-.29l-5.83,2.82c.34.75.67,1.43,1,2.12a4.39,4.39,0,0,1-2.52,6.16c-9.82,3.89-19.78,3.92-29.81.94a13.24,13.24,0,0,1-2.42-1,4.44,4.44,0,0,1-2.16-6c.43-1.07,1-2.1,1.46-3.18-.18-.12-.34-.25-.51-.34l-5.1-2.89c-.5.74-1,1.46-1.47,2.17a4.65,4.65,0,0,1-6.71,1.37,28.06,28.06,0,0,1-4.6-4.32,44.33,44.33,0,0,1-10-19.4,5.82,5.82,0,0,1,.55-4.86,4.48,4.48,0,0,1,3.47-2.08c.86-.07,1.73-.17,2.67-.26-.18-2-.33-3.88-.58-5.77a1.21,1.21,0,0,0-.78-.78c-.77-.18-1.59-.13-2.37-.3a4.19,4.19,0,0,1-3.49-5c1.6-11,6.86-20,15.19-27.33,2.22-2,6.39-2,7.78,1.07a2,2,0,0,0,.27.39c1.73-.91,3.42-1.78,5.08-2.71a1.16,1.16,0,0,0,.38-.87,10.26,10.26,0,0,0-.14-1.55,4.74,4.74,0,0,1,3.3-5.54,37.43,37.43,0,0,1,12.08-2.15c.47,0,.94,0,1.48,0V79.53c-3,.36-5.92.54-8.79,1.08a59.94,59.94,0,0,0-25,10.4A53.45,53.45,0,0,0,131,117.61c-7.41,21.74-3.16,41.2,12.23,58.09,8.63,9.48,19.6,14.89,32.26,16.91,11.17,1.78,22.07.93,32.51-3.62,11.64-5.08,20.86-12.91,26.7-24.37A59.79,59.79,0,0,0,241,141.09c.16-2.51.2-5,.24-7.55,0-1,.33-1.64,1.49-1.71a23.88,23.88,0,0,0,3.67-.54c1.1-.26,1.35.18,1.29,1.14-.31,5-.35,10.07-1,15a64.69,64.69,0,0,1-10,27.8c-7.67,11.75-18.58,18.85-32,22.35-5.1,1.33-10.31,1.69-15.52,2.13-2.52.21-2.55.18-3.37,2.54-1.27,3.65-2.52,7.31-3.85,11.16,3.71-.52,4.16,2.5,5.29,4.65,1,1.89,1.75,2.52,3.82,2.25,3.05-.39,6.09-.82,9.38-1.27-1.61-2.14-3.16-4.18-4.82-6.37,1.49-.23,2.82-.42,4.14-.64,1.15-.19,2.28-.43,3.42-.62a3.3,3.3,0,0,1,3.36,1.36,31.92,31.92,0,0,0,2.55,3,2,2,0,0,0,1.65.49c3.41-1.23,6.77-2.57,10.34-4l-6.66-4.52c2.33-1.28,4.54-2.59,6.84-3.71a4,4,0,0,1,4.18.61c.84.6,1.69,1.2,2.56,1.77,1.36.89,2,.91,3.37-.11,2.65-2,5.26-4,8.07-6.21l-7.75-2.82c2.28-2,4.38-3.9,6.62-5.67a3,3,0,0,1,2.15-.16c1.72.36,3.38,1,5.1,1.32a2,2,0,0,0,1.65-.47c2.18-2.61,4.26-5.29,6.36-8a3.59,3.59,0,0,0,.3-.64l-7.9-.63c1-1.53,1.86-2.93,2.76-4.33a19.91,19.91,0,0,0,1.35-2.12,2.76,2.76,0,0,1,3.11-1.62,42.21,42.21,0,0,0,5,0,1.94,1.94,0,0,0,1.41-.84c1.51-3.26,2.91-6.56,4.34-9.86a1.82,1.82,0,0,0,0-.48l-7.4,1.23c.67-2,1.27-3.87,1.89-5.7,1.35-3.93.43-3.34,4.49-4.05,3.1-.53,4.57-1.88,4.6-5.1a52,52,0,0,1,.92-6.64,7.86,7.86,0,0,0,0-1l-7.77,3.2c.2-2.22.54-4.25.55-6.29,0-2.6,1.29-4,3.61-4.83a16,16,0,0,0,1.72-.83c2.22-1.11,2.23-1.11,2-3.53-.31-3.21-.64-6.43-1-10.07L261,125.86c-.43-1.89-.88-3.6-1.2-5.33-.82-4.41-1.25-3.64,2.09-6.82,3.11-3,3.1-3,1.6-6.93l-3-7.68-5,7.14c-1.32-2.7-2.6-5.18-3.72-7.74a2.69,2.69,0,0,1,.25-2c.89-1.7,2-3.29,2.88-5A1.84,1.84,0,0,0,255,90c-2.21-3.18-4.5-6.3-6.91-9.64-1.1,2.84-2.13,5.47-3.24,8.32-.53-.63-.95-1.13-1.38-1.62-1-1.14-2-2.32-3-3.39a4.29,4.29,0,0,1-1-5.14,26.34,26.34,0,0,0,1.28-4.1,1.58,1.58,0,0,0-.33-1.36c-2.8-2.37-5.66-4.67-8.7-7.15L230.4,75c-.93-.71-1.73-1.34-2.55-1.94-1.16-.86-2.3-1.73-3.5-2.52a3.22,3.22,0,0,1-1.5-3.39c.19-1.62.35-3.25.39-4.89a1.75,1.75,0,0,0-.64-1.37c-3.53-1.68-7.09-3.26-11-5,.64,3.15,1.22,6,1.82,8.89a8.51,8.51,0,0,1-1-.16c-2.22-.65-4.43-1.33-6.66-2a2.54,2.54,0,0,1-1.9-1.94c-.55-2-1.15-4-1.69-6a1.83,1.83,0,0,0-1.71-1.53c-3.2-.42-6.39-.94-9.83-1.46,1.18,2.65,2.27,5.13,3.46,7.81l-3.43-.27c-1.67-.14-3.34-.34-5-.43A1.81,1.81,0,0,1,184,57.71c-.86-1.66-1.7-3.34-2.65-5-.26-.44-.9-1-1.32-.94-3.86.31-7.7.73-11.75,1.15l5.8,7c-.91.18-1.64.31-2.37.47-1.52.34-3,.69-4.54,1.06a3.73,3.73,0,0,1-3.87-1A37.91,37.91,0,0,1,156.79,52c3.12-.79,6.16-1.74,9.27-2.34,30.2-5.84,56.72,1.78,79.23,22.56,14.44,13.32,23.13,30,26.2,49.45,3.63,22.91-.27,44.54-12.56,64.29-12.61,20.28-30.8,32.79-54.45,37-4.67.83-9.43,1.15-14.3,1.72.28.6.55,1.28.91,1.91,2.77,4.84,7,8,11.95,10.34a53.27,53.27,0,0,0,16.59,4.36c13.86,1.73,26.69-1.7,39-7.63,8.6-4.13,17.15-8.35,25.85-12.24A103.63,103.63,0,0,1,307,214.55c2.3-.45,4.47-1.5,6.75-2.05a35,35,0,0,1,26.88,4.08C351,222.71,360.4,230,368.09,239.35a5.8,5.8,0,0,0,.52.47ZM188.55,153.53c.88.05,1.17.59,1.35,1.38a3.73,3.73,0,0,0,4.73,2.65,3.87,3.87,0,0,0,2.42-4.89c-.29-.78-.59-1.55-.84-2.21-.73-.1-1.41-.17-2.07-.31a2.85,2.85,0,0,0-3,.78c-.79.92-1.67,1.75-2.52,2.62h-5.45l0,.64ZM19.18,148.59a35.45,35.45,0,0,0-6.59,11.06c-2.06,5.33-3.4,10.8-2.76,16.59.51,4.66,2.74,7.15,7.14,7.84a13.3,13.3,0,0,0,2.75.09A10.43,10.43,0,0,0,30,175.06a26.64,26.64,0,0,0-.52-10.1A28.51,28.51,0,0,0,19.18,148.59ZM178.72,131.9l-.2-.28a4,4,0,0,1-.29,1.23,6.54,6.54,0,0,0-.74,4.17,6.89,6.89,0,1,0,13.74-.94,6.73,6.73,0,0,0-7.56-6.28c-1.38.19-2.66,1.13-4,1.72C179.37,131.66,179,131.77,178.72,131.9Zm-.93-2.07.2-.07c-.31-.93-.67-1.85-.9-2.8-.11-.47-.18-1.23.08-1.45a12,12,0,0,1,3.64-2.56,53,53,0,0,1,6.7-1.2,1.71,1.71,0,0,1,2.22,1.27,3.29,3.29,0,0,0,3.55,2.68,9.78,9.78,0,0,1,1.18.22,1.16,1.16,0,0,0,.67-.1,4.42,4.42,0,0,0,1.69-5.4c-.82-2.1-4.11-3-5.78-1.51a10.48,10.48,0,0,1-5.42,2.59c-1.53.26-3.07.51-4.59.83a1.67,1.67,0,0,1-2.2-1.24,5.26,5.26,0,0,0-1.37-2.16,4,4,0,0,0-4.39-.17,3.75,3.75,0,0,0-1.62,4c.54,2,1.57,3,3.48,3a1.84,1.84,0,0,1,1.79,1.3C177.07,128,177.43,128.94,177.79,129.83Zm-3.58,19.43a14.35,14.35,0,0,1-1.75,2.05c-1.54,1.27-1.42,2.65-.64,4.24a4.31,4.31,0,0,0,4.47,2.15,1.38,1.38,0,0,0,.75-.54,7,7,0,0,1,4.65-3.13c-.46,0-.91.1-1.31,0s-1-.32-1.13-.61C178.59,150.82,176.69,149.75,174.21,149.26Zm26.66-15.12a17.11,17.11,0,0,0-1.4,1.79,5.48,5.48,0,0,0-.89,2.13c-.17,2.33,1.2,3.65,3.82,3.93a3.52,3.52,0,0,0,3.72-4.47,4.51,4.51,0,0,0-.51-1.46,3.63,3.63,0,0,0-1.52-1.27A22.68,22.68,0,0,0,200.87,134.14Z"/></g></svg>