<svg xmlns="http://www.w3.org/2000/svg" viewBox="0 0 368.61 355.7"><g id="OBJECTS"><path d="M368.61,221.16c-2.67-.08-5.34-.22-8-.23-12.51-.09-25-.18-37.52-.2-9.31,0-18.62.11-27.93.13a2,2,0,0,0-2.2,1.59c-.26.87-.55,1.75-.86,2.61a2.54,2.54,0,0,1-2.63,1.85c-4,0-8-.06-12-.12q-10.19-.18-20.36-.4l-30.67-.64a2.62,2.62,0,0,1-2.91-2.44c-.56-3.13-1-6.29-1.52-9.45a5.5,5.5,0,0,0-.39.86c-2.92,9.38-9.69,14-19.06,15.26a30.85,30.85,0,0,1-8.69-.11c-6.69-1.08-10.83-5.23-12.77-11.65-.27-.88-.47-1.77-.68-2.67-.39-1.65-.64-1.87-2.37-1.86l-21.1,0h-8.87c-.55,0-1.11-.05-1.83-.09-.08-2.25-.13-4.43-.23-6.61-.21-4.27-.39-8.54-2-12.61-2.52-6.54-7.3-10.94-13.38-14.07-1.84-1-3.78-1.72-5.68-2.56a22.42,22.42,0,0,1-2.42-1,2.32,2.32,0,0,1-1.16-1.31c0-.36.6-1,1.07-1.22a16.56,16.56,0,0,1,9.48-2,22.09,22.09,0,0,1,14,6c2.9,2.82,4.1,6.51,4.85,10.36.85,4.31,1.57,8.64,2.42,12.94.63,3.14,1.57,3.9,4.74,4.26,4.28.48,8.56,1,12.85,1.49l1,.1c2.77.21,3.41-.38,3.52-3.16q.69-16.76,1.42-33.51a14.91,14.91,0,0,1,.32-1.87h.42a4.59,4.59,0,0,1,.21.81c.58,5.07,1.11,10.16,1.76,15.23a8.64,8.64,0,0,0,1.07,3,3,3,0,0,0,3.32,1.59c5.93-1.06,11.88-2.08,17.81-3.14a3.1,3.1,0,0,0,2.72-2.53c.6-2.92,1.18-5.85,1.72-8.79a12.36,12.36,0,0,0,.12-2.51c0-1.75-.39-2.17-2.11-2.45-2.56-.43-5.13-.84-7.69-1.21-7.59-1.09-15.18-2.14-22.76-3.25a59.36,59.36,0,0,0-13.39-.12c-5.45.42-10.91.69-16.38,1q-14.59.73-29.19,1.39c-2.71.13-3.37-.59-3.46-3.29-.3-9.9.92-19.69,2.14-29.49.49-3.92.94-7.85,1.51-11.76.29-2,1.05-2.7,3.09-2.84a44.12,44.12,0,0,1,5.27,0c2,.12,2.68.81,2.69,2.78,0,4.68-.06,9.35-.14,14-.11,6.07-.27,12.14-.39,18.21,0,1.83-.13,3.68-.05,5.51.12,2.55,1,3.07,3.47,2.24-1.44-7.86-.08-15.68.17-23.51.17-5.46.67-10.92,1-16.38.12-1.81.61-2.31,2.41-2.41l16.86-1c2.13-.13,3.4.71,3.77,2.82,1.63,9.28,3.23,18.56,4.74,27.85.63,3.82,1,7.68,1.5,11.52.2,1.47.56,1.72,2,1.46,2.62-.48,2.87-.74,2.46-3.4q-2.11-13.73-4.33-27.43c-.77-4.77-1.66-9.52-2.5-14.27-.27-1.51-.64-1.86-2.14-1.83-9.23.19-18.45.3-27.67.64-3.87.14-7.72.7-11.56,1.19a4.8,4.8,0,0,0-4.24,4c-1.33,5.22-2.75,10.41-4,15.65-3.18,13.15-6.26,26.32-9.44,39.46a19.83,19.83,0,0,1-2,4.7c1.19-10,4.31-19.61,6.77-29.64-1.13.49-2.07.86-3,1.3-3.3,1.62-6.56,3.29-9.88,4.86-2,.94-2.61,2.52-2.82,4.6-.61,5.92-1.46,11.82-1.28,17.79q.28,8.69.66,17.36c.09,2.13,1.59,3.7,4.13,4.35.31-1.72.55-3.45.93-5.15,1.77-8,5.8-14.41,13.18-18.34,5.53-2.95,11.31-2.74,17.08-.74,6.62,2.3,12.34,5.95,16.06,12.06,5.19,8.53,5.22,17.46,1.53,26.54A37.46,37.46,0,0,1,137.4,221c-3.07,5.68-8,8.45-14.3,8.78q-20.16,1.06-40.33,1.91c-8.3.33-16.61.42-24.92.56-8.9.15-17.81.23-26.72.33-2.31,0-4.62,0-7.06,0v-14H.13L0,218.05a3.14,3.14,0,0,1,1-.36c2,0,3.91,0,5.87,0l16.3.08h1.68v14c2.11,0,4.08,0,6.06,0,9.79-.1,19.58-.14,29.36-.34,10.94-.22,21.88-.54,32.82-.9q11.07-.36,22.14-1c3.54-.2,7.08-.63,10.61-1a12.84,12.84,0,0,0,8.63-4.89c7.53-9,8.75-22.63,2.51-32.23a27.39,27.39,0,0,0-23.26-13.07c-8.12-.19-13.93,4.17-18,11a29.9,29.9,0,0,0-4,12.43c-.06.55-.14,1.1-.23,1.83l5.25.46c.34-1.4.61-2.72,1-4,3.4-12.25,16.24-19.27,28-15.26,5.24,1.79,8.71,5.63,11.43,10.26,5.75,9.79,2,22.27-4.44,28a20.57,20.57,0,0,1-11.83,5c-6.69.7-13.12-.12-18.84-3.92S92.16,215.28,91,208.3c-.14-.87-.19-1.75-.26-2.62a2.3,2.3,0,0,0-1.56-2.19,5.59,5.59,0,0,1-3.81-5.64c-.11-7.75-.47-15.49-.37-23.24a127.48,127.48,0,0,1,1.27-12.74,4.7,4.7,0,0,1,2.92-3.69c3.76-1.85,7.5-3.73,11.31-5.48a5.6,5.6,0,0,0,3.35-4.17c2-8.46,4.06-16.92,6.22-25.34,1.15-4.44,2.6-5.57,7.13-5.83,8-.48,16.11-.88,24.17-1.28,4.1-.2,8.22-.34,12.33-.43,2.93-.07,3.55.46,4.07,3.36q1.83,10.32,3.6,20.65c1,5.9,2,11.8,3,17.71a42.74,42.74,0,0,1,.34,4.53c.07,1.33-.94,1.9-1.83,2.7a20.22,20.22,0,0,1,2.9-.22c4.61.28,9.26.41,13.83,1,7.91,1.06,15.78,2.45,23.66,3.71.2,0,.4,0,.59.09,2.61.51,2.79.69,3.25,3.35,0,.27.1.53.14.8l.45.39a3.1,3.1,0,0,1,.33-.9c1.48-1.78,1.9-1.87,3.94-.7,4.41,2.5,8.82,5,13.2,7.56,3.1,1.81,6.15,3.71,9.22,5.57.2.12.38.29.73.56-1.06.68-2,1.36-3,1.93q-3.07,1.74-6.21,3.37a4.09,4.09,0,0,0-2.34,4c0,7.92,0,15.83,0,23.74a22.85,22.85,0,0,0,.6,4,2.21,2.21,0,0,0,2.23,2c1.92.09,3.83.17,5.75.21l36.06.73c6,.12,12,.27,18,.38a24.46,24.46,0,0,0,3.83-.2,1.87,1.87,0,0,0,1.3-.95,36.73,36.73,0,0,0,.92-3.87h-1.32c-11.31.1-22.61.19-33.92.33-8.15.1-16.29.28-24.44.43h-1.08c-3.07-.13-4.61-1.57-4.57-4.65s.3-6.14.53-9.2c.25-3.31.6-6.6.88-9.9.14-1.8,1.19-2.58,3-1.81a33.5,33.5,0,0,1,4.46,2.7,10.78,10.78,0,0,1,1,1c0-1.37,0-2.46,0-3.55,0-3.79-.16-7.59-.08-11.38a8.5,8.5,0,0,1,.94-3.42c2.21-4.47,4.51-8.9,6.79-13.33.85-1.66,1.08-1.74,2.9-1.36,1,.21,2,.4,3,.62a3.41,3.41,0,0,1,2.88,3.23c.32,3.26.62,6.52.94,9.78.39,3.88.54,7.78,1.84,11.55,1,2.86.65,5.63-2.05,7.82,2.47,1.38,4.76,2.71,7.11,4q13.88,7.42,27.79,14.79c2.57,1.36,5.36,1.44,8.17,1.39,3.08-.06,6.15-.1,9.23-.12,11.39-.05,22.78-.15,34.17-.1,8.94,0,17.89.24,26.83.37.44,0,.87,0,1.31,0ZM159.14,164.87c-.24-1-.51-1.85-.64-2.72-.88-6.28-1.63-12.59-2.64-18.85-1.1-6.81-2.42-13.59-3.69-20.37-.33-1.73-.9-2.08-2.7-2q-8.25.47-16.5,1c-1.48.09-1.95.6-2.05,2.09-.45,6.53-.95,13.06-1.33,19.6-.31,5.22-.49,10.44-.66,15.67-.1,2.89.55,3.62,3.45,3.6q5.93,0,11.84-.4A33.62,33.62,0,0,1,154,163c.34.07.61.45.91.68-.28.26-.52.64-.85.74a6.61,6.61,0,0,1-1.88.25c-8.19-.09-16.38-.21-24.56-.31-2.64,0-3-.31-3.08-2.92a1.93,1.93,0,0,1,0-.24c.06-4.64.08-9.27.17-13.9.13-6.19.32-12.37.47-18.56,0-1.68.07-3.36,0-5s-.67-2.22-2.31-2.33a34.27,34.27,0,0,0-4.3,0c-2,.12-2.64.72-2.93,2.77-.45,3.2-.79,6.42-1.27,9.62a222.15,222.15,0,0,0-2.19,30.92c0,2,.58,2.47,2.53,2.38q17.11-.75,34.23-1.51C152.27,165.35,155.65,165.09,159.14,164.87Zm92.32,34c2.15.4,2.77.08,3.81-2a5.86,5.86,0,0,0,0-4.32,31,31,0,0,1-1-4.17c-.58-5-1-10.08-1.54-15.12-.44-4.32-.73-4.64-5-5.46-1.51-.29-2-.07-2.71,1.27-2.22,4.33-4.51,8.63-6.61,13a9.9,9.9,0,0,0-.93,4.25c.09,4.79.41,9.57.61,14.36.06,1.35,0,2.71,0,4.07l-.42.05a3.33,3.33,0,0,1-.5-1c-.3-3.43-2.8-5.14-5.33-6.78-1.25-.81-1.94-.45-2.35,1a4.45,4.45,0,0,0-.21.93c-.53,5.64-1.13,11.28-1.54,16.93-.28,3.91.9,5.06,4.82,5q16.05-.21,32.1-.48,10.29-.15,20.6-.32c1.15,0,2.3-.11,3.45-.17a1.22,1.22,0,0,0-.58-.69q-16.71-9-33.43-17.93a3.65,3.65,0,0,0-1.58-.42C251.56,200.91,251.25,200.58,251.46,198.9ZM91.61,204.55c0,.33,0,.52,0,.71a21,21,0,0,0,6.16,14.41c5.85,5.73,13.09,8.13,21.18,7.76a19.83,19.83,0,0,0,16.18-8.88,21.82,21.82,0,0,0,3.52-15.07c-1.55-14.9-16.31-24.15-31.15-15.63-6.06,3.47-8.68,9.3-9.85,16.27,1.8-.54,3.49-.94,5.1-1.57a3.14,3.14,0,0,0,1.85-2.49,6.21,6.21,0,0,1,.47-1.85c2.54-4.44,6.12-7.51,11.44-7.76,6.35-.3,13,4.56,15,10.83a10.7,10.7,0,0,1-1.25,9.51,15.5,15.5,0,0,1-5.19,4.87A25.28,25.28,0,0,1,108,218.84c-6.27-.88-9.8-4.45-10.86-10.68-.19-1.09-.38-2.18-.58-3.29Zm89.74,9.08c-.44,5.61,3.88,12.26,9.27,14.46a21.72,21.72,0,0,0,11.06,1.22c4.47-.54,8.69-1.79,12.25-4.67,11.35-9.17,10-27-3.33-34.64-5.23-3-10.76-2.27-15.25,1.82a22.75,22.75,0,0,0-6.84,11.84,14.51,14.51,0,0,0-.06,7.57,2,2,0,0,0,1.3,1.24c1.26,0,2.69.31,3.67-.84.2-.23.11-.77.05-1.16-.13-.78-.34-1.55-.51-2.33a10.12,10.12,0,0,1,7.39-12.29c4.29-.95,8,.52,11.12,3.36,3.37,3,4.74,7.12,5.4,11.47.85,5.71-2.73,10.13-8.43,10.52a33.11,33.11,0,0,1-10-.92c-3.94-.94-7.52-2.44-9.86-6a1.71,1.71,0,0,0-1.21-.62C185.41,213.59,183.42,213.63,181.35,213.63ZM97.94,205c-.85,6.56,3.33,12.09,9.75,12.82a43.05,43.05,0,0,0,7.53.18A19,19,0,0,0,127.15,213c4.74-4.27,5.47-9.83,1.73-15-3.46-4.77-7.95-7.74-14.14-6.35-4.73,1.07-8.3,3.66-9.4,8.76a4.33,4.33,0,0,1-3.22,3.35C100.75,204.25,99.36,204.58,97.94,205Zm79.66-23.64h-.25c-.12,1.72-.26,3.45-.35,5.18-.3,6-.53,12-.89,18.06-.21,3.41-1,4-4.37,3.75l-.12,0c-4.6-.53-9.21-1-13.8-1.62-3.71-.49-4.73-1.44-5.49-5.22-.88-4.38-1.58-8.8-2.45-13.18-.69-3.49-1.72-6.88-4.49-9.33-6.51-5.75-13.87-7.42-22.12-4.29a4.38,4.38,0,0,0-1,.7,5,5,0,0,0,.93.75c2.94,1.34,6,2.51,8.83,4a25.72,25.72,0,0,1,13.9,17.8,51.48,51.48,0,0,1,1,13c0,.58,0,1.16,0,1.69a1.79,1.79,0,0,0,.37.13q15.58,0,31.17,0c.3,0,.78-.49.85-.82.61-2.84,1.21-5.7,1.69-8.57a17.81,17.81,0,0,1,8.4-12.92c.12-.07.19-.21.44-.51-1.62.17-3,.27-4.39.46-4.43.64-5.48,0-6.77-4.32-.13-.42-.23-.84-.34-1.27C178.15,183.6,177.87,182.46,177.6,181.32Zm11.32,33.07A29.45,29.45,0,0,0,200.34,220c3.77.79,7.54,1,11.18-.53,2.69-1.16,4.46-3.22,4.55-6.22.19-6.25-2.16-11.4-7.35-15a9.68,9.68,0,0,0-10.45-.64c-3.4,1.73-4.67,4.78-4.5,8.46.06,1.51.36,3,.55,4.51.22,1.72-.07,2.14-1.74,2.51-.73.16-1.51.2-2.23.42A7.71,7.71,0,0,0,188.92,214.39Zm44.73-28.51-1.29-.82L221.92,179l-10.65-6.18c-.64-.37-1.47-.82-1.91,0a13.2,13.2,0,0,0-1.86,4.56c-.29,2.68,0,5.41,0,8.13a2.91,2.91,0,0,0,1.94,3,21.56,21.56,0,0,1,12,13.55c.14.44.34.86.51,1.3a2,2,0,0,0,.38-1.14c.13-2.27.37-4.54.36-6.81A5.55,5.55,0,0,1,226,190C228.5,188.71,230.94,187.35,233.65,185.88Zm-46,26.76c-1.55-10.08,2-17.87,9.94-23.82a8.12,8.12,0,0,0-2,.23c-10.9,2.69-15.46,12.73-14.37,22.9a1.06,1.06,0,0,0,.75.66C183.74,212.67,185.57,212.64,187.61,212.64Zm18.75-25.57v-7.3c-1.48,2.24-.18,5.37-2.74,7.3Zm-54-23.44,0-.18H142.12v.18Z"/></g></svg>