<svg xmlns="http://www.w3.org/2000/svg" viewBox="0 0 368.61 355.7"><defs><style>.cls-1{fill:#fff;}</style></defs><g id="OBJECTS"><path class="cls-1" d="M78.39,228.61c0,.53,0,.85,0,1.16,0,1.59-.54,2.23-2.14,2.28-3,.1-5.91.09-8.86.11-.34,0-.68-.06-1-.09l-.08-.45Z"/><path d="M0,220.18c1.87.07,3.74.18,5.62.19q20.73.18,41.48.33,26.62.15,53.24.24l37.17.2h1.26l.06-.32a37.4,37.4,0,0,0-3.66-1.1,5.88,5.88,0,0,1-4.64-3.69c-.87-2-2.27-3.79-3-5.83a23.07,23.07,0,0,1-.67-10.77,18.9,18.9,0,0,1,.94-2.85c-.44.1-.83.14-1.19.26-3.7,1.26-7.4,2.52-11.09,3.81-2.08.73-2.29,1.35-1.24,3.28l1.43,2.63,9.56-2.81.16.35a4.72,4.72,0,0,1-1.09.73c-3,1-6,1.94-9,2.85-1.29.4-2.66.58-3.93,1a7.23,7.23,0,0,0-2.53,1.51c-2.13,2.07-2.46,2.19-5.38.83-.21,1.57-.45,3.09-.63,4.61s-.42,1.87-2,1.91l-23.37.48c-2.72.06-5.43.14-8.15.19a4.07,4.07,0,0,1-1.85-.37,6.07,6.07,0,0,1,1.11-.67,41.09,41.09,0,0,0,14.55-9.67c3.72-3.63,7.53-7.17,11.36-10.67a4.83,4.83,0,0,0,1.73-5,3.83,3.83,0,0,1-.1-.59c-.22-1.91.09-2.26,2-2.26a9.74,9.74,0,0,1,1.08,0c1.23.15,2.22,0,2.25-1.59a1.09,1.09,0,0,1,.74-.78,1.32,1.32,0,0,1,1,.48c.95,1.18.77,1.93-.4,2.84a1.94,1.94,0,0,0-.71,1.31c.13,5.75.33,11.49.63,17.24l.15-2.46.42,0,.81,3.86c1.41-.41,2.79-.76,4.13-1.24a1.85,1.85,0,0,0,1-.95A4.77,4.77,0,0,0,106,201c-1-.27-2.1-.37-3.45-.59a8.6,8.6,0,0,1,1.22-1.18c2-1.28,4.08-2.5,6.13-3.75,1.19-.72,1.3-1.17.55-2.53l-1.81.77-2,.84a17.73,17.73,0,0,1,.57-2.08c.68-1.63,2-2.19,3.47-1.28.65.4,1,.17,1.39-.08l22.8-13.21,1.25-.68c-.16,2.55-.31,4.92-.46,7.3.92.46,1.12,0,1.27-.74q1.88-9.45,3.82-18.89c.26-1.25.67-2.47,1-3.7a2.17,2.17,0,0,1,2-1.75L163,158.19c.74-.05,1.05.21,1.09,1,.33,7.22.71,14.44,1.06,21.66.1,2.06.18,2.13,2.23,2.14,6.88,0,13.75.18,20.62.09,6-.09,12-.45,18-.69.39,0,.78-.09,1.31-.15.06-5.87,4.06-10.52,4.9-16.16-2.39-.43-3.73.32-4.47,2.46-.88,2.53-1.67,5.08-2.57,7.6-1,2.86-2.59,3.92-5.6,3.93l-31.77,0c-.47,0-.94-.05-1.7-.09a444.15,444.15,0,0,1,6.26-47.72l.64.06c-.11,1.91-.18,3.83-.34,5.75-.77,9.51-1.57,19-2.33,28.54-.22,2.71-.37,5.42-.49,8.13-.06,1.4.25,1.68,1.66,1.73,7,.21,14,.42,21,.59,1.91,0,3.83,0,5.73-.13a3.88,3.88,0,0,0,3.15-1.9c1.61-2.48,3.3-4.91,5-7.34a11.08,11.08,0,0,0,2-6.54q0-7.62,0-15.23c0-3.92.1-7.83.19-11.75a11.47,11.47,0,0,1,.35-2.24c0-.22.3-.53.47-.54s.5.24.58.44a7.06,7.06,0,0,1,.55,1.82c.65,7.12,1.29,14.23,1.88,21.36.23,2.9.33,5.82.5,8.73a5,5,0,0,0,.19.82l5.83-.68c3.17-.36,6.34-.74,9.52-1.09,1.45-.15,1.87-.53,1.69-2q-1.45-11.3-3-22.56c-.23-1.74-.54-3.47-.82-5.21-.26-1.59-.87-2.17-2.43-2.26-10.87-.57-21.73-.33-32.59,0-7.1.24-14.21.37-21.32.55a4.12,4.12,0,0,1-.6,0,9.91,9.91,0,0,0,0-1.55c-.34-2.1-.25-2.35,2.28-2.37q13-.1,25.9-.24,11.81-.1,23.61-.24c2.48,0,5-.08,7.43-.11,1.81,0,2.05.2,2.32,2Q233,143,235.13,157.26c0,.23.12.45.18.68a5,5,0,0,0,4.08-1.23c6.31-5.48,12.7-10.85,19.11-16.21a5,5,0,0,0,2-4c0-2,.55-2.84,1.62-2.9a4.1,4.1,0,0,1,3.68,3.08,1.36,1.36,0,0,1,0,.6c-.62,2.06.8,3,2.27,4,.43-1.11.82-2.22,1.28-3.29,1-2.25,1.87-2.8,4.27-2.52a21.78,21.78,0,0,1,8.92,2.94c2.11,1.29,2.27,2.32,1.38,4.59a13.61,13.61,0,0,0-.95,4.87c0,8.55.19,17.1.31,25.65,0,1.08,0,2.16,0,3.24a2.85,2.85,0,0,0,1.82,2.83,3.21,3.21,0,0,1,1.12.85c4.13,4.88,8.26,9.77,12.34,14.69,2,2.41,1.93,2.91-.72,4.62q-10.42,6.72-20.88,13.38a2.91,2.91,0,0,1-1.56.44c.35-.78.68-1.57,1.07-2.33,1.37-2.75,2.73-5.5,4.14-8.24a5.21,5.21,0,0,0,.31-4.38c-1.52-4.2-3-8.42-4.45-12.64-.2-.6-.38-1.2-.64-2,.92.39,1.66.74,2.42,1,1.83.64,3.36,0,4-1.79,1.12-3.4.79-4.62-3.06-4.76-.51,0-1,0-1.55,0-2.62.09-2.87.3-3.32,2.73-1.5-.21-1.61-.54-1.35-1.93a10,10,0,0,0,0-3.28c-1.1-6.9-2.27-13.79-3.42-20.68-.07-.47-.24-.91-.44-1.66-.88,1-1.67,1.84-2.33,2.75q-11.77,16-23.53,32.1c-.4.55-.88,1.06-1.32,1.58l-.38-.23c.21-.45.38-.93.63-1.35,3.7-6.12,7.42-12.23,11.1-18.36,1.44-2.39,2.78-4.84,4.18-7.26a3.73,3.73,0,0,0-.06-4,15.55,15.55,0,0,0-2.16,1.51c-4.41,4.36-8.76,8.76-13.17,13.12a4.68,4.68,0,0,0-1.39,3.79c.29,5.79.56,11.57.87,17.35.05.92-.15,1.37-1.18,1.45-1.34.11-2.66.43-4.06.66,2.58,8.31,1,15.93-3.63,23.23h5.89c20.95-.06,41.89-.16,62.84-.19,10.11,0,20.22.12,30.33.19l32.73.28c1.15,0,2.31,0,3.47.1a.89.89,0,0,1,.69.52H231l.73-1.06c4.64-6.75,6.29-14.06,4-22.06-.17-.59-.93-1-1.42-1.53l-.29.22c.47,1.83,1.09,3.64,1.39,5.5A18,18,0,0,1,229,219.3c-1.52,1.32-3.51,1.21-5.33,1.55-2.05.37-4.11.6-6.17.89a8.78,8.78,0,0,1-6.4-1.37,3.53,3.53,0,0,0-1-.55,7,7,0,0,1-5-4.58c-.86-2.06-1.59-4.17-2.41-6.25a12.64,12.64,0,0,0-.8-1.43l-.38.18.6,2.17c-4.11,0-8.1,0-12.09,0-9.82.13-19.65.3-29.48.43a2.19,2.19,0,0,0-2.1,1.47c-.9,2-1.75,3.94-2.73,5.86s-2.34,3.36-4.65,3.5a5.48,5.48,0,0,1-5.77-6.43c0-.27.06-.54.1-.93-.65.14-1.22.29-1.79.38a7.89,7.89,0,0,1-8.35-3.91,12.36,12.36,0,0,1-1.08-10.39c1.82-5.55,8.18-6.67,12.18-5.07,5.85,2.35,8.33,8.07,6,13.9-.08.21-.13.43-.22.7,2,0,4,.06,5.93,0,.42,0,.94-.55,1.21-1a8.47,8.47,0,0,0,1.14-5.64,45.07,45.07,0,0,0-1.15-6,6.13,6.13,0,0,0-3.28-3.63,13.35,13.35,0,0,1-3-2.1,5.1,5.1,0,0,0-6-1.27c-4.82,1.78-9.71,3.39-14.6,5-3.39,1.1-5,2.86-5,6.43,0,2.87.26,5.74.5,8.6a4.59,4.59,0,0,0,.76,1.73,49.88,49.88,0,0,0,3,4.92,6.63,6.63,0,0,0,2.71,2.19c3.56,1.39,7.13,2.83,11.05,2.89a3.64,3.64,0,0,1,.79.19l.08.32a4,4,0,0,1-1.14.31c-2.6,0-5.19-.05-7.79-.12-4-.1-8.06-.3-12.1-.33-7.07-.07-14.15,0-21.22-.06q-31.66-.1-63.32-.25c-8.62,0-17.25-.21-25.88-.31-4.95,0-9.91-.08-14.86-.12ZM239.13,195c0-.71,0-1.31-.12-1.9a.82.82,0,0,0-.37-.6c-2-.72-2.74-2.44-3-4.27a18.83,18.83,0,0,0-2.94-7.39,2.7,2.7,0,0,0-2.56-1.41c-3.92,0-7.83,0-11.75,0a10.45,10.45,0,0,0-7,2.46c-1.84,1.53-3.75,3-5.53,4.6a7.62,7.62,0,0,1-5.75,2c-9.39-.25-18.78-.28-28.17-.38-5.19-.06-10.38-.13-15.58-.15-1.55,0-3.1.16-4.66.25l-.2.58a57.62,57.62,0,0,0,4.68,3.6c1.78,1.13,3.38,2.37,3.94,4.45a39.93,39.93,0,0,1,1,5.64,12.15,12.15,0,0,1-1.37,7l41-.65c-.1-1.29-.89-1.1-1.52-1.11-8.55,0-17.1,0-25.65-.09-2.28,0-4.56-.07-6.83-.16-2.45-.1-3.48-1.15-3.4-3.63a21.84,21.84,0,0,1,.55-4c.44-2,.67-2.2,2.78-2.46a17.19,17.19,0,0,1,2.27-.15l16.66.11,12.34.12c1.7,0,2.12.37,2.36,2,.31,2.05.58,4.11.89,6.16a7.19,7.19,0,0,0,.43,1.23l.36,0a3.58,3.58,0,0,0,.14-.95c-.16-1.15-.34-2.29-.56-3.42-.32-1.61-.55-3.26.83-4.48a14.43,14.43,0,0,0,4.22-6.69,4.45,4.45,0,0,1,3.74-3.15c3.15-.52,6.32-1,9.48-1.41a7.88,7.88,0,0,1,4.75.8c3.62,1.83,7.09,3.74,8.78,7.74.28.67,1.11,1,1.52.29s1.06-.8,1.8-.72S238.23,194.89,239.13,195ZM170,128.34c.13,2.27.13,2.27,2.07,2.24.6,0,1.2-.06,1.79-.07,8.19-.19,16.38-.44,24.57-.53,8.38-.08,16.77,0,25.15,0,2.54,0,3,.45,3.38,2.91.6,3.66,1.28,7.32,1.77,11,.78,5.86,1.44,11.73,2.13,17.6.15,1.31-.36,1.87-1.63,2-3,.35-6,.68-9.05,1-2.45.29-4.89.61-7.39.93.34,2-.36,3.69-1.07,5.41-1.18,2.83-2.31,5.69-3.3,8.59a13,13,0,0,0-.24,3.2,12.94,12.94,0,0,0,2.82-1.61,12.6,12.6,0,0,1,7.85-2.46c3.36.09,6.73.19,10.07,0,2.39-.12,4.14.49,5.19,2.71,0,0,.14,0,.29,0-.21-2.52-.4-5-.62-7.53a3.46,3.46,0,0,1,1.4-3.46,2.37,2.37,0,0,0,.74-1.84c-.31-2.85-.78-5.69-1.2-8.54q-2.21-14.92-4.43-29.86c-.31-2.1-.78-2.57-2.95-2.55-10.43.11-20.86.25-31.29.35-7.31.07-14.62.1-21.94.17C172.73,128.13,171.36,128.26,170,128.34Zm-55.12,78.47c-.62-1.23-1.18-2.28-1.66-3.37-.7-1.58-.36-2.44,1.21-3.18a8.65,8.65,0,0,1,1-.42c3.63-1.24,7.24-2.5,10.88-3.69a8.84,8.84,0,0,0,4.67-3.37c.39-.55.8-1.1,1.21-1.64a6.58,6.58,0,0,1,3.29-2.25c4.77-1.64,9.63-1.88,14.64-1.75,11.78.29,23.57.26,35.36.38,4.95,0,9.9.17,14.86.22,1,0,2.21.19,2.91-.3a52.63,52.63,0,0,0,4.7-4.15,2.51,2.51,0,0,0-1.27-.17c-2.79.19-5.58.51-8.37.54-10.47.11-20.95.13-31.42.18-2.21,0-2.42-.24-2.52-2.48-.26-5.83-.51-11.65-.79-17.48-.07-1.53-.21-3.07-.33-4.69l-10.78.52c-2.63.14-5.27.25-7.89.51a2.23,2.23,0,0,0-1.65,1c-.76,1.91-1.29,3.91-1.91,5.87a4,4,0,0,0,.92-1.61,3,3,0,0,1,3-2.28c5.12-.07,10.23-.13,15.35-.15a1.25,1.25,0,0,1,.87.78c1.24,6,1.34,12.22,1.66,18.35.09,1.67-.58,2.33-2.21,2.51-.68.08-1.35.17-2,.2-5.07.2-10.14.44-15.2.58-2.79.09-5.58,0-8.47,0,.12-2.19.24-4.39.36-6.74-.52.27-.91.46-1.28.67L112.71,191.7c-1.52.88-1.53.94-.56,2.61,2.55-1.56,5.08-3.14,7.65-4.68,3.8-2.27,7.61-4.54,11.46-6.74a2.57,2.57,0,0,1,2-.29c1.51.69,1.77,3.51.44,4.54a10.86,10.86,0,0,1-2.51,1.36q-12.15,5.06-24.32,10.08c-.67.28-1.31.64-2,1,3.64.43,5.07,2.62,5.32,5.91.07.85.26,1.69.41,2.62Zm24.19-22.24a2.36,2.36,0,0,0,.51.16L160.5,184a1.55,1.55,0,0,0,1.65-1.78c-.06-1.91-.07-3.83-.25-5.74-.4-4.19-.9-8.38-1.36-12.67-.66,0-1.1,0-1.53,0-4.47.08-8.93.17-13.4.24-1.87,0-2.61.4-3.05,2.21-.74,3-1.32,6-1.89,9S139.6,181.42,139.06,184.57Zm124.2-44.69,1.85,1.94c1.31,1.37,1.35,2,0,3.31-2.65,2.5-5.27,5-8,7.41-6.22,5.46-12.5,10.84-18.75,16.25a2.73,2.73,0,0,0-1.25,2.54c.95,7.53,1.86,15.07,2.79,22.6a9,9,0,0,0,.4,1.28l.35-.05a12.06,12.06,0,0,0,.07-1.47q-.41-8.61-.85-17.23a4.36,4.36,0,0,1,1.37-3.44c4.46-4.42,8.89-8.86,13.37-13.26a7.17,7.17,0,0,1,2.07-1.37c1-.47,1.58-.15,1.91.9a4.93,4.93,0,0,1-.55,4.14c-2.44,4.21-4.85,8.44-7.27,12.67-.2.36-.38.74-.57,1.11a2.33,2.33,0,0,0,.94-.84c2.06-2.81,4.08-5.64,6.16-8.42,3.57-4.76,7.14-9.52,10.8-14.21.75-1,1.06-1.57.2-2.64a4.64,4.64,0,0,1,.14-5.62c.35,1.6.67,3,.95,4.45s1.05,1.64,2.13.81c.63-.48,1.24-1,1.86-1.47l-.24-.39-1.34-.45c-1.85-.6-2.33-1.53-1.73-3.37a8.39,8.39,0,0,1,3.82-4.75c1.66-1,3-.95,4.22.06a3.37,3.37,0,0,1,.74,4.16c-.49,1.18-1.14,2.29-1.62,3.47a28.75,28.75,0,0,0-.86,2.92,7.86,7.86,0,0,0,4.75-6c.13-1.62.13-1.62,1.62-1.4,1.52-2.66,1.23-3.76-1.59-4.88a61.55,61.55,0,0,0-6.82-2.19c-2.66-.71-3.59-.13-4.51,2.49-.44,1.27-.81,2.57-1.26,4-1.2-1.07-2.32-2.09-3.46-3.07C264.58,139.41,264,139,263.26,139.88ZM97,190a15.08,15.08,0,0,0,.14,2.18,5.11,5.11,0,0,1-1.77,5.05q-5.53,5.22-11.09,10.42c-3.91,3.65-7.86,7.27-12.8,9.55-.06,0-.08.18-.14.32.31,0,.55,0,.79,0l17.72-.36c3.51-.08,7-.15,10.53-.29,1.75-.08,2-.51,1.69-2.12a8.79,8.79,0,0,1-2.7.91c-3.63,0-7.26-.13-10.88-.28a6.52,6.52,0,0,1-1.7-.56l0-.41a18.65,18.65,0,0,1,2.06-.73c3.64-.89,7.29-1.75,10.94-2.61,1.72-.4,1.92-.59,1.89-2.32q-.12-9.15-.28-18.32a2.07,2.07,0,0,0-.1-.43ZM277.33,211.8l.28.2c.16-.09.34-.17.49-.27q9.78-6.39,19.54-12.78c1.79-1.17,1.85-1.5.47-3.16q-6.11-7.31-12.27-14.57a12.37,12.37,0,0,0-1.82-1.46c-.51,1.61-.87,3-1.4,4.33a2.83,2.83,0,0,1-3.33,1.92l-1.87-.2c.14.46.21.77.31,1.06,1.34,3.89,2.67,7.77,4,11.64a5.44,5.44,0,0,1-.28,4.61c-1.26,2.4-2.41,4.86-3.59,7.3C277.68,210.87,277.52,211.34,277.33,211.8Zm-53.55-15.23c0,.08,0,.14,0,.15.24.21.48.41.73.6a8.79,8.79,0,0,1,3.16,4.54,13.45,13.45,0,0,1-.45,9.25,4.66,4.66,0,0,1-3.66,3.11,13.94,13.94,0,0,1-12.71-4,5.39,5.39,0,0,1-1.48-5.08c.46-2.51,2-4.42,3.55-6.27l1.35-1.53a6,6,0,0,0-3.72,3.69c-.75,1.63-1.37,3.32-2.11,4.95-.81,1.78-2.12,2.15-3.81,1.15l-1.28-.77a5.81,5.81,0,0,0,0,1.53c.88,2.56,1.71,5.14,2.76,7.62a6.11,6.11,0,0,0,4.34,3.65,3.43,3.43,0,0,1,1.07.52,7.77,7.77,0,0,0,5.69,1.31c2.69-.35,5.38-.7,8.06-1.08a7.46,7.46,0,0,0,4.25-2,18.07,18.07,0,0,0,3.67-20.37c-.18-.37-.64-.86-1-.86C229.4,196.54,226.59,196.57,223.78,196.57ZM200.57,207c-.32-2.56-.63-4.94-.92-7.31a1.5,1.5,0,0,0-1.71-1.45c-.8,0-1.6-.07-2.39-.07-9-.06-17.91-.14-26.86-.15-3.65,0-3.48-.72-4.37,3.67-.8,4,.15,5,4.25,5.07l25.65.23C196.29,207,198.36,207,200.57,207Zm-58-12a7.61,7.61,0,0,0-8,6.26,11.67,11.67,0,0,0,1.34,8.64A6.7,6.7,0,0,0,144.7,213a29.34,29.34,0,0,0,5.34-2.9,6,6,0,0,0,2.45-6.72,13.86,13.86,0,0,0-3.88-6.22A8.2,8.2,0,0,0,142.61,195Zm78.52,18.79a9.7,9.7,0,0,0,2.35-.35,4.56,4.56,0,0,0,2.33-1.5c2.35-4,2.53-8.61-.37-12.48a7.22,7.22,0,0,0-10.83-1.25,13.21,13.21,0,0,0-4.3,6.49,4.77,4.77,0,0,0,1.23,5.07A13.79,13.79,0,0,0,221.13,213.74ZM233,195.5a18.84,18.84,0,0,0-2.41-3c-1.73-1.41-3.61-2.63-5.47-3.87a6.94,6.94,0,0,0-4.8-1.07c-2.93.35-5.85.76-8.78,1.14a5.1,5.1,0,0,0-4.41,3.56,16.25,16.25,0,0,1-3.28,5.49,5.62,5.62,0,0,0,.46,8.06c1.64,1.57,2.84,1.34,3.74-.74.66-1.53,1.23-3.12,1.95-4.62a8.19,8.19,0,0,1,8-5.06c2.52,0,5,.12,7.55.15C227.84,195.52,230.18,195.5,233,195.5Zm42.82-43.37-.67,0c-1,0-2.08,0-3.12,0-1.53.06-2.09.71-1.84,2.25q1.89,11.4,3.84,22.79c0,.28.37.72.57.73,2.51.05,5,0,7.49,0V147.32h-.33c0,.5-.09,1-.09,1.48-.13,7.55-.24,15.1-.38,22.65,0,1.44.1,2.93-1.08,4.39a15.78,15.78,0,0,1-1.13-2.65c-.42-2-.7-4.09-1-6.14C277.27,162.1,276.53,157.17,275.77,152.13Zm-39,7.56-.65.06c-.81,3,.55,5.94.62,9.19.54-.41.87-.62,1.16-.87q8-6.9,15.91-13.82c3.58-3.12,7.13-6.28,10.69-9.42.63-.55,1.29-1.15.47-2s-1.93-1.75-2.95-2.65l-24,24.53Zm-30.12,9.87-.35-.19c-1.35,2-2.76,3.88-4,5.88a4.67,4.67,0,0,1-4,2.5c-5.11.12-10.22.29-15.32.21-4.07-.07-8.13-.48-12.2-.74a1.54,1.54,0,0,1-1.66-1.75c0-1.2-.19-2.4-.09-3.59.68-8.44,1.42-16.88,2.14-25.31l.69-8-.33,0-4.72,40.57a10,10,0,0,0,1.16.14l32.74-.08a3.17,3.17,0,0,0,3.12-2.19c.89-2.18,1.72-4.38,2.57-6.58C206.48,170.15,206.55,169.85,206.63,169.56Zm-48.54,40.81a35.45,35.45,0,0,0-4,0,11.63,11.63,0,0,0-3.86.94,19.49,19.49,0,0,0-3.72,2.78,2.28,2.28,0,0,0-.61,1.36,4.66,4.66,0,0,0,3,4.47,3.76,3.76,0,0,0,4.69-.82C156,216.74,156.68,213.5,158.09,210.37Zm51.56-77-.6,0v32.14a16.68,16.68,0,0,1,2-.5c.82-.12,1-.53,1-1.3-.48-7.49-.91-15-1.44-22.47C210.39,138.66,210,136,209.65,133.39Zm51.59,6.42-.22-.23c-.45.32-.92.61-1.34,1-1.75,1.45-3.49,2.92-5.23,4.38-5.25,4.42-10.51,8.83-15.74,13.28a2.53,2.53,0,0,0-1,1.6,18.83,18.83,0,0,0,.69,3.29Zm18.65,34.36.51-.07V148.92A21.69,21.69,0,0,1,278,151a2.63,2.63,0,0,0-1.18,3c.59,4.1,1.07,8.23,1.67,12.33C278.91,169,279.43,171.56,279.89,174.17Zm-7.2-23c.73,0,1.33,0,1.92,0a1,1,0,0,0,.75-.39c1-2.46,2.09-4.9,2.92-7.43.57-1.71-.92-3.11-2.74-2.78-2,.35-4.78,3.4-4.79,5.43a2.14,2.14,0,0,0,.89,1.59C274,148.78,274,148.73,272.69,151.13ZM132.56,182.88l-19.3,11.68a1.57,1.57,0,0,0,1.11-.1L127,189.33l5.75-2.37a1.38,1.38,0,0,0,.81-2.19C133.24,184.18,132.93,183.59,132.56,182.88Zm15.94,5.62-.08-.59a27,27,0,0,0-4.3-.11c-2.33.3-4.61.93-6.93,1.29-3.11.49-4.77,2.59-6.3,5.37Zm87.77-17.63a2.38,2.38,0,0,0-1.71,2.55c.13,1.66.26,3.33.34,5,.17,4.07,1.68,7.74,3.36,11.37,0,.07.19.09.5.25C237.92,183.59,237.11,177.31,236.27,170.87Zm-134.8,40.68-12.09,3,.08.45c.33,0,.67.09,1,.09,3,0,5.92,0,8.87-.11,1.6-.05,2.1-.69,2.14-2.28ZM260.92,138l.33.22c1.25-1.16,2.42-.68,3.52.15.92-1.64,0-2.84-2.9-3.78C261.55,135.69,261.23,136.82,260.92,138ZM140.25,172.1l-.36,0-2,11.83.5.08Q139.34,178,140.25,172.1ZM105,210.55c1.25.77,1.74.63,2.7-.77Z"/></g></svg>