<svg xmlns="http://www.w3.org/2000/svg" viewBox="0 0 368.61 355.7"><g id="OBJECTS"><path d="M368.61,218.57c-3.88,0-7.75,0-11.63,0H294.31c-.14.93-.22,1.79-.4,2.64-.78,3.61-3.13,5.83-6.43,7.17a36.55,36.55,0,0,1-11.34,2.36,222.33,222.33,0,0,1-33-.21c-4.89-.39-9.81-.41-14.71-.7-4.35-.25-8.68-.74-13-.92-5.15-.21-10.31-.2-15.46-.3-7-.14-14-.14-21-.54a17.22,17.22,0,0,1-6.77-2.12c-4.17-2.2-5.51-6.09-5-10.56a9.84,9.84,0,0,1,6.84-8.6c3.64-1.36,7.42-1.4,11.23-1.24q12.17.49,24.31.93a11.88,11.88,0,0,0,1.48-.13,13.27,13.27,0,0,0-.55-2.29,1.4,1.4,0,0,0-1.07-.58c-3.8-.06-7.59-.07-11.39-.1h-.36c-3.94-.19-5-1.17-5.34-5.08-.2-2.18-.35-4.38-.44-6.57a2.55,2.55,0,0,1,2.27-2.75,25.55,25.55,0,0,1,9.06.21c.29.05.54.36.82.54a4.25,4.25,0,0,1-.6.66,5.26,5.26,0,0,1-4.2.92c-2.9-.4-3.15-.19-3.42,2.69-.16,1.63-.25,3.26-.38,5l12.87,1.42a31.21,31.21,0,0,0-1-4c-1.69-4-3.45-8-5.24-11.95a50.88,50.88,0,0,1-4.54-14.32c-.33-2.58-.49-5.17-.83-7.74a23.65,23.65,0,0,0-.88-3.48,7,7,0,0,0-2.81-3.77c-5.3-3.72-11.21-6.25-17.17-8.67-9.79-4-19.62-7.9-29.36-12-2.93-1.24-5.64-3-8.46-4.5-.4-.22-.82-.41-1.19-.6,0,2.06,0,4,0,6a126.39,126.39,0,0,1-2.68,27.38c-2.29,10.78-4.9,21.48-7.4,32.21a3.27,3.27,0,0,0,.38,2.83,4.26,4.26,0,0,1,.07,4.78,13.12,13.12,0,0,1-3.24,3.77,32.62,32.62,0,0,0-10.75,13.24c-1.29,2.78-2.78,5.48-2.93,8.67-.06,1.31-1.48,2-2.94,1.67a11.33,11.33,0,0,1-1.7-.7l-1.49,2.11c-2-.58-2.32-2.43-2.89-4.1l-1.39,3.73c-2.78-.81-1.72-3.52-3.15-5.3a14,14,0,0,0-.49,2.76,3.08,3.08,0,0,1-1.51,3,2.82,2.82,0,0,1-1.76-2.87,11.06,11.06,0,0,0-.55-2.66l-.58.09c0,.7.06,1.41.12,2.11a7.27,7.27,0,0,1,.19,1.89,1.86,1.86,0,0,1-1,1.17c-.21.09-.94-.45-1.07-.84a18.6,18.6,0,0,1-1.59-7.19c.22-5.43-.81-10.73-1.73-16.05A62.78,62.78,0,0,1,86.2,200c0-.66,0-1.32,0-2.22-1.19,2.24-1,4.4-.87,6.53s.26,4.39.36,6.58a12,12,0,0,1-.12,1.79,1.7,1.7,0,0,1-1.7,1.55,19.5,19.5,0,0,1-2.15.12H61.08l-58.89-.08c-.73,0-1.46-.11-2.19-.17v-.56c.84-.05,1.67-.14,2.51-.14H81.21c3.61,0,3.67-.11,3.46-3.72-.16-2.83-.18-5.67-.25-8.5a8.79,8.79,0,0,1,4.54-8,27.21,27.21,0,0,1,15.11-3.84h3.28c0-1.18,0-2.41,0-3.63,0-2.35,0-4.72.24-7.06.33-3.45,2.43-5.85,5.31-6.26a8.38,8.38,0,0,1,5.18,1.13,14.77,14.77,0,0,1,7.34,9.35,12,12,0,0,1,0,2.9l-2.09-1.05-.2.15c.43.57.83,1.16,1.31,1.69,1.94,2.13,2.12,3.77.64,6.28-.86,1.47-.81,2,.39,2.92,1.81-7.52,3.59-15,5.38-22.45l-.22-.07c-.72,2.14-1.43,4.28-2.19,6.57-1.42-1.77-2.63-3.45-4-5a11.7,11.7,0,0,0-3.39-2.75,19.64,19.64,0,0,0-4.45-.91l-.21.35a8.33,8.33,0,0,1-.15-1.72c.11-1-.38-1.41-1.32-1.55s-1.79-.38-2.69-.57c-2-.41-2.44-.9-2.26-2.93.31-3.54.73-7.07,1-10.62.42-5.49.63-11,1.16-16.49.35-3.6,1.13-7.16,1.65-10.75.75-5.09,1.45-10.2,2.17-15.3a13.12,13.12,0,0,1,5.41-9.24c2.36-1.71,4.74-3.41,7.21-5,3.16-2,5.23-1.34,7.13,1.9a4.1,4.1,0,0,0,1.57,1.55c4.84,2.47,9.71,4.87,14.57,7.28a1.25,1.25,0,0,0,1,.07,2.45,2.45,0,0,1,2.56.44,16.67,16.67,0,0,0,3.52,1.9,124.28,124.28,0,0,1,22.26,10.25,11.3,11.3,0,0,1,1.27.91,8.05,8.05,0,0,0,6.66,1.59c4.94-.9,8.87,1.65,9.85,6.55a4.19,4.19,0,0,0,2.44,3.19c6.34,3.33,10.59,8.64,13.73,14.92,1.52,3,2.89,6.13,4.27,9,2.52-.32,4.95-.7,7.39-.91,1.59-.14,3.19,0,4.79,0,5.95,0,11.91.07,17.86.13a23.06,23.06,0,0,1,3.22.27,6.76,6.76,0,0,1,6.05,5.66c.86,4,1.48,8.08,2.2,12.13.2,1.14.39,2.28.6,3.54,1.26-.3,2.44-.61,3.63-.86a25.31,25.31,0,0,1,15.94,1.47c2.31,1.05,3.84,2.7,4.07,5.2a51.62,51.62,0,0,1,.17,7.86c-.21,3.23-.69,6.44-1.14,9.64-.43,3-1.45,3.88-4.52,4a33.62,33.62,0,0,0-4.23.23c1.51.33,3,.64,4.52,1,4.17,1,8.12,2.53,11,5.92a19,19,0,0,1,2.46,3.94,2.23,2.23,0,0,0,2.21,1.45l70.78,0a21.44,21.44,0,0,1,2.25.23ZM219,158.66l-4.37-9.3c-2.35-5-5.33-9.54-9.8-13-4.66-3.56-10-5.4-15.65-6.6-15.31-3.24-30.72-6-45.84-10.09a9.75,9.75,0,0,0-5.66-.1,9,9,0,0,0,3.58,6.52,27.69,27.69,0,0,0,6.29,3.6c8,3,16,5.84,24.07,8.73,7.45,2.67,14.82,5.53,21.62,9.64,4.52,2.73,8.54,6.06,10.69,11,2.37,5.45,4.4,11,6.54,16.59a5.55,5.55,0,0,1,.12,1.59l-.39.08c-3.37-5.62-5.68-12-10.92-16.58.14,1.94.41,3.53,2.09,4.54a3.36,3.36,0,0,1,1.14,1.49c1.09,2.52,2.19,5,3.14,7.62,1.16,3.11,2.63,4.2,5.9,4.09.62,0,1.24,0,1.86,0a1.93,1.93,0,0,0,.11-.34L215,168.11c.72-4.75,2.88-7.1,7.53-8.3,4-1,8.07-.91,12.14-.91h5.14a43,43,0,0,1-1.56,5.2,37.5,37.5,0,0,0-3.5,17.69c.12,2-.52,2.7-2.56,2.66-3.11,0-6.23-.09-9.34-.26a31.35,31.35,0,0,1-4.79-.74c-.8-.16-1.08-.76-.28-1.86,2.22,0,4.7.09,7.17,0,3.31-.15,4.91-1.42,5.69-4.63,1-3.95,1.78-7.94,2.61-11.93.27-1.34-.07-1.77-1.45-1.85-3.59-.19-7.18-.36-10.77-.48-2.11-.07-2.54.26-3.3,2.22A43.35,43.35,0,0,0,216,191.83c.54,2.16,1.66,3.28,3.89,3.5,6.12.62,12.21,1.64,18.34,1.9,7.13.31,14.29,0,21.44-.09,2.06,0,2.19-.29,2.13-2.4a170.33,170.33,0,0,0-2.3-23.11c-.56-3.27-1.2-6.52-2-9.72a5.91,5.91,0,0,0-5.22-4.49,29.46,29.46,0,0,0-4.29-.37q-9.54-.11-19.07-.09C225.57,157,222.21,157.06,219,158.66Zm3.71,68.51c-.2-.49-.32-.82-.47-1.14-4.08-8.65.94-18.32,10.39-19.65a64.65,64.65,0,0,1,10-.29c3.63,0,7.26.32,10.88.55.3,0,.58.38.86.59-.26.18-.49.46-.77.52-1.33.28-2.66.59-4,.74-4,.44-8,.79-11.92,1.21-4.14.44-7.58,2.14-9.89,5.75a6.8,6.8,0,0,0,1,9.13,12.87,12.87,0,0,0,9.5,3.87c6.38-.16,12.77-.37,19.16-.48,5-.08,10.07,0,15.11,0a25.81,25.81,0,0,0,12-2.49,13,13,0,0,0,4-2.91c1.88-2.25,1.52-3.5,0-5.19a23.15,23.15,0,0,1-2.4-3.4,9.48,9.48,0,0,0-4.47-4.18,36.54,36.54,0,0,0-11-2.69c-3.42-.26-6.86-.33-10.28-.5-.74,0-1.48-.16-2.21-.24V206l1.47-.65c-4.61-.16-9.16-.19-13.72-.15s-9.18.23-13.78.24a48.1,48.1,0,0,0-16.55,2.81,12.8,12.8,0,0,0-8,7.71c-1.72,4.45,0,9.26,4,11C215.24,228.44,218.87,228.16,222.68,227.17ZM120.24,169.22l-.63-.14c0-2.11,0-4.22,0-6.33.2-8.46.45-16.93.66-25.4.06-2.39.13-4.79,0-7.18a3.54,3.54,0,0,0-2.76-3.37v43.47c5.16.14,8,3.54,10.61,7.39.22-.59.4-1,.55-1.48a80.71,80.71,0,0,0,3.6-17.32c.95-8.82,1.87-17.64,2.84-26.45.28-2.48.41-4.72-1.18-7a6.34,6.34,0,0,1,3.25-9.56,2.8,2.8,0,0,0,.45-.26c-.11-.2-.18-.38-.28-.54a30.67,30.67,0,0,1-4.28-12.59c-.24-2.12-.15-2.36,1.48-2.9-1.09-2.38-2.75-3-4.86-1.54-3,2.05-5.88,4.28-8.84,6.38a8.51,8.51,0,0,0-3,4.2c-1.28,3.46-1.52,7.09-1.84,10.71-.11,1.22-.21,2.44-.31,3.71.55-.06.94-.12,1.33-.14,3.08-.19,4.39.91,4.57,4,.1,1.55,0,3.11,0,4.67.1,2.91.41,5.83.35,8.74-.15,6.35-.46,12.69-.72,19q-.18,4.31-.47,8.61A4.93,4.93,0,0,1,120.24,169.22Zm1,27.33-.08.36a3.86,3.86,0,0,1-1-.16c-.65-.29-1.27-.67-1.9-1a34.57,34.57,0,0,0-25.1-3.1,7.3,7.3,0,0,0-6,6.39,22.08,22.08,0,0,0,.36,8.22,64.48,64.48,0,0,1,1.82,12.9c0,2.51.19,5,.44,7.51a8.59,8.59,0,0,0,1,2.33c.19-1.34.14-2.55.23-3.75,0-.32.46-.86.7-.86A1.52,1.52,0,0,1,93,226a16.52,16.52,0,0,1,.82,2.7c.19.74.06,1.65,1.19,2,.12-1.46.23-2.77.35-4.08.07-.76.46-1.4,1.25-1.28a3.09,3.09,0,0,1,1.6.93c.27.26.25.82.34,1.25.18.8.36,1.61.53,2.41l.31,0,1.18-4.95c2.6,1.1,1.37,4.29,3.38,5.64.69-1.73.49-3.67,1.45-5.44l2,4.16c2.23-1.4,2.46-1.95,1.59-4.13-1.33-3.34-2.73-6.64-4.1-10a20.41,20.41,0,0,1-1.57-10.43c.43-3.6,1.47-7,4.26-9.51,1.17-1.08,2.09-1.09,3.39,0-.8.73-1.66,1.39-2.37,2.18-3.78,4.19-4.64,9.26-3.38,14.46,1,4.13,2.94,8,4.45,12l.42,0c.3-.63.62-1.25.9-1.89,2.86-6.7,6.76-12.56,12.88-16.79a9.38,9.38,0,0,0,2.57-3.38,3.2,3.2,0,0,0-1-4.27c-1.88-1.31-3.89-2.44-5.84-3.65l-.13.14Zm140.58-16.77c.05.79.09,1.53.14,2.28.29,4.39.63,8.77.87,13.16.11,2.15-.37,2.64-2.5,2.76-3.11.17-6.22.33-9.33.41a150.2,150.2,0,0,1-24.17-1.12c-3.43-.47-6.84-1.06-10.48-1.64.37,1.31.7,2.56,1.07,3.79a3.46,3.46,0,0,0,3.27,2.56,17.74,17.74,0,0,0,1.79.07c7.92,0,15.84.07,23.75.08,7,0,13.92.1,20.87,0,4.63-.09,9.25-.47,13.87-.79,1.92-.13,2.59-.94,2.58-2.87q0-4.44-.08-8.88c0-2.27-.08-4.55-.17-6.83a2.59,2.59,0,0,0-2.85-2.82c-1.12,0-2.24-.12-3.36-.12C272.06,179.77,267,179.78,261.82,179.78Zm-54.72-10.2c-.66-3.82-4-10.67-6.64-14-3.26-4.13-7.65-6.67-12.23-9-7.64-3.91-15.72-6.64-23.75-9.53-5.86-2.11-11.72-4.18-17.51-6.48-4.37-1.73-8-4.49-10.06-8.92a3.71,3.71,0,0,1-.28-2.56c.36-1,1.55-1,2.51-.9a66.87,66.87,0,0,1,6.62,1c15.87,3.62,31.73,7.32,47.59,11a11.91,11.91,0,0,0,1.22.15c-.18-.32-.21-.46-.29-.51-2.41-1.42-4.81-2.85-7.25-4.21a1.65,1.65,0,0,0-1.35-.09c-3.22,1.82-6.22,1-9.24-.55-5.13-2.58-10.27-5.16-15.45-7.65-2.28-1.1-4.67-2-7-2.93a17.21,17.21,0,0,1-3.35-1.17c-3.92-2.61-7.75-5.36-11.58-8.1a8.88,8.88,0,0,1-1.37-1.49l.28-.41a16.36,16.36,0,0,1,2.2.9c3,1.77,6,3.62,9.06,5.39a29.86,29.86,0,0,0,2.75,1.25c-.29-1.8-12.22-8.46-15.56-8.9a17.54,17.54,0,0,0,.17,7.6c.7,2.42,1.75,4.74,2.64,7.12l-.57.11c-4.64,1.16-6.12,4.87-3.48,8.87a13.91,13.91,0,0,0,5.64,5.06c6,2.82,11.87,5.73,17.91,8.33,9.34,4,18.82,7.73,28.17,11.73A39.24,39.24,0,0,1,206.1,167.8C206.38,168.3,206.67,168.8,207.1,169.58Zm2.29,57.34c-.3-.37-.46-.58-.64-.77a9.81,9.81,0,0,1-2.25-9.6,14.32,14.32,0,0,1,5.72-7.76l1.42-1c-7.92.53-15.45,1-23,1.55a12.57,12.57,0,0,0-7.58,2.93c-2.21,2-3.1,4.75-2,7.24,1.65,3.71,4.5,6.15,8.64,6.52,3.89.35,7.82.34,11.73.52C204,226.61,206.6,226.77,209.39,226.92Zm-18.87.49,0-.09L189,227a12.58,12.58,0,0,1-7.41-4.75c-3.42-4.61-2-10.19,3.39-12.27a30.75,30.75,0,0,1,7.2-1.65c3.51-.45,7.07-.59,10.61-.86a2.13,2.13,0,0,0-1-.26c-5.87-.24-11.73-.54-17.6-.7-3.35-.09-6.71-.1-9.9,1.25a9.85,9.85,0,0,0-4.76,14.43c2.13,3.37,5.48,4.62,9.24,5,1.9.18,3.82.2,5.74.24S188.5,227.41,190.52,227.41Zm17.26-47.51c.11.44.14.72.23,1,1,3,2,6,3.13,9,1.44,3.93,3,7.83,4.44,11.75.65,1.71.44,2-1.42,2h-1.68c-1.06,0-1.23.3-.75,1.19.93,1.74,2.74,2.4,5.07,1.68a59.67,59.67,0,0,1,17.62-2.35q19.83,0,39.68-.05c2.16,0,4.31,0,6.47-.14a2,2,0,0,0,2.12-1.59h-.8c-7.18.24-14.36.59-21.54.71-6.79.11-13.59,0-20.38-.05-6.19,0-12.39,0-18.58-.1-3.06-.06-4.37-1.07-5.13-4a81.61,81.61,0,0,1-1.66-8.32c-.52-3.55-.85-7.12-1.27-10.74Zm-9.49-14.34-.37.21a3.27,3.27,0,0,0-.08.76,54.75,54.75,0,0,0,4.1,15.44c2.6,5.91,5.73,11.6,7.23,17.95.33,1.39.3,1.53-1.07,1.39-3.9-.37-7.79-.79-11.68-1.2a1.79,1.79,0,0,1-1.85-2,39.55,39.55,0,0,1,.28-4.06c.43-3.8.74-4,4.59-3.67.79.07,1.59.09,2.38.14,0-.42-.12-.61-.21-.61-2.43,0-4.87,0-7.3.13a1.59,1.59,0,0,0-1.5,1.74c.2,2.78.44,5.57.78,8.34a2.5,2.5,0,0,0,2.55,2.26c3.26.18,6.53.42,9.79.54a13.19,13.19,0,0,0,7.62-1.73c-.69-1.37-1.37-2.62-2-3.92-3.36-7.39-5.42-15.29-9-22.61a15.34,15.34,0,0,1-.6-1.69,42.82,42.82,0,0,0-1.66-4.48A19.7,19.7,0,0,0,198.29,165.56Zm50.19,42a5.58,5.58,0,0,0-.78-.2,58.44,58.44,0,0,0-13.86-.3c-10.05,1.22-14.13,10.44-10.92,17.92.39.91.7,1.85,1.06,2.83l-2.39.7,0,.11H233c-1.3-.79-2.34-1.38-3.34-2a8.65,8.65,0,0,1-.7-14.16,16.8,16.8,0,0,1,4.73-2.47C238.46,208.29,243.43,207.83,248.48,207.57ZM110.73,188.19h-.24a4.24,4.24,0,0,1-.4-1.2c-.12-3.35-.3-6.7-.26-10.05,0-1.94,1-2.68,3-2.53a11.64,11.64,0,0,1,8.78,4.73c.91,1.2,1.63,2.54,2.44,3.82a.93.93,0,0,0,0-.32c-1.29-4.33-3.84-7.51-8.23-9-3.68-1.21-6.55.45-7.09,4.29-.43,3-.52,6.12-.69,9.18a1.32,1.32,0,0,0,.71,1c3,1.21,6.06,2.5,9.18,3.45a12.82,12.82,0,0,0,4.33,0c.23,0,.58-.51.63-.82.21-1.51-1.06-2.7-2.86-2.52a30.56,30.56,0,0,0-4,.86c-.57.13-1.14.29-1.84.47,1.62-3.47,5.15-3.65,7.81-5.13-.29-2.51-1.57-4.12-3.52-4.46-1-.18-1.9,0-2.21,1.12a24,24,0,0,0-.52,2.91,12.84,12.84,0,0,0,0,1.42c-.77-.58-1.26-1-1.79-1.33-1-.7-1.76-.55-2.35.56a7.16,7.16,0,0,0-.53,1.58C111,186.9,110.86,187.55,110.73,188.19Zm108.7-5.48,0,.36c.5.06,1,.17,1.51.19l9.93.28c2.93.08,3.29-.28,3.11-3.18a30.79,30.79,0,0,1,3.24-15.88,31.2,31.2,0,0,0,1.48-4.5c-4.92-1.16-15.85.18-17.93,2.21h10.84c2.33,0,3,.86,2.6,3.14-.2,1.1-.43,2.2-.67,3.29-.7,3.11-1.34,6.24-2.14,9.32a5.58,5.58,0,0,1-5.43,4.44c-1.55.11-3.11.1-4.66.17C220.67,182.57,220.05,182.65,219.43,182.71ZM116.09,164.26V126a5.54,5.54,0,0,0-1.73,4.77,92.88,92.88,0,0,1-.71,17.79c-.6,4.1-1,8.23-1.43,12.35a2.35,2.35,0,0,0,.72,1.85A18.67,18.67,0,0,0,116.09,164.26ZM293,218.85c-1.88-.18-1.92-.19-2.31,1.46a7.83,7.83,0,0,1-4.32,5.42,28.76,28.76,0,0,1-12.92,3.13c-9.67.1-19.34,0-29,0-.44,0-.89,0-1.34.06l-.06.49a16,16,0,0,0,1.8.27c5,.18,10.06.52,15.08.45,6.22-.09,12.44-.52,18.66-.81a22.67,22.67,0,0,0,11.55-3.85A6.33,6.33,0,0,0,293,218.85ZM155.25,113.23c6.56,3.77,23.05,11.62,23.87,11.21l-22.61-13.51Zm-35.07,65.83a10.15,10.15,0,0,0-7.11-3.63,1.93,1.93,0,0,0-2.19,1.6c-.09,2,0,4,0,6.09l3.88-.32C115.46,179,115.88,178.68,120.18,179.06Zm42.91-65.39,1,.62c4.75,2.84,9.52,5.65,14.24,8.55.94.57,1.55.61,2.1-.37.13-.24.29-.46.46-.73C175.16,118.54,169.41,115.47,163.09,113.67Zm24.6,11,10.26,6A7.29,7.29,0,0,0,187.69,124.72Zm104.92,92.67c-1.09-4.88-7.81-9.47-12.6-9.81,1.12.6,2,1.11,2.93,1.57,3.35,1.67,6.39,3.63,7.56,7.53C290.78,217.61,291.6,217.85,292.61,217.39ZM132.69,163.5l.3.06a117.5,117.5,0,0,0,2.48-24.75Q134.07,151.15,132.69,163.5Zm-11.75,30,2.21,1.43c.64-1.42,1.32-2.69,1.78-4,.58-1.67-.33-3.39-2.11-4.34a3.53,3.53,0,0,0-4.4.69c.62,0,1.13,0,1.64,0a7.92,7.92,0,0,1,1.54.2,3.38,3.38,0,0,1,2.48,2.92,2.94,2.94,0,0,1-2.12,2.73Zm-9.71-30.76-.32.11a9.2,9.2,0,0,0,0,2.23,2.21,2.21,0,0,0,1.07,1.4,31.45,31.45,0,0,0,3.79.91C115.67,164.22,112.81,164.15,111.23,162.77Zm166.41,15.65a24.82,24.82,0,0,0-13.77-.33v.33Zm-72.28-.55c.64-1.23-2.91-9.89-4.61-11.37C202.29,170.39,203.11,174.32,205.36,177.87Zm-89.42-53.43,4.69,2.81c.07-1.65-.39-2.8-1.8-3.38A2.28,2.28,0,0,0,115.94,124.44Zm69.12.36.09-.43c-1-.4-2-1.11-3-1.07-.5,0-.94,1.38-1.4,2.14l.32.28Zm-81,65.58,11.38,2.53C113.19,191.26,107.12,189.93,104.1,190.38Zm49-81.41c.51,2.14-.94,2.49-2.28,2.93,1.57,1.31,1.8,1.35,2.65.49S154.36,110.39,153.06,109Zm56.55,80.15-3.11-9.54C206,180.32,208,186.55,209.61,189.12Zm-95.87-53.33-.47,0-.68,11.12.45,0Q113.4,141.36,113.74,135.79Zm21-29.28.46,0c0-1.48.06-3,0-4.44,0-.41-.54-.79-.83-1.19l-.41.25Zm63.62,57.34c.32-1.33-1-5.19-1.75-5.47Z"/></g></svg>