<svg xmlns="http://www.w3.org/2000/svg" viewBox="0 0 368.61 355.7"><g id="OBJECTS"><path d="M0,212.18H92.15c-1-.54-1.78-.88-2.48-1.31-4.76-2.91-7-8.58-5.27-14.44,1.09-3.79,2.52-7.48,3.95-11.16.63-1.63,1.61-3.11,3.84-2.68.28.06.63-.21.78-.27a13.13,13.13,0,0,0,1.86.56,3.57,3.57,0,0,1,3.34,2.69c2.53,7.67,7.82,13.09,14.68,17,3.7,2.12,7.62,3.86,11.42,5.79,1.8.92,3.58,1.9,5.36,2.85-.24,1.27-.61,1.91-2,1.91q-62.65,0-125.32,0c-.76,0-1.52,0-2.28,0Zm91.88-28.56c-1.73-.12-2.23,1.13-2.65,2.23-1.31,3.39-2.65,6.77-3.7,10.24-2.24,7.38,1.5,14,8.78,15.47a37.88,37.88,0,0,0,7.38.56c8.55,0,17.1,0,25.65-.07a7.37,7.37,0,0,0,.93-.11,32.75,32.75,0,0,0-4.42-2.61c-4.35-2.26-8.85-4.27-13-6.8a30.65,30.65,0,0,1-13.88-17.26c-.3-1-1-1.15-1.85-1.18,1.12,2.19,1.07,2.85-.29,3.94s-2,1.05-3,.19C90.32,187,90.32,186.35,91.88,183.62Zm1.29.18c-.43.61-.77,1.15-1.17,1.64-.6.77-.2,1.3.34,1.86s1.1.46,1.68,0c1.09-.84,1.15-1.28.24-2.33C94,184.63,93.62,184.29,93.17,183.8Z"/><path d="M266.33,136.85c2.53,1.22,5,2.15,7.15,3.49,5.48,3.34,8.34,8.56,9.85,14.61a58.61,58.61,0,0,1,1.36,18.1,76.23,76.23,0,0,1-1,9.17,14.7,14.7,0,0,1-13.91,12c-5.58.24-11.18.23-16.78.24q-19.31,0-38.62,0c-4,0-8-.06-12-.44-7.6-.73-12-5.11-12.85-12.78a149.3,149.3,0,0,1-.84-15c0-9.14-.08-18.3.38-27.44A164.66,164.66,0,0,1,196.54,96a50.6,50.6,0,0,1,7-14.64c5.21-7.12,12.3-10.56,21-10.78q11.51-.3,23-.53c5.3-.11,10.17,1.07,14,5,3.23,3.34,4.44,7.51,4.63,12,.13,3.08.13,6.16.13,9.23q0,19.68,0,39.35Zm-1,1.1v-1.47q0-19.92,0-39.83c0-3.36,0-6.72-.22-10.07a16.13,16.13,0,0,0-4.39-10.86c-3.32-3.38-7.55-4.62-12.11-4.59-8,.05-16.06.26-24.09.5-10.06.3-17.57,5-22.25,13.81A75.51,75.51,0,0,0,197,97.89c-3.88,12.36-5.76,25.12-6.75,38a287.38,287.38,0,0,0-.36,35.46,101.14,101.14,0,0,0,1.12,11.79,10.37,10.37,0,0,0,6,8.18,17.24,17.24,0,0,0,5.83,1.6c6.06.33,12.14.46,18.21.48,13.76,0,27.51,0,41.26-.07,2.32,0,4.64,0,7-.12a14,14,0,0,0,13.45-11.39,61.08,61.08,0,0,0,.72-6.19,59.93,59.93,0,0,0-1.35-21.18c-2.07-7.82-6.79-13.25-14.59-15.82C266.83,138.4,266.11,138.19,265.33,138Z"/><path d="M269.54,224.62h97.79c.53,0,1.49-.38,1.24,1H187.33c-5.48,0-9.58-2.22-12-7.33-.45-.93-1.61-1.52-2.64-2.45-.32,1.3-.52,2.25-.79,3.19-1.12,3.87-3.27,5.39-7.26,5.08-2-.15-4-.42-6.11-.65a2.93,2.93,0,0,1,.42-.56c5-4,7.08-9.39,7.31-15.63,0-1.14.06-2.2,1.11-3a3,3,0,0,1,4.65,2c.22,1,.16,2,.3,3,.06.47.26,1.28.44,1.29a3.45,3.45,0,0,0,2-.35,3.56,3.56,0,0,0,1-1.59,10.5,10.5,0,0,1,10-6.74c7.16-.16,14.32-.06,21.47-.08h1.48v-.94c0-2.71,1.15-4,3.91-4s5.51,0,8.27,0c5.44,0,10.87,0,16.31,0,1.39,0,2.78.15,4.26.24.14,1.21.35,2.35.38,3.5,0,1,.37,1.27,1.36,1.27q10.5-.06,21,0c4.53,0,8.24,1.76,10.42,5.84a12.4,12.4,0,0,1-.22,12.58C273.47,221.85,272.29,222.87,269.54,224.62Zm-59.61-21.8h-1.41c-7.08,0-14.16,0-21.24,0a17.69,17.69,0,0,0-3.56.35,9.56,9.56,0,0,0-7.15,6.12c-.9,2.17-2.16,2.81-4.23,2.33-.69-.16-1.08-.42-1.06-1.26a19.15,19.15,0,0,0-.27-3.7,2.27,2.27,0,0,0-2-1.93c-.47-.06-1.18.51-1.48,1a3.72,3.72,0,0,0-.27,1.73c-.23,5.62-1.87,10.67-6,14.73a2.94,2.94,0,0,0-.32.57c1.45.12,2.76.29,4.07.32,3.22.08,4.75-1,5.7-3.85a23.13,23.13,0,0,0,.58-2.32c.18-.81.32-1.62.49-2.49,1.1.64,2.14,1.17,3.09,1.82a3.62,3.62,0,0,1,1.27,1.37c2.24,5.07,6.31,7,11.62,7q30.48,0,60.94,0c5.36,0,10.71-.07,16.07-.12a9.81,9.81,0,0,0,7.65-3.4c3.09-3.62,3.44-7.79,1.68-12s-5.34-6.16-9.82-6.21c-7.27-.09-14.55,0-21.83,0h-1.38l-.57-4.77c-1.18-.08-2.28-.21-3.39-.21-5.36,0-10.72.06-16.07.06-2.52,0-5-.12-7.55-.1-3.35,0-4.19,1.07-3.63,4.39A5.91,5.91,0,0,1,209.93,202.82Z"/><path d="M178.44,171.83H170q-.52-4-1-8c-.44-3.45-.78-6.91-1.31-10.35-1.08-7-5.36-11.58-11.52-14.61-1.9-.93-3.91-1.74-5.22-3.48a31.7,31.7,0,0,1-2.39-3.85c-1.13-2.06-2-4.25-3.29-6.22a16.77,16.77,0,0,0-9.47-6.94c-7.83-2.49-15.63-5.08-23.44-7.64a12,12,0,0,1-1.34-.52c-2.63-1.23-3.65-3.41-2.76-5.83.64-1.74,3.66-2.87,5.91-2.16,2.89.91,5.77,1.86,8.65,2.83,7.18,2.44,14.34,4.92,21.53,7.32,3.06,1,6.24.65,9.39.62,2.63,0,5.28,0,7.9.15a8,8,0,0,1,7.07,6.37c.85,5.08,1.45,10.2,2.23,15.29a16.33,16.33,0,0,0,1.1,4,74.23,74.23,0,0,1,5.84,23.85C178.05,165.65,178.22,168.68,178.44,171.83ZM153.59,128.6c.87,1.08,1.63,2.05,2.41,3a1.56,1.56,0,0,1,.05,2.19,35.33,35.33,0,0,1-2.74,2.37c-.09-.09,0,.06.12.12q1.47.78,3,1.53c5.35,2.66,9.69,6.35,11.41,12.26a67.24,67.24,0,0,1,1.56,9.31c.54,3.79,1,7.59,1.48,11.41h6.55c-.27-3.31-.47-6.53-.81-9.74A71.28,71.28,0,0,0,171,139.21a14.62,14.62,0,0,1-1.12-3.88c-.56-3.87-.94-7.77-1.49-11.65-.25-1.83-.72-3.63-1.13-5.62-.7.47-1.17.77-1.62,1.08a6.37,6.37,0,0,1-1.38.94,3.78,3.78,0,0,1-2.13.33,2.71,2.71,0,0,1-1.72-3.46c.83-1.79,2.16-2.26,3.88-1.38a4,4,0,0,0,.49.15l.14-.33a9.67,9.67,0,0,0-2.68-1.1c-2.78-.23-5.57-.3-8.36-.31-3.39,0-6.81.42-10.11-.69-4.88-1.63-9.74-3.33-14.61-5-5.11-1.72-10.22-3.44-15.34-5.12-2.7-.89-5.13.83-4.8,3.19a12.92,12.92,0,0,1,1.37-2.06c1.24-1.3,2-1.35,3.22-.39,1.46,1.2,1.65,2.11.68,3.6-.46.73-1,1.42-1.53,2.2.41.17.69.31,1,.4,7.44,2.42,14.86,4.86,22.31,7.25a18.54,18.54,0,0,1,8,4.83,27.84,27.84,0,0,1,5.39,9c.29.69.67,1.34.91,1.83Zm0,1.77a12.12,12.12,0,0,0-1.53,2,1.66,1.66,0,0,0,.16,1.45c.31.4,1,.86,1.41.77a1.75,1.75,0,0,0,1-3C154.34,131.2,154,130.84,153.62,130.37Zm12.12-12.57a11.34,11.34,0,0,0-2.4-1.49,2.13,2.13,0,0,0-1.59.56,1.07,1.07,0,0,0-.15,1.75c.46.39,1.21.93,1.62.79A12.45,12.45,0,0,0,165.74,117.8Zm-53.47-9.21a23.34,23.34,0,0,0,1.33-1.94c.16-.3.25-.88.08-1.07-.42-.48-1.14-1.21-1.51-1.1a3.66,3.66,0,0,0-1.69,1.53c-.15.24.3.95.59,1.36A10.41,10.41,0,0,0,112.27,108.59Z"/><path d="M97.84,180.34l-5.7-.35c.36-2.71.69-5.34,1.06-8q2-14.35,4-28.72c.34-2.41.69-4.82,1-7.23a5.51,5.51,0,0,0-2.86-6c-3.28-1.84-3.93-4.52-3.6-8.09.61-6.68,3.7-12.42,6.32-18.35,1.94-4.38,3.92-8.75,6.15-13,.72-1.37,2.29-2.29,3.5-3.43,3.16,4,2.34,10.83-.74,13.33-4.2,3.41-2.75,8.73.31,11.4a22.21,22.21,0,0,0,4.41,2.59,1.17,1.17,0,0,1,.75,1.56q-7.17,31.52-14.29,63.05C98.06,179.51,98,179.86,97.84,180.34ZM93.31,179a16.88,16.88,0,0,1,2.35.2c1.14.26,1.5-.23,1.73-1.26q6.69-29.74,13.43-59.46c.62-2.74.61-2.74-1.83-4-.18-.09-.36-.18-.53-.28-5.69-3.31-6.82-10.85-2.19-14.52,3-2.34,3.29-7.88,1.18-10.67a4.92,4.92,0,0,0-2.5,2.23c-2.25,5-4.63,9.91-6.89,14.88-2.37,5.24-4.84,10.4-5.35,16.3-.26,3,.41,5.17,3.11,6.73a6.66,6.66,0,0,1,3.36,7.33c-.47,3-.87,6-1.28,9q-1.77,12.7-3.52,25.4C94,173.58,93.67,176.27,93.31,179Z"/><path d="M89.26,178.72c1.1-15.18,2.19-30.31,3.3-45.54l2.09-.17a24,24,0,0,1,.54,9.67c-1.24,9.5-2.35,19-3.56,28.53-.3,2.33-.79,4.64-1.17,7C90.34,178.93,90,179.16,89.26,178.72Zm2.29-17.49.34.05c.88-7.47,1.82-14.94,2.59-22.43a21.11,21.11,0,0,0-.54-4.63l-.43,0Z"/><path d="M150.34,110.29a11.5,11.5,0,0,1-6.63-1c-9.78-4.6-19.6-9.12-29.36-13.77A18.48,18.48,0,0,1,111,92.82l.25-.37L118,95.16l30.87,12.4C150.75,108.29,150.75,108.29,150.34,110.29ZM122.18,98l-.09.21c1.67.81,3.33,1.65,5,2.42q9.15,4.15,18.31,8.28a4.76,4.76,0,0,0,4.06,0Z"/><path d="M185.86,175.11c1.16,5.47,2.3,10.81,3.5,16.44-2.55.07-5,.26-7.38.17a21.47,21.47,0,0,1-14.64-5.94,12.52,12.52,0,0,1-1.74-2,5.37,5.37,0,0,1,3.73-8.54,36.47,36.47,0,0,1,5-.15C178.14,175.1,181.94,175.11,185.86,175.11Zm2.09,15.4a1.6,1.6,0,0,0,0-.41c-.93-4.41-1.87-8.82-2.78-13.24-.14-.71-.58-.72-1.13-.71H177c-2.31,0-4.63-.05-6.94,0a4.39,4.39,0,0,0-4.27,3.24c-.61,2,.26,3.5,1.56,4.86C173,190.25,180.19,191.34,188,190.51Z"/><path d="M156.46,144l2-.7c1.18,3.34,2.35,6.6,3.49,9.87,1.71,4.89,3.31,9.82,5.15,14.66.75,2,.75,3.6-.67,5.18a6.15,6.15,0,0,1-2.86-4c-2.22-8-4.56-16-6.85-24C156.61,144.72,156.55,144.41,156.46,144Zm1.83,2-.13,0a1.68,1.68,0,0,0,0,.45q3.34,11.72,6.73,23.43a6.84,6.84,0,0,0,1,1.6l.5-.14a7,7,0,0,0,0-2c-1-3-2-6-3-8.93C161.69,155.57,160,150.78,158.29,146Z"/><path d="M89.71,195.36c1.45,7.77,4.38,11.29,12.08,12.08C98.9,210,94.3,209.83,91,207.1a13.73,13.73,0,0,1-1.52-1.53C86.68,202.3,86.73,198.77,89.71,195.36Zm8.44,12.57c-5-1.38-7.63-5-8.91-10a5.3,5.3,0,0,0-.58,4.15A8.64,8.64,0,0,0,98.15,207.93Z"/><path d="M261.77,138.16h-1.51q-9.7,0-19.42.09a19.6,19.6,0,0,0-2,.16,6.23,6.23,0,0,0-5.5,4.2c-1.13,2.85-2.16,5.75-3.17,8.65-1.74,5-3.41,10.05-5.12,15.08-1.26,3.7-3.53,5.33-7.45,5.33l-22.79,0h-.95c-1-2.43-.68-4.93-.71-7.38a301.94,301.94,0,0,1,1.27-33.76c1.13-11.14,2.82-22.19,6.19-32.91a46.19,46.19,0,0,1,7.59-14.86,17.72,17.72,0,0,1,14.13-7.14c8.9-.23,17.8-.78,26.7-1,7.77-.17,12.5,4.52,12.63,12.34q.22,13.78.24,27.58c0,7.44-.06,14.87-.1,22.31C261.76,137.23,261.77,137.63,261.77,138.16Zm-1.06-1c0-.53.05-.93.05-1.32,0-5.91.06-11.83,0-17.75q-.06-15.47-.2-30.93C260.53,80,256.18,75.34,249,75.61c-8.75.33-17.48.78-26.23,1a17.3,17.3,0,0,0-14.35,7.56,45.63,45.63,0,0,0-6.61,13.1,154.12,154.12,0,0,0-6.65,37.05c-.67,9.83-.73,19.71-1,29.58-.05,1.86.14,3.74.22,5.61,0,.88.41,1.19,1.35,1.19,7.24,0,14.47,0,21.71,0,3.67,0,5.5-1.32,6.68-4.82.82-2.45,1.61-4.93,2.47-7.38,1.88-5.34,3.75-10.69,5.7-16a7.38,7.38,0,0,1,7.33-5.16c6.55-.11,13.11-.13,19.66-.18Z"/><path d="M277.23,165.63a5.55,5.55,0,0,1-5.1,2.32c-5.19-.12-10.38,0-15.56-.17-1.14,0-2.25-.8-3.37-1.23,1.55-2.5,3.85-2.31,6.06-2.31,4.91,0,9.82,0,14.73.13C275.05,164.41,276.09,165.17,277.23,165.63Zm-1.87.62-.05-.5a6,6,0,0,0-1.43-.38c-5.76,0-11.51,0-17.26,0a5,5,0,0,0-1.6.62l.08.43a7.42,7.42,0,0,0,1.56.39c5.63,0,11.26.05,16.89,0A6,6,0,0,0,275.36,166.25Z"/><path d="M253.6,170.91h1.49c5.71,0,11.43.08,17.14,0,1.9,0,3.57.25,4.79,1.85a4.15,4.15,0,0,1-3.74,1.74c-5.68-.1-11.35-.07-17,0a2.71,2.71,0,0,1-2.59-1.36C253.36,172.59,253.6,171.74,253.6,170.91Zm1,1c0,1.17.63,1.51,1.47,1.51,6,0,12.06,0,18.09,0a4.56,4.56,0,0,0,1.33-.42v-.55a13.62,13.62,0,0,0-2.33-.43c-5.23-.06-10.46-.07-15.69-.1Z"/><path d="M253.07,160.17a3.42,3.42,0,0,1,2.71-1.71,98.71,98.71,0,0,1,10-1,67.16,67.16,0,0,1,8.93.71,10.08,10.08,0,0,1,2.39.9l0,.42a9.92,9.92,0,0,1-2.11.9,59.75,59.75,0,0,1-20.62.16C254,160.51,253.58,160.33,253.07,160.17Zm21.54-.84a43.93,43.93,0,0,0-18.89.34A54.73,54.73,0,0,0,274.61,159.33Z"/><path d="M225.49,206.3c12.47,0,24.95,0,37.42,0a13.87,13.87,0,0,1,4.35.67c3.2,1.09,4.67,3.87,4.36,7.8a6.79,6.79,0,0,1-5.69,6,14.83,14.83,0,0,1-3,.28q-18.4,0-36.82,0-18.84,0-37.66-.14a17.89,17.89,0,0,1-4.61-.6c-3.07-.85-4.66-3.09-4.82-6.39a6.58,6.58,0,0,1,4.23-6.73,15.23,15.23,0,0,1,4.91-.86C200.62,206.27,213.05,206.3,225.49,206.3Zm0,1q-18.58,0-37.17,0a14.6,14.6,0,0,0-3.9.51,5.65,5.65,0,0,0-4.33,6,5.5,5.5,0,0,0,4.57,5.64,10,10,0,0,0,2.36.34c13.43.08,26.85.17,40.28.2,11.79,0,23.59,0,35.38,0a15.75,15.75,0,0,0,2.74-.23,5.85,5.85,0,0,0,5.21-5.91c0-3.54-1.68-5.68-5.1-6.31a17.17,17.17,0,0,0-2.86-.25Z"/><path d="M96.71,129l-2.59-2.71a1.65,1.65,0,0,1-.2-2.28c1.69-2.4,3-2.61,4.65-.78a2,2,0,0,1,.26,2.62C98.18,126.88,97.46,127.88,96.71,129Zm-.12-1.68a10.52,10.52,0,0,0,1.33-2.06,1.88,1.88,0,0,0-.38-1.51,1.6,1.6,0,0,0-1.36-.51c-1.58.6-1.79,1.83-.62,3Z"/><path d="M178.93,181.42c-1.28.87-2.41,1.67-3.58,2.43a2.13,2.13,0,0,1-3-.28c-2-1.79-1.86-3.67.36-5a2.2,2.2,0,0,1,2.67.12C176.54,179.52,177.69,180.45,178.93,181.42Zm-1.8-.06c-.83-.66-1.53-1.25-2.27-1.78-.92-.65-1.57-.45-2.55.6-.85.9-.13,1.54.34,2.17s1.19,1.34,2.19.6C175.54,182.42,176.27,182,177.13,181.36Z"/><path d="M183.16,214c.94-1.15,1.73-2.21,2.62-3.16a2.34,2.34,0,0,1,3.24-.47,8.29,8.29,0,0,1,2.58,1.89,2.7,2.7,0,0,1,.16,2.44,8.36,8.36,0,0,1-2.41,2.1,2.4,2.4,0,0,1-3.45-.22C185,215.75,184.1,214.89,183.16,214Zm1.59-.22c2.34,3.19,3.07,3.27,5.77.68l.09-.07c.64-.65.61-1.19-.14-1.76-3-2.3-3.26-2.27-5.48.8C184.92,213.53,184.86,213.63,184.75,213.78Z"/><path d="M267.06,213.58a5,5,0,0,1-3.07,3.53c-1.28.64-2.2,0-3.05-.86-1.73-1.77-1.8-3.1-.26-5,.32-.41.66-.8,1-1.2a2.05,2.05,0,0,1,3.49.13c.6.88,1.15,1.8,1.7,2.72A2.79,2.79,0,0,1,267.06,213.58Zm-3.5-3.4c-.36.06-.65,0-.74.14a19.66,19.66,0,0,0-2.17,3.1c-.42.9,1.51,3,2.49,2.88a2.78,2.78,0,0,0,2.05-4.36,14.37,14.37,0,0,0-.92-1.25A3.42,3.42,0,0,0,263.56,210.18Z"/><path d="M225.55,209.58c1.22.86,2.24,1.66,3.34,2.32a2.18,2.18,0,0,1,1,2.65c0,.15,0,.39-.1.45-1.39.83-2.71,2.06-4.21,2.34-1.82.34-2.82-1.38-3.6-2.84-.63-1.2-.44-2,.77-3.06A27.74,27.74,0,0,1,225.55,209.58Zm3.43,4.34c-.07-.32-.06-.59-.18-.69a20.65,20.65,0,0,0-3-2.15c-.88-.46-3.44,1.52-3.06,2.34A7.75,7.75,0,0,0,225,216.2c.35.27,1.41-.27,2.09-.57a5.26,5.26,0,0,0,1.36-1A3.56,3.56,0,0,0,229,213.92Z"/></g></svg>