<svg xmlns="http://www.w3.org/2000/svg" viewBox="0 0 368.61 355.7"><g id="OBJECTS"><path d="M314.06,218.9a15.32,15.32,0,0,1-2.93-6c-2.92-12.58-11.78-18.75-23-20.17-11.47-1.46-20.84,5.24-25.19,15.16q-2.08,4.77-4.09,9.57a1.37,1.37,0,0,1-1.5,1q-27.11,0-54.21,0c-.32,0-.63,0-1-.05-.59-2.41-1-4.86-1.8-7.19C197,201.33,190.46,194.84,180,193a25.29,25.29,0,0,0-27.68,14.73c-.9,2-1.35,4.16-2.11,6.21a14.3,14.3,0,0,1-1.62,3.25,3.61,3.61,0,0,0-.79,2.28c0,6.8,0,13.6,0,20.39v1.38H.13c-.27-.64-.15-1,.62-1h146.1v-1.36c0-6.59,0-13.19,0-19.79a4,4,0,0,0-.27-1.74,8.29,8.29,0,0,1-.4-5.84,30.35,30.35,0,0,1,26-23.16,31,31,0,0,1,17.24,2.93,20.21,20.21,0,0,0,8.91,2c13.91,0,27.83.11,41.74.12,7.95,0,15.91-.07,23.86-.12a20.38,20.38,0,0,0,8.74-2.21,30.44,30.44,0,0,1,42.39,18.93,43.91,43.91,0,0,1,1,7.08,1.21,1.21,0,0,1-.48.93A10.49,10.49,0,0,1,314.06,218.9Zm-166.49-2.09c.31-.34.65-.56.76-.87.51-1.4,1-2.82,1.42-4.26a27.14,27.14,0,0,1,23.95-20.07c10.22-.93,20.47,4.68,25.64,14.38a39.59,39.59,0,0,1,3.34,10.45c.17.78.46,1,1.25,1q26.38,0,52.77,0a1.31,1.31,0,0,0,1.43-.92c1.33-3.2,2.66-6.41,4.09-9.57,4.41-9.7,13.92-16.83,26.58-15.25,12.16,1.52,21.26,9.8,23.62,21.83a14.86,14.86,0,0,0,1.65,3.53c.09.16.46.35.55.3a1.23,1.23,0,0,0,.42-.62,2.63,2.63,0,0,0,0-.84,27,27,0,0,0-8.92-18.65c-9.41-8.75-22.14-10.52-33.69-4.9a19.55,19.55,0,0,1-8.55,2q-12.84.06-25.66.08c-13.07,0-26.15-.06-39.22-.07a23.79,23.79,0,0,1-10.42-2.3A29.47,29.47,0,0,0,147,212.84,5.32,5.32,0,0,0,147.57,216.81Z"/><path d="M152.17,128.1c-2.15.66-3.72-.44-5.34-1.52-8.12-5.39-16.26-10.74-24.39-16.12-.23-.15-.43-.32-.69-.52l1.31-3.16c-.16-.13-.22-.23-.28-.22-2.61.25-4.65-1-6.71-2.39C109.74,100,103.35,95.9,97,91.7a17.53,17.53,0,0,0-6.61-2.6,17.87,17.87,0,0,1-9.87-5.73,9.42,9.42,0,0,1-2.28-5.19,4.72,4.72,0,0,1,1.62-4.53,14.83,14.83,0,0,1,2.82-2,5.27,5.27,0,0,1,7.53,4,4.09,4.09,0,0,1,.07.6c-.15,4.46,2.35,7.15,5.89,9.4C104.52,91,112.75,96.42,121,101.9a10.57,10.57,0,0,1,2.49,2.85c.45.63.85.91,1.56.53,1.71-.94,3.16-.56,4.76.5,8.81,5.87,17.69,11.63,26.54,17.42.3.2.58.41.93.67l-.58,1.08a4.28,4.28,0,0,0,.74-.39,3.89,3.89,0,0,1,5.27-.25,11.84,11.84,0,0,0,1.29.63c2.68,1.37,3.45,2.79,3.19,5.8-.21,2.42-.49,4.85-.6,7.28a6.65,6.65,0,0,0,4.35,7,3.46,3.46,0,0,1,2.11,3.36c.08,9.43.09,18.86.11,28.3a3,3,0,0,1-.14.59L65,91.16l8.42-11.4L150,130.91l2.19-2.49Zm-2,4.18L73.68,81.18,66.45,91,171.91,175.1a2.74,2.74,0,0,0,.16-.48c0-8.68,0-17.35-.06-26a2.92,2.92,0,0,0-1.89-2.8,7.08,7.08,0,0,1-4.47-5.66,14,14,0,0,1-.09-3.1c.14-2.24.38-4.46.57-6.69A3.92,3.92,0,0,0,163.7,126c-1-.44-1.93-1-2.94-1.34a2.15,2.15,0,0,0-1.52.07,20.74,20.74,0,0,0-8,6.36A14,14,0,0,1,150.21,132.28Zm-27.35-26.94a17.32,17.32,0,0,0-2.56-2.62c-8.41-5.59-16.88-11.1-25.32-16.64a21.3,21.3,0,0,1-2.4-1.78,9.84,9.84,0,0,1-3.28-7.56c-.1-3.87-3.68-5.8-6.94-3.74-1.75,1.11-3.54,2.43-3,4.83a11.21,11.21,0,0,0,1.94,4.67,15.84,15.84,0,0,0,9.49,5.62,17.62,17.62,0,0,1,6.63,2.56c7.13,4.7,14.32,9.32,21.46,14A5.54,5.54,0,0,0,122.86,105.34Zm32.87,18.89a2.33,2.33,0,0,0-.26-.31q-13.72-9-27.46-17.94a2.46,2.46,0,0,0-1.44-.15c-2.19.24-3,1.86-3.48,3.81l2.14,1.43q11.69,7.71,23.39,15.4a4.47,4.47,0,0,0,6.17-1C155.1,125.05,155.42,124.65,155.73,124.23Z"/><path d="M237.81,150.75h1.6q29.43,0,58.87,0a23.9,23.9,0,0,1,4.06.31c4.84.83,7.57,3.39,7.93,8.63a120.69,120.69,0,0,1-.11,17.22c-.37,4.87-3.68,7.73-8.61,8.09-3.7.28-7.42.26-11.13.27q-33.53,0-67,0-18.3,0-36.58-.06a26.11,26.11,0,0,1-4.75-.48c-4.64-.92-7.37-4-7.57-9q-.39-10.37-.19-20.73a101.26,101.26,0,0,1,1.14-13.58,29.85,29.85,0,0,1,24.84-24.93,47.77,47.77,0,0,1,7.27-.62q9.34-.13,18.7,0a17.64,17.64,0,0,1,5.06.73c4.11,1.31,6.44,5,6.46,9.77q0,11.46,0,22.91Zm-1,1v-1.48c0-7.84,0-15.67,0-23.51,0-6.13-3.38-9.68-9.51-9.81-6.55-.14-13.11-.1-19.66,0a46.75,46.75,0,0,0-6.68.53,29,29,0,0,0-24.53,24.49,102.74,102.74,0,0,0-1,13c-.15,6.79-.15,13.59.1,20.37.19,5.27,2.67,7.76,7.89,8.63a20.94,20.94,0,0,0,3.45.27q18.48.08,36.94.09,33.28,0,66.57,0c3.51,0,7,0,10.54-.21,4.9-.24,7.95-2.9,8.37-7.71.37-4.21.27-8.46.26-12.7a28.21,28.21,0,0,0-.53-5.58,6.92,6.92,0,0,0-5.52-5.67,24.58,24.58,0,0,0-5.33-.64q-29.81-.06-59.61,0Z"/><path d="M297.64,148.88H331v75.27h37.4l.21.35a9.45,9.45,0,0,1-.77.65c-.12.07-.32,0-.48,0H331.15c-.32,0-.63,0-1.1,0V149.92H298.17c-14.27,0-28.54,0-42.8,0a2.48,2.48,0,0,1-2.77-1.76,18.54,18.54,0,0,1,2.73-2.44,5.92,5.92,0,0,1,3-.91q17-.1,34.05,0a5.74,5.74,0,0,1,2.54.86,11.28,11.28,0,0,1,2.12,1.74,5,5,0,0,1,.72,1.12Zm-43.7-.46.12.35c.44,0,.89.1,1.34.1h38.15a15.4,15.4,0,0,0,2.15-.07c.19,0,.47-.68.44-.71-1.21-1-2.2-2.28-4.05-2.27-8.39,0-16.78-.08-25.18-.09-3,0-6.07.09-9.11.14C255.91,145.9,255.1,147.39,253.94,148.42Z"/><path d="M77.18,174.36l3.74,1c-.23-11.65-2.58-23-2.43-34.62l2.89-.36c.39,2.36.9,4.65,1.11,7q1.17,12.78,2.17,25.55a6.68,6.68,0,0,0,4.56,6.25q10.35,4.09,20.64,8.32c5.8,2.38,11.55,4.86,17.33,7.27a23.53,23.53,0,0,0,2.81,1,4.94,4.94,0,0,0,4.76-.81,3.62,3.62,0,0,1,3-.81,17.28,17.28,0,0,0,2.09,0l-3.49,3c-8.76,7.37-18.16,13.71-28.92,17.83a22.07,22.07,0,0,1-10.8,1.59,12.6,12.6,0,0,1-11.21-11.2,69.71,69.71,0,0,1-.61-14.93c.3-4.29-1.22-6.77-5.15-8.7C76.44,180.13,75.5,177.42,77.18,174.36Zm59.73,21-.13-.23c-.24.06-.56,0-.73.19-2.68,2.33-5.55,1.92-8.53.7q-19.47-8-39-16a7.21,7.21,0,0,1-4.85-6.51c-.53-6.49-1-13-1.65-19.46-.36-3.85-.9-7.69-1.4-11.52,0-.32-.44-.6-.67-.9-.17.34-.5.68-.48,1,.14,3.23.26,6.47.54,9.69.53,6.17,1.2,12.32,1.72,18.49.16,1.92,0,3.87,0,5.89l-4-1c-.88,2.39-.18,4,2.39,5.17,4.2,1.88,6,5.19,5.65,9.6a72.08,72.08,0,0,0,.55,14.46c.71,5.62,4.57,9.86,9.94,10.63A21.14,21.14,0,0,0,107,214a93.29,93.29,0,0,0,23.85-13.81C132.91,198.61,134.9,197,136.91,195.34Z"/><path d="M82.22,106.13c3.41,2.76,6.9,5.44,10.2,8.34A5.53,5.53,0,0,1,94,117.81c1.43,14.51,2.75,29,4.09,43.54.57,6.21,1.15,12.41,1.66,18.62a9.25,9.25,0,0,1-.6,2.55c-2.9-1.25-5.58-2.29-8.15-3.54a4.73,4.73,0,0,1-2.67-4Q86.17,153.88,84,132.78c-.81-7.79-1.62-15.57-2.37-23.37a16.88,16.88,0,0,1,.26-3.15Zm16.49,75.06c0-.66,0-1,0-1.41q-.84-9.42-1.71-18.85-2-21.35-3.9-42.69a4.73,4.73,0,0,0-1.82-3.5c-2.61-2-5.19-4.13-7.78-6.2-.23-.18-.5-.32-.87-.56,0,.78-.05,1.41,0,2q1.5,14.6,3,29.19c1.22,11.79,2.47,23.58,3.67,35.38a4.37,4.37,0,0,0,2.69,3.8C94.12,179.31,96.26,180.16,98.71,181.19Z"/><path d="M175.48,241.31c-13.18,0-22.52-9.41-22.65-22.71-.15-15.14,11.48-23,22.77-23.07s22.89,7.3,23,23.13C198.6,232,189.13,241.28,175.48,241.31Zm22-22.7c-.06-14-9.83-21.13-21.9-22.28-10.84,1.11-21.72,7.54-21.75,21.95,0,13,8.9,22,21.61,22C188.57,240.25,197.52,231.46,197.51,218.61Z"/><path d="M286.15,241.31c-13.79-.08-23-9.33-23-22.93,0-13.42,9.46-23.3,23.84-22.78,13.64.51,21.13,10.58,22.14,22.91C308.09,230.12,301,241.31,286.15,241.31Zm0-1c13.75,0,20.81-10.11,21.95-21.72-1-11.63-7.91-21.73-21.64-21.91-13.34-.17-22.22,8.61-22.29,21.77C264.09,231.36,273,240.22,286.14,240.27Z"/><path d="M199.45,186.43h63.14v5.79H199.45Zm1,1v3.74h61.13v-3.74Z"/><path d="M83.1,139.67l-6.19.43c-.28-3-.55-5.83-.82-8.69q-1.17-12.7-2.33-25.41c-.1-1.08-.21-2.15-.29-3.23-.17-2.15-.16-2.15,2-2.92l3.45,4.7a9.44,9.44,0,0,1,1.37,4.9q1.14,11.92,2.22,23.86C82.75,135.38,82.91,137.45,83.1,139.67Zm-1-1c-.93-9.74-2-19.34-2.7-29-.26-3.34-2-5.72-3.9-8.12-.14-.18-.54-.39-.62-.33a1.52,1.52,0,0,0-.43.71,1.55,1.55,0,0,0,0,.6l2.58,28.13c.25,2.73.52,5.46.78,8.3Z"/><path d="M206.11,205.87c0-3,1.32-4,4.24-3.64a30.43,30.43,0,0,0,3.82,0c1.29,0,2.62-.13,3.34,1.27a3.68,3.68,0,0,1-1,4.13c-1,.92-2.2,1.73-3.33,2.55a1.06,1.06,0,0,1-.75.08c-1.14-.22-2.26-.5-3.39-.73C206.91,209.11,206.07,208.06,206.11,205.87Zm3.27-2.62,0-.2c-.5.18-1.17.23-1.49.58a3.68,3.68,0,0,0-.57,3.39c.2,1,1,1.29,1.81,1.49,1,.24,2.11.42,3.16.61.19,0,.45.09.56,0a23.72,23.72,0,0,0,3.48-2.87,2.79,2.79,0,0,0,.18-2.32c-.13-.38-1.12-.62-1.74-.65C212.94,203.2,211.16,203.25,209.38,203.25Z"/><path d="M91.37,98.45c-1.16.85-2.19,1.67-3.28,2.39-1.31.88-2.38.57-3.59-.9-1-1.26-1-2.28,0-3.41,1.48-1.66,2.76-1.75,4.39-.31C89.67,96.93,90.47,97.64,91.37,98.45Zm-1.71-.1a12.4,12.4,0,0,0-2.14-1.8,1.87,1.87,0,0,0-1.66.23c-.49.38-1.08,1.17-1,1.66a1.88,1.88,0,0,0,3.2,1.15C88.59,99.21,89.08,98.81,89.66,98.35Z"/><path d="M178.8,157.59c-.14-5.71-.54-11.47.81-17.06,2.26-9.42,8.39-15.46,17.34-18.75a32.18,32.18,0,0,1,15.24-1.48c.6.07.91.22.93.93.12,6.19.33,12.37.41,18.55a41.31,41.31,0,0,1-4.78,19.57c-1.93,3.77-3.89,7.52-5.92,11.22-1.34,2.43-3.82,3.21-6.29,3.39a122.37,122.37,0,0,1-12.56.19c-3.39-.12-5.14-2.22-5.18-5.66C178.77,164.85,178.8,161.22,178.8,157.59ZM212,121.38a29.83,29.83,0,0,0-15.75,1.77c-9.17,3.79-14.94,10.44-16.14,20.44-1,8.54-.53,17.15-.21,25.73a3.69,3.69,0,0,0,3.89,3.76c3.43.16,6.87.19,10.3.14a17.74,17.74,0,0,0,4-.64,6.27,6.27,0,0,0,4.39-3.53c1.39-2.92,3-5.71,4.53-8.58,2.61-5.07,4.82-10.31,5.16-16.07.27-4.62.17-9.25.14-13.88C212.33,127.49,212.15,124.47,212,121.38Z"/><path d="M230,149.49H215.09V120.05c2.43-.09,4.85-.22,7.27-.26a15.74,15.74,0,0,1,2.74.22c2.74.45,4.11,1.75,4.5,4.52a42.12,42.12,0,0,1,.44,5.72c.05,6.11,0,12.23,0,18.34C230.05,148.86,230,149.14,230,149.49Zm-1.07-1c0-.41.07-.76.07-1.11,0-5.75,0-11.51,0-17.26a43.66,43.66,0,0,0-.37-5.24c-.34-2.51-1.46-3.66-4-3.86s-4.77-.07-7.16-.11c-1.08,0-1.47.4-1.47,1.56.06,8.23,0,16.46,0,24.68,0,.43,0,.86.06,1.34Z"/><path d="M268.14,170.83c0-.63.06-1.21.09-1.88H295v1.88Z"/><path d="M268.24,165.68c.05-.71.09-1.29.13-1.92h26.54v1.92Z"/><path d="M295.07,174v1.86H268.26c0-.6.08-1.21.13-1.86Z"/><path d="M268.41,160.52l-.15-1.77h26.55v1.77Z"/><path d="M189.67,218.46a14,14,0,1,1-28-.17c0-7.9,6.22-13.83,14.38-13.8A13.77,13.77,0,0,1,189.67,218.46Zm-1-.07a12.78,12.78,0,0,0-12.93-12.9,13,13,0,1,0,12.93,12.9Z"/><path d="M300,218.53a13.94,13.94,0,0,1-14.09,13.9,13.77,13.77,0,0,1-13.85-13.72c0-8.05,5.89-14.21,13.66-14.22A13.86,13.86,0,0,1,300,218.53Zm-14,12.86a13,13,0,1,0-.15-25.9,13,13,0,0,0,.15,25.9Z"/><path d="M175.57,225.16a6.76,6.76,0,1,1,.48-13.51,6.76,6.76,0,0,1-.48,13.51Zm0-1a5.76,5.76,0,0,0,.48-11.51,5.76,5.76,0,1,0-.48,11.51Z"/><path d="M286,225.16a6.77,6.77,0,1,1,.28-13.54,6.73,6.73,0,0,1,6.47,6.8A6.65,6.65,0,0,1,286,225.16Zm-.08-1a5.78,5.78,0,0,0,5.83-5.72,5.85,5.85,0,0,0-5.39-5.8,5.77,5.77,0,1,0-.44,11.52Z"/></g></svg>