<svg width="151" height="150" viewBox="0 0 151 150" fill="none" xmlns="http://www.w3.org/2000/svg">
<path d="M94.2838 56.5064C94.2838 63.315 88.7635 68.8358 81.9544 68.8358C75.1458 68.8358 69.625 63.3155 69.625 56.5064C69.625 49.6978 75.1453 44.1791 81.9544 44.1791C88.763 44.1791 94.2838 49.6973 94.2838 56.5064Z" fill="#1D1D35" fill-opacity="0.72"/>
<path d="M113.032 75.2576C113.032 82.0662 107.511 87.585 100.702 87.585C93.8938 87.585 88.375 82.0667 88.375 75.2576C88.375 68.447 93.8933 62.9282 100.702 62.9282C107.511 62.9282 113.032 68.4465 113.032 75.2576Z" fill="#1D1D35" fill-opacity="0.72"/>
<path d="M109.696 32.6215C109.696 39.4301 104.178 44.9509 97.3685 44.9509C90.5593 44.9509 85.0391 39.4306 85.0391 32.6215C85.0391 25.8129 90.5593 20.2921 97.3685 20.2921C104.178 20.2921 109.696 25.8124 109.696 32.6215Z" fill="#1D1D35" fill-opacity="0.72"/>
<path d="M135.893 58.8161C135.893 65.6247 130.373 71.1455 123.564 71.1455C116.755 71.1455 111.234 65.6252 111.234 58.8161C111.234 52.0075 116.755 46.4867 123.564 46.4867C130.373 46.4867 135.893 52.007 135.893 58.8161Z" fill="#1D1D35" fill-opacity="0.72"/>
<path d="M127.933 16.18C127.933 21.2884 123.792 25.4265 118.686 25.4265C113.578 25.4265 109.438 21.2883 109.438 16.18C109.438 11.0737 113.578 6.93347 118.686 6.93347C123.792 6.93347 127.933 11.0737 127.933 16.18Z" fill="#1D1D35" fill-opacity="0.72"/>
<path d="M143.856 32.1066C143.856 37.213 139.716 41.3532 134.61 41.3532C129.504 41.3532 125.363 37.2129 125.363 32.1066C125.363 26.9983 129.504 22.8601 134.61 22.8601C139.716 22.8601 143.856 26.9984 143.856 32.1066Z" fill="#1D1D35" fill-opacity="0.72"/>
<path d="M150.28 9.24654C150.28 14.3529 146.14 18.4931 141.032 18.4931C135.925 18.4931 131.785 14.3528 131.785 9.24654C131.785 4.14022 135.925 0 141.032 0C146.14 0 150.28 4.14027 150.28 9.24654Z" fill="#1D1D35" fill-opacity="0.72"/>
<path d="M123.05 36.4707C123.05 39.7347 120.405 42.3795 117.143 42.3795C113.879 42.3795 111.234 39.7348 111.234 36.4707C111.234 33.2087 113.879 30.564 117.143 30.564C120.405 30.564 123.05 33.2086 123.05 36.4707Z" fill="#1D1D35" fill-opacity="0.72"/>
<path d="M111.496 52.6522C111.496 57.1908 107.816 60.871 103.277 60.871C98.7388 60.871 95.0586 57.1907 95.0586 52.6522C95.0586 48.1117 98.7389 44.4335 103.277 44.4335C107.816 44.4335 111.496 48.1117 111.496 52.6522Z" fill="#1D1D35" fill-opacity="0.72"/>
<path d="M49.5923 115.839C61.4078 104.537 73.7366 91.6945 86.321 77.3121C85.0365 76.5414 84.0088 75.7707 83.2381 74.4862C71.6796 87.8429 60.378 99.9153 49.3333 110.703C50.6178 106.85 51.6454 101.713 51.9023 96.0616C52.1592 88.3568 50.6179 81.1633 47.2782 74.7431C43.1678 66.7813 36.4904 59.8448 27.2439 54.195L25.1887 52.9105L24.1611 54.9657C24.1611 55.2226 21.0783 61.1294 19.2801 69.6071C17.9956 74.4882 17.4818 79.3675 17.4818 83.7346C17.4818 89.3844 18.5094 94.5223 20.3077 99.1464C23.9043 107.879 30.5815 114.558 40.3419 118.924C35.204 123.548 30.0681 127.913 25.1866 131.766C25.1866 130.996 25.7004 125.346 23.3884 119.437C21.0763 113.53 15.6835 106.08 2.84022 104.025L0.5281 103.768L0.0202752 106.078C0.0202752 106.592 -0.750408 120.206 7.21124 128.168C10.8078 131.764 15.6869 133.561 21.5957 133.561H22.3664C16.2027 138.442 10.037 142.807 4.13027 146.403L6.44238 150C18.5148 142.552 31.1007 132.535 44.4553 120.462H44.7122L44.9691 119.949C61.9205 157.961 106.871 134.076 106.871 134.076C87.6076 105.05 60.8937 111.471 49.5931 115.838L49.5923 115.839ZM39.5754 111.985C39.5754 111.729 39.3185 111.729 39.3185 111.472C38.8047 110.701 38.2909 109.93 38.034 109.16C37.5202 108.389 37.2633 107.618 36.7495 106.847C36.4926 106.334 36.4926 106.077 36.2357 105.563C35.9788 105.049 35.9788 104.792 35.7219 104.278C35.465 103.508 35.2081 102.737 34.9513 101.709C34.4375 100.168 34.1806 98.3697 33.6668 96.8283C33.153 95.287 32.8961 93.4886 32.3823 91.9473L31.3547 86.8093C30.8409 83.4696 30.3271 80.1317 30.0702 76.7924H30.584C30.8409 77.5631 31.0978 78.3338 31.3547 79.3615C31.6116 80.1322 31.8685 80.9028 32.1254 81.6736L32.8961 83.9857C33.153 84.7564 33.4099 85.5271 33.6668 86.2978L35.2082 90.922C35.4651 91.6927 35.7219 92.4634 35.9788 93.2341C36.2357 93.7479 36.2357 94.0048 36.4926 94.5186L37.0064 95.8031C37.2633 96.5738 37.5202 97.3445 38.034 98.1152L39.0616 100.427C39.3185 101.198 39.8323 101.969 40.0892 102.739C40.3461 103.253 40.3461 103.51 40.603 104.024C40.8599 104.538 40.8599 104.795 41.1168 105.308C41.3737 106.079 41.6306 106.85 41.8875 107.621C42.1444 108.391 42.4013 109.162 42.6581 109.933C42.6581 110.446 42.9151 110.703 42.9151 111.217C42.9151 111.731 43.1719 111.988 43.1719 112.502C43.4289 113.272 43.4289 114.3 43.6857 115.071L43.4288 115.328C42.6581 114.814 42.1444 114.043 41.6306 113.272C41.3737 113.015 41.1168 112.502 40.8599 112.245C39.8323 112.243 39.5754 112.242 39.5754 111.985ZM89.1469 131.249C85.8072 131.249 82.4693 130.735 78.873 130.221L76.304 129.964L73.735 129.451C71.9367 129.194 70.3953 128.68 68.5971 128.423C67.0557 128.166 65.2574 127.652 63.4592 127.395C62.6885 127.138 61.9178 126.882 60.8902 126.625C60.3764 126.368 60.1195 126.368 59.6057 126.111C59.0919 125.854 58.835 125.854 58.3212 125.597C57.5505 125.34 56.7798 124.826 56.0091 124.57C55.2384 124.056 54.4677 123.799 53.6969 123.285C53.44 123.285 53.4401 123.028 53.1832 123.028C52.9263 123.028 52.9263 122.771 52.6694 122.771C52.4125 122.514 51.8987 122.257 51.6418 122.001C50.8711 121.487 50.3573 120.973 49.5866 120.202L49.8435 119.945C50.8711 119.945 51.6418 120.202 52.4125 120.202C52.9263 120.202 53.1832 120.459 53.697 120.459C54.2108 120.459 54.4677 120.716 54.9815 120.716C55.7522 120.973 56.5229 121.23 57.5505 121.23C58.3212 121.487 59.0919 121.744 59.8626 122.001C60.3764 122.001 60.6333 122.257 61.1471 122.257C61.6609 122.257 61.9178 122.514 62.4316 122.771C63.2023 123.028 63.973 123.285 64.7437 123.799L67.0558 124.826C67.8265 125.083 68.5972 125.34 69.3679 125.597L70.6524 126.111C71.1662 126.368 71.4231 126.368 71.9369 126.625C72.7076 126.882 73.4783 127.139 74.249 127.395L78.8732 128.937C79.6439 129.194 80.4146 129.451 81.1853 129.707L83.4974 130.478C84.2681 130.735 85.0388 130.992 86.0665 130.992C86.8372 131.249 87.6078 131.506 88.6355 131.506L89.1469 131.249Z" fill="#1D1D35" fill-opacity="0.72"/>
</svg>
