<svg xmlns="http://www.w3.org/2000/svg" viewBox="0 0 400 400"><defs><style>.cls-1{fill:#1d1d35;}</style></defs><g id="OBJECTS"><path class="cls-1" d="M92.75,180.48c11,0,21.9,0,32.85,0,8.58,0,14,5.05,15,13.49,1.18,9.24,2.69,18.45,4,27.68.41,2.93,1.67,4.44,4.84,5.08A250.89,250.89,0,0,0,251,226.64c2.43-.5,3.78-1.41,4.14-4.08,1.28-9.58,3-19.1,4.14-28.69,1-7.84,6.58-13.35,14.51-13.37q33.38-.08,66.74,0c8.64,0,14.89,5.77,14.71,14.42-.31,14.73-.76,29.48-1.93,44.17a460.88,460.88,0,0,1-10.78,68.86c-1.14,4.81-2.37,9.61-3.65,14.38-1.6,6-5.39,9.67-11.44,11.23a527.38,527.38,0,0,1-77.11,13.68,464.09,464.09,0,0,1-74.55,2.12,547.28,547.28,0,0,1-90.54-12.68c-4.16-.94-8.26-2.11-12.4-3.05-6.24-1.42-10.07-5.24-11.75-11.34A446.47,446.47,0,0,1,49.05,261a518.26,518.26,0,0,1-4.33-63.73c-.07-11,5.29-16.8,16.22-16.81Q76.84,180.45,92.75,180.48Z"/><path class="cls-1" d="M177.71,120c-2,3.45-4.05,6.85-5.88,10.38-4.83,9.25-15,13.95-24.67,11.28a21.09,21.09,0,0,1-15.72-22,19.09,19.09,0,0,1,1.84-7.3c11.86-23.33,27.79-43.08,50.63-56.6,6.44-3.81,13.34-7.4,20.88-4.85a74.36,74.36,0,0,1,17.77,9C242,73,256,91,266.5,111.73a21.24,21.24,0,0,1-9.81,28.54,21.46,21.46,0,0,1-28.34-9.72,69.06,69.06,0,0,0-6.76-10.61c-.07.94-.2,1.88-.2,2.82,0,15.79.08,31.58,0,47.36s-15.52,26.31-29.6,20.14c-9.16-4-13.13-11.5-13.17-21.23-.07-15.55,0-31.1,0-46.65v-2Z"/></g></svg>