<svg xmlns="http://www.w3.org/2000/svg" viewBox="0 0 400 400"><defs><style>.cls-1{fill:#1d1d35;}</style></defs><g id="OBJECTS"><path class="cls-1" d="M130.73,287.81c-3.82-2.1-7.16-3.77-10.35-5.7-22.12-13.42-33.71-33.22-35.25-58.92-1.37-22.73,4.36-44,13.61-64.54.3-.67.64-1.32,1-2,.09-.16.33-.24.72-.5,19.91,11.64,36.47,26.58,45.88,48.28s8.33,43.83,2.27,66.25c23.66-22.63,45.73-46.61,67.21-71.27l5.85,5.16c-23.07,26.43-47.16,51.74-72.35,76.37,47-16.12,85-4.8,113.89,36.92-4.75,2-9.06,4-13.48,5.62-14.55,5.49-29.53,9-45.16,8.94-29.4-.16-50.49-13.66-63.47-40-.4-.82-.81-1.64-1.35-2.72C127.21,300.31,115.1,311,102.41,321s-26,19.21-39.4,29c-1.84-2.83-3.23-4.95-4.51-6.93l35.56-25.18-.41-1c-3.05-.31-6.13-.46-9.15-1C67.79,313.16,58.26,302.49,53.24,287A69.42,69.42,0,0,1,50,262.66a44.5,44.5,0,0,1,.82-5.11c14.38,1.53,27.08,6.05,36.74,17s12.57,24.12,12.37,38.34l.78.38Zm-20-84.62-1,.2a19.09,19.09,0,0,0,0,2.27c.69,5.47,1,11,2.22,16.4q4.41,19.14,9.61,38.1c2.21,8,7.78,14,13.71,19.57a11.11,11.11,0,0,0,2.18.95c-1.08-4.87-1.57-9.22-3-13.21-3.13-8.49-7.06-16.68-10.14-25.19-4.36-12-8.26-24.24-12.37-36.36C111.57,205,111.12,204.09,110.73,203.19Zm38.49,86.19-.33.95c4.17,5.2,10.18,7.82,16.07,10.24a130.72,130.72,0,0,0,18.2,5.48c6.27,1.55,12.62,2.79,19,3.81,6.23,1,12.54,1.53,19.57,2.36-10.87-3.71-21-7-31-10.63-11.51-4.23-22.6-9.71-34.93-11.4C153.64,289.88,151.43,289.65,149.22,289.38Z"/><path class="cls-1" d="M268.7,115.2a24.36,24.36,0,1,1-48.71-.49c0-13.5,11-24.13,24.79-24A24,24,0,0,1,268.7,115.2Z"/><path class="cls-1" d="M251.31,176a24.26,24.26,0,0,1,24.18,24.38,24.51,24.51,0,0,1-24.67,24.32c-13.51-.07-24.13-11-24-24.81A23.92,23.92,0,0,1,251.31,176Z"/><path class="cls-1" d="M213.44,187.08A24.35,24.35,0,1,1,237.89,163,24.15,24.15,0,0,1,213.44,187.08Z"/><path class="cls-1" d="M296.86,191.68a24.09,24.09,0,0,1-24.37-24.13,24.39,24.39,0,0,1,24.24-24.7,24.72,24.72,0,0,1,24.51,24.27A24.39,24.39,0,0,1,296.86,191.68Z"/><path class="cls-1" d="M331.81,50a18.18,18.18,0,1,1-18.36,18.26A18.3,18.3,0,0,1,331.81,50Z"/><path class="cls-1" d="M305.15,81.92a18.15,18.15,0,1,1-18.1-18.1A18,18,0,0,1,305.15,81.92Z"/><path class="cls-1" d="M300.78,113.76A18.13,18.13,0,1,1,318.89,132,17.9,17.9,0,0,1,300.78,113.76Z"/><path class="cls-1" d="M256.15,139a15.9,15.9,0,0,1,16.22,15.93,16.16,16.16,0,1,1-32.32.12A15.91,15.91,0,0,1,256.15,139Z"/><path class="cls-1" d="M272.5,122.48a11.23,11.23,0,0,1,11.63-11.31,11.54,11.54,0,0,1,11.41,11.66,11.77,11.77,0,0,1-11.76,11.42A11.43,11.43,0,0,1,272.5,122.48Z"/></g></svg>