<svg xmlns="http://www.w3.org/2000/svg" viewBox="0 0 400 400"><defs><style>.cls-1{fill:#1d1d35;}</style></defs><g id="OBJECTS"><path class="cls-1" d="M286.74,301.79c-29.17,5.64-57.88,6.73-86.69,6.72s-57.46-1.53-86.37-6.72c-.14,1.85-.35,3.3-.36,4.75,0,7.2,0,14.41,0,21.61,0,11.51-6.48,19.87-17.92,21.23a98.52,98.52,0,0,1-24-.24c-9.88-1.26-16.78-10.16-16.83-20.21-.09-15.93.06-31.86-.14-47.78a9.09,9.09,0,0,0-2.48-6c-16.27-14.78-23.83-33.37-23.94-55a174.13,174.13,0,0,1,2-28.5c3.32-20.62,16.58-32.71,35.77-39.11A18.69,18.69,0,0,0,70.09,151c1.1-.72,2.44-2,2.6-3.12C75.41,128.1,84.49,111.41,97.84,97c23.07-24.93,51.59-40.12,85-45.59,23.47-3.83,46,.43,67.68,9.74,25.74,11.08,47.41,27.32,62.87,51.08a83,83,0,0,1,13.25,35c.33,2.56,1.51,3.5,3.64,4.28,4.28,1.55,8.57,3.13,12.69,5,13.52,6.3,22.31,16.72,25.59,31.28,4.68,20.73,5.07,41.4-2.69,61.63a66.59,66.59,0,0,1-17.23,25.12,8.34,8.34,0,0,0-2.86,6.85c.12,15.37.08,30.75.05,46.12,0,13.4-9,22.39-22.44,22.36-6.63,0-13.35.21-19.86-.77-9.52-1.44-16.09-9.48-16.42-19.16-.25-7.61-.08-15.23-.13-22.85C287,305.51,286.86,303.9,286.74,301.79Zm-87-232.66c-2.36,0-4.71-.08-7.06,0a48.53,48.53,0,0,0-4.93.64c-35.74,5.37-64.37,22.44-85.26,52A62.36,62.36,0,0,0,91.56,148c-.21,1.24.49,3.47,1.42,3.93,13.36,6.61,23,17.2,31.21,29.18,8,11.65,15.34,23.69,22.94,35.58,7.31,11.44,14.72,22.77,24.58,32.3C187,263.81,206,266.09,222,253.58a100.54,100.54,0,0,0,19.7-21.11c10.82-15.36,20.34-31.64,30.81-47.26,9-13.41,19.08-25.87,34.12-33.21a4,4,0,0,0,1.47-3.54c-2.14-6.67-3.56-13.87-7.11-19.76C278.06,90.64,243.41,72.07,199.74,69.13Zm-.1,221c24.5-.15,49-.83,73.24-4.62,17.27-2.7,34.19-6.67,49.67-15.2,15.18-8.37,25.68-20.51,29.21-37.8,2.55-12.46,2-25-.19-37.53-2.91-16.67-15.09-23.62-29.71-26.7-10.51-2.21-17.36,5.88-22.82,13-9.83,12.81-18.61,26.44-27.37,40-9.68,15-19.05,30.23-32.42,42.41-24.15,22-54.54,22.08-78.26-.43a145.14,145.14,0,0,1-19.36-22.63c-9.9-14.33-18.71-29.41-28.25-44-6.3-9.63-13.19-18.83-23-25.4-4.86-3.27-9.79-4.87-15.51-2.25-3,1.38-6.25,2.23-9.26,3.59-9.31,4.18-15.55,11.12-17.28,21.3a146.57,146.57,0,0,0-2.18,21.41c-.49,25.8,10.43,45,33.85,56.61,11.87,5.91,24.46,9.46,37.39,12C144.59,289.1,172.09,289.9,199.64,290.11Zm126.57-.93c-7.35,2.77-13.81,5.11-20.18,7.7-.8.33-1.52,1.91-1.54,2.93-.11,9.26-.06,18.53-.05,27.8,0,2.55,1.21,3.76,3.85,3.71,4.7-.09,9.41-.14,14.11,0,3.18.11,4-1.27,3.88-4.26-.21-6.36-.07-12.72-.07-19.09Zm-253.63.07c0,13.45-.07,26.4.15,39.35,0,.92,2.16,2.49,3.38,2.57,5,.29,10,.11,14.94.13,2.12,0,3.35-.66,3.32-3.12-.1-9.41,0-18.82-.14-28.23,0-1.05-.68-2.7-1.47-3C86.29,294.3,79.72,291.93,72.58,289.25Z"/><path class="cls-1" d="M202.13,154c-25.45,1.16-48.25,2.18-71,3.26-3.17.15-6.32.77-9.49.9-7.34.3-11.66-5.27-9.35-12.31,7.13-21.81,19.44-40,38.45-53.16,39.89-27.57,91.79-18,120.75,22a106.71,106.71,0,0,1,15.07,29.4c2.88,8.75-1.6,14.5-10.75,14C250.36,156.67,225,155.25,202.13,154Zm-65.66-16.61H263c-6.19-18.11-32-41.07-60.72-42C168.91,94.25,143.23,118.89,136.47,137.37Z"/><path class="cls-1" d="M83.78,189.82A32.13,32.13,0,0,1,115.9,222c0,18.32-14.25,32.46-32.7,32.41a32.22,32.22,0,0,1-32-32.78C51.32,204.05,65.93,189.77,83.78,189.82Zm-14,32a14,14,0,0,0,28.07-.12,14.15,14.15,0,0,0-14.46-13.92C75.48,207.84,69.76,213.75,69.82,221.85Z"/><path class="cls-1" d="M316.33,189.82a32.36,32.36,0,0,1,32.05,32.75c-.13,17.75-15.11,32-33.44,31.84-17.36-.17-31.34-14.74-31.22-32.56A32,32,0,0,1,316.33,189.82Zm13.46,31.93A13.64,13.64,0,0,0,316,207.81a13.79,13.79,0,0,0-14,13.81,14.07,14.07,0,0,0,13.95,14A13.64,13.64,0,0,0,329.79,221.75Z"/></g></svg>