<svg xmlns="http://www.w3.org/2000/svg" viewBox="0 0 368.61 355.7"><g id="OBJECTS"><path d="M368.61,198.65c-3.66-1.23-7.26-2.69-11-3.64a68,68,0,0,0-47.36,4.79,2.44,2.44,0,0,0-1.43,1.72c-1,3.63-2.73,6.73-6.26,8.5a5.38,5.38,0,0,1-5.78-.34c-.89-.59-1.82-1.14-2.78-1.74a28.18,28.18,0,0,1-2.39,3.66,15.74,15.74,0,0,1-3.64,3.18,5.48,5.48,0,0,1-5.5-.24c-1.13-.6-2.21-1.27-3.39-2-.21.46-.42.88-.61,1.3a12.8,12.8,0,0,1-4.46,5.37,5.65,5.65,0,0,1-6.32.29c-.94-.53-1.84-1.11-2.84-1.71a12.64,12.64,0,0,1-.8,1.83,25.93,25.93,0,0,1-2.91,4.2c-2.56,2.67-5.36,3-8.58,1.14-4.19-2.4-8.34-4.87-12.51-7.31q-81.67-47.9-163.32-95.81A1.38,1.38,0,0,0,75,122a44.52,44.52,0,0,1-19.21,8.18A29.91,29.91,0,0,1,42,129L1.16,116.22C.56,116-.17,116,0,114.85c.46.12.93.22,1.39.36C15,119.44,28.49,123.57,42,127.93c8.45,2.73,16.48,1.58,24.29-2.08,2.95-1.38,5.71-3.16,8.82-4.9L69,117.38c-2.41-1.42-4.8-2.87-7.25-4.22-2.19-1.22-3.06-3.29-1.8-5.65a2.26,2.26,0,0,0-.07-1.78,3.41,3.41,0,0,1,.22-3.51,1.84,1.84,0,0,0,.25-1.49,3.66,3.66,0,0,1,.46-4.86,16.84,16.84,0,0,1-1-1.87,3.11,3.11,0,0,1,3-4.4,20.94,20.94,0,0,1,4.52,1c1.83.53,3.64,1.18,5.43,1.85a1.26,1.26,0,0,0,1.74-.49C75.71,90.3,77.22,90,79,90.57c2.94.89,5.9,1.7,8.84,2.59.62.19,1,.22,1.38-.42C90.37,90.83,92,90.42,94.09,91c2.64.76,5.31,1.44,8,2.19a1.42,1.42,0,0,0,1.89-.72,3.16,3.16,0,0,1,3.68-1.61c4.86,1.11,9.71,2.29,14.55,3.47l64.77,15.79,85.12,20.79,30.24,7.38a12.81,12.81,0,0,0,1.52.32c4.47.57,5.72,4.6,5.31,8.09a15.33,15.33,0,0,1-4.2,8.57c-.35.38-.66.78-1,1.24.25.11.39.18.53.23,3.83,1.45,5.39,4.5,4.62,8.51a13.65,13.65,0,0,1-4.43,8.13,2.88,2.88,0,0,0-.39.57c.52.25,1,.44,1.42.68a6,6,0,0,1,3.61,5.72c0,5.1-.77,6.85-5,11.34,3.59,1.1,5,3.75,5.07,7.29,2.38-1,4.63-2,6.94-2.86a68.42,68.42,0,0,1,22.47-4.33,71.62,71.62,0,0,1,29,5.39,6.63,6.63,0,0,0,.9.25ZM258.2,154.72c-.31-.12-.55-.22-.8-.3l-72.27-23.83-66.24-21.84-48.39-16c-2.12-.7-4.24-1.41-6.37-2.09-1.63-.52-2.76-.06-3.25,1.28s0,2.57,1.59,3.25c.29.13.59.23.89.35q52.49,20.88,105,41.75,41,16.32,81.91,32.68c.46.19.94.32,1.51.5C249.56,163.77,251.37,159.39,258.2,154.72Zm-.44,18.38a19.31,19.31,0,0,1-4.23-.67q-69.06-27.44-138.09-55L63.65,96.81c-1-.38-1.92-.75-2.61.45a2.26,2.26,0,0,0,.64,3.18,11.15,11.15,0,0,0,1.89,1l17.71,8.17,168.79,78.09c.48.22,1,.42,1.74.74C249.11,181.19,252.42,176.56,257.76,173.1Zm-1.54,36c-2-.95-3.85-1.76-5.64-2.7q-32.42-17-64.8-33.92L108.49,132Q85.69,120,62.9,108.06c-.54-.28-1.54-.48-1.84-.2a2.63,2.63,0,0,0-.67,2,3.27,3.27,0,0,0,1.16,1.81,16.35,16.35,0,0,0,2.36,1.41l91.3,53.58L250,222.27c.39.23.78.44,1.47.82C249.77,217.08,251.74,212.61,256.22,209.07Zm.32-17.6c-2-.78-4.12-1.45-6.09-2.35q-34.89-16.1-69.73-32.25L75,107.89l-11.84-5.47c-.61-.29-1.23-.65-1.85,0a2.44,2.44,0,0,0,.21,3.52,7.86,7.86,0,0,0,1.42.88l28.74,15L170.09,163l73.68,38.61,8.09,4.21C250,199.67,251.84,195,256.54,191.47ZM75.38,93.21l1.19.41,29.1,9.59,75.81,25q39.21,12.91,78.43,25.83c2.51.82,4.38,2,5.15,4.64,0,0,.12,0,.29.1.77-4.45,2.88-7.95,7.39-9.83-.52-.18-.74-.27-1-.33l-58.65-17.3L91.33,95.34c-4.28-1.26-8.57-2.53-12.86-3.75C76.75,91.1,75.9,91.56,75.38,93.21Zm14.74.59a2.94,2.94,0,0,0,.51.23q15.84,4.65,31.69,9.3l111,32.72q20.94,6.18,41.89,12.37a5.64,5.64,0,0,1,4.08,3.84,9.81,9.81,0,0,1,.13,5.32c-.35,1.52,0,1.94,1.66,1.85-2.23-6.52-.61-10.71,6-15.44-.46-.16-.86-.33-1.27-.44q-32.49-8.67-65-17.33Q167.39,111.9,113.92,97.54,103.47,94.75,93,92C91.31,91.6,90.64,92.07,90.12,93.8Zm211.79,45.51c-1.66-.39-3-.67-4.26-1q-25.17-6.15-50.34-12.31Q206.09,116,164.86,106q-27.56-6.72-55.1-13.51a16.71,16.71,0,0,0-2.7-.52c-1.35-.09-2,.49-2.28,2,.43.13.87.29,1.32.41q25.56,6.8,51.12,13.61,65.43,17.52,130.86,35c3.47.93,6.2,2.21,6.5,6.33C295.47,144.9,297.45,141.38,301.91,139.31Zm-20.6,51.75a13.36,13.36,0,0,0,0,1.55,4.46,4.46,0,0,0,6.81,3.5,12.23,12.23,0,0,0,5.51-11.91c-.7-3.78-4.2-5.23-7.3-2.94A11.6,11.6,0,0,0,281.31,191.06Zm-15.23-30.52c0,.29,0,.89.12,1.48a4.38,4.38,0,0,0,7,3.22c3.91-2.76,5.87-6.58,5.31-11.44-.47-4.08-4-5.61-7.35-3.17A12,12,0,0,0,266.08,160.54Zm.36,35.44a13.64,13.64,0,0,0,0,1.43c.38,3.53,3.79,5.39,6.73,3.7a12,12,0,0,0,5.6-11.76c-.64-4-4.24-5.52-7.45-3A11.71,11.71,0,0,0,266.44,196Zm42.06-14.56a16.11,16.11,0,0,0-.21-1.67c-1-4.46-4.64-5.69-8.1-2.7a12,12,0,0,0-4.36,10.16,4.8,4.8,0,0,0,2.54,4.33,4.26,4.26,0,0,0,4.73-.51A13.37,13.37,0,0,0,308.5,181.42Zm-44.16-2.12a22.65,22.65,0,0,0-.43-2.35c-.92-3.24-3.9-4.37-6.77-2.6a12.13,12.13,0,0,0-5.32,11.88,4.4,4.4,0,0,0,6.83,3.09C262.25,187,263.92,183.58,264.34,179.3Zm-12.7-13c.1.61.19,1.49.41,2.33.79,2.94,3.29,4.07,6.06,2.78,4.38-2,7.14-8.21,5.71-12.78-.87-2.77-2.83-3.82-5.55-2.87a6.72,6.72,0,0,0-2.28,1.27A12.72,12.72,0,0,0,251.64,166.34Zm41.91,37c-.06-2.11-.46-4.17-2.78-5.15s-4.14-.08-5.76,1.48a11.93,11.93,0,0,0-4,10.08,4.6,4.6,0,0,0,2.56,4.16,4.47,4.47,0,0,0,4.82-.67A12.14,12.14,0,0,0,293.55,203.34Zm-27.38,10.17c0,.32,0,.64,0,1,.09,1.86.67,3.43,2.47,4.32a4.47,4.47,0,0,0,5-.68c3.76-2.93,5.51-6.76,4.76-11.53-.55-3.57-4-5-6.93-3A11.64,11.64,0,0,0,266.17,213.51Zm41.77-49.89c0-.48,0-1,0-1.43a4.38,4.38,0,0,0-6.9-3.51,12.44,12.44,0,0,0-5.45,11.49,4.56,4.56,0,0,0,7.64,3.07A12,12,0,0,0,307.94,163.62ZM266,178.4c.06.64.08,1.08.14,1.52.51,3.77,3.79,5.32,7.05,3.35a11.23,11.23,0,0,0,5.14-11.83c-.77-3.62-3.72-4.93-6.86-2.94C267.83,170.83,266.35,174.41,266,178.4Zm41.9-32.86c0-.28,0-.56,0-.84-.09-1.89-.58-3.57-2.47-4.44a4.63,4.63,0,0,0-5.14.83,11.65,11.65,0,0,0-4.65,11.15c.48,3.8,4.13,5.37,7.2,3.12A11.69,11.69,0,0,0,307.93,145.54ZM251.69,219.9a17,17,0,0,0,.68,2.77,3.75,3.75,0,0,0,4.94,2.36c5-1.75,8.29-9,6.42-13.53-1-2.41-3.08-3.44-5.51-2.5a7.55,7.55,0,0,0-2.25,1.34C253.25,212.73,251.91,215.8,251.69,219.9Zm29.37-46.27c0,.44,0,.89,0,1.32.31,3.73,4.09,5.59,7.1,3.36,3.74-2.77,5.75-6.47,5.18-11.27-.49-4-3.85-5.59-7.23-3.31S281.12,169.51,281.06,173.63Zm27,24.67c0-.13,0-.45-.05-.76a4.53,4.53,0,0,0-2.76-4.16,4.14,4.14,0,0,0-4.77.89,20.63,20.63,0,0,0-3.67,4.48,9.44,9.44,0,0,0-.87,7.76,4.06,4.06,0,0,0,5.49,2.74,7.4,7.4,0,0,0,2.35-1.37A12.19,12.19,0,0,0,308.05,198.3Zm-27-42.84c0,.28,0,.56,0,.84a4.61,4.61,0,0,0,2.69,4.44,4.33,4.33,0,0,0,4.88-.85c3.48-2.85,5.25-6.45,4.73-11-.43-3.86-3.83-5.48-7.06-3.33A11.5,11.5,0,0,0,281,155.46ZM252,201.61c0,.77,0,1.22.09,1.65.45,3.43,3.35,5.21,6.28,3.94,3.87-1.68,8-8.9,5.3-13.87-.81-1.51-2.05-2.48-3.73-2.18a7.63,7.63,0,0,0-3.26,1.32A12.5,12.5,0,0,0,252,201.61Zm35.24-39.7c-2.2.82-4.08-.14-6-1a4.52,4.52,0,0,0-1.44-.54,1.76,1.76,0,0,0-1.33.42c-1.41,1.74-2.72,3.55-4.09,5.37.26.1.76.33,1.28.49a5,5,0,0,1,3.72,4.12,19.73,19.73,0,0,1,.05,4.61c-.11,1.51,0,1.82,1.44,1.94C278.94,170.56,281.17,165.5,287.21,161.91Zm-6.12,32.77c-1.7-5.84,0-10.54,4.74-14.1l-6.76-2.5L275,183.76c.53.24.92.43,1.32.58a4.82,4.82,0,0,1,3.34,4.52c.06,1.43.07,2.87.05,4.3C279.64,194.09,279.9,194.69,281.09,194.68Zm-.36,17.4c-1.46-5.65,0-10.28,4.79-13.89l-6-2.77-4.44,6c4,2,5.51,5.11,4.43,9.37C279.29,211.67,279.85,211.94,280.73,212.08ZM294.63,167c1-4.37,3-7.84,7.27-9.76a6.79,6.79,0,0,1-4.94-.5c-.79-.38-1.64-.63-2.41-1s-1.12-.12-1.56.51c-1.23,1.73-2.55,3.41-3.82,5.1A6.56,6.56,0,0,1,294.63,167Zm-30.15-1.63c-.77,2.75-2.65,4.81-5.06,6.73,2.82.63,4.87,1.9,5.77,4.62.91-4,2.76-7.32,6.26-9.2Zm35.69,10.61-6.34-2.6c-1.23,1.65-2.5,3.34-3.76,5a1.73,1.73,0,0,0-.17.29,16.51,16.51,0,0,1,3.24,2.22,16.08,16.08,0,0,1,1.88,3.37A12.91,12.91,0,0,1,300.17,175.93Zm-34.69,18.23a13.33,13.33,0,0,1,5.32-8.56L265,183.3l-4.42,6.45A6.93,6.93,0,0,1,265.48,194.16Zm28.73-3.45c-.75,1-1.44,1.93-2.12,2.86s-1.38,1.91-2.08,2.87c3.13,1.66,3.76,2.41,4.68,5.71.79-3.63,2.27-6.63,5.44-8.69Zm-29,21c.87-3.52,2.37-6.56,5.65-8.6L265,200.53a14.34,14.34,0,0,1-4.62,6.75A7.42,7.42,0,0,1,265.2,211.71Zm29.43-60.34c-1,2.82-.81,3.36,1,3.33C295.32,153.64,295,152.6,294.63,151.37Zm-.68,20.8,1.68.65c-.37-1.22-.66-2.15-.94-3.08l-.2,0Zm.91,14.8c-.69,2.52-.53,3,.85,2.88ZM265.4,162.09c-.71,2-.58,2.34.9,2.35C266,163.72,265.76,163,265.4,162.09Z"/></g></svg>