<svg xmlns="http://www.w3.org/2000/svg" viewBox="0 0 368.61 355.7"><g id="OBJECTS"><path d="M368.61,115.76c-7-3-14.09-5.66-20.84-9.07-10.32-5.22-20.38-11-30.55-16.48a55.22,55.22,0,0,0-13.3-5.63c-6.41-1.54-12.14.29-17.65,3.43a3.48,3.48,0,0,0-2,3.57c.15,4.67,0,9.35.07,14a2.29,2.29,0,0,1-.87,1.94q-25.35,22-50.67,44.05L177.27,200l-38.75,33.82a4.58,4.58,0,0,0-.78.74c-1.23,1.79-2.94,1.62-4.69,1.17-9.23-2.41-18.44-4.88-27.68-7.25-6.65-1.71-13.32-3.31-20-4.92-.75-.18-1-.44-1-1.25.08-5.91.1-11.83.2-17.74,0-.78-.4-.92-.92-1.14-11.48-4.71-22.93-9.49-34.45-14.09a132.87,132.87,0,0,0-14.91-5.19A66.07,66.07,0,0,0,10,182.63c-3.25.35-6.48.89-9.8,1.35-.3-.49-.32-.87.52-1a88.38,88.38,0,0,1,25.51-1.33c9.1.85,17.4,4.23,25.71,7.64Q68,195.85,84,202.47a1.56,1.56,0,0,0,1.93-.39c3.78-3.2,7.61-6.34,11.46-9.47Q127.72,168,158,143.44q33.08-26.81,66.14-53.59c3.36-2.72,6.72-5.42,10-8.22a8,8,0,0,1,7.34-1.81q20.53,4.41,41.13,8.65a2.41,2.41,0,0,0,1.61-.39,31.26,31.26,0,0,1,11.17-4.75,21.42,21.42,0,0,1,13,1.63c5.4,2.46,10.73,5.12,15.87,8.08a317,317,0,0,0,43.06,21.16c.4.15.82.24,1.24.36ZM278.83,91.93a6.34,6.34,0,0,0-.8-.35l-35.8-7.27a7.75,7.75,0,0,0-6.7,1.75L229.46,91q-30.39,24.58-60.77,49.17Q130.59,171,92.51,201.88c-.82.66-1.57,1.41-2.51,2.27a13,13,0,0,0,1.86.81q19.83,4.81,39.67,9.62a6.38,6.38,0,0,0,6.1-1.48l38-32.5,96.49-82.7C274.31,96,276.46,94,278.83,91.93ZM136.28,230.14c1-.81,1.91-1.53,2.8-2.31q29.22-25.5,58.44-51Q236,143.3,274.67,109.91a15.1,15.1,0,0,0,5.49-13.37c-.06-.92-.1-1.84-.17-3-1.33,1.09-2.46,2-3.55,2.91l-62,53.13-65,55.72c-3.94,3.39-7.87,6.78-11.75,10.24a3.88,3.88,0,0,0-1.39,2.28C136.21,221.89,136.28,225.94,136.28,230.14Zm-47.64-10,45.68,11.18c0-3.09.11-6,0-8.9-.23-4.76-.8-5.43-5.44-6.58-11.42-2.84-22.85-5.62-34.28-8.42L88.64,206Z"/></g></svg>