<svg xmlns="http://www.w3.org/2000/svg" viewBox="0 0 368.61 355.7"><g id="OBJECTS"><path d="M368.61,146c-3.55.12-7.1.37-10.65.34C338.75,146.14,321,141,305,130.23a92.48,92.48,0,0,1-19.7-17.92c-.38-.46-.77-.91-1.2-1.44L151.69,205l-17-29.5L267.84,80.85c.58,1,1.12,1.83,1.63,2.72,4.9,8.51,9.66,17.11,14.78,25.49a47.39,47.39,0,0,0,6.78,8,91.19,91.19,0,0,0,50,26.66A101.78,101.78,0,0,0,367.3,145a5.16,5.16,0,0,1,1.31.26ZM152,203.48,283.5,110l-16-27.68L136.08,175.79Z"/><path d="M266.17,80.8c-2.05,1.62-3.8,3.11-5.66,4.44L137.86,172.31a15.58,15.58,0,0,1-9.36,2.75c-8.83,0-17.66.05-26.5.07-.19,0-.38,0-.87-.08,1.93-1.48,3.61-2.85,5.38-4.11l118.33-84c1.41-1,2.85-1.94,4.2-3a15.22,15.22,0,0,1,9.5-3.14c8.91-.05,17.82,0,26.74-.05C265.46,80.74,265.64,80.77,266.17,80.8Zm-3,1.2c-.36-.18-.43-.25-.49-.24q-12.24,0-24.46.09a14.94,14.94,0,0,0-9,3.2c-4.54,3.33-9.19,6.52-13.78,9.78l-107.86,76.6c-1.09.77-2.14,1.6-3.44,2.58.52,0,.75.08,1,.08,8.23,0,16.46,0,24.7-.1a12.59,12.59,0,0,0,7.27-2.43L255.05,87.85C257.72,86,260.35,84,263.16,82Z"/><path d="M137.39,232.57c1.63-2.91,3.09-5.51,4.53-8.11,2.58-4.64,5-9.37,7.75-13.9a39.79,39.79,0,0,1,11.44-11.79q50.13-35.39,100.2-70.86c5.31-3.76,10.61-7.55,15.91-11.32a9.55,9.55,0,0,1,5.15-1.89c-.2.41-.32.71-.48,1-4.38,7.56-8.79,15.12-13.14,22.7a11.05,11.05,0,0,1-3.3,3.54q-23.08,16.34-46.11,32.76-38.49,27.36-77,54.7C140.84,230.47,139.23,231.4,137.39,232.57Zm3.09-3.2c.58-.36.87-.53,1.15-.73L203,185.05q31.31-22.25,62.6-44.51a6.73,6.73,0,0,0,1.83-2c4.1-7,8.15-14,12.22-21,.22-.38.42-.79.64-1.18l-.2-.22c-.9.55-1.84,1-2.7,1.66-7.66,5.43-15.28,10.9-23,16.33q-46.17,32.65-92.37,65.29a42.68,42.68,0,0,0-9.15,8.39c-3.7,4.71-6.36,10-9.1,15.31C142.76,225.1,141.69,227.09,140.48,229.37Z"/><path d="M.08,198.89c-.3-1.08.32-1.08,1-1.06,6,.17,12.07,0,18.07.55a138.43,138.43,0,0,1,42.24,10.47,142.62,142.62,0,0,1,34.17,20.33,4.56,4.56,0,0,0,1.3.8c-.17-.31-.34-.62-.52-.92-3.81-6.65-7.6-13.32-11.45-19.95a6.72,6.72,0,0,1,0-7.24q6.54-11.3,13.06-22.61a6.11,6.11,0,0,1,5.55-3.35q13.85,0,27.69,0a5,5,0,0,1,4.42,2.66q7,12,13.87,24.08a5.5,5.5,0,0,1,0,5.72q-6.75,11.79-13.55,23.57a6,6,0,0,1-5,3.07c-1.63.12-3.27.19-4.9.18q-11.28,0-22.54-.12a7.21,7.21,0,0,1-4.78-1.91A140.74,140.74,0,0,0,34.21,201.6a144.57,144.57,0,0,0-32.28-2.8Zm117-22v0c-4.55,0-9.11,0-13.66,0a4.81,4.81,0,0,0-4.35,2.51q-6.81,11.7-13.54,23.43a5,5,0,0,0,0,5.25Q92.28,219.84,99,231.56a4.83,4.83,0,0,0,4.24,2.5c.59,0,1.19.08,1.79.08,4.59,0,9.19,0,13.78,0,3.71,0,7.43-.06,11.14-.07a5.76,5.76,0,0,0,5.33-3.21q6.47-11.34,13-22.63a5.05,5.05,0,0,0,0-5.43L134.9,179.46a4.78,4.78,0,0,0-4.42-2.57C126,176.9,121.53,176.89,117.06,176.89Z"/></g></svg>