<svg xmlns="http://www.w3.org/2000/svg" viewBox="0 0 368.61 355.7"><g id="OBJECTS"><path d="M0,217.54c4.31,0,8.61.05,12.92,0,1.16,0,1.62.46,1.67,1.46.08,1.66.1,3.33.12,5,0,2.2.17,2.38,2.39,2.38h77c.24,0,.47,0,.91,0-.31-.5-.57-.87-.78-1.27-.79-1.51-1.67-3-2.31-4.57A2.07,2.07,0,0,0,89.71,219c-3.19.06-6.39.15-9.57,0a17.7,17.7,0,0,1-4.48-1.06,2.16,2.16,0,0,1-1.5-2.33c.07-1.43.15-2.87.26-4.3a1.36,1.36,0,0,1,.34-.86c1.83-1.49,1.85-3.58,2-5.65.33-4.85.69-9.69,1-14.54a5.7,5.7,0,0,1,4.09-5.56c2-.68,3.93-1.54,5.93-2.21a9.75,9.75,0,0,0,5-3.87A66.7,66.7,0,0,0,100,163.81c1.07-2.83,2.22-5.63,3.36-8.43a4.75,4.75,0,0,1,.92-1.35c.21-.22.6-.25.91-.36,0,.35.19.75.08,1.05-.72,1.85-1.52,3.67-2.25,5.52-2.42,6.23-5.33,12.27-6.9,18.81-.36,1.48-.15,1.83,1.33,1.84s3,0,4.54,0c.06,0,.11-.08.17-.13s0-.19,0-.2c-2.42-.9-2.4-1.45-2.11-3.81a30.2,30.2,0,0,1,4-10.8c1.41-2.59,2.94-5.11,4.44-7.64,1.34-2.28,3.54-3.07,6-3.39a52.86,52.86,0,0,1,16.65.43c1.77.33,2.35.91,2.69,2.71,1,5.43,1,10.93.94,16.44q-.13,18.71-.22,37.42a17.34,17.34,0,0,0,.21,1.89c2.33-.47,3.06-1.14,3.09-3.34q.12-11.35.08-22.7c0-5.81-.16-11.63-.29-17.45s-.28-11.79-.43-17.68c0-.31-.06-.62-.11-1.11-2.92,0-5.82,0-8.72,0-7.61-.07-15.22-.14-22.83-.26a23.85,23.85,0,0,1-4-.41c-1.6-.29-2.13-1.17-1.71-2.78.33-1.31.78-2.59,1.22-3.87a2.24,2.24,0,0,1,2.1-1.53c5.68-.37,11.36-.87,17-1,6.41-.2,12.83-.11,19.25-.11,2.35,0,4.7.12,7.05.21,1.43.05,1.85.51,1.95,2l.54,8.45H149c.25-3.92.49-7.84.75-11.76q.28-4.41.63-8.82c.13-1.62.44-1.92,2.07-2,2.67-.07,5.34-.1,8-.13,10.76-.09,21.52-.2,32.28-.27q20.08-.15,40.18-.24,10.88-.06,21.76-.09c12.44,0,24.88-.08,37.32-.06,3.74,0,7.48.27,11.22.36,1.13,0,1.6.55,1.54,1.63,0,.2,0,.4,0,.6,0,2.83-.56,3.44-3.42,3.45q-14.83,0-29.66,0c-11.8,0-23.6-.09-35.4-.06-13.75,0-27.5.13-41.25.23-8.81.06-17.61.12-26.42.25-4.06.06-8.12.29-12.18.47-1.35.06-1.8.55-1.87,2-.37,7.36-.86,14.71-1.07,22.08-.25,9-.29,18-.37,27,0,2.11.18,4.22.24,6.33,0,1.14.52,1.65,1.7,1.62q4.29-.09,8.6-.09,23,0,45.93.13c10.6.05,21.2.17,31.8.27l23.2.24,28.57.24c3.43,0,3.88-.43,3.74-3.84,0-1-.14-2.07-.25-3.1-.21-1.95-.6-2.42-2.55-2.63-3.8-.4-7.61-.87-11.42-1q-20.54-.72-41.09-1.22c-9.36-.23-18.72-.29-28.08-.5-11.35-.25-22.7-.52-34-.88-6.89-.22-13.77-.62-20.65-1-1.59-.07-2-.53-2.38-2.13-.84-3.86-.26-7.69.33-11.51.12-.79.29-1.57.41-2.35a1.83,1.83,0,0,1,1.93-1.74c7-.25,14-.65,21-.72,12.48-.14,25-.09,37.44-.12,16,0,32-.05,47.95-.12,10.09-.05,20.17-.17,30.25-.28,1.74,0,2.08-.44,2-2.18-.17-3-.31-6-.52-8.95-.11-1.71-.6-2.13-2.32-2.18-7.25-.19-14.5-.41-21.75-.55q-21.21-.41-42.43-.73-8.43-.13-16.85-.23c-9.09-.12-18.17-.2-27.26-.33-8.16-.11-16.33-.26-24.5-.4-1.39,0-2.78-.08-4.17-.2-2.47-.2-3.27-1.51-2.19-3.71.64-1.32,1.46-2.56,2.21-3.83a2.58,2.58,0,0,1,2.33-1.19c6.33-.2,12.66-.47,19-.62q17.86-.42,35.73-.72,10.09-.18,20.2-.24c13.67-.08,27.34-.18,41-.15,7.48,0,15,.27,22.46.42,1.64,0,2.37.66,2.47,2.43.3,5.09.65,10.18.7,15.27,0,6.1-.12,12.2-.33,18.29-.29,8.4-.7,16.79-1.07,25.19-.06,1.24-.49,1.58-2,1.61-3.07.07-6.14.14-9.21.16-12.75.08-25.51.2-38.26.19-12,0-23.91-.16-35.87-.27-7.41-.06-14.82-.1-22.24-.25-12.54-.24-25.09-.57-37.63-.86-1,0-1.81-.24-2.16-1.17a2.24,2.24,0,0,0-2.56-1.47c-.55,0-1.1,0-1.78,0,0,.47-.06.85-.06,1.23-.09,5.34-.13,10.68-.27,16a23,23,0,0,1-.61,3.42h1.52c.27-3.91.51-7.75.81-11.59.15-2,.66-2.43,2.62-2.46,15.34-.17,30.69-.42,46-.46,27.35-.07,54.7,0,82,0,7.33,0,14.66.17,22,.27,1.79,0,2.32.48,2.67,2.23a23.76,23.76,0,0,1-.21,10.31,2.69,2.69,0,0,1-2.61,2.35c-2.86.21-5.71.55-8.57.63-3.83.1-7.66,0-11.49,0-1.83,0-2.07.19-2.73,1.85a30.29,30.29,0,0,1-1.79,4,9.68,9.68,0,0,1-10.5,4.94,13.9,13.9,0,0,1-9-5,17.07,17.07,0,0,1-1.32-2.18l.28-.36c.73.3,1.49.56,2.2.91,3.44,1.66,7,2.21,10.62.75a5.63,5.63,0,0,0,3.83-4.34c-.54.59-1.07,1.19-1.62,1.77A9.2,9.2,0,0,1,262,222.55c-2.54-1.08-3.39-2.86-2.49-5.49.48-1.43,1.11-2.81,1.73-4.19,2.63-5.87,9.95-5,12.67-.82a12.9,12.9,0,0,1,1.53,3.09c.4,1.3,1.06,1.87,2.42,1.65a11,11,0,0,1,1.53,0,9.74,9.74,0,0,0-1.46-7.2c-4-6.05-12.35-8.43-18.53-1.25a13.58,13.58,0,0,0,1.67,19.51,7.75,7.75,0,0,0,5,1.78h97.72c1.31,0,2.63,0,3.94-.05.81,0,1.11.26.75,1.26h-4l-29.05.16q-19.85.11-39.7.24c-6.81,0-13.63.15-20.44.13a79.89,79.89,0,0,1-9.54-.47c-5-.63-8.06-3.79-9.76-8.3a14.81,14.81,0,0,1,7.61-18.82,3.18,3.18,0,0,0,1.19-.85h-1.37l-63.75,0c-12,0-24,0-36,.06-3.62,0-7.24.3-10.86.45a1.58,1.58,0,0,0-1.66,1.38,36.85,36.85,0,0,0-.65,10.58,1.19,1.19,0,0,0,1.29,1.26c.43,0,.87,0,1.31,0,21.41,0,42.82-.15,64.23-.09,10.87,0,21.75.36,32.62.59,1,0,2.16-.19,3.2,1a10.89,10.89,0,0,1-2.13.54c-4.54.2-9.07.43-13.61.49q-25.65.33-51.29.55c-8.77.06-17.54-.08-26.31-.15-2.31,0-4.62,0-6.92-.23a10.72,10.72,0,0,1-2.68-1,4.63,4.63,0,0,0-1.63-.52c-5.61.13-11.22.35-16.84.48-2.79.06-5.58,0-8.36-.07a7,7,0,0,1-1.69-.47l.06-.47c.76-.09,1.51-.22,2.27-.24,5.42-.17,10.84-.23,16.25-.49a36.27,36.27,0,0,0,5.51-1,2,2,0,0,0,1.56-1.89,19.59,19.59,0,0,0,0-2.2l-1.47,2.24-.38.05a5.78,5.78,0,0,1-.76-2.05c.18-5.05.44-10.1.75-15.14,0-.51.57-1,.86-1.48s.93-1.16.94-1.75c.21-11.92.41-23.83.49-35.74,0-4.46-.27-8.92-.41-13.38a1.38,1.38,0,0,0-1.57-1.53q-17.32.2-34.66.4c-2.07,0-4.14.19-6.21.32a4.7,4.7,0,0,0-4.31,4.21c-.1,1.34.38,2.14,1.72,2.26,2.69.24,5.4.41,8.1.45,8.29.11,16.58.15,24.87.21,1.73,0,1.76,0,1.89-1.8.06-.82.31-1.47,1.2-1.7,2.06-.51,6.3,1.34,7.51,3.41-2.38,1.27-5.06.66-7.59,1.28,0,2.64-.05,5.3,0,8,.13,6.29.37,12.58.45,18.87.11,8.33.14,16.66.17,25,0,2.67-.11,5.34-.15,8a2.38,2.38,0,0,1-1.85,2.57c-.61.17-1.15.55-1.74.76a1.07,1.07,0,0,1-1.59-.89,10.52,10.52,0,0,1-.16-2c.1-10.52.33-21,.27-31.56,0-7.13-.48-14.25-.77-21.38-.08-2.09-.47-2.45-2.64-2.8A50.65,50.65,0,0,0,114,156a7,7,0,0,0-4.88,3.08,55.23,55.23,0,0,0-8,17c-.64,2.42-.27,2.91,2.13,3.47,4.52,1.06,9.09.85,13.67.78s9.32.06,14,.19a6.47,6.47,0,0,1,2,.78v.54a8.85,8.85,0,0,1-2.37.69c-3.5,0-7-.21-10.51-.28-7-.13-14-.22-21-.33h-1.2c-2.76,0-3-.32-2.77-3,0-.42,0-.84,0-1.56a10.92,10.92,0,0,0-.67,1,12.09,12.09,0,0,1-7,5.51c-2.06.7-4.08,1.57-6.12,2.36A3.27,3.27,0,0,0,79,189c-.52,6.23-1,12.47-1.45,18.71a9.37,9.37,0,0,0,0,1.05c2.18,0,4.32,0,6.46,0,1.39,0,2.78.06,4.18.13,2.1.1,2.94,1,2.89,3.1,0,.88-.14,1.75-.17,2.63s0,1.65,0,2.7L92.17,216a17.21,17.21,0,0,1,.39,2.11A11.73,11.73,0,0,0,96.63,226a3.38,3.38,0,0,0,4.37-.33,2.88,2.88,0,0,0-.33-4.23,7.17,7.17,0,0,1-1.52-1.49c-.23-.39-.05-1-.05-1.55a10.08,10.08,0,0,1,1.66.27c.25.08.42.45.6.72,1.43,2.14,3.25,2.85,5.52,2.15a4.86,4.86,0,0,0,3.35-5,6.47,6.47,0,0,0-2.86-5.38,3.89,3.89,0,0,0-4.59,0,11.21,11.21,0,0,0-4.22,5.22,7.55,7.55,0,0,1-.64,1.27c-1.2,1.76-2.84,1.65-3.9-.28a7,7,0,0,1-.13-6.76A12.11,12.11,0,0,1,106.73,204c6.41.88,10,5,10.76,11.91,1,8.68-5.47,14.34-13.76,13.88a32.48,32.48,0,0,1-5.64-1.33,4.89,4.89,0,0,0-1-.24l-49,.08H12.75v-8.85H0Zm154-21.81c0,1.4.78,1.68,1.74,1.71,5.85.15,11.7.35,17.56.43,12.59.17,25.18.28,37.77.41l24.75.24c9.05.08,18.09.23,27.14.22,11.48,0,22.95-.14,34.43-.23,1.83,0,2.05-.24,2.12-2.07.49-11.46,1-22.92,1.41-34.38a137.18,137.18,0,0,0-.68-22.2c-.23-1.78-.58-2.16-2.32-2.18-4.9-.06-9.79-.16-14.69-.15q-18,0-36,.11c-19.08.12-38.17.23-57.26.46-9,.11-18,.54-27,.73a5.87,5.87,0,0,0-6,4.19c-.77,2-.38,2.74,1.78,2.79,7.25.13,14.5.29,21.75.39q18,.27,36.09.48c6.9.09,13.79.15,20.68.25,9.84.14,19.68.28,29.52.48,9.56.21,19.12.5,28.67.76,2,.05,2.62.53,2.77,2.49q.36,5.07.53,10.14c.07,2-.61,2.66-2.61,2.7-2.87.07-5.74.14-8.61.17q-17.57.14-35.15.24-17.4.08-34.8.08c-14.51,0-29,0-43.53.11-4.69,0-9.39.37-14.08.58-.92,0-1.66.35-1.85,1.36a42.38,42.38,0,0,0-.71,12.71,1.68,1.68,0,0,0,1.56,1.69c2.94.25,5.88.58,8.82.67,6.57.21,13.14.28,19.71.43q16.73.38,33.45.79c7.69.18,15.38.3,23.06.5,11.23.29,22.46.52,33.69,1,6.08.25,12.14.94,18.21,1.42.86.07,1.51.46,1.6,1.32.22,2.26.47,4.52.5,6.79a2.9,2.9,0,0,1-2.89,3.19,43.84,43.84,0,0,1-5,.07c-8.45-.09-16.89-.22-25.34-.31q-14.4-.15-28.81-.24-13.87-.11-27.74-.16c-8.09,0-16.18,0-24.28-.08l-22.72-.08Zm-1.65-1.06c0-.74,0-1.33,0-1.92-.1-5.05-.41-10.11-.26-15.16.4-13.41,1-26.82,1.51-40.23.09-2.19.33-2.49,2.51-2.58,4.85-.19,9.71-.37,14.57-.44q18.58-.3,37.16-.48c7.1-.07,14.19,0,21.29,0q21.93,0,43.88.07,13.09,0,26.19,0c1,0,2.07,0,3.1-.11s1.6-.95,1.53-2.29c-.06-1-.67-1.33-1.6-1.34-2.79,0-5.57-.15-8.36-.15q-17.76,0-35.51,0-26.12.06-52.25.17-19.54.08-39.09.24c-4.58,0-9.16.15-13.74.24-1.54,0-1.79.27-1.91,1.8s-.2,3.18-.28,4.77c-.43,8.51-.9,17-1.25,25.53-.29,6.89-.44,13.78-.65,20.66-.11,3.27-.23,6.53-.32,9.79,0,.61-.18,1.39.79,1.44S151.36,194.67,152.32,194.67Zm119.41,8.4,0,.24a1.53,1.53,0,0,0,.27.17c5.55,2.18,8.52,6.18,8.64,12.21,0,.82.47,1.11,1.24,1.09,6.72-.16,13.45-.3,20.18-.49,1.48,0,2.16-.57,2.3-2.07a75.35,75.35,0,0,0,.38-8.08c-.05-2.41-.55-2.74-3-2.84-.43,0-.87-.07-1.31-.07L273,203.07ZM102.9,222.57c-.59,3.8-.59,3.8-3.53,5.11a11.84,11.84,0,0,0,17-8.3c1.44-8.65-4.55-15.26-13-14.28a10.34,10.34,0,0,0-9,7.33,4.73,4.73,0,0,0,2,5.51c.32-.57.64-1.14,1-1.71a35.21,35.21,0,0,1,2.44-4.06,6.8,6.8,0,0,1,5-2.75c3-.2,5.55,2,6.3,5.41,1,4.37-1.33,7.66-5.56,7.91A22.5,22.5,0,0,1,102.9,222.57Zm162.52-.19a9,9,0,0,0,6-2.58l2.35-2.36a2,2,0,0,0,.54-2.36,8.94,8.94,0,0,0-2.9-4,6,6,0,0,0-8.13.63,12.69,12.69,0,0,0-2.95,6.42,2.84,2.84,0,0,0,1.56,3.19A36,36,0,0,0,265.42,222.38ZM77.37,210c.27,2.11.51,4,.75,5.82a1.42,1.42,0,0,0,1.35,1.42c2.86.2,5.73.38,8.59.51a1.45,1.45,0,0,0,1.59-1.33c.2-1.57.32-3.16.4-4.75a1.37,1.37,0,0,0-1.52-1.59L79.21,210Zm161.81,8.2c-9.17-.6-79.41-.79-83.06,0Q197.71,219.82,239.18,218.2Zm21.41,5.58c1.86,3,8.38,4.78,12,3.32,3.46-1.39,6.83-6.34,6.23-9.17-2.34-.33-2.78-.09-3.73,2a4.49,4.49,0,0,1-.57.91,9.58,9.58,0,0,1-8.81,3.77A51.53,51.53,0,0,1,260.59,223.78ZM145.83,210.44a46.37,46.37,0,0,0,1-12.44A37.2,37.2,0,0,0,145.83,210.44Zm-2.21-60.28v-.37a15.8,15.8,0,0,0-1.68-.88,12,12,0,0,0-2.6-.81,1.3,1.3,0,0,0-1,.82,2.4,2.4,0,0,0,.37,1.51C140.35,150.42,142,150.27,143.62,150.16Zm-67.27,60c-1,1.11-1.61,5.29-1.06,6.17a1.59,1.59,0,0,0,1.07.46c.15,0,.52-.4.51-.59C76.74,214.26,76.55,212.34,76.35,210.16Z"/></g></svg>