<svg xmlns="http://www.w3.org/2000/svg" viewBox="0 0 368.61 355.7"><g id="OBJECTS"><path d="M214.9,209.69a18.37,18.37,0,0,0-1.41-1.51,15.15,15.15,0,0,0-18.21-1.55,16.72,16.72,0,0,0-7.31,8.56c-.24.63-.48,1.27-.76,1.88a8.89,8.89,0,0,1-8.23,5.55c-5.49.27-11,.63-16.6,1-.84,4-2.22,7.71-6.19,9.75a11.61,11.61,0,0,1-7.45,1c-5.51-.93-8.87-4.34-9.57-9.82a8.38,8.38,0,0,0-.89-.09c-3.51,0-7,0-10.53,0a1.18,1.18,0,0,0-1.39,1,32.71,32.71,0,0,1-1.87,5.53c-2,4.09-5.74,6-10.28,5.7s-8.36-2-10.51-6.3a16.07,16.07,0,0,1-.78-13.43,16.31,16.31,0,0,1,2.59-4.79c2.65-3.09,6.32-3.66,10.15-3.31a10.42,10.42,0,0,1,7.92,4.09c.12-.07.21-.09.22-.14,1.34-4,3.49-5.49,7.66-5.75,14.56-.9,29.11-1.87,43.67-2.82,2.22-.14,4.44-.41,6.67-.5a4.32,4.32,0,0,0,4.1-2.71,15.92,15.92,0,0,1,11.41-9.17c4.63-1,8.92.14,13,2.39a23.73,23.73,0,0,1,10.84,11.86c.84,2,1.73,4,2.58,6A7,7,0,0,0,230,216.6a51.56,51.56,0,0,0,6.92,0c8.47-.5,16.94-1.06,25.41-1.6l13.37-.85a2.37,2.37,0,0,0,2.33-2,31.58,31.58,0,0,0,.16-12c-2,.1-4,.14-6,.3-9.22.75-18.43,1.54-27.65,2.27a12.43,12.43,0,0,1-2.67-.37l-.05-.6a9.09,9.09,0,0,1,2.09-.85c8.44-1.2,16.89-2.34,25.34-3.48,1.34-.19,2.7-.27,4.05-.4s1.6-.44,1.57-1.82c-.29-14.76-5.12-28.14-12.29-40.86a17.41,17.41,0,0,0-10.16-8.3A93.4,93.4,0,0,0,220,141.44,108.38,108.38,0,0,0,194,145.3a21.39,21.39,0,0,0-3.36,1.21,9.46,9.46,0,0,0-5.7,8.23c-.43,4.84-.73,9.7-1.09,14.54a5.9,5.9,0,0,0,.06.71l5.22-.3c-.11-2.39-.23-4.68-.31-7-.14-4.07-.25-8.13-.38-12.19a3.15,3.15,0,0,1,2.25-3.3c1.46-.53,3-1,4.45-1.35,1-.27,1.48.31,1.52,1.29.13,3.43.26,6.85.41,10.27.16,3.7.34,7.4.52,11.1a5.35,5.35,0,0,0,.2.88L220.29,167c-.53-2.68-.85-5.34-1.59-7.88-1.4-4.77-3-9.47-4.59-14.19-.78-2.36-.8-2.38,1.64-2.81,2.61-.46,3-.26,4.44,1.92,3,4.61,4.67,9.75,6.32,14.92q.72,2.27,1.61,4.49c1.1,2.82,2.54,3.78,5.54,3.78,5.9,0,11.8,0,17.7,0,2.87,0,5.74,0,8.61-.12a7.63,7.63,0,0,1,7.61,4.34,36.89,36.89,0,0,1,4.1,12c.27,1.81-.24,2.63-2,2.77-5.05.39-10.1.71-15.14,1-3.55.21-7.1.23-10.63.54a42.44,42.44,0,0,0-6,1.22c-1.23.29-1.53,1.27-1.48,2.4q.21,4.42.39,8.84c.08,1.84-.35,2.28-2.17,2.29-2.47,0-4.95,0-7.42,0a5,5,0,0,1-3.5-1.26c-3.51-3-7.16-5.86-10.52-9-5.47-5.15-11.77-6.22-18.72-4.18a33.3,33.3,0,0,0-6,2.81c-2.62,1.4-2.84,1.31-3.13-1.59s-.64-5.94-1-8.91a2.32,2.32,0,0,0-.23-.6h-.31a8.86,8.86,0,0,0-.12,1c0,5.7,0,11.41,0,17.11,0,1.57-.45,2.11-2,2.2l-25.18,1.49c-2,.12-2.32-.39-1.44-2.2.19-.39.41-.77.61-1.16l.62-1.15c-2.4-.3-3.47.28-4.32,2.33a4.82,4.82,0,0,1-4.32,3.1c-4.6.43-9.21.79-13.82,1.19q-13,1.14-26,2.3c-2.1.19-4.18.23-6.06-.84a15.16,15.16,0,0,1-2.16-1.87l.1-.47a8.15,8.15,0,0,1,2-.82q9.12-1.25,18.26-2.36,14.06-1.72,28.13-3.39a6.88,6.88,0,0,0,6.1-4.63A58.8,58.8,0,0,1,157,186.1l-5.84-3.64c-1.49-.93-1.69-1.36-1.31-3.05a23.8,23.8,0,0,1,7.4-12.57,7.93,7.93,0,0,1,10.85-.11c1.09.93,2.15,1.9,3.22,2.85.91.81.65,1.7.18,2.6-1.61,3.07-3.23,6.13-4.83,9.21q-3.11,6-6.19,12a9.87,9.87,0,0,0-.37,1A19.1,19.1,0,0,0,163,194a2.09,2.09,0,0,0,1.22-1c6.61-14.37,13.13-28.77,17-44.2.49-2,.72-4,1.09-6.11l-8.56-.76c-5-.43-9.93-.82-14.89-1.29a9.7,9.7,0,0,1-2.25-.78l0-.56a8.52,8.52,0,0,1,2.17-.5c5.38.17,10.75.47,16.13.63s10.76.26,16.14.28c3.12,0,4.46-2.21,3.11-5-2.84-5.88-5.74-11.73-8.58-17.61a3.74,3.74,0,0,0-2.5-2c-8.56-2.65-17.37-4-26.22-5.21q-7.28-1-14.56-2l-.24,0c-2.77-.44-3.09-.21-2.91,2.6a11.9,11.9,0,0,1-2.91,8.59q-25.5,31.53-51,63.1a4.76,4.76,0,0,0-1.18,4.29c.81,3.82,1.53,7.65,2.23,11.49.28,1.5,1.51,1.63,2.79,2.24,0-.54,0-.87-.1-1.19L86.93,186.2a6,6,0,0,1,1.27-4.7C100,165.63,113,150.76,125.67,135.66q6.83-8.08,13.67-16.16c.23-.28.46-.56.71-.81,2.34-2.37,5.49-1.7,6.44,1.5,1.49,5,2.86,10,4.16,15.07a9.4,9.4,0,0,1-1.61,7.93c-9.4,13.86-20.64,26.16-32.34,38-9,9.09-18.15,17.93-27.24,26.88a8.36,8.36,0,0,1-6.11,2.29q-24.7.09-49.41.17c-10.85,0-21.7,0-32.55,0H0v-1.85c.52,0,1.06-.08,1.59-.08l62.24,0c5.69,0,11.39-.09,17.09,0a12.48,12.48,0,0,0,9.25-3.7c13.29-12.7,26.26-25.72,38.62-39.34a237.89,237.89,0,0,0,18.36-22.81,9.67,9.67,0,0,0,1.42-8.64q-1.84-6.49-3.73-13c-.25-.84-.5-1.93-1.53-1.88a3.41,3.41,0,0,0-2.2,1.12q-12.74,15-25.36,30.09-10.66,12.76-21.19,25.64a73.2,73.2,0,0,0-5,6.88,4.87,4.87,0,0,0-.69,3c.65,4.66,1.47,9.29,2.25,13.92.33,2,.07,2.27-2,1.91a11.76,11.76,0,0,1-2.65-.62c-1.64-.72-2.13-2.26-2.41-3.88-.66-3.73-1.27-7.46-2-11.16a5.32,5.32,0,0,1,1.1-4.69q15.17-18.89,30.32-37.78,10.86-13.45,21.86-26.79a8.4,8.4,0,0,0,1.81-5.19c.06-1.24,0-2.48,0-3.71.06-1.67.78-2.28,2.44-2.2a165.6,165.6,0,0,1,25.08,3.4c5.54,1.12,11.1,2.18,16.65,3.25a8.79,8.79,0,0,1,6.65,5.09c2.57,5.39,5.16,10.78,7.7,16.18,2,4.24-.18,7.77-4.87,7.89-1.91.05-3.83,0-5.74,0-.54,0-.89.07-1,.73-1.62,11.79-5.78,22.81-10.41,33.67-2.48,5.82-5.08,11.6-7.61,17.4a4.08,4.08,0,0,1-4.38,2.6c-2.42-.11-3.85,1.07-4.37,3.63L182,198.3c0-2.59,0-5.08,0-7.58.11-4.94.23-9.88.43-14.82a13.08,13.08,0,0,1,.69-2.68,3.43,3.43,0,0,1,2,2.59c.72,4.35,1.51,8.7,2.28,13.13.72-.37,1.51-.79,2.32-1.18,5.94-2.85,12.05-3.69,18.24-1a25.78,25.78,0,0,1,5.71,3.63c3.11,2.49,6.11,5.12,9,7.81a8.81,8.81,0,0,0,6.59,2.55c1.86-.07,3.73,0,5.4,0,0-2.58,0-5,0-7.49,0-.87-.13-1.75-.13-2.62,0-1.89.59-2.65,2.4-3.2a57.21,57.21,0,0,1,15.34-2.14c5.06-.13,10.12-.34,15.18-.51l.47,0c1.92-.21,2-.36,1.62-2.24a27.76,27.76,0,0,0-4.38-11.13,4.61,4.61,0,0,0-4.19-2.19c-8.17.07-16.35,0-24.53,0-1.47,0-2.94-.08-4.42-.17a5.72,5.72,0,0,1-5.32-4c-1.54-4-3-8-4.61-12-1.05-2.62-2.3-5.17-3.48-7.74-.62-1.35-1.22-1.6-2.72-1.12.74,2.1,1.5,4.18,2.22,6.28A72.58,72.58,0,0,1,221.87,166c.25,2.19,0,2.54-2.1,2.77q-10.4,1.16-20.8,2.27a11.46,11.46,0,0,1-1.55,0,1.46,1.46,0,0,1-1.56-1.35c-.18-1.59-.35-3.17-.41-4.76-.22-5.69-.39-11.39-.59-17.28-1.21.46-2.38.82-3.48,1.32s-1.08,1.49-1,2.48q.24,6.93.49,13.86c.06,1.43.16,2.86.21,4.29s-.27,1.75-1.6,1.83c-1.91.12-3.82.18-5.74.22a1.27,1.27,0,0,1-1.42-1.4c-.17-6.56,0-13.08,1.67-19.48a7.6,7.6,0,0,1,5.25-5.7,102.37,102.37,0,0,1,24.45-5.3c13.25-1,26.27-.05,38.9,4.39,1,.34,2,.6,3,.93a14.6,14.6,0,0,1,7.36,6c3.11,4.62,5.25,9.73,7.43,14.82a74.17,74.17,0,0,1,6.09,22.63c.28,3.12.28,6.27.41,9.53l1.88.15c.89.07,1.45.54,1.43,1.44-.06,4.21,0,8.44-.29,12.64-.13,2.17-1.61,3.37-3.87,3.52-6.44.43-12.89.77-19.33,1.19q-11.64.75-23.26,1.6a13.15,13.15,0,0,1-8.41-2.12,8.25,8.25,0,0,1-3.2-4.48,31.65,31.65,0,0,0-6.64-11.78c-3.74-4-8.22-6.57-13.77-6.91A14.24,14.24,0,0,0,187.5,202a5.09,5.09,0,0,1-4.66,3.47c-10.18.74-20.35,1.58-30.52,2.28-7.24.5-14.49.81-21.73,1.24-3.19.19-5,2.13-4.83,5.32.06,1.47.33,2.93.43,4.4,0,.73.71,1.83-.66,2s-1.06-1-1.2-1.75c-.58-3.19-2-5.86-5-7.22a12.75,12.75,0,0,0-8.3-.83,7.51,7.51,0,0,0-5,3.77c-2.42,4.46-3.06,9.12-1,13.91a10.7,10.7,0,0,0,13.75,5.56,7.64,7.64,0,0,0,4.31-4.41,35.1,35.1,0,0,0,1.53-5.25c.39-1.75.5-1.95,2.23-1.93l22.73.23a3.46,3.46,0,0,1,2.94,1.4,9.27,9.27,0,0,1-2.18.83c-3,.32-6,.52-9.15.78a8.62,8.62,0,0,0,3.42,4.87,10.63,10.63,0,0,0,8.78,1.65,8.54,8.54,0,0,0,6.39-6.31c.29-1,.53-1.92.75-2.89a1.73,1.73,0,0,1,1.82-1.53q7.53-.33,15.05-.71c.91,0,1.83-.14,2.73-.27,3.35-.51,5-2.82,6.05-5.77A18.48,18.48,0,0,1,195,204.62a16.83,16.83,0,0,1,21.78,4.46,81,81,0,0,1,4.39,6.83c.43.71.92,1.71.12,2.27s-1.56-.26-2.2-.9c-2-2-4-4.12-6.16-6a14.36,14.36,0,0,0-11.19-3.93,11.92,11.92,0,0,0-10.53,8.21,21.15,21.15,0,0,0,.44,16.64,14.94,14.94,0,0,0,28.71-5.93c.07-1.63,0-3.27-.08-4.9,0-1.46.28-1.84,1.69-1.82,3.11.05,6.22.09,9.32.28a9.12,9.12,0,0,1,2.6,1.08,15,15,0,0,1-1.74,1.21,1.25,1.25,0,0,0-.77,1.51c.65,5.65,5.71,10.74,11.61,11.64s12.19-2.32,14.49-7.63a15.1,15.1,0,0,0,1.07-7.37c-.14-1.75,0-1.93,1.78-2l26.91-.51c6.73-.13,13.47-.39,20.2-.4,20.06,0,40.12.07,60.18.12.32,0,.63,0,1,.06v1.86c-36,.11-72-.31-108.13.7.22,5.31-1,10-5.21,13.47a15.52,15.52,0,0,1-10.37,3.65c-7.39-.06-15.14-5.45-15.63-15.74h-7.06c0,1.68,0,3.42,0,5.15a16.82,16.82,0,0,1-32,6.65,21.94,21.94,0,0,1-.29-19.28,14.23,14.23,0,0,1,19.74-7.09c1.77.86,3.43,1.93,5.14,2.91Zm-45.08-38.87c-1.24-1.11-2.33-2.23-3.58-3.14a6,6,0,0,0-7.69.5,24.29,24.29,0,0,0-6.66,10.75,1.76,1.76,0,0,0,.89,2.3c1.64,1,3.24,2,4.87,3s1.8,1.48.88,3.17c-1.17,2.17-2.34,4.35-3.49,6.53a13.11,13.11,0,0,0-.51,1.3c1.88-.16,3.13-.75,3.64-1.74C162,186,165.88,178.5,169.82,170.82Zm-66.21,32.83.06.44c1.18,0,2.37.08,3.54,0,4.21-.33,8.42-.72,12.62-1.08q13.83-1.2,27.64-2.39c1.84-.16,2.4-.72,2.84-2.79Z"/></g></svg>