<svg xmlns="http://www.w3.org/2000/svg" viewBox="0 0 368.61 355.7"><g id="OBJECTS"><path d="M368.61,249.86c-2.82-.1-5.65-.23-8.47-.27-4.38-.07-8.76-.07-13.15-.09l-30.24-.16-9.91-.08-1.24-.06c0-.42-.07-.76-.07-1.11,0-8.65,0-17.29-.09-25.94-.05-8.28-.16-16.57-.22-24.86a4,4,0,0,0-1.89-3.37,7.76,7.76,0,0,1-3.35-8.64,7.18,7.18,0,0,1,3.18-4.33,4.34,4.34,0,0,0,2.08-4.23c-.12-2.94,0-5.89,0-9-.83-.06-1.57-.15-2.32-.15l-29.4-.05c-.4,0-.8,0-1.2,0-3.17-.28-4.56-1.75-4.57-4.95q0-7.35,0-14.7c0-3.42,1.56-4.94,5-4.95l22.83-.09a19,19,0,0,0,2-.24,2.62,2.62,0,0,0-2.47-1.32c-1.15-.11-2.31-.1-3.46-.1H253.1c-.78,0-1.57.08-2.42.12v61.52c1.32.52,1.82.33,2.64-1.1a26.83,26.83,0,0,1,7.42-8.64c16.78-12.12,38.51-1.56,41.17,16.37.48,3.26.58,6.57.87,10-2.1,0-4,.07-6,0-.85,0-1.11-.84-1.09-1.61,0-1.08.12-2.15.16-3.22a19.33,19.33,0,0,0-13.23-19.13,19,19,0,0,0-22.09,7.14c-1.48,2.13-3.19,3.18-5.82,2.83a25,25,0,0,0-4.05.07c-1.61.06-2.08-.27-2.65-1.77a1.23,1.23,0,0,0-.81-.6c-1.81-.31-2.2-.7-2.2-2.6,0-3.74.05-7.49.07-11.23,0-.42,0-.85,0-1.36a4.23,4.23,0,0,0-2.64,2.44,20,20,0,0,1-10,9.84A24.5,24.5,0,0,1,222.8,202c-2.11,0-2.21.11-2.23,2.24,0,.59,0,1.19,0,2,1.07.06,2.08.16,3.09.16,6.1,0,12.2,0,18.3,0,4.7,0,9.4,0,14.1.1a5,5,0,0,0,4.75-2.53,18.3,18.3,0,0,1,21.54-7.47,18.58,18.58,0,0,1,12.42,19.39A18.55,18.55,0,0,1,259.12,221c-.19-.48-.36-1-.58-1.44a2.37,2.37,0,0,0-2.25-1.49H177.51c-2.65,0-2.82.11-3.77,2.53a18.53,18.53,0,0,1-18.25,12.09c-7.27-.12-14.11-5.34-16.72-12.74-.65-1.87-.65-1.86-2.62-1.89-1,0-2-.14-3-.07a6.32,6.32,0,0,0-5.05,3.2,20.45,20.45,0,0,0-1.23,2.31A14.66,14.66,0,0,1,115,232.28c-4.82.73-9.47.2-13.68-2.43-4.78-3-7.37-7.44-8.59-13l-51.59-.7v14.58H.05c-.12-1.07-.12-1.09,1-1.08,4.82,0,9.64,0,14.46,0h24.4V215.07c.52,0,.9-.09,1.28-.08,12,.21,24.05.44,36.07.62,4.62.07,9.25,0,13.87.06.85,0,1.41-.28,1.48-1.17.15-1.82.28-3.64.42-5.61H85.53v-7.06c-2.47,0-4.81.15-7.14,0a19.94,19.94,0,0,1-18.3-19.19q-.27-12.78,0-25.58A20,20,0,0,1,79.92,137.2c2.3-.07,4.62-.08,6.92-.08q44,0,88,0c.63,0,1.46.41,1.83-.61a2.06,2.06,0,0,0-.59-2.58c-1.67-1.29-1.25-3.06-1.06-4.72,0-.4.76-.89,1.26-1a7.93,7.93,0,0,1,2.24-.19h25.23c3.34,0,4.28,1.19,3.41,4.47-.13.49-.64.88-.94,1.33a4.53,4.53,0,0,0-.9,1.48c-.28,1.58,0,1.88,1.63,1.89q8.67,0,17.33.08a20.12,20.12,0,0,1,20,17.9c.08.69.23,1.37.35,2.06H245c0-.71.15-1.42.15-2.13,0-2.63-.06-5.26-.07-7.88,0-3.19,0-3.19,3.08-4-.18-1.86-.38-3.75-.53-5.64-.2-2.53.46-3.24,3-3.24h47.34c2.29,0,3.31.48,3.66,1.95.71,3,.46,4.15-1.62,5.23-.06,0-.1.11-.24.25.91,3,1.89,6,2.76,9,1.38,4.82,3,9.6,3.94,14.5.74,3.75.7,7.67,1,11.52a5.55,5.55,0,0,0,1.18,3.65,3.22,3.22,0,0,1,.37,1.93c0,3.34-.06,6.69-.12,10a2.61,2.61,0,0,1-.25,1.15,12.69,12.69,0,0,0-1.17,6.16q.08,11.29.12,22.59,0,11.64.08,23.3c0,.47,0,.95.07,1.72,1.9,0,3.76,0,5.62,0l13.74.07c9.88.06,19.76.1,29.64.17,4,0,8,.13,11.94.19ZM242.46,161.32c-.11-1.89-.18-3.71-.34-5.53a17.79,17.79,0,0,0-15.43-16.12,87.8,87.8,0,0,0-10.14-.31q-37.23,0-74.45,0H82.7c-6,0-11.49,1.37-15.68,6s-5.23,10-4.51,16Zm-90.07,16.37q-44.22,0-88.45,0c-1.16,0-1.63.41-1.63,1.49,0,1.51-.12,3,0,4.52.83,8.49,8.58,15.76,17.1,16,4.58.12,9.16,0,13.74.13a19.09,19.09,0,0,0,9.43-2,19.19,19.19,0,0,1,10.26-2.21,24.43,24.43,0,0,1,8.23,2.69,12.25,12.25,0,0,0,4.49,1.38c5.09.19,10.19.13,15.29.14a10.37,10.37,0,0,0,5.38-1.31q10.14-5.88,20.28,0a10,10,0,0,0,5.13,1.33h51.16a20.42,20.42,0,0,0,10.12-2.39c6.75-3.8,9.39-9.87,9.26-17.35,0-2.34-.15-2.33-2.55-2.33Zm-89.88-2.64H242.07V164H62.51Zm241.86-9.72a7.32,7.32,0,0,0-.13-1c-1.84-6.08-3.71-12.16-5.54-18.25a1.28,1.28,0,0,0-1.49-1c-8,0-16.09,0-24.14,0-2.46,0-3.2.78-3.21,3.23q0,6.69,0,13.38a11.29,11.29,0,0,0,.13,1.54,2.1,2.1,0,0,0,2.07,1.95c.51.05,1,.1,1.55.1h30.75ZM258.17,209H174.45c.24,2.19.48,4.31.72,6.5h80.57a4.72,4.72,0,0,0,1.19,0c.27-.07.66-.35.69-.57C257.84,213,258,211.06,258.17,209ZM111,230.37c9,0,16.54-7.27,16.57-15.91a16.44,16.44,0,0,0-16.41-16.69c-8.64,0-16.27,7.36-16.31,15.78C94.8,222.82,102,230.35,111,230.37Zm165.25,0a16.3,16.3,0,1,0-.2-32.59,16.3,16.3,0,0,0,.2,32.59Zm-119.93,0A16.3,16.3,0,1,0,140,214.2,16.44,16.44,0,0,0,156.31,230.36Zm61.56-28.05H171.39a4.36,4.36,0,0,0,4.46,4c3,.09,6.05,0,9.07,0l29.76,0c1.06,0,2.12-.09,3.19-.14Zm82.27,11.13c-.08-1.07-.08-2.15-.25-3.21a23.75,23.75,0,0,0-29-19.38,21.79,21.79,0,0,0-14.48,10.27,6.74,6.74,0,0,0-.67,1.75.84.84,0,0,0,.36.75c.16.09.58-.11.74-.3.78-.91,1.49-1.88,2.25-2.79,4.9-5.88,11-9.05,18.82-8.29s13.93,4.18,17.67,11.31A26.56,26.56,0,0,1,298.36,216c0,.57-.06,1.2.78,1.18s1-.58,1-1.23C300.16,215.12,300.14,214.28,300.14,213.44Zm-.83-76.8H249.88v2h49.43Zm-96.46-2.71h-4.38c-5.88,0-11.77,0-17.65,0-.87,0-1.68.06-1.62,1.33.05,1.08.28,1.58,1.56,1.56,6.92-.07,13.84,0,20.76,0h1.33Zm-61.46,68.31H125.67a25.9,25.9,0,0,0,1.73,2.87,2.69,2.69,0,0,0,1.63,1.06,73.67,73.67,0,0,0,8.79.11A4.18,4.18,0,0,0,141.39,202.24Zm-3.74,13.3c.22-2.3.42-4.41.62-6.54h-9c.2,2,.37,3.93.61,5.85a1,1,0,0,0,.73.66C132.92,215.56,135.22,215.54,137.65,215.54Zm168.77-33.16a5,5,0,0,0,0,10ZM88,202.3v1.08c0,3.19,0,2.87,3.09,3.12a4.67,4.67,0,0,0,5.11-4.2Zm116-71.52H178.13A109.8,109.8,0,0,0,204.07,130.78Zm43.72,15.53-.08-.05v53.9h.08Z"/><path d="M280.65,171.79c1.19,0,2.39,0,3.58,0,1.39,0,1.83.5,1.88,1.91,0,.71,0,1.43,0,2.15-.05,1.34-.47,1.84-1.78,1.88-2.5.08-5,.12-7.5.09-1.54,0-2.14-.63-2.34-2.15a8.32,8.32,0,0,1,0-1.32c0-1.88.6-2.48,2.49-2.56.64,0,1.28,0,1.92,0Zm-3.52,3c2.15,1,4.41.38,6.85.58C283.08,174.3,278.5,173.93,277.13,174.81Z"/><path d="M100.58,214a10.64,10.64,0,1,1,10.6,10.59A10.49,10.49,0,0,1,100.58,214Zm11.41-8c-3.57-.86-8.09,1.89-8.08,4.77,2.57-1.29,3.43-1.26,4.53.16.88,1.13,1,2.57.11,3.23a4.86,4.86,0,0,1-2.89,1.09c-1-.09-1.81-1-2.68-1.57-.45,3.43,2.27,7.61,5,7.55-.14-.46-.31-.9-.43-1.36-.47-1.78-.23-2.31,1.42-3.13a1.94,1.94,0,0,1,2.76.48c1,1.23,1.06,2,.23,3.11l-1.36,1.79c3.38.72,7.48-1.81,8-4.89-1.82.3-3.85,1.41-5-1.12-.45-1,0-2.12,1.2-2.95,2.2-1.47,3.11.79,4.49,1.66.82-3.33-1.64-7.56-4.61-8,1.09,2.53.88,3.56-.88,4.35s-2.86.38-3.58-1.15C109.41,208.28,109.89,207.05,112,206.05Z"/><path d="M276.16,203.47a10.58,10.58,0,1,1,0,21.16,10.37,10.37,0,0,1-10.5-10.55A10.49,10.49,0,0,1,276.16,203.47Zm1.09,2.66c-3-1.36-8.14,1.62-8.24,4.79.69-.23,1.35-.47,2-.66a1.91,1.91,0,0,1,2.29.81,2.67,2.67,0,0,1,0,3.32,2.49,2.49,0,0,1-3.26.46,17.43,17.43,0,0,1-1.91-1.35c-1.28,3,2.36,7.66,4.67,7.73-1.13-2.23-1-3.57.48-4.51,1.28-.82,3-.73,3.65.36a5.73,5.73,0,0,1,.6,2.37c.14,1.49-1.22,2-2.22,2.71,3.23.84,7.23-1.35,8-4.31-.95,0-1.89,0-2.83-.16a1.9,1.9,0,0,1-1.85-2,2.52,2.52,0,0,1,1.75-2.9,2,2,0,0,1,2.57.85l1.29,1.91c1.11-3.91-1.79-8.59-4.32-8.53.37,2.77-.05,4-1.48,4.5a2.46,2.46,0,0,1-3.19-1.34C274.56,208.72,275,207.89,277.25,206.13Z"/><path d="M145.73,214a10.64,10.64,0,1,1,10.74,10.67A10.58,10.58,0,0,1,145.73,214Zm9.86,8c3.22,1.08,8.26-2,8.07-4.88-.64.23-1.27.48-1.91.67a2,2,0,0,1-2.59-1.07,2.36,2.36,0,0,1,.5-3.31,1.93,1.93,0,0,1,2.78-.24c.68.46,1.33,1,2,1.48.56-3.63-1.78-7.54-4.63-7.87,1.09,2.77,1,3.81-.56,4.64s-3.14.55-3.78-.75a4.08,4.08,0,0,1-.37-2.78c.25-.78,1.24-1.32,1.88-1.94-3.57-.91-8.14,2.35-7.79,4.64,3.14-.94,4.24-.71,4.84,1s0,3.36-1.55,3.73a4,4,0,0,1-2.71-.24c-.69-.39-1-1.43-1.44-2.11-1.19,3.2,1.7,8.35,4.76,8.25-.19-.72-.43-1.44-.56-2.18a1.94,1.94,0,0,1,1.28-2.29,2.43,2.43,0,0,1,3.3.69,1.93,1.93,0,0,1,.09,2.7C156.73,220.79,156.19,221.37,155.59,222.05Z"/></g></svg>