<svg xmlns="http://www.w3.org/2000/svg" viewBox="0 0 368.61 355.7"><g id="OBJECTS"><path d="M0,203.33c.47,0,1,.11,1.42.11H28.23V227.5h81.58V154L73.09,182.58c.65,0,1,.08,1.32.08,7.51,0,15,0,22.54.1,1.07,0,1.58-.29,1.71-1.44a16.34,16.34,0,0,1,.87-3.47c.3-.85,1-1.73,1.92-1.43a2.9,2.9,0,0,1,1.73,1.71c3.07,12.14-2.35,24.91-14.37,30.14a10.38,10.38,0,0,1-3,.7c-5,.54-10.05.81-14.54-2a25.32,25.32,0,0,1-12-17.65,34.44,34.44,0,0,1-.42-4.17,5,5,0,0,1,1.62-4c6.35-6.13,12.68-12.29,19-18.4q12.32-11.82,24.69-23.59,15-14.19,29.95-28.33c.46-.43,1-.83,1.62-1.42.15,2.29.35,4.37.42,6.45.19,5.79.31,11.58.51,17.37a3.51,3.51,0,0,1-1.58,3.15c-2.09,1.54-4.13,3.14-6.19,4.73-1.4,1.07-1.65,1.83-1.15,3.53a39.22,39.22,0,0,0,8.79,15.23c2.22,2.45,4.58,4.79,7,7.09a2.79,2.79,0,0,1,.81,3.22c-1.77,5.22-3.49,10.45-5.24,15.67-.58,1.74-1.28,2.2-3.1,2.16-1.08,0-2.15,0-3.38,0,1.81-5.58,3.59-11.06,5.43-16.76a13.9,13.9,0,0,0-4.56,3.86,23.35,23.35,0,0,0-4.76,10.46,18.64,18.64,0,0,1-.89,2.64h17.94c.49,1.66,1,3.22,1.41,4.78,1.09,3.8,2.15,7.6,3.26,11.39a2.89,2.89,0,0,1-.45,2.7,29.9,29.9,0,0,0-5.16,14,12.76,12.76,0,0,1-.85,2.48l-.41,0c-.93-3.13-1.87-6.25-2.76-9.38-1.16-4.07-2.28-8.15-3.41-12.22-.46-1.63-.62-1.75-2.33-1.75-3.32,0-6.63,0-10,0-.59,0-1.18-.07-1.87-.11v-11.8l-.32-.25c-.28.27-.81.53-.81.8,0,4.11,0,8.22,0,12.44.66,0,1.25.12,1.83.12,3.4,0,6.79,0,10.19-.06,1.53,0,2,.41,2.39,1.93.52,2.21,1.07,4.41,1.67,6.87H128c.31,1.93.57,3.61.86,5.28.22,1.34.49,2.67.69,4,.14.93.54,1.41,1.56,1.42,3,0,6.07.17,9.1.21a1.86,1.86,0,0,1,2.1,1.66c.34,1.8.73,3.58,1.18,5.74-38.79.33-77.43-.06-116.2.28v-24a3.18,3.18,0,0,0-.65-.16q-13.31,0-26.61,0Zm134.91-91.79-1.17,1.07c-9.22,8.74-18.47,17.44-27.65,26.22q-22.53,21.53-45,43.13a3.86,3.86,0,0,0-1.24,3.12,37.37,37.37,0,0,0,.34,3.82,24.55,24.55,0,0,0,11.33,17c4.21,2.77,9,2.53,13.69,2.07a12.2,12.2,0,0,0,3.91-1c10.71-5.1,15.83-16.62,13.16-28.27-.11-.47-.61-.85-.92-1.27-.36.39-.89.73-1,1.2a18.11,18.11,0,0,0-.74,3.26,1.89,1.89,0,0,1-2.07,1.86c-.79,0-1.59,0-2.39-.06-7,0-14,0-21,0-1.14,0-2.28-.17-3.69-.28.5-.42.78-.67,1.08-.9l24.3-18.93c4.41-3.44,8.84-6.86,13.23-10.32.71-.56,1.3-.63,1.78.14.18.3.06.78.06,1.18v72.81h31.24c-.3-1.51-.62-2.78-.81-4.08-.13-.94-.54-1.25-1.49-1.26-3,0-6.07-.13-9.1-.22a2,2,0,0,1-2.19-1.92c-.5-2.87-1-5.74-1.48-8.62-.26-1.59.08-2.05,1.7-2.13,2.15-.1,4.31-.11,6.47-.16.46,0,.93,0,1.53,0-.46-1.93-.92-3.66-1.27-5.42a1.32,1.32,0,0,0-1.56-1.22c-3.51.05-7,0-10.55,0-.75,0-1.49-.07-2.29-.12V187.11c1.64,0,3.23-.05,4.82,0,1,.05,1.5-.18,1.7-1.29,1.16-6.52,4.12-12,9.85-15.61a1.7,1.7,0,0,1,1.29-.27c.81.27.47.94.28,1.51Q137,177.79,135,184.1c-.3.92-.59,1.85-.91,2.88h1.24c2.3,0,2.32,0,3-2.14,1.64-5,3.27-9.92,5-14.87a2,2,0,0,0-.57-2.33c-2-1.94-4-3.91-5.93-5.94a41.43,41.43,0,0,1-10-16.7c-.66-2.24-.28-3.38,1.57-4.79s3.73-3,5.71-4.36a3.4,3.4,0,0,0,1.56-3.33c-.17-4.07-.22-8.15-.35-12.22C135.2,117.48,135.05,114.65,134.91,111.54Zm8.75,108.86.2,0,.27-1.53a28.7,28.7,0,0,1,4.76-12,2.73,2.73,0,0,0,.44-2.65q-2-6.87-4-13.78a1.27,1.27,0,0,0-1.47-1.12c-6.15,0-12.3,0-18.45,0-.38,0-.76,0-1.14.08v9.75h11c2,0,2.56.44,3.08,2.3.67,2.42,1.31,4.85,2,7.26C141.43,212.6,142.55,216.5,143.66,220.4Z"/><path d="M198.12,226.26c.31-11.95-4.06-21.24-14.93-26.86-11.32-5.86-21.39-2.85-31.11,4.8.11-2,.11-3.77.3-5.47,1-9,2-17.94,3.05-26.9.93-7.81,2-15.6,3-23.41.14-1.11.27-2.22.41-3.33.45-3.69,2.41-5.59,6.13-5.75,3.51-.15,7-.23,10.54-.24q11.86,0,23.73.09a38.21,38.21,0,0,1,4.53.35,5.48,5.48,0,0,1,5.13,5.15q.9,8.28,1.68,16.56c.4,4.46.7,8.92,1,13.38.08,1.15.53,1.65,1.74,1.5a23.73,23.73,0,0,1,2.82,0v-7.34a2.58,2.58,0,0,1,1.41-2.55,2.14,2.14,0,0,0,.66-1.6c.07-3,0-5.91,0-9h6.62v9.08a1.83,1.83,0,0,0,1.06,1.91,2.75,2.75,0,0,1,1,2c.16,1.87.12,3.75.13,5.63s0,1.81,1.78,2a14,14,0,0,1,2.13.3c3,.73,4.75,3,4.8,6.33,0,1.83,0,3.67-.07,5.51,0,2.19-.67,2.7-2.82,2.2L210,185.24c-.42-.1-.84-.14-1.56-.26,0,2.4-.07,4.67.07,6.92,0,.4.81.88,1.35,1.1,4.43,1.81,8.88,3.56,13.32,5.34,3,1.2,6,2.4,9,3.64a6,6,0,0,1,2.27,1.29,3.78,3.78,0,0,1,1,2.46c0,.51-1.11,1.14-1.83,1.36a21.13,21.13,0,0,1-3.31.5,21,21,0,0,0-17.63,16.23c-.44,1.88-.83,2.36-2.71,2.41C206.06,226.32,202.15,226.26,198.12,226.26Zm19-49.09h-4.3a2,2,0,0,1-2.27-2c-.11-1.2-.16-2.39-.27-3.59-.8-8.78-1.58-17.57-2.44-26.36-.29-3-1.8-4.45-4.81-4.67s-6.06-.33-9.09-.35q-11.5-.08-23,0c-2.19,0-4.39.1-6.57.31-2.74.27-4,1.46-4.43,4.2-.47,3-.82,5.93-1.19,8.9-1.1,8.75-2.22,17.5-3.26,26.27-.82,6.94-1.54,13.89-2.29,20.83,0,.37,0,.75,0,1.34,9.71-7,19.79-9.13,30.67-3.42s15.33,14.86,15.31,26.65c3.63,0,7.09,0,10.56,0,1.18,0,1.66-.53,1.93-1.64a22,22,0,0,1,19.74-17.19,13.34,13.34,0,0,0,2-.3c.39-.11,1-.43,1-.65a1.82,1.82,0,0,0-.6-1.32,11.23,11.23,0,0,0-2.41-1.31c-3.13-1.3-6.28-2.56-9.43-3.82-4.26-1.71-8.53-3.37-12.77-5.14-.69-.29-1.69-1-1.73-1.53-.18-2.78-.08-5.57-.08-8.52.82.11,1.45.13,2.06.27q7.69,1.75,15.39,3.55c2.76.64,5.51,1.32,8.27,2,.64.15,1.43.43,1.43-.74,0-2.15.14-4.32,0-6.46-.19-3-1.85-4.61-4.84-5-1.25-.17-2.5-.32-3.84-.49,0-2.69,0-5.25,0-7.8,0-.56-.26-1.43-.66-1.62a2.55,2.55,0,0,1-1.42-2.66c0-2,0-4.07,0-6.11v-2.11h-4.44c0,.67-.11,1.31-.12,1.94,0,2.16,0,4.32-.05,6.47,0,1-.16,2-1.4,2.35-.3.09-.55.75-.59,1.17a25.64,25.64,0,0,0,0,2.63Z"/><path d="M294.13,241.7h74.34c.25.65.22,1-.58,1h-.72q-39.26,0-78.53,0a30,30,0,0,1-10.05-1.23,19.18,19.18,0,0,1-10.28-8c-5-8-11.4-14.79-17.6-21.78a3.07,3.07,0,0,1-.25-.26c-2.76-4-6.68-6.14-11.09-7.89-8.87-3.5-17.6-7.33-26.4-11a3.62,3.62,0,0,1-2.42-3.49c-.07-1.76.86-2.54,2.57-2.14,3,.68,6,1.4,9,2.13l21.72,5.36c1.62.4,2.31.13,3.27-1.25,1.57-2.26,3.14-4.53,4.72-6.79.15-.22.34-.42.57-.7l19.44,18.41,2.91-2.57c1.52,1.47,3,2.91,4.53,4.39q11.22,11.25,22.41,22.53a1.3,1.3,0,0,0,2,.15c.94-.66,2-1.19,3-1.76a2.09,2.09,0,0,1,2.67.12c.76.77.39,1.71-.08,2.55A25.69,25.69,0,0,1,295,241.18l-.89.31Zm-41.66-54.53c-1.56,2.25-3.05,4.38-4.52,6.52-1.22,1.78-2.29,2.2-4.4,1.68l-21-5.18c-3.18-.77-6.36-1.53-9.55-2.25-1.14-.26-1.59.21-1.4,1.35a2.81,2.81,0,0,0,1.84,2.3q15.74,6.56,31.44,13.22a9.37,9.37,0,0,1,2.88,2.05c2,2,3.83,4.18,5.72,6.3,5.64,6.31,11.28,12.62,15.84,19.81a19.32,19.32,0,0,0,4.7,4.89c4.53,3.42,9.79,4.38,15.33,3.59,8-1.15,14.38-5,18.68-12a18.23,18.23,0,0,0,.89-2,7,7,0,0,0-1.76.3,29.91,29.91,0,0,0-2.9,1.68c-1.45.93-2.11.9-3.37-.33-.74-.73-1.44-1.49-2.18-2.23q-9.9-9.93-19.81-19.86c-1.37-1.37-2.79-2.68-4.21-4l-2.88,2.52Z"/><path d="M171.45,200.81a21.85,21.85,0,0,1,22,22c0,12.54-9.73,21.89-22.57,22.1-10.47.17-21.92-9.28-21.45-22.45C149.8,211,157.59,200.84,171.45,200.81Zm0,1c-12.28,0-20.53,8.65-21,20.6-.49,12.44,10.25,21.58,20.5,21.44,12.16-.16,21.45-9.19,21.45-21.13A20.83,20.83,0,0,0,171.43,201.85Z"/><path d="M232.92,245.81a17.77,17.77,0,0,1-17.52-17.88c0-9.09,7.88-16.9,16.67-17.37,11.29-.61,18.81,9.22,18.8,16.9C250.86,237.8,243.1,245.79,232.92,245.81Zm.27-34.09c-8.87-.78-16.64,7.59-16.74,16.12a16.82,16.82,0,0,0,16.32,17c9.52.11,16.93-7.37,17.08-17.25C250,219.24,242.13,211.78,233.19,211.72Z"/><path d="M183,176.94a11.91,11.91,0,0,1-1.82.23q-7.91,0-15.81-.11c-2,0-2.38-.4-2.28-2.33.32-5.58.69-11.16,1-16.74.21-3.38.44-6.77.62-10.16.13-2.46.86-3.22,3.29-3.22,5,0,9.9,0,15,0Zm-.93-31.16c-.38,0-.62-.05-.85-.05l-13.05-.08c-2,0-2.29.32-2.41,2.26-.14,2.31-.25,4.62-.4,6.93-.42,6.57-.83,13.14-1.29,19.71-.08,1.14.27,1.5,1.45,1.5,4.95,0,9.9.09,14.84.13,1.7,0,1.71,0,1.71-1.64V145.78Z"/><path d="M186.68,177V144.6c.43,0,.85-.07,1.27-.07l12.7.16c1.78,0,2.22.43,2.36,2.28q.68,9.32,1.32,18.64c.2,2.87.4,5.74.64,8.6.2,2.42-.09,2.78-2.45,2.78H186.68Zm1.08-31.31V176c5.21,0,10.32,0,15.43,0,1,0,.81-.64.77-1.22q-.92-13.08-1.84-26.16c-.19-2.74-.2-2.74-2.9-2.89l-.36,0Z"/><path d="M253.72,195.45c2,1.94,3.91,3.75,5.79,5.6q4,3.9,7.91,7.85c1.18,1.17,1.24,1.63.58,3.19-.74,1.76-1.47,3.52-2.29,5.46L250.54,200Zm11.67,20.14c.61-1.44,1.13-2.74,1.72-4a1.43,1.43,0,0,0-.36-1.9c-2-1.91-3.9-3.9-5.86-5.83-2.3-2.27-4.63-4.51-7-6.82-.7,1-1.34,1.89-2,2.87Z"/><path d="M171.38,236.76c-6.55.32-13.7-6.25-14-12.92-.41-7.81,5.39-14.48,12.71-15,9.45-.73,15.06,7.57,15.33,13.17C185.74,229.84,179.53,236.36,171.38,236.76Zm-.12-1c7.19-.11,13.31-6.28,13.11-13.34-.16-5.62-5.6-12.72-13-12.6a13.07,13.07,0,0,0-13.05,13.38C158.41,229.54,164.9,235.84,171.26,235.74Z"/><path d="M233.22,239.34a11.33,11.33,0,0,1-11.34-11.22,11.23,11.23,0,1,1,22.46.43A10.91,10.91,0,0,1,233.22,239.34Zm10.08-11a10.19,10.19,0,1,0-20.38-.1,10.39,10.39,0,0,0,10.41,10.08A9.92,9.92,0,0,0,243.3,228.36Z"/></g></svg>