<svg xmlns="http://www.w3.org/2000/svg" viewBox="0 0 368.61 355.7"><g id="OBJECTS"><path d="M368.61,223.27c-7.35.08-14.7.18-22.05.24-12.75.11-25.49.18-38.24.29q-11.86.09-23.73.24c-6.7.08-13.41.26-20.11.3-6.36,0-12.71-.15-19.06,0-4.88.08-8.41-1.88-10.58-6.2A2.65,2.65,0,0,0,232,216.5a1.27,1.27,0,0,0-1.35,1.09c-.2.89-.42,1.78-.62,2.68a24.58,24.58,0,0,1-3.33,7.9c-.63,1-1.06,2.07-1.74,3a23.35,23.35,0,0,1-2.87,3.32c-1.54,1.44-3.21,2.75-4.87,4.05a7.94,7.94,0,0,1-2.32,1.46c-4.1,1.28-8.05,3.08-12.44,3.31-6,.31-11.82-.1-17.15-3.23-1.52-.88-3.07-1.71-4.57-2.61a10.4,10.4,0,0,1-3.84-4.18,11.31,11.31,0,0,0-2.16-2.69,9.8,9.8,0,0,1-2.71-4.82,34.19,34.19,0,0,0-1.6-4.25c-.24-.62-.54-1.24-.72-1.89-.46-1.61-.82-1.91-2.53-1.91l-13.31,0h-5.28c-1.81,0-1.89.15-2.49,1.89a51.73,51.73,0,0,1-3,7.79c-2.4,4.42-5.41,8.48-9.7,11.23a30.52,30.52,0,0,1-17.29,5.13c-5.83-.1-11.67-.13-17.5-.18l-31.41-.24q-13.31-.1-26.61-.24l-27.2-.24c-4.16,0-8.31-.11-12.46-.15-.63,0-1.17,0-.82-1l106.12.95,0-.15c-.48-.18-1-.37-1.45-.52a13.77,13.77,0,0,1-6-3.6,6.78,6.78,0,0,0-1-.87c-5.55-3.77-8.51-9.37-10.75-15.44a19,19,0,0,1-1.34-4.7c-.23-2.68-.15-5.37-.52-8-.13-.94.66-2,1-3,.43-1.35.84-2.7,1.17-4.07.16-.66-.22-1-.91-1.29-2-.7-2.2-1.16-2.29-3.24-.22-4.6,1-9,1.5-13.55.27-2.34.58-4.68.85-7a4.62,4.62,0,0,1,3.88-4.41,1.89,1.89,0,0,0,1.71-2.05c.17-3.11.44-6.21.67-9.32a4.07,4.07,0,0,1,1.91-3.16c4.58-3.07,9-6.36,13.77-9.15,3.89-2.3,5.52-5.4,5.58-9.8.12-9.74.44-19.49.68-29.23,0-.84.11-1.67.11-2.51,0-.42,0-1-.28-1.24-.87-.8-.67-1.7-.45-2.65.14-.62.27-1.25.41-1.87.66-3,1.3-3.63,4.36-4,0-.24.13-.5.17-.77.27-2,.31-2,2.28-2,1.2,0,2.4,0,3.6,0,1.78.06,2,.25,2.11,2,0,.24,0,.47,0,.8h38.17c.38-.56.68-1.51,1.17-1.61a13.18,13.18,0,0,1,3.44,0c.15,0,.3.37.44.58a6.52,6.52,0,0,0,.91,1.49c2.39,2.13,2.83,4.88,2.65,7.87a4.88,4.88,0,0,0,.14,1.87c2.56,7.47,5.17,14.92,7.73,22.39a3.72,3.72,0,0,0,2.69,2.31l31.81,10.54c4.69,1.56,9.38,3.14,14.08,4.65a6.32,6.32,0,0,0,2.56.22,6,6,0,0,1,6.5,4c1.81,5.91,3.52,11.85,5.23,17.79a4.14,4.14,0,0,0,2.2,2.77,5.18,5.18,0,0,1,1.86,2.33,42.05,42.05,0,0,1,1.5,4.1c.16,0,.25.06.31,0,2.74-1.18,2.75-1.19,4.38,1.3q7.68,11.71,15.35,23.45a71.56,71.56,0,0,0,11,12.64c1.9,1.82,3.44,3.67,2.92,6.57,3.22,0,6.28,0,9.35,0,5-.05,9.91-.15,14.86-.19q19.37-.17,38.72-.29c7.19,0,14.38-.13,21.57-.2ZM243.93,187.73c-3.74-4.89-7.38-9.65-11-14.4-1.6-2.09-3.24-4.15-4.85-6.24a27.93,27.93,0,0,0-9.21-7.87c-6.89-3.6-13.49-7.82-21-10.05C187,146,176.14,143,165.29,139.83c-11.53-3.32-23.07-6.63-34.59-10-3-.89-5.56,0-5.42,3.86q.19,5,.22,10a2,2,0,0,0,1.77,2.17c2.66.71,5.31,1.43,8,2.21q33.28,9.79,66.56,19.61c6,1.76,11.46,4.42,15.92,8.88q9.09,9.12,18.15,18.27ZM137.69,231.1l-.3-.17c2.68-1.65,5-3.53,5.19-7.11l-1.45.55c.57-.68,1.15-1.38,1.76-2.06,1.4-1.59,2.38-3.38,2-5.55a9.34,9.34,0,0,1,.38-4.57,5.2,5.2,0,0,0-1.29-5.73,1.11,1.11,0,0,1-.15-.84c.42-2.42-.55-4.37-2-6.15-.13-.16-.43-.18-.71-.29a7.23,7.23,0,0,0-5-6.5l-.2.86a8.38,8.38,0,0,0-6.76-6.09l-.27.94c-2.32-3.16-4.54-4.12-7.37-3.26l.2.72c-.17,0-.26,0-.32,0-.3-.19-.59-.4-.89-.61-2.43-1.73-5-2.26-7.73-.71a3.18,3.18,0,0,1-1.61.22c-2.25-.06-4,1-6,2.18l1,.26a2.57,2.57,0,0,1-1.23.17,6.38,6.38,0,0,0-6.37,3.16,6.08,6.08,0,0,1-2.62,2.16,5,5,0,0,0-3.12,4,2.74,2.74,0,0,1-1,1.62,6.49,6.49,0,0,0-3,5.46,4.75,4.75,0,0,1-.57,2.39,7.9,7.9,0,0,0-.91,7,1.8,1.8,0,0,1,.1,1c-.91,2.5-.08,4.69,1.08,6.86a5.91,5.91,0,0,1,.84,2.33,6.91,6.91,0,0,0,1.83,4.18c.84,1,1.5,2.22,2.28,3.31a16.89,16.89,0,0,0,2.51,3.3,69,69,0,0,0,6,4.33c1.1.75,2.3,1.35,3.45,2l.2-.17-.73-1.54a7.3,7.3,0,0,1,1.33.88c1,.64,2.08,1.59,3.2,1.74a45.17,45.17,0,0,0,9.76.62,42,42,0,0,0,9-2.33,10.78,10.78,0,0,0,2.74-2c.43-.34.79-.87,1.27-1a9.54,9.54,0,0,0,5.5-4.54C137.82,231.86,137.69,231.45,137.69,231.1ZM198.29,187l-.11.31-3.21-.82a8.44,8.44,0,0,0-8.5,2.12c-1.48,1.39-2.78,3.21-5,3.61-2.58.46-3.84,2.1-4.59,4.47a5.47,5.47,0,0,1-1.69,2.5,6,6,0,0,0-2.39,4.36,9.46,9.46,0,0,1-1,4c-1.37,2.08-1.19,4-.38,6.13a2.54,2.54,0,0,1,0,1.7c-1,2.43-.24,4.53,1.09,6.54.12.18.48.19.86.34,0,.44,0,1.08,0,1.72.18,2.21.75,4.26,2.77,5.56a4,4,0,0,0,1.1.26c1.19,2.42,1.84,5.57,5.39,6.52l-.12-1.2a11.19,11.19,0,0,0,7.76,4.9l-.59-1.07a4.63,4.63,0,0,1,1.24.69,24.18,24.18,0,0,0,3.3,1.89,5.11,5.11,0,0,0,4.42.06,3.16,3.16,0,0,1,2.47-.25c2.5.63,4.91.55,7.06-1.1.08-.06.09-.2.14-.33l-1.2-.27c.5-.1.72-.15.94-.18a47.23,47.23,0,0,0,5.21-.66,4.39,4.39,0,0,0,3.61-3.12c.08-.29.54-.51.86-.7a26.29,26.29,0,0,0,4-2.37,5.42,5.42,0,0,0,1.71-2.87,3.81,3.81,0,0,1,1.1-2.34c.59-.53,1.08-1.18,1.66-1.73a4.64,4.64,0,0,0,1.55-3.64,8,8,0,0,1,1-4.1,4.82,4.82,0,0,0,.14-5,3.11,3.11,0,0,1-.39-2.95,5.83,5.83,0,0,0,.15-.7,6.76,6.76,0,0,0-1.65-6.12,6.12,6.12,0,0,0-1-.66,10.35,10.35,0,0,0-4.95-8.81v1.74c-1.54-3.48-3-6.8-7.47-7.28l.5,1.63a15.52,15.52,0,0,1-1.62-2,6.27,6.27,0,0,0-6.82-2.63,4.59,4.59,0,0,0-1.15.68c-4.85-2.21-6.78-2.24-9.86,0Zm-21.58,6h-1.65c-8.15,0-16.31,0-24.46,0a5.72,5.72,0,0,1-3.93-1.4c-6.47-5.4-13-10.74-19.48-16.13a4.83,4.83,0,0,0-3.38-1.22c-2.28.07-4.56,0-6.83,0-4.56,0-9.11-.11-13.66-.15-3.76,0-7.52-.05-11.27,0-2.45,0-3.51.95-3.84,3.36-.7,5.1-1.41,10.2-2.08,15.31a12.12,12.12,0,0,0,.27,5.8c.39,1.1,1.35,1.39,2.08.53,1.08-1.27,2-2.67,3-4s2.08-2.57,3.23-3.76c1-1,2.17-1.76,3.11-2.78a9,9,0,0,1,4.16-2.69c2.68-.8,5.38-1.51,8-2.47,3.39-1.23,6.75-1.95,10.24-.51a2.89,2.89,0,0,0,.59.08c1.89.32,3.91.3,5.63,1,3.8,1.56,7.48,3.42,10.26,6.63a7.4,7.4,0,0,0,1.24,1.13,17.52,17.52,0,0,1,5.71,7.7c.89,2.21,1.47,4.55,2.4,6.74a10.78,10.78,0,0,1,.57,6.9,23,23,0,0,0-.3,2.82h23.12a2,2,0,0,0,.07-.34,3.85,3.85,0,0,0,0-.48,25,25,0,0,1,5.25-18.29A22.93,22.93,0,0,0,176.71,193.05ZM253,180.48c-5.49,5.11-10.85,10.08-16.19,15.07a4.37,4.37,0,0,0-1.43,3.31c0,5.11,0,10.22,0,15.34a8,8,0,0,0,2.64,6.08c2.14,2,4.8,2.46,7.56,2.46,11.71,0,23.42,0,35.13,0h.71c.66,0,.92-.27,1-.92a4.58,4.58,0,0,0-1.7-3.65c-4.46-4.37-8.84-8.79-12.27-14.06q-7.19-11-14.39-22.07C253.72,181.56,253.4,181.06,253,180.48Zm-75.2-37.65c-.22-.73-.35-1.17-.5-1.61-.84-2.5-1.67-5-2.54-7.48q-3.56-10.29-7.15-20.57c-1-2.81-1.72-3.3-4.64-3.3-4.6,0-9.19,0-13.79,0-.42,0-.84,0-1.27.06a6.11,6.11,0,0,0-.07.85q.79,11.1,1.61,22.22a2.33,2.33,0,0,0,1.95,2.25c2.42.65,4.84,1.36,7.25,2.05Zm-58.39,30.69V145c-1.39.41-2.77.5-3.78,1.16-6.66,4.39-13.26,8.88-19.83,13.41a3.07,3.07,0,0,0-1.16,1.92c-.39,2.93-.62,5.87-.9,8.81-.09,1.05-.18,2.11-.27,3.2Zm81.26,3.09a37.08,37.08,0,0,1-2.63,2.88,6.48,6.48,0,0,1-7.38,1,7.16,7.16,0,0,1-4.46-6.44,6.2,6.2,0,0,1,3.62-6.45c1.11-.56,2.28-1,3.59-1.62l-8-2.51V183l-48.47-.71a4.46,4.46,0,0,0,.47.64c3.55,3,7.09,6,10.68,8.89a3.24,3.24,0,0,0,1.77.57c1.39.11,2.79.11,4.19.11,6.7,0,13.41,0,20.12,0a11.17,11.17,0,0,0,6.45-1.85q3.24-2.18,6.4-4.44a10.58,10.58,0,0,1,4.72-1.87,26.58,26.58,0,0,0,4.39-1.09,8.7,8.7,0,0,1,5.17-.29c2.88.82,5.78.34,8.68.19.05,0,.08-.13.23-.38Zm25.51-18.35.62-3.71c1.54.61,2.89,1.2,4.28,1.69a2.67,2.67,0,0,1,1.89,2.11c.92,4.25,2.23,8.45,2.71,12.75.73,6.49,4.74,11,8.36,15.79,2.64-1.6,3-2.34,2.15-5.18q-3-10.65-6-21.29c-.7-2.46-1.34-4.93-2.06-7.38-.6-2.08-3.18-4.12-4.67-3.53a5.57,5.57,0,0,1-4.06-.2L185.52,134.7c-.81-.27-1.63-.49-2.53-.77.23,1,.44,1.85.59,2.67a6.16,6.16,0,0,0,3.54,4.68,24.16,24.16,0,0,0,3,1.16q16.22,5.31,32.42,10.58c1.69.56,2,1.18,1.74,3S224.25,158.07,226.19,158.26ZM126,146.3a6.22,6.22,0,0,0-.09.66q0,12.42,0,24.82a3.92,3.92,0,0,0,1.65,3.17c2.32,1.83,4.58,3.75,7,5.46a6.06,6.06,0,0,0,3.18,1.08c6.1.22,12.21.32,18.32.4,9,.11,18,.17,27,.25,1.85,0,1.86,0,1.86-1.82q0-7,0-14c0-3.08,0-3.07-3-3.92L139.05,150C134.77,148.75,130.47,147.55,126,146.3Zm22.76-11.89c0-.59,0-1,0-1.43-.52-7.25-1.06-14.49-1.56-21.74-.07-.95-.46-1.31-1.43-1.31-4.07,0-8.14-.08-12.21-.1-3,0-4,.84-4.05,3.88-.15,4.47-.19,8.94-.35,13.41a1.9,1.9,0,0,0,1.71,2.16c3,.81,6,1.71,9,2.57ZM116.6,106.1c-.39,12.83-.77,25.59-1.16,38.39h9.26c-.12-1.5-.24-2.93-.34-4.36-.26-3.6-.41-7.18,1.16-10.58a2.84,2.84,0,0,0,.17-1.06c.19-5.1.4-10.2.55-15.31.07-2.34,0-4.68,0-7.08Zm-1-1.19h56.83c-.11-.6-.19-1.11-.3-1.6-.81-3.55-1.12-3.8-4.73-3.8H120.2a6.74,6.74,0,0,0-2.25.23,2.56,2.56,0,0,0-1.43,1.24A32.77,32.77,0,0,0,115.63,104.91Zm65.83,38.65c-.18-.55-.32-1-.48-1.46l-11.5-33.36c-.92-2.67-1.42-3-4.25-3l-34.51.16H127.1c-.24,7.87-.48,15.47-.71,23.06.17,0,.26.07.33,0,1.49-.31,1.89-1,1.93-2.94.1-4.51.2-9,.34-13.53.07-2.12,1-3,3.07-3.24.47,0,1,0,1.43,0,9.43,0,18.86,0,28.29,0,4.06,0,5.24-.29,7,5.07,3,8.95,6.1,17.88,9.16,26.82C178.58,142.87,179.47,143.5,181.46,143.56Zm-56.17,30V170.3q0-11,0-22c0-2.79-.12-2.91-2.85-3-2-.05-2.31.27-2.3,2.23l.12,24.67c0,.46,0,.92.07,1.41Zm73.37-5.76a9.08,9.08,0,0,1,2.55,7.28,1.81,1.81,0,0,0,.76,1.32c2.9,2,5.85,3.87,8.8,5.75a1.68,1.68,0,0,0,1.32.31c2.33-1.15,4.62-2.4,7-3.69A40.57,40.57,0,0,0,198.66,167.83Zm13.4,17-.12.31c.61.38,1.19,1,1.85,1.09,3.15.5,5.3,2.41,7.19,4.77.52.65,1.14,1.22,1.72,1.82.87.9,1.73,1.82,2.62,2.69.48.46,1,1.18,1.54,1.21a63.17,63.17,0,0,0,7.41,0c1.26-.07,1.55-1.3.66-2.2-3-3-6-6-9-8.94a3.33,3.33,0,0,0-2.09-.84c-3.55-.09-7.1,0-10.65,0C212.81,184.78,212.43,184.84,212.06,184.87Zm14.13,12.84c.92,1.74,1.7,3.35,2.59,4.88a12.42,12.42,0,0,1,1.71,5.91c.06,1.75.34,3.49.53,5.23a1.51,1.51,0,0,0,1.47,1.47c.65.07,1.31.1,2,.15V197.71ZM184.66,144.5c-.09-.32-.15-.55-.22-.77q-4-11.76-8-23.53c-1.44-4.22-2.83-8.46-4.25-12.69-.6-1.77-1.37-2.15-3-1.47.43,1.18.88,2.37,1.29,3.56l11.31,32.9C182.3,144,182.87,144.41,184.66,144.5Zm27.68,10c.28.34.31.42.38.46l.84.44c6.66,3.41,12.93,7.28,17.14,13.76,1,1.45,2.58,1.79,4.33,1.94-.5-2-1.06-3.7-1.36-5.5a6.5,6.5,0,0,0-4.79-5.4c-3.48-1.16-6.94-2.35-10.41-3.54C216.52,156,214.59,155.31,212.34,154.52Zm9.87,1.47.12-.42a338.83,338.83,0,0,0-36.16-12.74,3,3,0,0,0,2.49,3.17c8.22,2.55,16.44,5.13,24.68,7.63C216.27,154.51,219.25,155.21,222.21,156Zm-22,17.58a6.57,6.57,0,0,0-6.62-6.62,6.7,6.7,0,1,0,.1,13.39A6.71,6.71,0,0,0,200.24,173.57Zm23.9,10.33.11-.27c-1.33-1.25-2.64-2.53-4-3.73a1.37,1.37,0,0,0-1.2-.2c-2.53,1.3-5,2.67-7.54,4l.07.19Zm21.49-10.36-.59.27,2.39,10a15,15,0,0,1,1.19-1.29,1.69,1.69,0,0,0,.49-2.36c-.68-1.35-1.1-2.82-1.77-4.17A19.54,19.54,0,0,0,245.63,173.54ZM120.89,98c1.2,0,2.28-.06,3.34,0,1.25.09,1.29-.52,1-1.47h-4.37Zm114.54,77.24a2.73,2.73,0,0,0-.33-2.77,7.51,7.51,0,0,0-2.09-1.08l-.23.39ZM228.27,157l-.27.5,3,1.37.24-.52Z"/><path d="M132.89,213.4a16.64,16.64,0,0,1-16.55,16.79c-9.63,0-17.11-7.21-17.1-16.48a17,17,0,0,1,17.21-17A16.46,16.46,0,0,1,132.89,213.4Zm-16.64,16.11a16.29,16.29,0,0,0,16.16-16.19c.05-8.42-7.33-16-15.59-16-9.58,0-17,7.17-16.95,16.45C99.89,222.57,107.12,229.51,116.25,229.51Z"/><path d="M182.94,213.28c0-9.13,7.37-16.17,16.82-16.15a16.54,16.54,0,0,1,16.79,16.65c-.05,9.18-7.76,16.49-17.33,16.45A16.61,16.61,0,0,1,182.94,213.28Zm16.75-15.55a15.89,15.89,0,1,0-.36,31.78,16.19,16.19,0,0,0,16.54-15.9C215.92,205,208.57,197.76,199.69,197.73Z"/><path d="M234.65,152.17c.84,0,2.3,1,2.32,1.57s-1.46,1.74-2.32,1.76a1.67,1.67,0,0,1,0-3.33Z"/><path d="M168.92,179.5a63.44,63.44,0,0,1-6.47,0c-7.17-.77-14.37-.21-21.54-.57a4.92,4.92,0,0,1-2.62-1c-2.87-2.23-5.63-4.59-8.45-6.88a3.84,3.84,0,0,1-1.44-3.26c.08-4.71.1-9.42.18-14.13,0-2.61,1-3.34,3.46-2.65,15.05,4.24,30.07,8.52,45.13,12.7,3,.82,4.54,2.47,4.92,5.53a14.56,14.56,0,0,1-.63,7.52,4,4,0,0,1-4.15,2.77C174.51,179.46,171.72,179.5,168.92,179.5Zm-17-1c.52,0,1,0,1.38,0l9.46.18c4.91.08,9.81.16,14.72.21a3,3,0,0,0,3.27-2.41,20.22,20.22,0,0,0,.79-3.49c.63-6.23-1-7.66-6-9-7.46-2-14.9-4.14-22.35-6.21-.52-.14-1.06-.2-1.74-.33Zm-1-21.33c-6.57-1.9-13.08-3.79-19.61-5.59a2,2,0,0,0-1.62.76,3.48,3.48,0,0,0-.46,1.93c0,4.6-.06,9.19,0,13.78a3.19,3.19,0,0,0,.9,2.1c2.29,2.1,4.66,4.12,7.07,6.09,4.13,3.39,9,2.07,13.7,2.16Z"/><path d="M193.61,179.14a5.38,5.38,0,1,1,0-10.75,5.43,5.43,0,0,1,5.45,5.37A5.21,5.21,0,0,1,193.61,179.14Zm0-.92a4.37,4.37,0,0,0,4.44-4.38,4.55,4.55,0,0,0-4.48-4.41,4.4,4.4,0,1,0,0,8.79Z"/><path d="M127.13,213.6a10.91,10.91,0,0,1-10.72,11.07,10.75,10.75,0,0,1-11.14-10.86,11,11,0,0,1,11-11.16A10.82,10.82,0,0,1,127.13,213.6Zm-11,10.43a10.46,10.46,0,0,0,10.45-10.44c0-5.54-4.7-10.43-10.1-10.42a10.78,10.78,0,0,0-10.68,10.59A10.38,10.38,0,0,0,116.12,224Z"/><path d="M199.76,224.75a11,11,0,0,1-11.31-11.13c0-6.13,4.84-10.78,11.21-10.77s10.94,4.51,10.94,10.8S206,224.76,199.76,224.75Zm-.32-.68a10.33,10.33,0,1,0,.2-20.66,10.33,10.33,0,1,0-.2,20.66Z"/><path d="M108.15,213.68a7.86,7.86,0,0,1,8.08-8.12,8.2,8.2,0,0,1,0,16.39A8,8,0,0,1,108.15,213.68Zm15.59,0a7.54,7.54,0,0,0-15.07-.05,7.54,7.54,0,1,0,15.07.05Z"/><path d="M199.48,221.67a7.59,7.59,0,0,1-7.87-8,7.88,7.88,0,0,1,7.88-7.82,7.76,7.76,0,0,1,7.91,8A7.87,7.87,0,0,1,199.48,221.67Zm.05-15.19a7.46,7.46,0,0,0-7.31,7.34,7.39,7.39,0,0,0,7.38,7.25,7.31,7.31,0,0,0,7.08-7.28A7.22,7.22,0,0,0,199.53,206.48Z"/></g></svg>