<svg xmlns="http://www.w3.org/2000/svg" viewBox="0 0 400 400"><defs><style>.cls-1{fill:#1d1d35;}</style></defs><g id="OBJECTS"><path class="cls-1" d="M77.2,197.83c-2.65,2.59-4.69,4.56-6.7,6.56-3.12,3.1-6.17,6.27-9.35,9.31-4.55,4.37-11,4.46-15,.33s-3.95-10.56.5-15Q76,169.6,105.35,140.26q42.72-42.72,85.43-85.46c2.78-2.78,5.72-5.5,9.84-4.64A15.71,15.71,0,0,1,208.08,54c16.8,16.54,33.42,33.26,50.07,50a17.53,17.53,0,0,1,1.85,2.74l1.24-.66c0-1.74-.09-3.49,0-5.23.33-5.69,4.36-9.89,10-10,13.8-.13,27.6-.15,41.39,0,6,.07,10,4.67,10,10.86,0,21,.05,42,0,63a7.89,7.89,0,0,0,2.52,6.28c9.43,9.22,18.7,18.6,28,27.94,4.7,4.71,4.9,10.83.52,15.15s-10.51,4-15.17-.69c-5.07-5.08-10.13-10.17-15.84-15.91V338.14c0,7.79-4,11.86-11.8,11.86H88.93c-7.5,0-11.73-4.22-11.73-11.67V197.83ZM301.94,329.21c.08-1.23.16-1.91.16-2.59q0-73.78-.06-147.57a5.66,5.66,0,0,0-1.53-3.59Q256.4,131.18,212.19,87c-4-4-7.76-8.24-11.68-12.42-1.15,1.07-1.6,1.46-2,1.88Q149,126,99.54,175.5a6.53,6.53,0,0,0-1.64,4.17c-.12,13-.07,26-.07,39,0,35.59,0,71.18-.07,106.77,0,3.09.9,3.87,3.88,3.83,11-.16,22-.14,33,0,2.92,0,3.92-.69,3.9-3.84-.14-23.69-.31-47.39,0-71.08.45-33.27,25.09-59,58.25-61.21,34-2.32,64.58,26.13,64.63,60.21q.06,36,0,72c0,3.87,0,3.88,4,3.89,5.5,0,11,0,16.5,0Zm-102.05,0v0c12.39,0,24.78-.13,37.17.09,3.2.05,3.79-1,3.78-3.91-.1-23.19,0-46.39-.09-69.58a48.29,48.29,0,0,0-.6-8.06c-3.64-21.29-22.32-35.5-44.37-33.82-20.12,1.54-36.4,19.43-36.49,40.38-.1,23.89,0,47.78,0,71.67,0,2.41.6,3.34,3.16,3.32C174.9,329.14,187.39,329.2,199.89,329.2ZM301.22,147.62l.66-.61V111.65h-20c0,5.12-.07,10,.06,14.87a4.33,4.33,0,0,0,1.38,2.46c4,4.06,8,8,12,12.09C297.36,143.18,299.25,145.43,301.22,147.62Z"/></g></svg>