<svg xmlns="http://www.w3.org/2000/svg" viewBox="0 0 400 400"><defs><style>.cls-1{fill:#1d1d35;}</style></defs><g id="OBJECTS"><path class="cls-1" d="M173.69,238.37,203,267.56l-26.53,26.55-28.89-29-29.63,29.64c9.55,9.45,19.38,19.19,29,28.7L120.41,350,64.85,294.44,178.14,181.17c-3.51-8.84-7.24-16.29-9.46-24.17-13.83-49,19.58-99.48,70-106.23,47-6.28,89.81,26.48,95.73,73.19,6.62,52.21-35.15,97.38-88.1,95.3a81.92,81.92,0,0,1-38-11c-2.24-1.28-3.53-1.34-5.4.58-8.94,9.13-18,18.11-27.06,27.15C175.27,236.57,174.7,237.26,173.69,238.37ZM250.53,87.89a46.77,46.77,0,1,0,46.73,46.88A46.72,46.72,0,0,0,250.53,87.89Z"/></g></svg>