<svg xmlns="http://www.w3.org/2000/svg" viewBox="0 0 369.8 355.7"><g id="OBJECTS"><path d="M-.06,179.29Q7.47,186,15,192.68c13.2,11.8,26.34,23.64,39.59,35.38a51.11,51.11,0,0,0,17.23,10.48c7.12,2.45,13.72,1.24,19.64-3.4a5.09,5.09,0,0,0,1.65-2.37,10.57,10.57,0,0,1,5.18-6.29c6.45-3.75,13.48-5.91,20.66-7.69a174.2,174.2,0,0,1,28-4.53c4.11-.33,4.14-.37,2.37-3.93-5.47-11.08-9-22.85-12.13-34.74-1.36-5.16-2.56-10.37-5-15.2a59.92,59.92,0,0,0-7.69-11.54c-3.78-4.55-3.75-11.91.36-15.69a34,34,0,0,1,7.53-5c7-3.61,14.56-5.52,22.21-7.13A167.36,167.36,0,0,1,187,117.63c9.88-.11,19.79-.24,29.64.42,7.8.53,15.54,2.12,23.27,3.45,6.24,1.08,12.47,2.46,18.19,5.27a55.2,55.2,0,0,1,10,6.08c4.67,3.69,5,9,.79,13.22-7.65,7.76-11.76,17.19-14.12,27.65a133.82,133.82,0,0,1-12.06,33.37c-1.08,2-1.91,4.2-3,6.6,2.34.3,4.42.63,6.51.82,14.87,1.33,29.37,4.25,43.22,10a18.11,18.11,0,0,1,6.83,5c2.95,3.41,2.66,7.17-.74,10.1a23.51,23.51,0,0,1-8.11,4.84c-5.25,1.71-10.5,3.44-15.79,5a18.83,18.83,0,0,0-9,5.34c-2.08,2.31-4.92,3.47-7.84,4.38A109.67,109.67,0,0,1,222.54,264c-11.27.07-22.53.4-33.79.47-14.31.1-28.57-.44-42.61-3.62A38.35,38.35,0,0,1,132,254.89a38.24,38.24,0,0,0-13-5.72c-3.29-.87-6.55-1.86-9.84-2.74A39.12,39.12,0,0,1,97,240.77c-1.76-1.21-3-3.09-4.64-4.76-1.09.66-2.42,1.57-3.84,2.31a20.48,20.48,0,0,1-18.06.76,65.67,65.67,0,0,1-18.3-11.78c-9.19-8-18.19-16.14-27.25-24.25L-.06,180.71Zm152.5,34.88c-1.57.36-2.79.74-4,.91-6,.79-11.95,1.34-17.87,2.33-8.35,1.39-16.65,3.16-24.47,6.51a41.41,41.41,0,0,0-9.49,5.26c-4.07,3.21-3.31,8,1.07,10.78a57.34,57.34,0,0,0,16.82,7c7.06,1.79,13.91,3.78,20,8.21,5.77,4.18,12.93,5.16,19.85,6.26a218.77,218.77,0,0,0,34.11,2.18c13.25,0,26.49-.42,39.73-.82a95.74,95.74,0,0,0,26.87-4.8,14.87,14.87,0,0,0,6.92-4,18.09,18.09,0,0,1,8.84-5.37c4.61-1.37,9.21-2.81,13.82-4.23a27.67,27.67,0,0,0,9.86-5.16c3.7-3.14,3.78-6.76.18-10a27.53,27.53,0,0,0-8.83-5c-12.94-5-26.47-7.36-40.19-8.8-2.43-.26-4.84-.68-7.49-1.05,1-2.17,1.89-4.1,2.8-6,1.78-3.7,4-7.26,5.28-11.12q4.63-13.69,8.52-27.63c2.36-8.55,5.89-16.34,12.13-22.77a23.85,23.85,0,0,0,2.57-3,5.93,5.93,0,0,0,.21-7.17,17.64,17.64,0,0,0-4.09-4.43,54,54,0,0,0-7.62-4.35c-5.52-2.71-11.51-3.95-17.47-5.23-8.43-1.8-16.89-3.44-25.52-3.79a339.08,339.08,0,0,0-37.18.22,158.65,158.65,0,0,0-31.73,5.15c-6.67,1.87-13.14,4.21-18.85,8.29a9.52,9.52,0,0,0-4,5.51,11.47,11.47,0,0,0,2.55,10.86,47.9,47.9,0,0,1,9.57,16.61c1.25,3.86,2.18,7.83,3.26,11.75,3,10.8,6.15,21.54,11.11,31.65C150.56,210.52,151.43,212.19,152.44,214.17Z"/><path d="M210.2,249.09c-4,.21-7.93.66-11.89.57-8.22-.19-16.45-.53-24.65-1.07-7.06-.47-14.12-1.16-21.14-2-7.55-.91-15-2.42-22-5.61-1.31-.59-2.38-1.38-2.45-3a3.48,3.48,0,0,1,2.2-3.33,3,3,0,0,1,.51-.25c3.87-1.31,7.66-3,11.63-3.84,6-1.28,12.18-2,18.29-2.9a3.48,3.48,0,0,1,3.57,1.81c2.5,3.79,5.73,6.8,10.23,7.81a106.61,106.61,0,0,0,14.61,2.46,103.53,103.53,0,0,0,15.15,0,81.63,81.63,0,0,0,12.7-2,14.53,14.53,0,0,0,9.59-7.43c1.16-2.1,2.69-3.1,5-2.72,8.05,1.29,16.24,1.74,24.13,4,2.22.63,4.41,1.35,6.61,2.05a6.91,6.91,0,0,1,1.42.63c1.37.79,2.45,1.81,2.37,3.56a3.83,3.83,0,0,1-2.63,3.39,60.51,60.51,0,0,1-15.12,4.55A270.46,270.46,0,0,1,215.17,249c-1.65.06-3.31,0-5,0Zm-11.93-.29,0-.47c3.79,0,7.59.19,11.36,0,8.67-.53,17.36-1.06,26-2,6.36-.69,12.68-1.88,19-3.15a54.56,54.56,0,0,0,8.25-2.88,2.87,2.87,0,0,0,2.17-2.55c0-1.43-1.06-2.12-2.19-2.7a2.15,2.15,0,0,0-.27-.1,71.94,71.94,0,0,0-17.75-4.49c-4.44-.58-8.9-1.06-13.34-1.69a3,3,0,0,0-3.55,1.7,17.5,17.5,0,0,1-10.25,8.24c-5.71,1.84-11.67,2.2-17.6,2.48a93.56,93.56,0,0,1-21.71-1.67c-6.16-1.15-11.47-3.73-14.92-9.28a2.79,2.79,0,0,0-3.29-1.33c-.91.21-1.87.26-2.8.41-5.67.94-11.38,1.67-17,2.92a58.92,58.92,0,0,0-9.64,3.58,2.78,2.78,0,0,0-1.38,2.05,2.54,2.54,0,0,0,1.37,1.88,54,54,0,0,0,7.94,2.91A156.63,156.63,0,0,0,167.71,247C177.9,247.56,188.08,248.19,198.27,248.8Z"/><path d="M193.14,130.32c19,.2,34.21,1.86,49,6.42a78.71,78.71,0,0,1,11.71,4.89c1.73.86,3,2.59,4.51,4,.72.69.46,1.39-.3,1.87a9.07,9.07,0,0,1-2,1,116.82,116.82,0,0,1-23.71,5.16c-8.69.87-17.4,1.58-26.13,2-7.26.33-14.55.34-21.82.1a176.13,176.13,0,0,1-18.2-1.57c-7.13-1-14.2-2.4-21.27-3.78-4.79-1-9.65-1.77-14.1-4a5.52,5.52,0,0,1-1-.82c.28-.33.51-.81.87-1,5-2.12,10-4.42,15.14-6.21A134.13,134.13,0,0,1,174.13,132C181.63,131.05,189.18,130.65,193.14,130.32Zm64.59,16.14a16.81,16.81,0,0,0-6.36-4.94c-3.16-1.34-6.35-2.66-9.61-3.72-11.52-3.75-23.43-5.29-35.47-6a159.34,159.34,0,0,0-31.41,1.11,163.88,163.88,0,0,0-35.29,8.88c-2.67,1-5.27,2.19-7.91,3.29v.57c2,.7,4,1.53,6.1,2.08a173.74,173.74,0,0,0,26.62,5.13c7.56.81,15.14,1.7,22.73,1.89,9.07.22,18.16-.1,27.23-.48a169.34,169.34,0,0,0,28.37-3.41C247.79,149.79,252.86,148.68,257.73,146.46Z"/><path d="M198.25,185.21v6.31c-2.11-1.85-.48-4.27-1.51-6.08-1.08-.06-2.16-.11-3.24-.19a4.74,4.74,0,0,1-4-2.16,19.76,19.76,0,0,1-3.18-11.39,17.24,17.24,0,0,1,3.53.05,5,5,0,0,0,4.4-1c1.84-1.48,3.54-1.41,5.73-.53a24.57,24.57,0,0,0,7,1.3c1.32.11,1.9.51,1.94,1.79.13,3.92-1,7.52-3.88,10.11-1.27,1.12-3.46,1.22-5.25,1.73A6.88,6.88,0,0,1,198.25,185.21Zm-1.19-14.64c-.56.3-1,.52-1.44.78-3.59,2.15-3.69,2.27-2.31,6.29.78,2.27,1.82,4.45,2.74,6.66l.71-.13C197.82,179.75,197.4,175.25,197.06,170.57Zm4.12,13.57c1.17-.45,2.47-.56,3.15-1.28,2.63-2.77,3.53-6.25,3.64-10h-3.6C203.32,176.6,202.31,180.15,201.18,184.14Zm-6.82-.09c-.11-.49-.2-.92-.33-1.34-.86-2.87-1.68-5.75-2.64-8.58a2.48,2.48,0,0,0-1.47-1.31,9.62,9.62,0,0,0-2.53,0,19,19,0,0,0,3.26,9.83A3.35,3.35,0,0,0,194.36,184.05Zm4.25-.06c.4-.22.76-.3.88-.51,1.84-3.11,3.3-6.36,3.06-10.1a1.28,1.28,0,0,0-.55-.95c-1.08-.52-2.22-.93-3.39-1.4Z"/><path d="M169.3,221.58c-12.35-15-17.63-31.73-12.49-51.46a32.46,32.46,0,0,1,5.26,8.89,97.08,97.08,0,0,1,6.91,26.3c.54,5.35.74,10.73,1.1,16.1Zm-1.48-4,.52-.29c.76-3.51.33-7-.14-10.52a107.09,107.09,0,0,0-6.89-26.28c-.93-2.27-2.19-4.41-3.31-6.61l-.5.11c-.34,1.06-.76,2.1-1,3.18a37.88,37.88,0,0,0,0,13.8,56,56,0,0,0,7.07,20.72C164.78,213.77,166.38,215.62,167.82,217.58Z"/><path d="M221.32,220.93a73.49,73.49,0,0,1,0-7.57,88.34,88.34,0,0,1,5-21.54,104,104,0,0,1,10.08-20.22c.12-.18.27-.34.64-.8,3.19,15.38-.15,29.2-8.21,42-1.93,3.07-4.69,5.62-7.07,8.41Zm.47-2.61c9-3.08,19.18-34.71,14.3-44-1.27,2.26-2.54,4.34-3.65,6.51a93.4,93.4,0,0,0-9.73,30.54C222.4,213.61,222.11,215.86,221.79,218.32Z"/><path d="M198.27,222l6.34-4.58c-.53,2-4,4.85-7.4,6a14.55,14.55,0,0,1-.12-2.76,3.38,3.38,0,0,0-1.34-3.7,53.63,53.63,0,0,1-5.55-4.8c3.25.31,4.85,3.15,7.41,4.75,2.07-1.54,4.17-3.13,6.31-4.67a3.6,3.6,0,0,1,1.18-.32c-.16.4-.2.93-.49,1.16a25.3,25.3,0,0,1-2.56,1.77A7.32,7.32,0,0,0,198.27,222Z"/><path d="M197.8,199.15l7.33-6c.67,1,.13,1.57-.51,2.09-1.48,1.18-3,2.37-4.46,3.51-1.34,1-2.34,2.19-2.12,4,0,.28-.2.59-.33.93-.14-.11-.25-.16-.25-.21-.22-3.18-2-5.27-4.67-6.76a15.44,15.44,0,0,1-2.88-2.25C193.24,194.78,195.33,197.2,197.8,199.15Z"/><path d="M197.59,214.8c-.89-4.45-5-6-7.73-8.65a3.49,3.49,0,0,1,3.19,1.08c1.19,1,2.4,2,3.52,3.07.65.62,1.08.6,1.79,0,1.9-1.46,3.88-2.84,5.85-4.22.24-.16.64-.1,1-.14-.14.32-.18.76-.43.95a35.23,35.23,0,0,1-3.64,2.69A6,6,0,0,0,198,214.2a1.75,1.75,0,0,1-.2.52S197.69,214.76,197.59,214.8Z"/><path d="M191.39,188.38l6.24,4.82,7.46-6.09c.69,1.11.23,1.73-.58,2.31-1.53,1.09-3.07,2.18-4.55,3.35a5,5,0,0,0-2.12,4.39c-1.09-3.81-4.21-5.88-6.93-8.29Z"/><path d="M200.32,203.54l-2.78,5.39c.06-3.29-2.59-4.53-4.55-6.25-.74-.65-1.54-1.22-2.32-1.83l.22-.37,3.32,1.78a2.89,2.89,0,0,1,.45.33c.54.46,1.05,1,1.62,1.38s.89,1.35,1.88.68A19.67,19.67,0,0,1,200.32,203.54Z"/></g></svg>