<svg xmlns="http://www.w3.org/2000/svg" viewBox="0 0 369.8 355.7"><g id="OBJECTS"><path d="M369.86,180.69c-2.46-1.65-4.83-3.46-7.39-4.93-5.34-3-10.05-2.51-14.53,1.74-2.81,2.67-5.3,5.66-8,8.46-3.12,3.25-6.73,5.48-11.45,4.64a17.75,17.75,0,0,1-5.17-1.84,108.46,108.46,0,0,1-20.25-14.52c-4.58-4-9.51-7.32-15.54-8.72a26.24,26.24,0,0,0-14.4.83,8.11,8.11,0,0,0-4.39,3.82c-6.76,11.05-13.56,22.08-20.29,33.16-2.53,4.15-5.09,8.3-7.29,12.63-2.31,4.57-2.93,9.61-3.4,14.69a57.13,57.13,0,0,1-12.38,30.86l-.49.65a27.74,27.74,0,0,1,2.25,1.89c5.76,6.07,7,13.24,4.79,21.06a19.53,19.53,0,0,1-11,12.78,65.58,65.58,0,0,1-20.73,5.52A229.32,229.32,0,0,1,169.3,305c-10.81-.18-21.55-1-32-3.86a33,33,0,0,1-12-6c-4.49-3.58-6.48-8.35-6.59-14a42,42,0,0,1,4-18.42c.49-1.07,1-2.08,2.45-1.92s1.56,1.31,1.77,2.39c0,.13.08.26.16.52,1.63-.36,2.89,0,3.22,1.9a.77.77,0,0,0,.63.4c2.39-.12,3.61,1.1,3.84,3a20.47,20.47,0,0,1,3.94.41c1.49.44,1.79,1.81,1.66,3.14,1.31-.29,2.7-1,3.83-.73s2,1.6,2.93,2.46l-.21.41,1.2-.62c2.05-1,3.26-.69,4.63,1.15a2,2,0,0,0,1.34.51,5,5,0,0,0,1.37-.33c2.54-.6,3.13-.33,4.19,1.79,1.22-.47,2.43-1.32,3.61-1.27s2.2,1,3.42,1.69c3.08-1.9,3.83-1.81,5.56.67a9.77,9.77,0,0,1,2.49-1.61c1.19-.32,1.86.64,2.23,1.92.35-.6.57-1,.85-1.43a1.69,1.69,0,0,1,2.51-.36,1.74,1.74,0,0,0,2.29-.15,2.92,2.92,0,0,1,3.08-.33,1.7,1.7,0,0,0,1.38,0c2-1.38,2-1.41,4.16,0a3.49,3.49,0,0,1,4.64-1.37c.18.08.59-.17.81-.36,1.83-1.63,2.12-1.66,4.15-.31.15.1.31.18.46.27,1.18-2.87,1.18-2.87,4.56-1.81a3.23,3.23,0,0,1,4-2.13.87.87,0,0,0,.74-.3c1.05-1.56,2.4-2.1,4-1.25.67-.83,1.1-1.82,1.83-2.15a5.26,5.26,0,0,1,2.31-.08,14.26,14.26,0,0,1,1.82-2.47c8.13-6.91,12.82-15.79,14.91-26.1,1-4.68,1.42-9.44,2.29-14.13a46.21,46.21,0,0,1,6.28-16c7.92-12.79,15.86-25.56,23.69-38.4,2.31-3.77,5.86-5,9.86-5.58,9.07-1.34,16.78,1.67,23.82,7.23,6.46,5.1,13.1,10,19.69,14.89A17.94,17.94,0,0,0,324,188c6,2.93,10.51,2.1,15.06-2.78,2.23-2.39,4.38-4.85,6.63-7.21,3.31-3.49,7.2-5.91,12.19-4.94a26.94,26.94,0,0,1,6.89,2.81,52.2,52.2,0,0,1,5.06,3.36ZM146.29,297.25l-.62.07c-.47-3.39-1.26-6.77-1.31-10.17a112.7,112.7,0,0,1,.84-11.58c.14-1.64-.23-2.34-1.51-2.56-1.46-.25-2,.71-2.18,1.86-.74,3.94-1.42,7.89-2.12,11.84-.08.46-.15.92-.27,1.73a18.19,18.19,0,0,1-1-11.9,20.62,20.62,0,0,0,.71-4.32,2.25,2.25,0,0,0-1.2-1.73c-.45-.17-1.3.43-1.82.88a2.74,2.74,0,0,0-.66,1.39c-.59,2.42-1.17,4.85-1.69,7.3-.23,1.06-.26,2.16-.41,3.23s-.35,2.12-.53,3.17a1,1,0,0,1-.48-.65,25.65,25.65,0,0,1,.7-15.09c.17-.49.33-1,.48-1.48.27-.94-.35-1.24-1.06-1.52s-1.13,0-1.44.65c-.62,1.37-1.29,2.73-2,4.09-.42.85-.87,1.69-1.39,2.71-1.51-3.78.8-6.84,1.29-10.54-3,3.28-3.69,7.29-5.84,10.76a10.77,10.77,0,0,1,.39-6.77c.72-2.1,1.58-4.16,2.41-6.32-1.41-.17-1.66.75-2,1.49A41,41,0,0,0,120,278.71c-.24,5.29.7,10.21,4.66,14.09a28.37,28.37,0,0,0,11.74,6.66c9.71,3,19.74,3.86,29.83,4.19a225.38,225.38,0,0,0,32.44-1.36,73.82,73.82,0,0,0,20.31-5c8-3.31,12-9.33,12.6-17.77A19,19,0,0,0,226.34,265c-1.21-1.32-2.11-1.39-3.63-.44-.36.22-.68.52-1,.73-1,.58-1.11,1.13-.34,2.11a26.72,26.72,0,0,1,5.19,10.46,11.89,11.89,0,0,1,0,6.41c-.89-2.42-1.65-4.55-2.45-6.65a23.78,23.78,0,0,0-5.78-8.83,5,5,0,0,0-1.43-.67l-.21.39c2.14,5.11,5.83,9.81,4.35,16.26a11.53,11.53,0,0,1-.53-1.18c-1.33-4.55-4-8.46-6.26-12.52-.47-.82-1.08-1.35-2.13-.44.67,1.6,1.36,3.2,2,4.82.82,2.15.86,3.76.13,5.07-.89-1.52-1.76-3-2.61-4.44-.7-1.18-1.31-2.42-2.11-3.52-.25-.36-1-.35-1.52-.51a3.69,3.69,0,0,0-.11,1.34c.6,1.84,1.35,3.63,1.91,5.49a16.64,16.64,0,0,1,.56,9.1c-.33-.77-.55-1.27-.75-1.78-1.49-3.77-3-7.56-4.49-11.33-.58-1.43-1.12-1.57-2.29-.81.95,4,2.78,7.84,1.81,12.1a4.33,4.33,0,0,1-.74-1.22c-1.24-3-2.47-5.94-3.73-8.89-.29-.68-.62-1.51-1.63-1.17s-.51,1.17-.38,1.79c.44,2.08,1.06,4.13,1.37,6.23a21.75,21.75,0,0,1-.12,4l-.51,0c-.34-.76-.73-1.51-1-2.3-.87-2.5-1.69-5-2.55-7.52-.26-.76-.6-1.43-1.62-1.09s-.81.9-.68,1.7c.61,3.58,1.22,7.17,1.63,10.79a6.71,6.71,0,0,1-1.38,5c-.07-.58-.1-.88-.13-1.19a61.28,61.28,0,0,0-3.27-14.77c-.12-.33-.51-.56-.78-.83a4.75,4.75,0,0,0-1,1c-.15.29,0,.74,0,1.11.32,2.39.67,4.78,1,7.18a23,23,0,0,1,0,2.49l-.46,0a25.24,25.24,0,0,1-2.94-8.17,10.85,10.85,0,0,0-.87-2.37,1.14,1.14,0,0,0-1.05-.4,1.21,1.21,0,0,0-.52,1c.05,1.56.25,3.11.27,4.66.05,3.24,0,6.47,0,10-.62-2-1.34-3.81-1.75-5.7-.53-2.45-.82-4.95-1.22-7.42-.14-.9-.32-1.78-1.73-2.05a16.16,16.16,0,0,0-.45,2.41c-.07,1.94.09,3.9-.09,5.82a27.09,27.09,0,0,1-1,4.09l-.49-.09c-1.16-4-.33-8.29-1.85-12.19l-.57,0q-.74,5.34-1.48,10.68a2.89,2.89,0,0,1-.86-1.65c-.4-2.62-.7-5.25-1.16-7.86-.09-.52-.69-1.35-1.07-1.35a3.31,3.31,0,0,0-1.86.86c-.25.21-.21.8-.29,1.22-.33,1.84-.65,3.68-1,5.53l-.37.07a15.28,15.28,0,0,1-1.07-2.68c-.29-1.38-.3-2.81-.56-4.2a1.75,1.75,0,0,0-.91-1.14c-1.72-.61-2.44-.16-2.8,1.65-.13.65-.19,1.31-.26,2q-.56,4.92-1.09,9.84a4.5,4.5,0,0,1-.9-2.25c-.24-3.44-.4-6.89-.57-10.33,0-1-.13-1.84-1.31-2a1.92,1.92,0,0,0-2.48,1.51c-.28,1.09-.55,2.19-.82,3.3-.33,1.37-.65,2.75-1,4.34-1.53-2.53-1.77-4.13-1-8.49.23-1.32-.33-1.59-1.35-1.91s-1.79,0-2,1.07a31,31,0,0,0-1,5C146.77,286.57,146.56,291.91,146.29,297.25Z"/><path d="M.08,217.92c.32-.38.56-.94,1-1.1a9.52,9.52,0,0,1,8.5.35c4.81,2.81,10.06,3.7,15.47,4.16,7.55.66,15.1,1.56,22,4.89a36.06,36.06,0,0,1,7.53,5,36.31,36.31,0,0,0,16.59,7.58c8.29,1.71,16.45,1.59,24.29-2.14a34.75,34.75,0,0,0,14.45-12.83,6.38,6.38,0,0,0,.79-3.36c0-4.17-.21-8.33-.27-12.49a21,21,0,0,1,4.84-14.06c1.92-2.32,2-4.53.72-7.18-5.41-11.32-10.08-22.93-12.78-35.24-1.23-5.66-2-11.37-1.38-17.18.92-8.22,5.62-13.37,13.26-16.08a61.18,61.18,0,0,1,18.8-3.12c8.93-.27,17.27-3,25.41-6.49a1.83,1.83,0,0,0,1.1-2.43q-1.84-7.86-3.72-15.73c-.1-.46-.26-.91-.34-1.37-.32-1.76.2-2.6,1.95-2.68a2.43,2.43,0,0,0,2.36-1.74q7.08-15.54,14.27-31c.2-.45.44-.89.67-1.33l.53.1-1,11,.52.09c.43-2.27.92-4.54,1.28-6.82.24-1.54.27-3.11.49-4.66a4.79,4.79,0,0,1,.66-1.37c.52.33,1.22.54,1.53,1a28.37,28.37,0,0,1,1.58,3.17c4.55,9.45,9.06,18.93,13.68,28.34a10.42,10.42,0,0,0,2.74,3.32,2.1,2.1,0,0,1,.81,2.71c-1.57,5-3.27,9.88-4.45,14.92a98.34,98.34,0,0,0-1.2,36.67c1,6.92,2.57,13.64,5.93,19.86a46.9,46.9,0,0,0,14.11,16.07c4.5,3.22,9.15,6.24,13.74,9.34,2.37,1.6,2.38,1.59,2.78,4.41,1.07-.93,2.07-1.76,3-2.65q10.06-9.39,20.13-18.78c.73-.68,1.51-1.31,2.29-1.92a4.78,4.78,0,0,1,5-.65,12.76,12.76,0,0,0,4.12.27,10.79,10.79,0,0,0,1.8-.31c-1.26,1.59-3.55,2.32-5.06,1.48-2.74-1.52-4.83-.62-6.89,1.31q-12.78,12-25.62,23.93c-.34.32-.7.62-1.09,1a1.88,1.88,0,0,1-.33-2.48,6.69,6.69,0,0,1,.81-1.16c.76-.91.89-1.7-.23-2.46-1.61-1.08-3.18-2.22-4.76-3.34-4.52-3.2-9.27-6.1-13.5-9.65-9.91-8.3-15.18-19.25-17-31.92a115.44,115.44,0,0,1-.93-27.17A98.11,98.11,0,0,1,197,90c.29-.79.51-1.6.81-2.53a16.84,16.84,0,0,0-2.95,0c-11.68,2.2-23.35,1.78-35,.07a20.32,20.32,0,0,0-2.61,0l2,8.85c.75,3.27,1.53,6.53,2.23,9.81a2.54,2.54,0,0,1-1.7,3.32c-8,3.34-16.15,6.1-25,6.42a69.71,69.71,0,0,0-19,3.15c-5.24,1.7-9.47,4.71-11.64,10a24.23,24.23,0,0,0-1.51,10.73c.76,12.16,4.58,23.52,9.11,34.68,1.81,4.46,3.84,8.84,5.83,13.23a4.92,4.92,0,0,1-.71,5.66c-4.37,5.22-5.91,11.29-5.46,18,.22,3.21.33,6.43.31,9.64a6.13,6.13,0,0,1-.92,3.18c-7.75,12-18.91,17.2-33,16.48a43.42,43.42,0,0,1-17-4.42,21.83,21.83,0,0,1-4.91-3.08c-6.55-5.79-14.3-8.73-22.81-9.92-5.06-.71-10.15-1.21-15.19-2A19.54,19.54,0,0,1,12,219.42c-3.78-1.94-7.54-3-11.69-1.12ZM195.56,86.75,178.92,53a15.12,15.12,0,0,0-.84,3.72A46.68,46.68,0,0,1,175,69.65a7.06,7.06,0,0,1-.82,1.17l-.41-.2q.3-6.15.61-12.3l-.43-.09c-4.24,9.23-8.49,18.46-12.85,28Z"/><path d="M139,184.9a10.33,10.33,0,0,1-1.44-.75c-12.17-9-20.11-20.8-23.32-35.62a69.76,69.76,0,0,1-1.4-11.79c-.21-5,2.38-8.27,7.2-9.79a54.78,54.78,0,0,1,14.56-2.08,94.9,94.9,0,0,1,24.62,2.56c3.51.8,4.07,1.56,3.57,5.12-1.71,12.26-5.65,23.66-13.81,33.19-2.93,3.42-6.51,6.3-9.8,9.42a7.09,7.09,0,0,1-.68.51c-3,2.27-3,2.65-.77,5.66a26.2,26.2,0,0,1,1.71,3.13Zm-3.8-3.78.51-.18c-1.5-3.13.31-4.83,2.48-6.37a8.79,8.79,0,0,0,1-.77c3-2.91,6.32-5.61,9-8.79,8.11-9.53,11.94-20.91,13.65-33.12.31-2.19-.29-2.88-2.58-3.45a89.93,89.93,0,0,0-37-1.12c-5.78,1-8.72,4.61-8.59,10.5a43.37,43.37,0,0,0,.49,4.8c1.73,12.47,6.53,23.53,15.18,32.79C131.18,177.4,133.21,179.22,135.16,181.12Z"/><path d="M158.69,160.4a75.13,75.13,0,0,0,35-.3C186.7,165.89,166.38,166,158.69,160.4Z"/></g></svg>