<svg xmlns="http://www.w3.org/2000/svg" viewBox="0 0 369.8 355.7"><g id="OBJECTS"><path d="M369.8,218.94c-2.87,1.9-5.82,3.7-8.59,5.74a12.55,12.55,0,0,1-6.92,2.55c-11.71.66-23.41,1.48-35.13,2-6.8.31-13.63,0-20.44.28-11.11.4-22.2,1.16-33.31,1.47-10.07.28-20.15.18-30.22.21a56.7,56.7,0,0,1-6.52-.31,9.6,9.6,0,0,1-8.85-9.32c-.15-2.39-.38-4.69-2.42-6.57,1.51,0,2.34.63,2.64,1.82a17.17,17.17,0,0,1,.58,3.34c.33,6.16,3.67,9.73,9.85,9.82,11.45.16,22.9.23,34.33,0,9-.19,18.05-.94,27.07-1.33,4.25-.19,8.52-.2,12.78-.19,12,0,24-.67,36-1.74,4.38-.4,8.79-.41,13.19-.53a11.33,11.33,0,0,0,7-2.59c2.18-1.74,4.52-3.28,6.84-4.82a8.12,8.12,0,0,1,2.12-.7Z"/><path d="M256.3,55.18V53.67l.39-.12a20,20,0,0,1,1.41,2.16A25.19,25.19,0,0,1,260.3,69a56.37,56.37,0,0,1-7.53,25.17,28,28,0,0,0-3.47,12.6c-.28,4.15-.75,8.29-1.23,12.42-.4,3.41-2.43,4.86-5.82,4.32-.7-.12-1.39-.29-2.19-.46v5.83a1.68,1.68,0,0,0,.64-.08c2.35-1.28,4.36-.71,6.18,1.06.2.2.47.34.65.55a3,3,0,0,0,3.74.82c2.16-.81,3.58-.21,5,1.59a4.06,4.06,0,0,1,.21,5.13,7.49,7.49,0,0,1-4.66,3.46c-1.83.5-3.65,1-5.5,1.4a1,1,0,0,0-1,1.22c0,1.47-.2,2.93-.24,4.39a22.67,22.67,0,0,0,.25,2.56c.61-.52,1-.8,1.35-1.15A48,48,0,0,1,267.53,138c9.89-2.86,19.71-6,29.58-8.89a12.15,12.15,0,0,1,4.32-.44c.84.07,1.61.92,2.41,1.42l.05,0a12.89,12.89,0,0,0-7.28.32q-15.48,4.6-30.94,9.31a44.74,44.74,0,0,0-19,11.54c-1.65,1.67-3,3.41-1.45,5.94-1.81-.4-2.21-1-1.73-2.6.31-1,.74-2,1.16-3.19-2.17-1.82-3.87.39-5.82.63-.1,2.74-.9,5.08-3.22,6.72.53-1.12,1.06-2.23,1.58-3.36a3.84,3.84,0,0,0-.16-3.91c-1.3-2-1.54-2.15-3.89-1.54-1.58.41-3.57.46-4.61,1.46s-1.09,2.94-1.47,4.5A45.91,45.91,0,0,1,221.65,169a25.27,25.27,0,0,0-2.81,21.13,12.67,12.67,0,0,1,.15,6c-.67,3.85-.92,7.78-1.5,11.65-.41,2.75-1.08,5.45-1.6,8.18-.25,1.34-.46,2.69-.62,4.05-.74,6-3.67,8.89-9.71,9.46a58,58,0,0,1-22.6-2.13c-5.43-1.66-7.75-.64-10.44,4.36-.63,1.16-1.09,2.41-1.61,3.62a3.81,3.81,0,0,1-4,2.62c-2.59-.14-5.2-.23-7.76-.62-2.05-.32-3.3-1.82-3.82-4a2.76,2.76,0,0,1,.79.51c1.91,2.49,4.52,3.3,7.51,3.23,1,0,2.08-.1,3.12-.19,2.55-.25,3.09-.8,3.37-3.49-3.8.21-7.23-1.13-10.65-2.55-3.1-1.28-5-.72-6.77,2.15-3.05,5-7.62,6.66-13.17,6.32-.9-.05-1.8-.15-2.69-.28-3.6-.54-5.39-2.44-6-6.33-.1-.6-.16-1.21-.25-1.88-4-.14-8.05,1.42-12.1-.54,2.48,0,4.71.09,6.93,0,4.54-.23,4.68-.41,5.11-4.88.14-1.51.32-3,.49-4.59-1.14-.84-2.12-.35-3,.47-2,1.84-3.83,3.8-5.87,5.57a16.31,16.31,0,0,1-3.64,2.15c.34-1.26,10.13-9.41,11.66-10-.32-3.55-2.83-5.43-6.24-4.67a11,11,0,0,0-8.8,12c.12,1.52.22,3-.78,4.36a3,3,0,0,0-.24,1.64c0,2.52-.68,4.72-3,6s-4.56.78-6.73-.48a8.69,8.69,0,0,1-4.1-5,25.3,25.3,0,0,0-1.82-3.65c-1.51.6-2.92,1.12-4.27,1.74a1.37,1.37,0,0,0-.52,1c-.06.7.07,1.41.05,2.12a7.79,7.79,0,0,1-4.15,6.82c-4.92,2.91-9.72,3-14.46-.43a2,2,0,0,0-1.64-.15c-1.27.5-2.45,1.23-3.71,1.76s-2.67,1-3.82.5c2.22-1,4.6-2.15,7-3.23a1.49,1.49,0,0,0,1-1.75c-.28-4.83,2.07-8.09,6.29-10.16a9.76,9.76,0,0,1,11.42,2,8.39,8.39,0,0,1-1.66-.5c-4.68-2.51-9.34-1.76-12.86,2.12a7.73,7.73,0,0,0-1.9,7.11,3.34,3.34,0,0,0,1.26,1.74c.16.13,1-.44,1.41-.86,3.63-4.06,8.43-6.19,13.33-8.12a42.73,42.73,0,0,0,9.92-5.1c3.39-2.48,5.08-2.29,8.37.36.85.68,1.66,1.4,2.48,2.11.05,0,0,.17,0,.56a8.83,8.83,0,0,1-1.59-.68c-.93-.65-1.79-1.41-2.69-2.09a3.85,3.85,0,0,0-4.75-.22c-1.2.76-2.34,1.6-3.59,2.46,1,2.13,1.76,4.31,2.89,6.3,1.67,2.95,5.88,4.23,8.49,2.8a4.51,4.51,0,0,0,2.37-3.77c.19-1.66.66-3.28,1-4.93a7.12,7.12,0,0,0,.13-2c-.66-6.72,3.21-12,9.77-13.39a5.7,5.7,0,0,1,6.76,3.15,11.07,11.07,0,0,1,1.1,7.15c-.27,1.76-.42,3.53-.69,5.75,2-1.11,3.62-1.93,5.14-2.92,5.57-3.61,10.57-3.52,15.94.33a12.75,12.75,0,0,0,1.8.93l-.68.79c-.82-.46-1.66-.86-2.44-1.38-4.56-3-9.11-3-13.69,0a42.68,42.68,0,0,1-3.88,2.36,2.14,2.14,0,0,0-1.38,2.57c.09.54.06,1.11.1,1.86.84-.37,1.57-.66,2.27-1a22.87,22.87,0,0,1,17-2.17,3,3,0,0,0,2.26-.33c2-1.49,4.1-1.23,6.23-.53,1.38.45,2.68,1.23,4.09,1.57a38.47,38.47,0,0,0,6.13.94c1.45.11,1.46-1.51,2.06-2.38a1.48,1.48,0,0,0-.31-1.41,26.5,26.5,0,0,0-4.7-4,6.62,6.62,0,0,0-7.94.8c-1.19,1-2.33,2-3.71,3.25a5.18,5.18,0,0,1,.24-1,8.86,8.86,0,0,1,13.38-3c1.41,1,2.67,2.26,4.1,3.49.38-.24.83-.48,1.23-.78a8.5,8.5,0,0,1,8.1-1.12,55.67,55.67,0,0,0,18.87,2.66,38.21,38.21,0,0,0,5.64-.56,8,8,0,0,0,7.05-7c1.32-7.11,3-14.18,2.95-21.48a8.37,8.37,0,0,1,.62-3,8.41,8.41,0,0,0,.2-6.1,23.13,23.13,0,0,1-1-11.46,2.15,2.15,0,0,0-.75-1.61,23,23,0,0,0-18.75-5.47c-7.53,1-14.77-.18-22-2.11a47.54,47.54,0,0,1-21.85-12.34,25.22,25.22,0,0,0-10.36-6.75c-1.09-.33-2.22-.51-3.31-.8-.89-.23-1.92-.58-1.82-1.65a3.22,3.22,0,0,1,1.29-1.76c2.37-1.87,5.32-2.1,8.14-2.65,6.92-1.35,13.85-2.77,20.93-2.62,12.4.27,23.76,3.83,33.62,11.53a50.11,50.11,0,0,1,5.16,5.24,4.47,4.47,0,0,1,1.24,4.05,1.64,1.64,0,0,0,.8,1.91,2.15,2.15,0,0,1,.32.29c2.88,2.61,3.25,4.55,1.44,8.16l6,4.12,9.27-19.8c-1.77-.33-3-.59-4.3-.79-1.7-.27-3.39-.56-4.59-2a3.83,3.83,0,0,1-.75-1.37,15,15,0,0,0,9.38,2.67c.49-1.73,1.06-3.52,1.49-5.34a2.09,2.09,0,0,0-.37-1.59c-1.53-1.75-3.31-3.29-5.82-2.87a5.57,5.57,0,0,0-4.73,4.52c-.08.32-.17.63-.26,1-4.86.59-7.57-1.31-8-5.61-.39-3.72,2.08-7.62,5.84-8.28,2.39-.43,3.33-1.32,3.88-3.67.81-3.45,3.87-5.26,7.39-5.14a1.81,1.81,0,0,0,1.29-.73c1.54-2.27,3-4.58,4.63-7.1a2.64,2.64,0,0,1-.41,2.75,32.26,32.26,0,0,0-2.45,3.29c-.6,1-.9,2,.48,2.89a2.93,2.93,0,0,1,1,3.2c-.53,2.82.8,4.62,3.06,6a4.12,4.12,0,0,1,.6.39c2.21,1.82,4.59,2.4,7.27,1a4,4,0,0,1,1.22-.21l.14.46a19,19,0,0,1-2.07.89,3.84,3.84,0,0,0-2.78,3.24,17.19,17.19,0,0,1-.89,3,1.78,1.78,0,0,0,.34,2c1,1.39,2.09,1.71,3.55.82a3.05,3.05,0,0,1,.53-.2c3-1.11,3.43-1.4,3.23-4.67a29.84,29.84,0,0,0-1.5-7,59.16,59.16,0,0,0-2.88-6.78,1.54,1.54,0,0,0-1.23-.76,26,26,0,0,0-3.54.92c-1.3.4-2.57,1-4.22.3,2.37-.79,4.52-1.55,6.69-2.22.86-.26,1-.72,1.21-1.59.67-3.6-1-6.17-3.43-8.47a1.9,1.9,0,0,0-1.47-.34c-4.94.84-9.86,1.78-14.8,2.61a23.64,23.64,0,0,1-16.29-2.88,99.09,99.09,0,0,1-8.33-5.65c-4.43-3.22-9-6.07-14.55-7-2-.35-4.06-.38-6.05-.76a3.77,3.77,0,0,1-2.07-1.39c-.71-1-.45-1.81.65-2.56,3.52-2.43,7.54-3.44,11.6-4.37a90.39,90.39,0,0,1,37.2-.68c8.35,1.57,13.73,7,17.26,14.46a3.67,3.67,0,0,1-2,5.27s-.07-.1-.06-.12c2.24-2.73,1.15-5.25-.44-7.78a24.12,24.12,0,0,0-18.73-11.59,109,109,0,0,0-25.21,0,66.28,66.28,0,0,0-15.38,3.78,38.43,38.43,0,0,0-4.37,2.33,2.32,2.32,0,0,0,2.39,1.84c7.86,0,14.44,3.24,20.54,7.86a72.1,72.1,0,0,0,8.2,5.57A23.52,23.52,0,0,0,219.41,121c4.87-.89,9.75-1.74,14.63-2.61l.22-.39c-.87-.78-1.72-1.58-2.61-2.33-6-5-13.06-7.5-20.74-8.39-2.16-.25-4.34-.36-6.5-.58a15.77,15.77,0,0,1-2-.46v-.36a4.89,4.89,0,0,1,1.23-.25c7.23.27,14.32,1.28,21,4.33a31.5,31.5,0,0,1,11.85,9,9.9,9.9,0,0,0,6.85,3.57c2,.29,3.53-1.22,3.78-3.68.54-5.22,1-10.45,1.59-15.67a28.18,28.18,0,0,1,3.38-10,5.43,5.43,0,0,0,.25-3.91A70.43,70.43,0,0,1,251,79.09,94.54,94.54,0,0,1,252.51,60c.35-2.29,1.16-4.34,3.82-4.86a12.48,12.48,0,0,0-3.06,6.29c-.22,1.35-.32,2.72-.47,4.08-.66,6-1.33,11.94-.61,17.94.26,2.08.72,4.12,1.08,6.18l.46,0c.21-.35.44-.68.63-1,4.11-7.85,5.15-16.32,4.83-25C259.07,60.58,258.46,57.57,256.3,55.18ZM210.75,172.65c.05-.69.08-1.2.13-1.72.35-3.83-.44-5.15-4-6.69l-7.68-3.31a24.07,24.07,0,0,0-9.41-2.43c-11.67-.05-22.47-3.32-32.75-8.59a14.66,14.66,0,0,1-1.75-1.2l.26-.46c1.27.57,2.56,1.1,3.81,1.7,8.69,4.15,17.71,7.1,27.45,7.38a36.79,36.79,0,0,1,15.43,3.78c1.47.73,3,1.33,4.47,2a2.74,2.74,0,0,0-.07-3.79,50,50,0,0,0-6.31-6.29c-10.12-7.57-21.72-10.56-34.21-10.51a89.66,89.66,0,0,0-22.38,3.38,34.52,34.52,0,0,0-5.08,2.23l.09.49a10.61,10.61,0,0,0,1.94.67,22.4,22.4,0,0,1,11.45,5.85c2.05,1.83,4.18,3.57,6.34,5.25,10.79,8.4,23.13,11.67,36.65,10.93C200.34,171,205.53,170.73,210.75,172.65Zm11.46-28.14c-.15-1.31-.22-2.43-.43-3.53a3.08,3.08,0,0,0-2.51-2.59,13.5,13.5,0,0,0-3.79-.35,6.67,6.67,0,0,0-5.33,9.75c1.62,3.07,4.15,3.29,6.11.46C217.68,146.22,219.35,144.67,222.21,144.51Zm14.35-1.87a3,3,0,0,0-.74-.91c-1.68-1.14-3.41-2.22-5.14-3.29-.29-.18-.78-.41-1-.29a53.76,53.76,0,0,0-5.69,3.69c-1.34,1.08-.92,2.76.63,3.49a7.22,7.22,0,0,1,4,3.78,1,1,0,0,0,.72.48C233.65,149.94,236.47,147.36,236.56,142.64Zm-84.78,89.45c-5.36-2.29-15.53-.46-19.26,3.43C138,240.81,148.76,238.93,151.78,232.09Zm77.27-97.74a14.63,14.63,0,0,1-.11-2.14c.14-1.22-.49-1.75-1.52-2.18a6.46,6.46,0,0,0-8.52,3.58c-.77,1.84-.62,2.51.89,3.79l1.07.92c2.77,2.37,2.7,2.24,5.92.43C228.78,137.62,229.76,136.32,229.05,134.35ZM92.2,231.64c-5.48,1.8-10.54,4.22-14.09,9.06,3.62,2.14,8.42,1.54,12.08-1.44A6.49,6.49,0,0,0,92.2,231.64Zm153-89.68a57.55,57.55,0,0,0,6.45-1.72,9.54,9.54,0,0,0,3.59-2.54c1.38-1.57,1.24-2.86.07-4.34s-2.32-1.93-4.22-1a8.53,8.53,0,0,0-2.84,2.41c-1.13,1.44-2,3.11-3,4.61A2,2,0,0,0,245.22,142Zm3-9.48c-.78-.73-1.47-1.44-2.22-2.07-2.15-1.82-3.26-1.76-5.39.33q1.67,3.84,3.38,7.76C245.64,137.52,245.64,137.52,248.18,132.48Z"/><path d="M269.31,185.17a4.12,4.12,0,0,1-1.28.46c-8.62.13-16.81,2.45-25,4.78a23.86,23.86,0,0,1-11.78.45c-3.21-.69-4.92-2.85-6-5.66-.52-1.38.36-2.39,1.33-3.33,6.33-6.16,14-8.55,22.69-8.77a96.1,96.1,0,0,1,29.92,4.2c2.72.8,5.51,1.33,8.24,2.12a12.89,12.89,0,0,1,6.68,4.56,15,15,0,0,0,2.41,2c-1.7.24-3.34.43-5,.69a48.35,48.35,0,0,0-18.35,7.2,48.06,48.06,0,0,1-29.41,7.69c-6.6-.38-12.29-3.15-17.45-7.14a3.56,3.56,0,0,1-.65-1.07l.29-.29c.8.53,1.63,1,2.39,1.6,7.22,5.56,15.45,6.65,24.21,5.65A48.16,48.16,0,0,0,273,192.79a47.44,47.44,0,0,1,18.81-7.14,13.36,13.36,0,0,0,1.75-.5,11.27,11.27,0,0,0-6.39-4.74c-7.27-1.87-14.53-3.91-21.91-5.26-8.93-1.63-18-1.89-26.86.64a25.25,25.25,0,0,0-11.23,6.92,2.53,2.53,0,0,0-.46,3.32c1.41,2.72,3.72,3.88,6.62,4.22,3.84.45,7.51-.39,11.21-1.26,6-1.4,12-2.74,18-4a42.2,42.2,0,0,1,6.07-.41,1.77,1.77,0,0,1,.6.2Z"/><path d="M303.84,130.1,307,128l.33.39c-1.3,1.4-2.62,2.78-3.91,4.2-4.83,5.31-9.74,10.56-14.45,16-1.94,2.24-3.32,5-5.17,7.28-4.56,5.76-10.84,8.5-17.9,9.71a38.5,38.5,0,0,1-21.29-2.31,28.78,28.78,0,0,0-5.23-1c-1-.17-1.91-.4-3-.64.12,1.17.22,2.29.37,3.39.37,2.72-.64,4.86-2.7,5.68s-5.9-.18-7.13-1.93a3.83,3.83,0,0,1-.32-.71c1.55.57,3,1.25,4.52,1.64,3,.78,4.89-.91,4.64-4-.35-4.41-.35-4.41-4.66-5.32-1.17-.24-2.33-.5-3.49-.75l.07-.61a14.74,14.74,0,0,1,2.21.15c2.82.57,5.65,1.14,8.44,1.83,2.23.55,4.19.73,5.91-1.33,1.16-1.4,3.05-1.29,4.76-1.42,9.43-.73,18.39-2.87,26-8.87,3.31-2.6,6.57-5.27,9.87-7.88a13.79,13.79,0,0,1,1.88-1.06l.25.34a13,13,0,0,1-1.21,1.25c-3.79,3.05-7.57,6.14-11.42,9.12-5.11,3.95-11.08,5.87-17.32,7-3,.55-6,.68-9,1.18a22.31,22.31,0,0,0-3.87,1.37v.58a10.07,10.07,0,0,0,2.24,1.52c11.35,3.9,22.26,3.23,32.39-3.59a17.21,17.21,0,0,0,4.82-4.91c4.78-7.53,10.75-14,16.94-20.36,1.18-1.21,2.2-2.57,3.3-3.86Z"/><path d="M64.67,227.77a7.66,7.66,0,0,0-10.79-3.53,66.62,66.62,0,0,0-6,3.89c.36.65.66,1.13.89,1.63a2.88,2.88,0,0,1-.18,3.23c-3.22,3.63-7,6.12-12.16,5.3-4-.65-6.76-3.19-8.48-6.82a2.07,2.07,0,0,1,.22-1.53,12.62,12.62,0,0,1,17.7-5.36c2.45,1.39,3.89,1.11,6-.38,3.27-2.31,7-2.75,10.56-.54s5.94,5.57,5.59,10.13a9,9,0,0,1-.88,3.26c-1.28,2.52-2.73,4.95-4.18,7.54-1.87-1.16-3.69-2.15-5.36-3.35A8.25,8.25,0,0,1,54.29,232c.61-2.56,1.56-5,2.36-7.56l.51.08a14.65,14.65,0,0,1-.24,2.58c-.5,1.92-1.24,3.78-1.67,5.71a7,7,0,0,0,3.2,7.73c1.27.87,2.69,1.53,4.22,2.39,1.37-2.46,2.83-4.74,3.94-7.17a6.46,6.46,0,0,0-2-8ZM47.61,227a10.43,10.43,0,0,0-10.32-2.78,12.68,12.68,0,0,0-8.68,7.4A35.51,35.51,0,0,0,47.61,227ZM30.29,233a15.65,15.65,0,0,0,1.23,1.65A9.86,9.86,0,0,0,38,237.42c3.13.22,5.46-1.53,7.84-3.13,2.56-1.72,2.83-2.71,1.66-5.9A49.63,49.63,0,0,1,30.29,233Z"/><path d="M327.06,93.24a4.49,4.49,0,0,1-4,.46c-6.3-2.47-12.84-2.52-19.44-2s-13.49,1.05-20.06,2.79c-8.11,2.15-15.45,5.77-21.25,11.92a36.06,36.06,0,0,0-5.1,7.44c-1.52,2.77-1.11,4.21,1.08,6.5.69.71,1.44,1.36,2.28,2.15,9.63-11.31,20.61-20.3,36.15-22.12C293,101.6,289.36,102.5,286,104a59.34,59.34,0,0,0-9.92,5.44,79.1,79.1,0,0,0-8.68,7.28,28.62,28.62,0,0,0-6.93,9.37c-.23-2.43-1.69-3.76-3.1-5.12a5.82,5.82,0,0,1-1.38-7.11c2.48-5.78,6.76-10,11.81-13.48a44.93,44.93,0,0,1,20.48-7.79c7.23-.88,14.48-1.63,21.75-2.07a41.63,41.63,0,0,1,9.12,1C321.76,91.87,324.34,92.61,327.06,93.24Z"/><path d="M248.67,122.84c.83.77,1.53,1.45,2.26,2.11a7.69,7.69,0,0,0,7.31,2c4.6-1,9.26-1.87,13.83-3,7-1.77,13.12-5.43,19-9.61,9-6.4,18-12.64,27.09-18.93A12.89,12.89,0,0,1,320,94.34c.24-.13.6,0,.9,0l.12.37L316,98.15c-8.75,6.12-17.55,12.18-26.24,18.39A61.85,61.85,0,0,1,264,126.89c-2.28.4-4.55.88-6.83,1.28A8,8,0,0,1,248.67,122.84Z"/><path d="M64.64,227.74c0,.41,0,.91-.16,1.2a104.92,104.92,0,0,1-6.71,8.61,4.85,4.85,0,0,1,.44-1.21q3-4.2,6-8.36c.09-.12.31-.14.47-.21Z"/></g></svg>