<svg xmlns="http://www.w3.org/2000/svg" viewBox="0 0 369.8 355.7"><g id="OBJECTS"><path d="M-.06,218.07a14.89,14.89,0,0,1,3.72,1.12,80,80,0,0,0,32.18,11.58,81.41,81.41,0,0,0,38.74-4,64.56,64.56,0,0,1,32.29-3.06C117,225.24,127,227.29,137,229c9,1.52,18,2.37,27.13,1.29a25.28,25.28,0,0,0,15.67-7.53c.16-.17.32-.35.46-.53s0-.18.08-.72c-1,.62-1.72,1.07-2.44,1.58a36.47,36.47,0,0,1-12.73,6.06c-10.33,2.48-20,.68-29-4.75-11.84-7.09-20.15-16.86-23.56-30.46-2-8.09-2.45-16.17.4-24.17,1.16-3.24,2.88-6.07,6-7.83,2.65-1.5,4.4-.74,5.14,2.24.92,3.76,1.59,7.6,2.87,11.23a33,33,0,0,0,10.06,14.38,18.33,18.33,0,0,0,11.16,4.37,15.18,15.18,0,0,1,13.08,8.2c.8,1.39,1.51,2.84,2.32,4.22a13.16,13.16,0,0,0,7.78,6.24c3.52,1.06,7,2.12,10.55,3.28,1.06.35,1.65.18,2.1-.84a22.89,22.89,0,0,1,1.26-2.17c-1.83-.44-3.53-1-5.26-1.23a14.42,14.42,0,0,1-11.66-9,44.79,44.79,0,0,0-3.24-6c-2.73-4.35-6.81-6.53-11.84-7.14a26.17,26.17,0,0,1-16-8.11,46.76,46.76,0,0,1-10.46-15.55,23,23,0,0,1-1.19-4.22,7.32,7.32,0,0,1,3.92-8.22,23.6,23.6,0,0,1,13.21-2.47c7.85.56,14.37,4.25,20.21,9.16a103.14,103.14,0,0,1,9.18,9.05,59,59,0,0,1,11.67,17.43,49.79,49.79,0,0,1,3.81,16.5,36.13,36.13,0,0,1-.36,6.23,4.76,4.76,0,0,0,1.48,4.34c1.73,1.68,3.33,3.5,5,5.21A17.81,17.81,0,0,0,204,224.25a11.42,11.42,0,0,0-1-1.12c-6-5.14-9.27-11.79-11.25-19.29-2.92-11.13-4.82-22.38-4.52-33.92.22-8.7,1.25-17.3,4.51-25.43a96.31,96.31,0,0,1,5.13-9.94,3.33,3.33,0,0,1,1.72-1.26,3.36,3.36,0,0,1-.2.43c-5.28,7.6-8,16.14-9.2,25.21-2.11,15.78-.39,31.25,4,46.46a35.91,35.91,0,0,0,10.8,17.2c3,2.7,6.37,3.66,10.21,2.29s5.81-4.48,6.53-8.42a18.5,18.5,0,0,0-.94-9.77c-1.22-3.37-2.52-6.72-3.65-10.13a23.14,23.14,0,0,1,1-17,100.68,100.68,0,0,0,4.35-11.36c1.27-4.23.73-8.62.13-13-1-7-2.37-13.8-5.73-20.07a25.59,25.59,0,0,0-3.21-4.82c-2.23-2.55-4.89-3-7.95-1.53-1.4.67-2.69,1.57-4.3,2.54a8.23,8.23,0,0,1,5.85-4.18,7.28,7.28,0,0,1,6.82,2.29c3.65,3.81,5.49,8.57,7,13.46A66.33,66.33,0,0,1,223,165.18c-.11,3.68-1.72,6.95-3,10.31-.76,2.09-1.6,4.15-2.53,6.16a18.72,18.72,0,0,0-.63,14.1c1.53,4.77,3.07,9.54,4.49,14.34,1.82,6.15-.05,11.33-5.28,15l-2.48,1.75c3,1.32,5.94.76,9,.82-1.22-3.61.59-6.51,1.92-9.49a24.78,24.78,0,0,0,.45-20.1c-1.53-3.88-3.18-7.9-2.34-12.23a17.88,17.88,0,0,1,2.12-6.24c6.09-9.33,6.24-19.19,3.13-29.43A51.32,51.32,0,0,0,217.3,131c-2.29-2.6-1.71-5.28,1.43-6.78a11.21,11.21,0,0,1,9.49,0,44.06,44.06,0,0,1,21.31,18c5.48,8.92,9.3,18.51,10.49,29,1.76,15.37-1.09,29.77-9.82,42.75a31.47,31.47,0,0,1-14.58,11.55c-1.37.57-2.71,1.19-4.06,1.79l.1.46a17.68,17.68,0,0,0,2.42-.18c7.37-1.48,14.7-3.2,22.1-4.46,13.62-2.33,27.31-2.85,40.94-.14,4.81,1,9.49,2.54,14.27,3.68,18.87,4.51,36.79,1.86,53.84-7.23,1.38-.73,2.77-1.43,4.15-2.15l.33.25c-.26.41-.43,1-.81,1.19a75.2,75.2,0,0,1-30.85,10.65,72.8,72.8,0,0,1-30.17-2.82,96.06,96.06,0,0,0-31.49-4.15,153.93,153.93,0,0,0-37.68,5.45c-5.82,1.61-11.84,1.24-17.79,1A65.23,65.23,0,0,1,201,224.71a22.56,22.56,0,0,1-9.62-6.55c-1.4-1.66-2.89-3.24-4.48-5-.51.7-1,1.26-1.37,1.89q-1.34,2.25-2.56,4.58c-3.73,7-9.88,10.28-17.42,11.52-9.09,1.49-18.1.63-27.09-1-10.1-1.82-20.18-3.72-30.31-5.32-10.92-1.73-21.66-.59-32.28,2.45a143.71,143.71,0,0,1-18.16,4.39c-17.48,2.58-34.09-.54-49.71-8.8-2-1-3.83-2.26-5.79-3.3a10.53,10.53,0,0,0-2.26-.66Zm259.51-36.44a67.31,67.31,0,0,0-1.25-14.38c-2.15-12.8-7.44-24.07-16.72-33.27a37.72,37.72,0,0,0-14.19-9.15,11.15,11.15,0,0,0-8.19.23c-2.16.9-2.65,2.43-1.48,4.46a18.59,18.59,0,0,0,1.68,2.28,52.69,52.69,0,0,1,9.78,18.73c2.84,9.89,2.94,19.43-2.87,28.52a15.57,15.57,0,0,0-1.53,14.67c.74,1.89,1.16,3.9,1.86,5.81a22.52,22.52,0,0,1-.66,17.78c-.79,1.72-1.42,3.51-2.08,5.28-.48,1.28-1.17,2.69-.11,3.88s2.55.76,3.89.5c12.56-2.43,21-9.95,26.37-21.31A61.79,61.79,0,0,0,259.45,181.63Zm-147.57.28c.24,2.45.35,4.92.76,7.33,2.37,14.28,10.07,25.17,21.94,33.06,9.36,6.22,19.68,8.63,30.84,5.7a34.71,34.71,0,0,0,15.17-8.52c1.37-1.28,1.25-2.14-.42-2.92a16.36,16.36,0,0,0-4-1.3c-6.85-1.18-12-4.6-15-11a34.42,34.42,0,0,0-2-3.41,10.84,10.84,0,0,0-6.27-4.83,25.81,25.81,0,0,0-5.15-.95,19.48,19.48,0,0,1-11.35-4.66,35.31,35.31,0,0,1-11.66-19.18c-.53-2.3-.91-4.64-1.51-6.93-.57-2.14-1.79-2.59-3.74-1.52a11,11,0,0,0-4.78,5.44A35.16,35.16,0,0,0,111.88,181.91ZM187,204.38a75.79,75.79,0,0,0-1.13-8.22,60.56,60.56,0,0,0-15.22-27.44,70.53,70.53,0,0,0-15.43-12.64,26.56,26.56,0,0,0-23.84-2.21c-4,1.48-5.47,4.4-4.48,8.55,1.43,6,4.62,10.9,8.46,15.56,4.87,5.9,10.88,9.72,18.53,10.8,6.19.88,10.6,4.24,13.49,9.71,1.19,2.26,2.42,4.5,3.63,6.74a7.83,7.83,0,0,0,4.37,4.06c3,1,6.1,1.7,9.17,2.44a1.3,1.3,0,0,0,1.8-1.22C186.5,208.59,186.72,206.67,187,204.38Z"/></g></svg>