<svg xmlns="http://www.w3.org/2000/svg" viewBox="0 0 368.61 355.7"><g id="OBJECTS"><path d="M0,178.36c.62-.53.9,0,1.25.39,4,3.88,7.9,7.81,11.94,11.62q15.08,14.25,31.24,27.25A53.68,53.68,0,0,0,68,228.25a124.18,124.18,0,0,0,29.69,2,259.63,259.63,0,0,0,43.63-5.82,4.53,4.53,0,0,0,2.55-1.38c3.07-3.37,7.08-4.6,11.49-4.86.39,0,.78,0,1.47,0a6,6,0,0,0-.71-.58c-8.15-4.52-12-11.62-12-20.76,0-5.82.51-11.65.92-17.46.62-8.69,1.32-17.37,2-26q1-11.72,2.05-23.4c.72-7.84,1.52-15.67,2.25-23.5.87-9.41,2.16-18.72,5.76-27.56a56.16,56.16,0,0,1,10.48-16.77c4.57-5,10.33-7.75,16.93-9A25.89,25.89,0,0,0,188.63,52a7.7,7.7,0,0,0,5.15-6.63c.11-.7.18-1.41.29-2.21a4.21,4.21,0,0,1,2.84,3.59,13.07,13.07,0,0,0,5,8.85,35.89,35.89,0,0,0,4.53,3.33c8,4.87,12.95,12,15.69,20.86a85.68,85.68,0,0,1,3.51,19.28c.45,6.21.79,12.45.67,18.67-.16,8.38-.75,16.76-1.26,25.13-.41,6.54-1,13.06-1.5,19.59-.59,7.33-1.17,14.66-1.85,22-.48,5.2-.92,10.42-1.74,15.58a35.88,35.88,0,0,1-9.72,19.91c-.11.11-.2.25-.31.38.33,1,1,.76,1.69.49,7-2.67,13.66-6,20.42-9.12,11.1-5.17,22.36-10,34.23-13.22,3.87-1,7.91-1.42,11.87-2.16a2.07,2.07,0,0,0,1.24-.86A21.19,21.19,0,0,1,295,185.13a42.1,42.1,0,0,1,17.53,1.52c11,3.06,20.67,8.59,29.75,15.31a148.64,148.64,0,0,1,25.73,24.65c.38.46,1,.94.11,1.69-.26-.29-.52-.56-.76-.85a143,143,0,0,0-31.62-28.77c-8.53-5.55-17.54-10-27.61-12-6.44-1.28-12.85-1.47-19,1.26a19.8,19.8,0,0,0-8.92,8.2c1.81.12,3.47.16,5.12.34a31.89,31.89,0,0,1,18.9,9.26c6.95,6.68,11.68,14.65,13.33,24.24,2,11.41-2.09,20.35-11.38,27a25.7,25.7,0,0,1-10.55,4.61,13.41,13.41,0,0,1-13.64-5,34.7,34.7,0,0,1-6.48-13.36c-3.51-13.12-3.8-26.26.09-39.36.66-2.2,1.63-4.31,2.54-6.68-2.13.31-4.24.55-6.32.94-8.32,1.59-16.17,4.63-24,7.79-8.4,3.4-17,6.57-24.62,11.43A92.41,92.41,0,0,1,208,224.7c-2.5,1-5.2,1.54-7.8,2.31-4.73,1.41-6.55,3.77-6.92,8.72a24.88,24.88,0,0,1-.7,4.48A3.26,3.26,0,0,1,189,243,29.17,29.17,0,0,1,179,241.16a4,4,0,0,1-2.67-3,54.63,54.63,0,0,1-.9-5.54,7.66,7.66,0,0,0-5.21-6.82,31,31,0,0,0-14.09-2.12c-3.73.29-7.45.86-11.15,1.45-9.2,1.46-18.37,3.19-27.6,4.46a168.89,168.89,0,0,1-38.85,1.27c-9.11-.85-18-2.66-26.26-6.84-4.5-2.28-8.33-5.48-12.2-8.63A519.78,519.78,0,0,1,.88,179.88c-.28-.28-.59-.53-.88-.8Zm168.79,29c1.21-19.53,2.42-38.89,3.63-58.33l1.41.13c-.13,2-.27,3.8-.39,5.63Q172,177,170.68,199.3a1.36,1.36,0,0,0,.51,1.07c.65.34.84-.25,1.05-.74,1.08-2.58,2.23-5.13,3.27-7.72.36-.88.82-1,1.66-.64a19.84,19.84,0,0,1-.74,7.47c-.94,2.67-1.8,5.37-2.85,8-2,5-.91,9.42,2.12,13.53,2.64,3.56,6,5.57,10.72,4.91,3.79-.54,7.12-1.81,9.44-5a19.39,19.39,0,0,0,3.2-9.54c.62-5.88,1.24-11.76,1.77-17.65q1.09-12.1,2.07-24.24c.61-7.56,1.16-15.13,1.77-22.7.67-8.4,1.33-16.8,2.08-25.2q.93-10.5,2.07-21a64.66,64.66,0,0,0-.28-18.74c-1.91-10.5-6.81-19.52-13.59-27.62a5.7,5.7,0,0,0-.55-.49c-3.12,4.08-6.21,8.1-9.31,12.14l-1.6-1.06A33.39,33.39,0,0,0,175,82.85q2.35-4.6,4.69-9.21a2.58,2.58,0,0,1-.2,1.28,84,84,0,0,0-4.89,24.57c-.24,5.46,0,10.94-.07,16.41-.11,9.3-.29,18.61-.44,27.92a1.21,1.21,0,0,1-.11.36h-1.11V104.37h-.29q-2.44,51.34-4.89,102.78ZM189.48,54.8l-.1-.41c-2.5.39-5,.66-7.5,1.21-7.37,1.64-12.68,5.77-15.37,13-.77,2.1-1.65,4.15-2.53,6.21a141.46,141.46,0,0,0-9.85,32.8c-1.73,10.45-3.29,20.91-4,31.47q-1,15.12-1.6,30.27c-.3,8.1-.31,16.21-.32,24.32a52.82,52.82,0,0,0,.57,9.42c.75,4.16,2.52,7.95,6.34,10.3a47.49,47.49,0,0,0,5.28,2.79c1.92.87,3.37.11,3.95-1.92a7.51,7.51,0,0,0,.28-1.77c.23-4.54.42-9.09.65-13.64.63-12.92,1.34-25.84,1.88-38.77.56-13.25,1-26.51,1.42-39.76.35-9.94.61-19.88,1.95-29.75a60.26,60.26,0,0,1,6.92-21.77A48,48,0,0,1,189.48,54.8Zm84.36,168.58a71.45,71.45,0,0,0,1.76,16.16c1.3,5.68,3.15,11.14,6.72,15.86,3.15,4.16,7.26,6.18,12.52,5.32a26.39,26.39,0,0,0,21.61-31.33,43.33,43.33,0,0,0-15.27-25,30.58,30.58,0,0,0-19.36-7.21,3.12,3.12,0,0,0-3.44,2.21C275,207.08,273.92,215.12,273.84,223.38ZM199,222.17c.4,0,.63,0,.85,0,5.62-.12,10-2.58,12.31-7.67a67.64,67.64,0,0,0,6.27-21.76c1-10.45,1.68-20.94,2.41-31.42,1-13.82,1.84-27.65,2.75-41.48a134.46,134.46,0,0,0-1.26-32.13c-1.07-6.08-3-11.84-6.63-16.89a35.21,35.21,0,0,0-12.27-10.38c.39.8.64,1.32.9,1.84,1.16,2.31,2.22,4.65,4.35,6.35a11.9,11.9,0,0,1,4.3,8.54c.54,5.78-.32,11.48-1.08,17.18-.32,2.45-.72,4.89-1.05,7.35,0,.27.19.59.29.88.18-.25.46-.49.52-.77.17-.78.24-1.58.36-2.37.33-2.28.66-4.56,1-6.79,1-.15,1,.41.94,1-.29,3.5-.53,7-.84,10.51-.63,7.16-1.52,14.3-1.87,21.47-.68,13.88-1,27.78-1.59,41.67-.24,6.1-.44,12.22-1,18.3-.55,5.91-1.55,11.78-2.36,17.67a1,1,0,0,1-.21-.69q.52-9,1-18.06.72-12.92,1.45-25.84.51-9,1-17.94a3.93,3.93,0,0,0-.26-1l-.42.05-7.17,74.22.21,0,2-2.55.18.12Zm-17.9,5.71c0,3.43,0,6.81,0,10.18,0,.42.46.92.84,1.24a4.85,4.85,0,0,0,7.91-2,8.88,8.88,0,0,0,.32-1.15c.54-2.53,1.08-5.06,1.6-7.59a2.54,2.54,0,0,0,0-.73Z"/></g></svg>