<svg xmlns="http://www.w3.org/2000/svg" viewBox="0 0 368.61 355.7"><g id="OBJECTS"><path d="M0,239.58a6.86,6.86,0,0,0,1.6.85c13.9,3,25.71-.79,35.54-11,6.43-6.65,10.89-14.63,15.37-22.62A142.5,142.5,0,0,0,64.92,176.2c3.64-12.64,10.68-23.29,19.59-32.79A101.14,101.14,0,0,1,99,130.74c.28-.2.64-.45.72-.74.93-3.51,3.1-6.37,4.88-9.43.86-1.49,1.41-2.72.1-4.33-.92-1.13-.61-2.67-.27-4,.9-3.65,3.19-6.48,5.48-9.31.35-.43.75-.83,1.11-1.25a2.27,2.27,0,0,0,.24-3,5,5,0,0,1-.17-5.25c2.13-4.16,4.78-7.86,9.32-9.72a1.13,1.13,0,0,0,.75-1.51,6.21,6.21,0,0,1,1.88-6.23c2.45-2.35,5-4.62,7.52-6.86a74.34,74.34,0,0,1,6-4.94,71.33,71.33,0,0,1,7.71-4.8c3.62-1.93,7.21-4.18,11.09-5.27,6.06-1.7,11.76-4.66,18.09-5.36,3.57-.39,7.17-.61,10.77-.79a85,85,0,0,1,35.9,5.74,73,73,0,0,1,25.26,17A10.28,10.28,0,0,1,247.34,73a28.72,28.72,0,0,0,5.18,6.53,13.89,13.89,0,0,1,3.72,7.5,14.33,14.33,0,0,0,1.15,3.23,8.05,8.05,0,0,0,1.11,1.84,16.27,16.27,0,0,1,3.62,11.37,4.57,4.57,0,0,0,1.24,2.83,12.07,12.07,0,0,1,2.72,12.12,5,5,0,0,0,.37,3.79c1,2.12,2,4.25,2.93,6.42a7.89,7.89,0,0,1-.87,7.95c-1.31,1.94-1.26,2.36.26,4a7.81,7.81,0,0,1,1.88,4.82c.3,3.85-.06,7.53-3.15,10.36-.67.62-.51,1.26-.08,1.94a10.6,10.6,0,0,1-1.61,13.83,4.06,4.06,0,0,0-1.09,5c1.53,4,1,7.75-2.18,10.92-2.45,2.46-3.22,5.59-3.56,8.93a38,38,0,0,1-1,5.27,4,4,0,0,1-2.88,2.94c-2.06.63-2.69,1.44-2.63,3.56.11,3.6-1.43,6.66-3,9.72a1.93,1.93,0,0,1-1,.77,6,6,0,0,1-1.64.3c-2.52.18-2.56.37-3.38,2.71a30.25,30.25,0,0,1-2.87,6,3.6,3.6,0,0,1-2.65,1.25c-2.62,0-4,1.32-4.85,3.64a20.31,20.31,0,0,1-2.45,4.35,2.74,2.74,0,0,1-3.91.81c-3.27-1.71-3.62-1.59-5,1.9a9,9,0,0,1-4.26,4.67c2.64.9,5.06,1.78,7.51,2.56,11.81,3.78,23.66,7.45,35.8,10.08a146.08,146.08,0,0,0,33.85,3.69c21.45-.43,40.32-7.37,56.1-22.18a107.54,107.54,0,0,0,16.92-20.59,2.76,2.76,0,0,1,1-1,5.17,5.17,0,0,1-.4,1.45c-9,14.05-20.26,25.77-35.15,33.67A80,80,0,0,1,306,260.46c-13.61,1.84-27.09.75-40.5-1.83-16.33-3.14-32.16-8.11-47.87-13.49a3.51,3.51,0,0,0-2.15,0c-4.32,1.54-8.82,1.76-13.32,2.11-3.14.24-6.27.69-9.4,1a106.22,106.22,0,0,1-20.33-.2c-3.77-.34-7.53-.85-11.24-1.56a36.41,36.41,0,0,1-5.86-2.05c-5.52-2.1-11-4.18-16.53-6.33a40.31,40.31,0,0,1-11.21-6.58,10,10,0,0,1-3.84-6.28,3.71,3.71,0,0,0-2.23-2.74,21.63,21.63,0,0,1-4.29-2.95c-2.32-2.19-2.77-5-2.09-8.06.37-1.7.23-1.62-1.39-2A4.92,4.92,0,0,1,111,208.1a47.86,47.86,0,0,1-3.34-5.23,6.84,6.84,0,0,1-.56-5.57,4.09,4.09,0,0,0-1.72-4.87c-3.9-3-5-7.49-3.2-12.12a10,10,0,0,1,.54-1.2,3.67,3.67,0,0,0-.8-4.77,16.5,16.5,0,0,1-1.69-1.86c-2.57-3.43-2.68-7-.78-10.81a20.34,20.34,0,0,0,1.11-2.37,3.43,3.43,0,0,0-.65-3.71c-2.28-2.39-2.44-5.25-1.73-8.17a14.88,14.88,0,0,1,2.1-4.77c1.74-2.55,2-5,.48-7.71a23.18,23.18,0,0,1-1.32-3.49,6.26,6.26,0,0,0-.65.38,94.64,94.64,0,0,0-28.44,32.55c-2.87,5.48-4.58,11.38-6.36,17.26a142.39,142.39,0,0,1-22.48,43.88,40.79,40.79,0,0,1-18.47,14.39A37.19,37.19,0,0,1,0,240.77ZM265.8,115c-.12-3-1.28-6.13-3.06-7.78a5.3,5.3,0,0,1-1.74-4c0-1.44-.09-2.88-.26-4.3-.29-2.39-1.82-4.21-3.06-6.15a16.25,16.25,0,0,1-2.56-5.49,12.19,12.19,0,0,0-2-5.15c-2.85-3.48-5.34-7.3-8.37-10.57a69.22,69.22,0,0,0-30.71-19c-12.1-3.77-24.41-4.37-36.95-3.12a47.14,47.14,0,0,0-15,3.69,7,7,0,0,1-1.49.46A38.2,38.2,0,0,0,148,58.49c-3.43,2-7,3.8-10.3,6a91.32,91.32,0,0,0-8.25,6.75c-1.93,1.67-3.76,3.46-5.58,5.25a5.36,5.36,0,0,0-1.65,5.55,1.83,1.83,0,0,1-1.14,2.35c-4.31,1.75-6.86,5.2-8.93,9.13a4.23,4.23,0,0,0,.09,4.64,3,3,0,0,1-.17,3.78c-.43.58-1,1.08-1.4,1.64-2.2,2.75-4.52,5.45-5.23,9a4.58,4.58,0,0,0,.29,3.19,4,4,0,0,1,0,4.86c-1.45,2.39-2.81,4.83-4.17,7.27a6.13,6.13,0,0,0,.08,6.49c1.8,3.07,1.45,5.93-.54,8.84a13.89,13.89,0,0,0-2,4.55c-.5,2.11-.69,4.45.89,6.18,2.37,2.58,2,5,.65,7.68a13.81,13.81,0,0,0-1.42,4.38c-.37,2.78.94,5,2.84,6.95,2.55,2.59,2.76,3.74,1.31,7-.16.37-.29.74-.42,1.12-1.39,4-.47,7.74,2.9,10.29a5.31,5.31,0,0,1,2.15,6.36,5.65,5.65,0,0,0,.52,4.52c.83,1.41,1.72,2.78,2.52,4.21a3.78,3.78,0,0,0,3.51,2.06c1.2,0,1.68.62,1.68,1.86a6.17,6.17,0,0,1-.15,1.42c-.94,3.82.75,6.49,3.72,8.6a9.89,9.89,0,0,0,2,1,4.33,4.33,0,0,1,2.91,3.5,9,9,0,0,0,3.48,5.68,39.71,39.71,0,0,0,11,6.45c6.35,2.48,12.67,5,19.09,7.31a56.19,56.19,0,0,0,8.82,2,58.31,58.31,0,0,0,6.2.58,113.3,113.3,0,0,0,18.42.18c5.37-.48,10.75-.87,16.09-1.58a48.4,48.4,0,0,0,8.43-2.12,7.23,7.23,0,0,0,4.65-5c1-3.08,2.89-3.76,5.7-2.11,1.77,1,2.44.94,3.56-.8a24.34,24.34,0,0,0,2.09-4c.93-2.32,2.42-3.71,5-3.67.24,0,.47-.06.71-.08a2.25,2.25,0,0,0,2.08-1.37c.86-2,1.8-3.89,2.52-5.9.64-1.8,1.2-2.42,3.11-2.63a7.37,7.37,0,0,0,1.42-.1c.54-.17,1.27-.39,1.49-.81,1.48-2.83,2.87-5.69,2.76-9-.08-2.46.9-3.71,3.21-4.41a3.15,3.15,0,0,0,2.35-2.33,41.25,41.25,0,0,0,1-5.28c.36-3.64,1.37-6.93,4.07-9.58a7.85,7.85,0,0,0,2.39-6.65,17.14,17.14,0,0,0-1-3.69,4.18,4.18,0,0,1,1.16-4.88c4-3.75,4.64-8.37,1.79-13.15-.7-1.17-.71-2.15.29-3,2.36-2.06,2.91-4.8,3-7.68a8.53,8.53,0,0,0-1.65-6c-1.92-2.3-2-3-.34-5.58a6.53,6.53,0,0,0,.81-6.47q-1.41-3.36-3-6.65a5.65,5.65,0,0,1-.37-4.83A17.28,17.28,0,0,0,265.8,115Z"/><path d="M142.12,63.15l1.22,1.12L140,68.65l.13.21a6.91,6.91,0,0,0,1.45-.77,36,36,0,0,0,3.51-3.25c4.2-4.69,9.21-8,15.57-9,.65.74.71,1.36-.33,2a22.83,22.83,0,0,0-2.87,2.35,7.37,7.37,0,0,0-.88,1.42,13.88,13.88,0,0,0,1.5-.24c2-.62,4-1.28,6.05-1.88.78-.23.9-.59.56-1.32-1.23-2.59-.24-4.36,2.61-4.7,2.26-.27,4.54-.39,6.79-.74a23.64,23.64,0,0,0,4.37-1.15,7.53,7.53,0,0,1,5.37.05c3.11,1.12,6.22,2.24,9.38,3.19a3.39,3.39,0,0,1,2.72,2.94c.31,2.05.7,4.09,1,6.14s-.78,3.17-2.3,4.13a1.54,1.54,0,0,1-2.24-.33,27.76,27.76,0,0,1-1.94-2.87c-1.21-2-2.37-4.07-3.54-6.11A3.2,3.2,0,0,0,183.43,57c-2.58.32-5.17.52-7.74.82a5.7,5.7,0,0,0-1.34.49l0,.44a19.53,19.53,0,0,0,2.48.52c5.94.49,6.66,1.11,7.8,7,.2,1,.31,2,.55,2.94a3.82,3.82,0,0,1-.78,3.26c-1,1.41-2.2,1.56-3.4.31-1.49-1.56-2.87-3.22-4.31-4.82-.78-.86-1.53-1.74-2.36-2.55A4.53,4.53,0,0,0,169.76,64c-1.81.48-3.67.79-5.45,1.37A10.58,10.58,0,0,0,162,66.88a4.9,4.9,0,0,0,3.9,1.7c3.17,0,5.12,1.6,6.52,4.22.88,1.66,1.81,3.28,2.74,4.91a2,2,0,0,1-.13,2.47,17.69,17.69,0,0,1-3.25,2.74c-.83.53-1.64,0-2.3-.71-2-2.26-4.12-4.46-6.16-6.7A3.29,3.29,0,0,0,160,74.32c-2.19.45-4.4.76-6.57,1.3-2.58.64-3.35,1.88-3.11,4.67,1.21,0,2.42,0,3.64,0,.88,0,1.75-.15,2.63-.12a6.32,6.32,0,0,1,5.52,3.23c1.07,1.78,2.2,3.53,3.33,5.26.93,1.43.94,2.23-.05,3.61-.49.68-1,1.34-1.5,2a1.65,1.65,0,0,1-2.48.48c-2.56-1.56-5.17-3-7.69-4.63a3.6,3.6,0,0,0-3.61-.33c-2.28,1-4.61,1.79-6.91,2.71-1.22.48-1.62,1.2-1.4,2.29.3,1.45,1.07,1.9,2.66,1.55l4.56-1a3.41,3.41,0,0,1,3.29,1q2.61,2.64,5.13,5.37a3,3,0,0,1,.62,3.35c-.58,1.4-1.24,2.76-1.88,4.13a1.53,1.53,0,0,1-2.21.8,63,63,0,0,1-6.05-2.85,6.85,6.85,0,0,0-7.37-.08c-1.72,1-3.4,2.09-5.06,3.19a3.41,3.41,0,0,0-.5,4.7,1.3,1.3,0,0,0,1.24.13c3.71-2.08,7.38-1.59,11,.09,1.35.61,2.66,1.29,4,2a1.76,1.76,0,0,1,1.11,2.31c-.43,1.49-.66,3-1.06,4.54s-1.13,2.23-2.83,2.12c-3.1-.18-6.21-.44-9.3-.82a6.23,6.23,0,0,0-5,1.08,31.29,31.29,0,0,1-4.09,2.47,1.47,1.47,0,0,0-.83,2.13c1.54,4,1.95,4.21,6,2.87a9.88,9.88,0,0,1,6.8.29c2,.75,3.91,1.59,5.85,2.43a2.28,2.28,0,0,1,1.46,2.61,18.27,18.27,0,0,1-1,3.57c-.66,1.66-2.22,2.1-3.79,2.33q-4.38.66-8.78,1.19a11.41,11.41,0,0,0-7.06,3.93,2.23,2.23,0,0,0-.35,2.76c.13.25.25.5.39.74,1.38,2.27,1.69,2.37,4.08,1.23a12.36,12.36,0,0,1,9.33-.35c1.45.45,2.85,1,4.28,1.56a3.09,3.09,0,0,1,2.14,2.89,3.48,3.48,0,0,1-1.64,3.49,20.35,20.35,0,0,1-7.24,2.71,20.77,20.77,0,0,0-10.38,4.87c-1.13,1-1.18,1.27-.37,2.5.56.87,1.12,1.75,1.72,2.59a1.69,1.69,0,0,0,2.41.57c.67-.36,1.35-.68,2-1.07a17.25,17.25,0,0,1,8.58-2.26c1,0,2-.05,3,0a4.49,4.49,0,0,1,1.65.19c1.78.76,2.17,2.44,2.46,4.11a3.23,3.23,0,0,1-1.58,3.59c-2.91,1.73-5.81,3.5-8.81,5.09a24.51,24.51,0,0,0-7.2,5.67c-1,1.17-1,1.51.16,2.57s2.21,2,3.39,3c.42-.33.84-.61,1.2-.95A21.64,21.64,0,0,1,150.51,190a4.31,4.31,0,0,1,1,0c1.27.15,2.53.45,3.08,1.74a2.92,2.92,0,0,1-1,3.34c-3.62,3.49-7.28,6.95-10.91,10.43q-1.34,1.29-2.61,2.64a4.47,4.47,0,0,0-.8,1.18c-.45,1-.65,2.09.32,3a2.44,2.44,0,0,0,3.11,0,44.29,44.29,0,0,1,10-5.84c1.64-.62,3.3-1.2,5-1.69s2.91-.07,3.56.95a3.11,3.11,0,0,1-.3,3.69c-3.5,5-7,10-11.33,14.37-1.18,1.17-1.16,1.47,0,2.62l.17.17c2.78,2.56,3.5,2.5,6.27,0,3.09-2.83,6.27-5.57,9.43-8.32,2.73-2.39,4.45-.41,5.64,2.06a2.69,2.69,0,0,1-.29,1.92c-.7,1.52-1.54,3-2.31,4.47a17.61,17.61,0,0,1-5.25,6.13,21.63,21.63,0,0,0-2.57,2.32,1.33,1.33,0,0,0,0,2,10.32,10.32,0,0,0,5.24,3,2.33,2.33,0,0,0,1.75-.89c2.55-3.08,5-6.22,7.5-9.34.52-.66,1-1.34,1.6-1.95a2.44,2.44,0,0,1,3.12-.68,3,3,0,0,1,1.53,3.35,92.79,92.79,0,0,1-3.87,9.51,9.39,9.39,0,0,1-12.68,4c-1.15-.55-2.25-1.22-3.38-1.82a10.85,10.85,0,0,0-6.08-1.46,3.71,3.71,0,0,1-1.73-.33c-3.66-1.59-7.29-3.23-10.94-4.83a2.76,2.76,0,0,0-1.25-.34c-1.84.14-2.77-.89-3.44-2.41a17.91,17.91,0,0,0-6.72-7.69l4.58,6.11c-4.11.51-8.69-3.57-9.29-6.59a7.76,7.76,0,0,0-4.25-5.73,12.71,12.71,0,0,1-2.56-2,5.51,5.51,0,0,1-1.56-5.6,11.39,11.39,0,0,0,.24-2.25c0-1.49-.4-2.21-1.87-2.28-3.36-.16-4.62-2.12-5.24-5.1-.53-2.52-1.55-5-.45-7.65,1.48,1.7,2.88,3.44,4.43,5a7.69,7.69,0,0,0,2.56,1.62c1,.42,1.41,0,1.47-1.14a10.47,10.47,0,0,0-4.39-9.28c-.45.51-.87,1-1.34,1.5a2.2,2.2,0,0,1-2.94.35c-1.33-.81-2.65-1.62-4-2.46a2.16,2.16,0,0,1-.93-2.4c.25-1.41.38-2.84.62-4.24.21-1.24.51-2.46.82-3.93,1.3.55,2.35,1,3.39,1.43a14.86,14.86,0,0,0,1.52.7c1.23.35,1.92,0,2.24-1.27a9,9,0,0,0-1.64-8.25c-1.26-1.59-2.18-1.43-2.82.5-.49,1.47-.79,3-1.19,4.6a4.52,4.52,0,0,1-.56-.4c-1.58-1.7-3.22-3.34-4.68-5.13a3.87,3.87,0,0,1-.75-2.49c.26-3.26.73-6.5,1.08-9.76a9.06,9.06,0,0,0-1.52-6.37,2.69,2.69,0,0,1,0-3.15,11.23,11.23,0,0,0,1.74-5.65,11.56,11.56,0,0,1,.51-2.58,8.78,8.78,0,0,0-.43-6.2,6.17,6.17,0,0,1,.93-6.82,14,14,0,0,0,2.58-13.09,4.47,4.47,0,0,1,.6-3.86c2.12-3.32,4.32-6.56,7.45-9a29,29,0,0,1,4.33-2.74,13.22,13.22,0,0,0,4.49-3.7c1.44-1.86,1.44-3,0-5-3.36,2.19-6.65,4.41-6.82,9.09a4.29,4.29,0,0,1-3.41-2.9,3.87,3.87,0,0,1,.89-4.22c3.13-3.17,6.47-6,10.68-7.75a17.59,17.59,0,0,0,7.66-5.37A21.38,21.38,0,0,0,135,77.32l-.32-.45a5.75,5.75,0,0,0-1.92.67c-2.64,2.18-5.21,4.45-7.89,6.76-.28-1-.64-2.22-.87-3.41-.3-1.55.68-2.54,1.72-3.46l12-10.51C139.09,65.67,140.57,64.46,142.12,63.15Zm-6.15,13a7.33,7.33,0,0,1-2.37,5.18,23,23,0,0,1-7.92,5.05,29.76,29.76,0,0,0-9.88,7.44,2.82,2.82,0,0,0,1,4.51c1.38-4.08,3.44-6.35,8-8.83,2.31,2.54,2.39,4.74.33,7.34a14.31,14.31,0,0,1-4.63,3.72,28.23,28.23,0,0,0-4.31,2.77,29.57,29.57,0,0,0-7.09,8.82,5.15,5.15,0,0,0-.41,2.69c.07,1.27.5,2.51.58,3.77a14.75,14.75,0,0,1-3.3,10.26,5.45,5.45,0,0,0-.84,6,10.11,10.11,0,0,1,.76,4.18c0,1.74-.61,3.45-.78,5.19a12.49,12.49,0,0,1-1.83,5.76,1.83,1.83,0,0,0-.06,2.22,10.23,10.23,0,0,1,1.62,7.31c-.29,2.62-.57,5.24-1,7.84a4.28,4.28,0,0,0,1.35,4.4,28.91,28.91,0,0,1,2.23,2.33,7.07,7.07,0,0,0,.71.57c.33-1.11.55-2.12.93-3.08.94-2.38,2.49-2.65,4.26-.78a8.57,8.57,0,0,1,.6.75,10.5,10.5,0,0,1,1.5,8.7,2.53,2.53,0,0,1-3.43,2,11.67,11.67,0,0,1-1.76-.73c-.72-.32-1.43-.66-2.25-1a16.13,16.13,0,0,0-.51,1.85c-.25,1.77-.5,3.55-.63,5.33a1.67,1.67,0,0,0,.68,1.24c1.17.83,2.43,1.53,3.63,2.31A1.26,1.26,0,0,0,113,191c.64-.65,1.27-1.31,1.89-2,3.75,2,6.32,7.42,5.43,11.37-.25,1.1-1,1.78-2.07,1.45a9.8,9.8,0,0,1-3.32-1.71,34.92,34.92,0,0,1-3.27-3.59,2.72,2.72,0,0,0-.12,1.63c.25,1.08.68,2.14.85,3.24.43,2.66,1.63,4.29,4.6,4.44,1.69.08,2.4,1.09,2.51,2.83a11.37,11.37,0,0,1-.26,3,4.57,4.57,0,0,0,1.79,5c.93.68,1.87,1.37,2.84,2a7.36,7.36,0,0,1,3.47,4.81c.75,3.53,3.22,5.4,6.38,6.65-1.59-2.38-4.16-4.24-4-7.61a1.84,1.84,0,0,1,.39.14c3.74,2.68,7.12,5.69,9,10a2.21,2.21,0,0,0,2.42,1.53,3.09,3.09,0,0,1,1.37.32c3.14,1.38,6.28,2.76,9.4,4.19a7.93,7.93,0,0,0,4.35,1,4.23,4.23,0,0,1,2,.3c2,.85,4,1.71,6,2.73,4.86,2.57,10,1.09,12.34-3.84,1.3-2.72,2.26-5.62,3.38-8.43a1.86,1.86,0,0,0-.89-2.35c-.85-.61-1.53,0-2.07.58-.78.9-1.5,1.86-2.25,2.8-2.27,2.84-4.51,5.7-6.83,8.5-1.09,1.32-1.81,1.47-3.38.85a18,18,0,0,1-2.9-1.4c-3.69-2.37-3.91-4.32-.33-6.8,4.11-2.84,6.17-7,8.28-11.22.74-1.46-.71-2.12-1.41-3s-1.33-.34-1.92.11c-1.46,1.11-2.94,2.21-4.31,3.43-2.35,2.09-4.61,4.3-6.94,6.42a3.22,3.22,0,0,1-4.47.32,21,21,0,0,1-2.15-1.72c-1.49-1.35-1.55-2.43-.13-3.87A104.78,104.78,0,0,0,160,208.76c.54-.79,1-1.65.32-2.54s-1.56-.79-2.51-.53a37.22,37.22,0,0,0-11.58,5.3c-1.15.8-2.26,1.65-3.47,2.35a3.23,3.23,0,0,1-3.82-.23,3,3,0,0,1-.91-3.48,5.93,5.93,0,0,1,1.35-2.33c2.5-2.53,5.09-5,7.64-7.43,2-1.89,4-3.73,5.86-5.67,1.44-1.49,1-2.67-1-3.13a2.92,2.92,0,0,0-1.06-.1,20.78,20.78,0,0,0-11.94,5.29c-.66.61-1.38,1.16-2.11,1.77-1.56-1.39-3-2.66-4.47-4a2.14,2.14,0,0,1-.2-3.28,24.94,24.94,0,0,1,7.78-6.27c3-1.57,5.81-3.33,8.7-5a2.4,2.4,0,0,0,1.19-2.87,12.71,12.71,0,0,0-.61-1.8,2.1,2.1,0,0,0-2.26-1.41,17.43,17.43,0,0,1-2,.11,16.18,16.18,0,0,0-9.71,2.37,12,12,0,0,1-2,1,2.38,2.38,0,0,1-2.92-.72c-.66-.84-1.27-1.74-1.85-2.64-1.4-2.14-1.28-2.87.71-4.51a25.28,25.28,0,0,1,11.25-5,25.43,25.43,0,0,0,6.08-2.38c1.67-.84,1.75-3.55.17-4.27a22.45,22.45,0,0,0-8.57-2.46,10.7,10.7,0,0,0-5.39,1.36c-1.07.56-2.25.94-3.18-.14a15.93,15.93,0,0,1-2.1-3.16,2.71,2.71,0,0,1,.38-3.05,12,12,0,0,1,7.5-4.56l10-1.42a3,3,0,0,0,2.65-2.43c.18-.69.37-1.39.51-2.09a1.54,1.54,0,0,0-1.09-2c-1-.38-2-.81-3-1.27-3.27-1.58-6.58-2.46-10.12-.84a5.06,5.06,0,0,1-1.16.29,2.69,2.69,0,0,1-3.24-1.4,21.35,21.35,0,0,1-1.45-3c-.61-1.51-.25-2.35,1.18-3.17a28.84,28.84,0,0,0,3.79-2.28c2-1.59,4.12-1.77,6.54-1.4,2.71.43,5.47.59,8.22.79,1.54.12,1.95-.22,2.34-1.73.34-1.31.61-2.64.93-4a1.07,1.07,0,0,0-.65-1.44c-1.49-.67-2.93-1.45-4.43-2.11-3.2-1.41-6.38-1.64-9.54.19a1.8,1.8,0,0,1-2.31-.2c-1.58-1.52-1.44-5.1.36-6.33a66.49,66.49,0,0,1,5.79-3.6A7.5,7.5,0,0,1,148,106c2,1,4,1.91,6,2.9.77.38,1.17.16,1.48-.57.44-1,.89-2,1.41-3a2.55,2.55,0,0,0-.56-3.26c-1.4-1.43-2.83-2.83-4.12-4.34a3.6,3.6,0,0,0-4-1.19c-1.39.35-2.79.7-4.2.92a2.59,2.59,0,0,1-3.21-2.28,2.85,2.85,0,0,1,2-3.61c2.48-1,5-1.92,7.47-2.9a3.89,3.89,0,0,1,3.65.38c2,1.24,4,2.46,6.06,3.63,2.74,1.59,2.72,1.55,4.59-1a1.88,1.88,0,0,0,0-2.49,36.72,36.72,0,0,1-2.9-4.54c-1.36-2.68-3.49-3.66-6.38-3.43-1.71.14-3.43.18-5.14.19-.31,0-.86-.39-.88-.63-.19-3.55.58-5.3,3.89-6.14,2.2-.55,4.46-.85,6.69-1.32a4.22,4.22,0,0,1,4.27,1.51c1.71,1.9,3.47,3.76,5.22,5.62s2.27,2,4.21,0c.06,0,.11-.12.16-.17a1.82,1.82,0,0,0,.36-2.48c-1.18-1.94-2.35-3.89-3.48-5.86a4.28,4.28,0,0,0-3.83-2.2,8.51,8.51,0,0,1-5.93-2.32A5.3,5.3,0,0,1,165.16,64c1.41-.25,2.81-.61,4.2-1a5.87,5.87,0,0,1,6.22,2.06q2.83,3.18,5.66,6.35c1.32,1.47,2.2,1.31,2.84-.59a2.9,2.9,0,0,0,.1-1.4c-.4-2.08-.86-4.14-1.29-6.21a3.26,3.26,0,0,0-2.62-2.5,12.36,12.36,0,0,0-2-.31c-2-.22-4.06-.28-6-1.95,1.23-.64,2.27-1.51,3.42-1.71,2.59-.46,5.24-.56,7.86-.83a4,4,0,0,1,4.15,2.23c1.41,2.41,2.78,4.85,4.21,7.25a24,24,0,0,0,1.52,2c2.17-1.11,2.71-2.09,2.37-4.22-.28-1.73-.62-3.45-.91-5.18A2.49,2.49,0,0,0,193,55.87c-3.22-1-6.42-2.12-9.61-3.26a6.09,6.09,0,0,0-4.65,0,11.92,11.92,0,0,1-2.86.85c-2.64.38-5.3.66-8,1s-3.22,1.21-2.17,3.54a1.55,1.55,0,0,1-.62,2.24c-2.46.82-4.93,1.62-7.43,2.29a1.84,1.84,0,0,1-1.62-.57,2,2,0,0,1,.09-1.76A11.07,11.07,0,0,1,158,58.33c.17-.17.38-.29.55-.46a6.88,6.88,0,0,0,.48-.55A20.59,20.59,0,0,0,149.53,62c-1.53,1.41-3,2.87-4.46,4.36a14.26,14.26,0,0,1-5,3.64c-.89.35-1.52.26-2-.68l2.46-3.25a.52.52,0,0,0-.53.1q-7.08,6.2-14.13,12.42c-1.23,1.09-1.3,1.94-.48,3.63,1.91-1.63,3.88-3.19,5.7-4.9A5,5,0,0,1,136,76.14Z"/><path d="M260.05,148.9a103.33,103.33,0,0,1-9,43.88,67.68,67.68,0,0,1-21,26.07c-13.71,10.57-29.61,9.63-43.08,1.63-7.65-4.54-13-11.31-17.53-18.84A84.58,84.58,0,0,1,157.31,154c.44-11.39,1.67-22.69,5-33.66,4.36-14.25,11.79-26.49,23.47-35.94,7.6-6.15,16.24-9.45,26.1-9,7.88.36,14.75,3.48,21,8.07,9.33,6.83,15.7,15.92,20,26.55,4.68,11.66,7.39,23.75,7.15,36.4C260,147.23,260.05,148.07,260.05,148.9ZM258.94,150c0-4,.16-6.85,0-9.64a92.6,92.6,0,0,0-10-36.56,54.7,54.7,0,0,0-18.55-20.93c-10-6.65-20.67-8.49-32.14-4.46-7.35,2.59-13.18,7.37-18.44,13-8.33,8.85-13.64,19.37-17,31-2.67,9.31-3.69,18.86-4.33,28.47-1.3,19.62,3.35,37.69,14.34,54.05,4.56,6.79,10.08,12.65,17.55,16.25,13.41,6.48,26.49,6.26,38.72-2.87A65.94,65.94,0,0,0,250.27,192,99.31,99.31,0,0,0,258.94,150Z"/><path d="M253.23,86.67a10.32,10.32,0,0,1-2.33-1.33c-1.4-1.38-2.64-1.76-4.42-.85s-3.29,1.4-4.86,0-1-3.32-.29-4.89a5.91,5.91,0,0,0-.16-5.91c-.71-1.16-1-1.24-2.21-.57s-2.39,1.45-3.63,2.08a2.37,2.37,0,0,1-2.81,0c-.85-.73-.67-1.72-.43-2.67.31-1.24.59-2.48,1-3.7a1.48,1.48,0,0,1,2-1.16c2.5.9,5.15,1.58,7.17,3.44a8.32,8.32,0,0,1,2.31,3c1.17,3.12,3.48,5.3,5.72,7.55a9.44,9.44,0,0,1,2.87,4.32C253.16,86,253.16,86.14,253.23,86.67Zm-2.87-3.14.26-.29a17.44,17.44,0,0,1-1.53-1.32c-2.05-2.2-4.24-4.25-5.39-7.22a8.21,8.21,0,0,0-3.1-3.52,32.12,32.12,0,0,0-5.53-2.5c-.25-.1-.9.13-1,.33-.44,1.52-.83,3.07-1.12,4.63-.14.71.38,1.07,1,.86a12.09,12.09,0,0,0,2.18-1c.88-.48,1.68-1.08,2.56-1.56a2,2,0,0,1,3,.7,6.26,6.26,0,0,1,.87,6.33,19.46,19.46,0,0,0-.71,2c-.31,1-.47,2,.5,2.73a2.53,2.53,0,0,0,3,0A4.83,4.83,0,0,1,250.36,83.53Z"/><path d="M202.58,65.32c-.84-2.78-1.73-5.59-2.52-8.42-.69-2.45-.89-2.68-3.36-2.93-.87-.1-1.75-.19-2.61-.35-2-.36-4-.75-6-1.15V51a15.38,15.38,0,0,1,8.5-.27A44.72,44.72,0,0,1,204.19,53c2.45,1,3.15,2.4,2.57,4.94-.47,2.08-1.16,4.12-1.83,6.15C204.62,65,203.89,65.51,202.58,65.32ZM189.8,51.56v.27c2.43.39,4.86.83,7.3,1.15,2.63.35,3.23.81,3.89,3.43.07.31.13.62.22.93q1,3.44,2.12,6.87h.37a14.06,14.06,0,0,0,1-2.1,35.29,35.29,0,0,0,1-4.18c.41-2.38,0-3.12-2.22-4.12a27.72,27.72,0,0,0-12.82-2.44A5.62,5.62,0,0,0,189.8,51.56Z"/><path d="M220.86,56.8c-1.81,2.57-3.55,5.13-5.41,7.6a21.06,21.06,0,0,1-2.61,2.44l-3.13-13.75Zm-7.45,7.93.39.14,5.27-7.55-7.95-2.67C211.92,58.16,212.67,61.45,213.41,64.73Z"/><path d="M180.5,245.09c.8-1.42,1.41-2.52,2-3.61q2.21-3.84,4.42-7.67c.2-.34.39-.78.7-.94.57-.29,1.34-.7,1.82-.51a2,2,0,0,1,.91,1.6c-.14,3-.41,6-.73,9.06a1.81,1.81,0,0,1-.87,1.18,5.83,5.83,0,0,1-2.32.85C184.6,245.17,182.73,245.09,180.5,245.09Zm8.74-11.81c-1.14.41-6.46,9.21-6.7,11.05,1.71-.21,3.36-.35,5-.64a1.54,1.54,0,0,0,1.27-1.64c.15-2.43.43-4.85.62-7.28A9.08,9.08,0,0,0,189.24,233.28Z"/><path d="M223.76,58.74c.61-.57,1.28-.6,2.08.2A35.86,35.86,0,0,0,229,61.68a1.5,1.5,0,0,1,.42,2.12,17.69,17.69,0,0,1-6.06,6,5.83,5.83,0,0,1-.73-4.79c.22-1,.62-2.06.82-3.11S223.65,60,223.76,58.74Zm.87.57c.45,3.28-1.87,5.91-.72,9a55.59,55.59,0,0,0,4.44-4.8,1.15,1.15,0,0,0-.13-1.1C227.16,61.44,226,60.51,224.63,59.31Z"/><path d="M201.6,240.33c-.13,2.44-1.19,3.56-3.33,3.33-1.2-.12-1.87-.79-1.74-2,.26-2.22.59-4.42,1-6.62.16-1,1.05-1.12,1.85-.56C201.34,235.89,201.67,237.9,201.6,240.33Zm-3-5a2.07,2.07,0,0,0-.18.42c-.27,1.77-.55,3.54-.79,5.31-.09.66-.27,1.43.73,1.58a1.74,1.74,0,0,0,2.06-1.06A5.91,5.91,0,0,0,198.58,235.34Z"/><path d="M208.85,242.56c0-2.29,0-4.4,0-6.5a2.61,2.61,0,0,1,2.22-2,3,3,0,0,1,2.49,2.1,28,28,0,0,1,.54,4.38,1.58,1.58,0,0,1-1.48,1.74C211.4,242.41,210.14,242.46,208.85,242.56Zm1-1a15.93,15.93,0,0,0,2.51-.31c.35-.1.83-.64.81-1a17.3,17.3,0,0,0-.56-3.87,2.08,2.08,0,0,0-1.48-1.27c-.79,0-1.3.77-1.29,1.71C209.82,238.36,209.8,239.86,209.8,241.55Z"/><path d="M128.24,182.25a6.19,6.19,0,0,1-.43,1.51c-1,1.72-2,3.46-3.1,5.1a1.79,1.79,0,0,1-2.88.56,51.18,51.18,0,0,1-4-3.17,1.08,1.08,0,0,1-.28-.92c.54-2.16,1-4.36,1.74-6.46,1-2.88,3.19-3.38,5.47-1.31a33.49,33.49,0,0,1,3,3.35A4.08,4.08,0,0,1,128.24,182.25Zm-6-4.88a1.92,1.92,0,0,0-1.88,1.46c-.64,2.06-1.19,4.13-1.74,6.21a1,1,0,0,0,.25.81c1.1.92,2.24,1.79,3.39,2.65a1,1,0,0,0,1.63-.29c1-1.62,2-3.24,2.93-4.93a1.91,1.91,0,0,0,.08-1.67c-1.25-1.43-2.64-2.73-4-4.05C122.77,177.41,122.47,177.42,122.27,177.37Z"/><path d="M124.89,161.56c-.08,2.5-1.84,4.91-4.15,7a1.9,1.9,0,0,1-2.55-.07c-1.82-1.45-3-3.25-2.59-5.69.25-1.53.6-3,1-4.55a3.18,3.18,0,0,1,2.83-2.4C123.57,155.14,124.89,156.3,124.89,161.56Zm-1-1.38a20.74,20.74,0,0,0-.8-2.78,1.68,1.68,0,0,0-1.25-.79c-3.21-.07-3.94.53-4.74,3.62-.09.34-.16.7-.25,1.05-.58,2.37-.32,4.5,1.71,6.15.55.44,1.13.76,1.7.2C122.18,165.73,123.82,163.65,123.87,160.18Z"/><path d="M116.1,141.9c0-3.49,1.71-5.94,4.63-6.7a3.82,3.82,0,0,1,5,3.43,8,8,0,0,1-.9,4.12,34.31,34.31,0,0,1-4,5.21c-.67.78-1.54.37-2.25-.2A7.3,7.3,0,0,1,116.1,141.9Zm1,.1a6.44,6.44,0,0,0,2,4.85c.43.37.83.65,1.3.05a34.93,34.93,0,0,0,3.27-4.26,8.38,8.38,0,0,0,1-3.84,2.81,2.81,0,0,0-3.6-2.62C118.55,136.8,117.12,138.92,117.14,142Z"/><path d="M112.07,127.11a6.51,6.51,0,0,1,2.72,7.12,21.55,21.55,0,0,1-1.41,4.29,5.61,5.61,0,0,1-4.34,3.37c-1,.18-1.37-.14-1.6-1a12.22,12.22,0,0,1,.1-6.49A14.54,14.54,0,0,1,112.07,127.11Zm0,1.35a13.4,13.4,0,0,0-4,9.76,13.11,13.11,0,0,0,.6,2.57c.94-.45,1.91-.86,2.81-1.39a2.11,2.11,0,0,0,.76-1.05,35.2,35.2,0,0,0,1.54-4.76A5.16,5.16,0,0,0,112.1,128.46Z"/><path d="M124.32,104.84c.38-4.25,4.17-8.44,8.3-9a2.26,2.26,0,0,1,.82,0c2,.47,3.23,4.23,1.78,5.62-2.24,2.15-4.6,4.17-7,6.18a1.78,1.78,0,0,1-2.74-.3A13.7,13.7,0,0,1,124.32,104.84Zm1,0a6.51,6.51,0,0,0,1.35,2c.29.21,1.28-.3,1.78-.71,1.76-1.43,3.48-2.92,5.13-4.47s1.76-2.28.31-4.16a1.8,1.8,0,0,0-1.39-.58C129.13,97.37,125.72,101.25,125.34,104.84Z"/><path d="M129.64,120.27a5.58,5.58,0,0,1-.95,1.63c-1.58,1.4-3.25,2.69-4.91,4a2.11,2.11,0,0,1-2.67.15c-1-.68-1.87-1.61-1.55-2.87.64-2.54,1.48-5,2.28-7.54a1.31,1.31,0,0,1,.71-.75,7,7,0,0,1,5-.25,2.61,2.61,0,0,1,1.34,1.5A36.5,36.5,0,0,1,129.64,120.27Zm-4-5.18c-1,.37-2.49.49-2.78,1.15a37.93,37.93,0,0,0-2.18,7c-.12.53.59,1.41,1.13,1.87.28.23,1.13,0,1.56-.22,1-.62,1.9-1.46,2.9-2.1a4.24,4.24,0,0,0,2-5.36C127.64,115.6,127.59,115.37,125.6,115.09Z"/><path d="M109.22,148.08c3.12,1.1,4.56,3.23,4.37,6.83a23.48,23.48,0,0,1-.85,4.68c-.49,1.84-1.61,2.41-3.45,2a5,5,0,0,1-3.88-5.64A16.21,16.21,0,0,1,109.22,148.08Zm.07,1.15a55.49,55.49,0,0,0-2.69,6,4,4,0,0,0,2.75,5.27c1.36.41,2.1.11,2.42-1.26a39.06,39.06,0,0,0,.79-4.92C112.78,152.05,111.69,150.45,109.29,149.23Z"/><path d="M126.18,196.14c3.49,0,6.74,3.9,5.92,7.29a21.2,21.2,0,0,1-1.62,4.1,1.6,1.6,0,0,1-2.57.8,32.14,32.14,0,0,1-4.35-2.93,3.23,3.23,0,0,1-.92-2.3,24.12,24.12,0,0,1,.69-4.36A3,3,0,0,1,126.18,196.14Zm5.35,6.09-.24-.11c0-.2,0-.39-.08-.59-.36-2.23-2.1-3.18-3.85-4.06-1.44-.74-2.49-.29-2.91,1.31a32.11,32.11,0,0,0-.79,4.57,1.74,1.74,0,0,0,.61,1.32,46.18,46.18,0,0,0,4.07,2.69,1.21,1.21,0,0,0,1.14-.23C130.23,205.53,130.86,203.87,131.53,202.23Z"/><path d="M119.92,111.48a11.17,11.17,0,0,1-5.21,8.23,2,2,0,0,1-3.19-1.1c-.76-2-1.13-4.16.25-6.07a35.17,35.17,0,0,1,3.55-4.15,2.39,2.39,0,0,1,3-.36C119.42,108.65,120,109.59,119.92,111.48Zm-8.12,3.89c.22,1,.39,1.91.67,2.82a1.05,1.05,0,0,0,1.6.71c2.37-1.05,5.14-5.79,4.87-8.33-.17-1.55-1.84-2.44-2.94-1.37a35.26,35.26,0,0,0-3.64,4.5A5.87,5.87,0,0,0,111.8,115.37Z"/><path d="M143.37,82.57A5.65,5.65,0,0,1,141.31,86a34.33,34.33,0,0,1-5.37,3.29,2.69,2.69,0,0,1-2.39-.34,2.44,2.44,0,0,1-.59-2.22c1.42-3.55,3.64-6.37,7.7-7.1C142.68,79.27,143.3,79.87,143.37,82.57Zm-1-.28c-.07-1.69-.32-1.9-1.59-1.64-3.53.73-5.45,3.22-6.77,6.3a1.38,1.38,0,0,0,.27,1.26,1.65,1.65,0,0,0,1.42.09,47.3,47.3,0,0,0,4.87-3A4.77,4.77,0,0,0,142.33,82.29Z"/><path d="M149.58,65.52c1.53.35,2.88.56,4.15,1a1.77,1.77,0,0,1,1.08,1.19,2.12,2.12,0,0,1-.72,1.72,79.69,79.69,0,0,1-8.2,4.14c-.59.25-1.85-.5-2.49-1.12s-.27-1.7.37-2.34a52,52,0,0,1,3.85-3.57A9.07,9.07,0,0,1,149.58,65.52Zm-5.52,6.17a2,2,0,0,0,2.75.38c1.11-.68,2.33-1.19,3.5-1.78,1-.51,2-1,2.95-1.55.74-.42.77-1,.12-1.31a5.21,5.21,0,0,0-6.09.74c-.79.72-1.59,1.44-2.34,2.21A9.74,9.74,0,0,0,144.06,71.69Z"/><path d="M152,236.56A37.76,37.76,0,0,1,141.63,232c-1.12-.67-1.23-1.46-.37-2.44a3.44,3.44,0,0,1,4.48-1c3.49,1.46,5.38,4.22,6.29,7.77A.73.73,0,0,1,152,236.56Zm-10.28-5.77c2.84,1.61,5.49,3.37,8.82,4.14a9.28,9.28,0,0,0-4.79-5.32C143.85,228.73,143,228.93,141.69,230.79Z"/><path d="M135.12,215c2.52,0,5,1.9,5.47,4.06.28,1.31-1.41,4.61-2.67,4.83a3.34,3.34,0,0,1-2.53-.51,33.44,33.44,0,0,1-4-4.58,2.12,2.12,0,0,1,.1-1.86A3.85,3.85,0,0,1,135.12,215Zm-.56.95a16,16,0,0,0-2.05,1.38,1.26,1.26,0,0,0,0,1.21,19.86,19.86,0,0,0,2.2,2.79c2.51,2.58,3.12,2.42,4.63-.89A2.08,2.08,0,0,0,139,218,6.33,6.33,0,0,0,134.56,215.94Z"/><path d="M121.25,207.77c2.51.91,4.74,2.07,6,4.52.89,1.72.7,3.58-.41,4.4-1.28.95-2.81.64-4.37-.88C120.24,213.63,119.82,211,121.25,207.77Zm.74,1.16a5.28,5.28,0,0,0,2.28,6.93,2.23,2.23,0,0,0,1.86-.05,1.82,1.82,0,0,0,.58-1.62,6.13,6.13,0,0,0-1.34-2.71A24.87,24.87,0,0,0,122,208.93Z"/><path d="M257.61,147.44c-.39,16.09-3.2,31.65-10.6,46.13-4.93,9.65-11.4,18-20.63,23.94-12.37,8-24.86,7.38-37.35.34-8-4.49-13.58-11.27-18-19.1a83.89,83.89,0,0,1-11.1-39,14.34,14.34,0,0,0-.12-3.22c-1-3.57.31-7,.5-10.49a94.1,94.1,0,0,1,1.28-10.57c.59-3.54,1.29-7.07,2.23-10.53a89.82,89.82,0,0,1,3.35-10.1,66.91,66.91,0,0,1,22.17-29.35,33.52,33.52,0,0,1,22.63-7c7.91.51,14.77,3.78,21,8.54,6.62,5.09,11.38,11.7,15.26,19,4.25,8,6.58,16.67,8.16,25.54A84.28,84.28,0,0,1,257.61,147.44Zm-1-.3a89.12,89.12,0,0,0-1.72-17.62c-1.61-8.09-3.87-16-7.8-23.28-4.28-8-9.65-15-17.28-20.16-5.92-4-12.34-6.59-19.56-6.63a33.65,33.65,0,0,0-21.63,7.86,68.46,68.46,0,0,0-21.52,30.41,83.19,83.19,0,0,0-4.72,19.12c-.74,6.52-1.75,13-1.63,19.62A85.82,85.82,0,0,0,172.93,200c5,8.37,11.61,15.11,20.71,19.08,6.16,2.68,12.54,3.94,19.26,2.8a36.17,36.17,0,0,0,15.65-7.1c8.58-6.4,14.47-14.91,18.92-24.48C253.83,176.6,256.26,162.08,256.62,147.14Z"/><path d="M172.68,151.67c.49-9.45,2-19.86,7.21-29.38a39.74,39.74,0,0,1,10.9-12.9c9.76-7.29,20.61-6.87,30.06,1.07,4.94,4.16,8,9.55,10.53,15.35,4,9.25,5,18.89,3.94,28.84-.81,7.47-2.42,14.72-5.89,21.45-3.55,6.88-8.17,12.88-15,16.83-4.84,2.8-9.93,4.38-15.56,2.67A31.13,31.13,0,0,1,186.9,189c-5.41-4.85-8.7-11-11.08-17.79A56.69,56.69,0,0,1,172.68,151.67Zm62.07-3.36a54.33,54.33,0,0,0-5.92-25.57,34.93,34.93,0,0,0-9.59-12.24c-8.32-6.58-17.7-7-26.51-1.16-5.81,3.87-9.87,9.25-12.94,15.42-2.95,5.92-4.35,12.29-5.34,18.8a55.67,55.67,0,0,0,4,31.39c3,6.72,7,12.6,13.46,16.39,9,5.33,15.1,5.54,24.55-1,4.69-3.23,8.08-7.68,10.91-12.57C232.76,168.4,234.37,158.06,234.75,148.31Z"/><path d="M176.29,150.8a60.13,60.13,0,0,1,6.25-24.15,30.32,30.32,0,0,1,10.32-11.45c5.28-3.55,11.06-3.67,16.85-1.57,6.5,2.36,10.93,7.16,14.27,13.05a40.6,40.6,0,0,1,4.7,15.6,51.29,51.29,0,0,1-7.38,33.91c-3,4.8-6.85,8.72-12.32,10.74-8.34,3.06-15.42.72-21.63-5.13-4.47-4.2-6.84-9.63-8.73-15.33A46.54,46.54,0,0,1,176.29,150.8Zm26.42-37.41A16.18,16.18,0,0,0,192.09,117a35,35,0,0,0-11.92,18.22c-3.19,10.78-4.17,21.5-.12,32.3,1.94,5.18,4.28,10,8.39,13.9,7.22,6.78,16.62,7.71,24.44,2.31,4.32-3,7.26-7.14,9.68-11.7,3.14-5.91,4.53-12.32,5.23-18.91a45,45,0,0,0,.4-6.45,55.65,55.65,0,0,0-.88-6.64c-1.26-7.66-4.06-14.58-9.75-20.1C213.39,115.9,208.57,113.35,202.71,113.39Z"/><path d="M178.42,152.71c.76-9.45,2.38-18.26,7.41-26.09,2.71-4.22,6.46-7.48,10.38-10.53a2.3,2.3,0,0,1,3,0c10.1,7.6,15.28,17.9,15.4,30.35.1,9.82-2,19.37-7.22,27.95a33.48,33.48,0,0,1-7.77,8.71c-2.26,1.81-4.37,1.81-6.61,0a39.26,39.26,0,0,1-13.61-22.78C178.84,157.72,178.71,155,178.42,152.71Zm1.16-1.71c0,10.5,3.07,18.59,8.6,25.74a43.18,43.18,0,0,0,5.57,5.58c1.79,1.6,3.28,1.52,5.15,0a33.76,33.76,0,0,0,9.1-11.14,54.91,54.91,0,0,0,5.19-18.31c.61-4.87.84-9.71-.52-14.5-2.41-8.5-6.4-16-13.8-21.24-.74-.52-1.38-.77-2.16-.15-4,3.14-7.77,6.44-10.42,10.81C181.72,135.34,180.17,143.73,179.58,151Z"/><path d="M205.53,150.36a7.31,7.31,0,0,1-2.75,5.44,3.34,3.34,0,0,1-3.72.44,6.49,6.49,0,0,1-4.05-5.52,7.27,7.27,0,0,1,3.3-6.78,3.57,3.57,0,0,1,4.26.23A7.54,7.54,0,0,1,205.53,150.36Zm-1,.11a6.81,6.81,0,0,0-2.38-5.32,2.87,2.87,0,0,0-3.44-.28,6.1,6.1,0,0,0,.43,10.28,2.57,2.57,0,0,0,2.94-.12A6.47,6.47,0,0,0,204.52,150.47Z"/><path d="M200.66,146c2.2.3,3.58,1.93,3.27,3.93s-1.54,3.49-3.08,3.57a2.26,2.26,0,0,1-2.38-1.44,4.86,4.86,0,0,1,.23-4.58C199.08,146.86,200,146.51,200.66,146Zm-1.63,4a11.61,11.61,0,0,0,.24,1.26,1.46,1.46,0,0,0,2.59.66,3.25,3.25,0,0,0,1-3,2.05,2.05,0,0,0-2.08-1.63c-1,0-1.38.68-1.55,1.54C199.17,149.24,199.11,149.63,199,150.06Z"/></g></svg>