<svg xmlns="http://www.w3.org/2000/svg" viewBox="0 0 368.61 355.7"><g id="OBJECTS"><path d="M0,262.16c11.7-7.49,23.85-14.09,37.17-18.24,5.66-1.76,11.5-2.93,17.29-4.27a61.82,61.82,0,0,0,32.21-18.48,2.56,2.56,0,0,0,.64-3c-6.8-19.86-3.5-37.78,10.7-53.39,8.64-9.5,19.64-14.4,32.34-15.58,15.51-1.44,28.77,3.58,39.94,14.27,6.92,6.63,12.11,14.43,13.85,24,2.74,15.08,1.06,29.43-8.26,42.22a5.12,5.12,0,0,0-.26.49,46.82,46.82,0,0,0,9.61,7.25c9.33,5.29,19.29,6.59,29.75,4.72,10.7-1.91,20.33-6.47,29.49-12.12,12.09-7.46,22.93-16.52,33.37-26.08a187.53,187.53,0,0,0,21.22-23.75c14.68-19,34.29-30.21,57-36.67,3.64-1,7.37-1.74,11.06-2.59.45-.1.92-.13,1.37-.19l.14.44a7.3,7.3,0,0,1-1.07.4,128.6,128.6,0,0,0-37.11,13,97.5,97.5,0,0,0-31,26.34c-6.62,8.42-13.49,16.64-21.44,23.87-12,10.95-24.53,21.34-38.9,29.2a78.84,78.84,0,0,1-23.91,8.84q-22.31,4-39.12-11.2l-.71-.64a2.58,2.58,0,0,0-.25-.19c-11.82,15-27.46,21.51-46.24,19.51-19-2-32.07-12.84-40.69-29.38-1.5,1.43-3.09,3-4.71,4.48a60.2,60.2,0,0,1-30.65,15.31c-16.23,2.94-31,9.32-45.13,17.6-2.16,1.27-4.28,2.64-6.45,3.91A3.27,3.27,0,0,1,0,262.4Zm134.39-12.51c29,.17,49.71-23.33,50-50,.38-29.93-26.1-49.9-49-49.74a50.14,50.14,0,0,0-50.56,49.61C84.93,230.42,110.74,250.14,134.39,249.65Z"/><path d="M223.77,111c-2.26,1.3-4.59,2.51-6.76,4a72.92,72.92,0,0,0-7.08,5.26,10.61,10.61,0,0,0-3.16,5.69,8.52,8.52,0,0,1-2.81,4.35,2.75,2.75,0,0,1-2.46.47,2.12,2.12,0,0,1-.83-2.64,25.25,25.25,0,0,0,1-2.76,7.48,7.48,0,0,0-1.19,1.27c-1.89,3.28-3.89,6.51-5.55,9.91a25.33,25.33,0,0,1-11.58,11.54c-1.33.69-3.12.47-4.78.45,5-3.21,9.27-7.07,12-12.32,1-1.91,1.81-3.94,2.71-5.92l-.36-.18c-.7,1.1-1.35,2.24-2.1,3.31-1.1,1.57-2.18,3.16-3.42,4.61a4.34,4.34,0,0,1-4.24,1.39c-1.51-.26-3-.49-4.9-.78,2.37-1.89,4.47-3.57,6.63-5.28-2-.26-6.74.91-10.82,3-3.37,1.69-6.59,3.67-10,5.42l8.65-7.9c-8-1.69-15,1.42-22.16,4.56l-.9-1.26,9.79-8.56c-2.08.34-7.12,3.62-11.06,7.27-3.28,3-6.49,6.15-9.78,9.28-2-1.83-4.26-3-7-2.63a15.56,15.56,0,0,0-4.37,1.14c-3.31,1.48-6.53,3.16-9.79,4.76l-1.21.57-.34-2.55a14.15,14.15,0,0,0-1.58.57,33.68,33.68,0,0,0-7.85,6c-2.25,2.1-4.51,4.19-6.7,6.34-.93.92-1.71,2-2.56,3-1.64-.75-1.63-.75-1.06-2.42,4.27-12.34,12.09-22.11,22.07-30.28a100.47,100.47,0,0,1,16-10.51c6.92-3.74,13.69-7.74,20.56-11.55a61.84,61.84,0,0,1,7.83-3.6l-13.54,16.76.17.16c2-1.59,3.92-3.21,5.9-4.79,4.6-3.66,9.13-7.39,13.83-10.91a30,30,0,0,1,17.81-6.15c.22,0,.44,0,.9.06l-14.43,16.3.19.29c2.54-1.11,5.11-2.18,7.63-3.34a192.35,192.35,0,0,0,22.92-12.69A40.27,40.27,0,0,0,218,84.81a48.49,48.49,0,0,1,7.12-10.47c1.14-1.19,2.41-2.25,3.62-3.37l.39.24c-2.36,6-4.52,12.09-7.15,18a77.93,77.93,0,0,1-6.22,10.9c-3.52,5.32-8.54,9.12-13.81,12.58-1.47,1-3,1.87-4.41,2.89a12.43,12.43,0,0,0-1.6,1.64l.14.4a5.23,5.23,0,0,0,1.76.21,16.66,16.66,0,0,0,4.29-1.36c6.58-3.69,12.73-8,17.66-13.79a40.93,40.93,0,0,0,6.35-10.38,116.4,116.4,0,0,1,11.24-21A20.77,20.77,0,0,1,249.86,63c-.57.72-1.16,1.42-1.68,2.17-1.89,2.71-3.81,5.4-5.59,8.18a4.13,4.13,0,0,0-.63,3.89c.28.69.79,1.78,1.25,1.81,1,0,2.44-.14,2.94-.81,2.82-3.74,5.81-7.38,7.21-12,3.76-12.59,15.17-20.43,28.83-19.92,1.22,0,2.43.21,3.64.32l.06.29c-1.2.44-2.39.94-3.62,1.31a33.5,33.5,0,0,0-14.14,8,31.89,31.89,0,0,0-8.9,17.68c-1.17,6.62-2.64,13.13-5.51,19.26-2.67,5.72-6.3,10.5-12,13.53a10.8,10.8,0,0,0-3.29,3.07c-1.35,1.77-.31,3.78,1.92,3.88a5.7,5.7,0,0,0,2.45-.41,35.1,35.1,0,0,0,13.05-9.1,23.48,23.48,0,0,0,5.29-11.5.93.93,0,0,1,.41-.65A34.92,34.92,0,0,1,263,95.5c1.54,5.06.69,10-1.28,14.72a35.32,35.32,0,0,1-11.57,14.7c-.32.23-.63.48-1.05.8a6,6,0,0,0,3.77.35c3.26-.6,6-2.35,8.73-4.08a5,5,0,0,1,1.61-.79c-.59,1.26-1.13,2.55-1.8,3.77a23.45,23.45,0,0,1-9.48,9.58c-4,2.19-8.07,4.18-12.12,6.25l-1.32.68a9,9,0,0,0,5,.43,14.7,14.7,0,0,0,6.41-2.82c2.74-2,5.43-4.08,8.14-6.12.34-.26.7-.5,1.29-.91-.27.82-.44,1.38-.64,1.93-1.38,4-2.83,8-4.16,12a16.53,16.53,0,0,1-7.87,9.43c-5.17,2.95-10.41,5.75-15.58,8.7a53.67,53.67,0,0,0-4.37,3.15c4.34,1.72,8.33-.41,12.38.05-6.15,7.44-14.5,11.21-23.35,14.16l.16.58c3.55-.24,7.13-.3,10.65-.78a12.75,12.75,0,0,0,7.16-3.87c.59-.59,1.14-1.22,1.72-1.82l.29.18c-.58,1.32-1.08,2.68-1.76,3.95a24.72,24.72,0,0,1-13.09,11.56l-17.65,7.1c-.4.16-.79.34-1.18.51l0,.39a26.51,26.51,0,0,0,4.11-.31c3.07-.7,6.08-1.6,9.2-2.28-2.36,1.34-4.68,2.75-7.08,4-2.19,1.14-4.5,2.07-6.69,3.21a27.43,27.43,0,0,0-3.59,2.36,6.28,6.28,0,0,0-1.37,1.49,2.42,2.42,0,0,0-.1,2.81,2,2,0,0,0,2.31.85c2.62-.48,5.23-1.06,7.84-1.62.82-.17,1.62-.39,2.68-.64-3.44,3.8-7,7.12-11.78,8.46a36,36,0,0,0-15,8.83,16.08,16.08,0,0,1-2.54,1.61l-.25-.27c.18-.32.33-.66.53-1,5.46-8.29,7.59-17.47,7.39-27.3a104,104,0,0,0-2.3-18.27,1.36,1.36,0,0,1,.06-.92c.27.43.55.86.82,1.3,1.95,3.21,3.71,6.54,6.4,9.23a12.55,12.55,0,0,0,1.14,1.05,1.92,1.92,0,0,0,2.72-.09,32.24,32.24,0,0,0,3.44-4l-1.21.44-.78-.88c1.21-1.55,2.48-3,3.61-4.63,2.45-3.45,4.88-6.91,7.23-10.43,2.54-3.8,2.53-7.62-.23-11.35a6.81,6.81,0,0,1-.39-.64c6.66-1.77,9.58-6.71,11.06-12.89-5.95,6.91-13.57,10.81-22.55,12.67,4-2.88,9-4,12.27-8.26a32.84,32.84,0,0,0-3.43.8c-1.07.37-1.67.11-1.95-1.09,4.2-2.7,6.87-6.34,6.57-12a16.06,16.06,0,0,1-5.73,5.89,6.53,6.53,0,0,1-5.64.69c.42-1.74.9-3.26,2.69-4.33,3.44-2.05,5.12-5.48,5.82-9.26a23.42,23.42,0,0,1,7.33-13c2.87-2.71,5.85-5.3,8.78-8l.39-.36Zm57.33-63.8c-1.3.09-2.63.11-3.92.3-11.26,1.65-19,7.76-22.65,18.57C252.89,71,249.92,75,247,79c-.95,1.29-2.59,1.41-4.08,1.12-1.27-.25-1.59-1.46-1.92-2.53a4.88,4.88,0,0,1,.38-4c1.46-2.51,3.06-4.93,4.62-7.39a10.77,10.77,0,0,1,.74-.93,18.37,18.37,0,0,0-9.11,7.56c-2.69,4.43-5.19,9-7.6,13.57-1.68,3.21-2.9,6.67-4.61,9.86-5.39,10.07-14.19,16.48-24,21.68-2.09,1.11-4.52,1.54-7-.3a20.63,20.63,0,0,1,2.54-3c1.49-1.19,3.18-2.12,4.79-3.17a48.21,48.21,0,0,0,14.53-13.88c4.64-7.08,7.5-15,10.29-22.85,0-.06,0-.15-.09-.33l-.93,1a52.83,52.83,0,0,0-6.82,10.25A38.76,38.76,0,0,1,205.41,100c-5.11,3.18-10.26,6.35-15.58,9.15-5.07,2.68-10.41,4.85-15.6,7.28-1.19.56-1.86.19-2.27-1l13.51-15.27a29.18,29.18,0,0,0-8.63,1.91c-4.56,1.73-8.33,4.69-12.08,7.68-5.35,4.29-10.66,8.65-16,13l-1.44-1.33L159,106.94a7.61,7.61,0,0,0-2.48.94c-5.94,3.37-11.82,6.82-17.81,10.11a147.29,147.29,0,0,0-15.12,9c-10,7.17-18.24,15.87-23.73,27-1.07,2.17-1.91,4.46-2.81,6.59,1.81-1.69,3.59-3.4,5.43-5.06,3.6-3.26,6.87-6.92,11.22-9.3a4.19,4.19,0,0,1,3.28-.47l.3,1.67,1.34-.66c2.73-1.33,5.42-2.72,8.18-4,4.1-1.86,8.11-2,11.9,1,1.91-1.85,3.81-3.67,5.69-5.5a59,59,0,0,1,11.69-9.31,32,32,0,0,1,8.4-3.26l-12,10.49c3.59-1.1,7.3-2.45,11.11-3.34a21.8,21.8,0,0,1,11.76.62c-.95.74-1.72,1.36-2.49,2a38.33,38.33,0,0,1,15.48-3.4L181,137.88a8.89,8.89,0,0,1,1.28.22c2.37.92,4.12,0,5.47-1.91,1-1.41,1.87-2.87,2.86-4.28,1.5-2.15,3-4.27,4.59-6.4l.26.19c-1.75,8.91-5.88,16.36-13.45,21.72a.77.77,0,0,0,.43,0,2.66,2.66,0,0,0,.55-.23,25.88,25.88,0,0,0,11-11.11,80.23,80.23,0,0,1,5.4-9.57c1.15-1.7,3-2.92,4.56-4.36l.32.28a3.46,3.46,0,0,1-.18.65c-.73,1.55-1.46,3.1-2.22,4.63a1.8,1.8,0,0,0,.36,2.39c.44-.29,1-.49,1.3-.9a18.11,18.11,0,0,0,2.27-4,16.59,16.59,0,0,1,7.58-9.24c5.2-3.13,10.47-6.13,15.74-9.12a18.33,18.33,0,0,1,3.07-1.1l.33.4c-.49.6-.86,1.41-1.48,1.75A67.81,67.81,0,0,0,215.68,120c-3.68,3.71-6.38,7.86-7.36,13.14a14.08,14.08,0,0,1-6.66,9.95,2.63,2.63,0,0,0-1.38,2.4,7.15,7.15,0,0,0,2.22-.2,12.89,12.89,0,0,0,7.53-8c.16-.5.34-1,.59-1.73,1.59,6.38.52,11.7-4.52,16l5-1.14a30.36,30.36,0,0,1-1.84,2.87,24.46,24.46,0,0,1-2.09,2.11c6.14-2.78,10.75-7.25,14.56-12.71a80,80,0,0,1-2.71,9.29,14.54,14.54,0,0,1-8.68,8.88,1.79,1.79,0,0,0-.37.29c2.7,4.28,2.21,8.4-.53,12.37-2.56,3.71-5.19,7.37-7.8,11.05-.44.62-.92,1.2-1.38,1.79l.15.14,2.76-1.27.32.37c-2,2.27-3.87,4.59-5.91,6.8a3,3,0,0,1-4.83,0c-1.6-1.71-3-3.61-4.48-5.44-.24-.29-.44-.61-.66-.91a91.42,91.42,0,0,1,1,19.6,48.06,48.06,0,0,1-5.41,18.81,1,1,0,0,0,.48-.24,34,34,0,0,1,13.62-7.47c3.38-.93,6.13-3,8.83-5.59-.74.18-1.2.31-1.66.4-1.8.35-3.59.76-5.41,1a3.23,3.23,0,0,1-3.56-4.66,4.92,4.92,0,0,1,1.51-2c1.89-1.32,3.85-2.55,5.85-3.69,1.45-.82,3-1.43,4.55-2.13-4.63.46-6.74.23-8.34-1l.89-.38c6.88-2.77,13.75-5.56,20.64-8.32a23.72,23.72,0,0,0,8.6-5.72c1.29-1.36,2.36-2.91,3.64-4.51-2.26.84-4.17,2-6.18,2.22-3.67.45-7.39.4-11.09.52-1.73,0-3.46,0-5.19,0,2.61-1.24,5.25-2.33,7.93-3.32,6.33-2.34,12.43-5.06,17.27-10,.32-.32.66-.63,1.24-1.18-4.19.44-8.07,1.63-11.71-.79a36.2,36.2,0,0,1,8.42-6c4.5-2.43,9-4.89,13.37-7.48a14.45,14.45,0,0,0,6.57-8.1c1.12-3.33,2.33-6.62,3.5-9.93a8.79,8.79,0,0,0,.2-.94c-2.18,1.62-4.2,3.17-6.28,4.66a16.8,16.8,0,0,1-6.9,3.17,10,10,0,0,1-7.76-1.39c.45-.25.79-.45,1.14-.62,3.21-1.6,6.44-3.17,9.65-4.78,3.86-2,7.67-4,10.51-7.39,1.18-1.4,2.18-3,3.44-4.68-2.61,1.07-4.78,2.15-7.07,2.86a7.83,7.83,0,0,1-6.71-.8c2.43-2.16,5-4.11,7.16-6.41a29.31,29.31,0,0,0,8.32-17.27,15.07,15.07,0,0,0-.82-7.1,68,68,0,0,1-3.17,6.62c-3.7,6-9.4,9.65-15.75,12.36a7.17,7.17,0,0,1-2.46.4,3.34,3.34,0,0,1-3.3-1.75,3.14,3.14,0,0,1,.4-3.8,42.73,42.73,0,0,1,4.28-3.77,64.43,64.43,0,0,0,5.35-4.18c3.8-3.81,5.85-8.69,7.69-13.66s2.5-10.13,3.6-15.23c1.64-7.61,5.21-14.12,11.42-19A43.66,43.66,0,0,1,281.1,47.23Z"/><path d="M134.54,242.62a42.75,42.75,0,1,1,42.9-42.44A42.71,42.71,0,0,1,134.54,242.62Zm41.91-42.89a41.73,41.73,0,1,0-42.72,41.89A41.61,41.61,0,0,0,176.45,199.73Z"/><path d="M135.28,240.54a40.76,40.76,0,1,1,40.2-41.81A40.63,40.63,0,0,1,135.28,240.54Zm39.17-40.72a39.68,39.68,0,0,0-79.36-.34c-.07,22,17.61,40,39.25,40A39.7,39.7,0,0,0,174.45,199.82Z"/><path d="M99.66,195.87c-.7-9.85,10.51-25.61,19.89-28q2.79,11.66,5.58,23.33a3,3,0,0,0,1.8-3.91c-.9-3.35-1.92-6.67-2.84-10-1-3.5-1.86-7-2.83-10.66l5.23-1.7,2,5.52c1.76,4.83,3.5,9.67,5.28,14.5.74,2,1.26,2.29,3.65,2.17-2.94-7.31-5.87-14.58-8.91-22.11a28.84,28.84,0,0,1,4.42-.89,34.72,34.72,0,0,1,26.2,9.68c.66.63,1.2,1.38,1.94,2.24L140,188c1.34,1.35,2.56,1.6,4.13.79.89-.45,1.7-1,2.54-1.58l15.85-9.91,3.29,4.59c-3,2.23-5.91,4.4-8.84,6.54q-3.57,2.63-7.18,5.19c-1.81,1.3-2.42,3.14-2.63,5.51l19.08-15.23c5.55,7.1,5.78,24.66-.85,33.54l-18.34-17a7.11,7.11,0,0,0,2.44,5.81c2.4,2.12,4.86,4.16,7.28,6.24,2.64,2.26,5.26,4.54,7.95,6.86l-3.44,4.45-14-10.18c-1.06-.78-2.11-1.58-3.18-2.36-1.81-1.32-2.53-1.25-4.3.41l19.62,13.06c-6.07,9.16-24.55,13.39-34,9.09l12.2-21.65a3.4,3.4,0,0,0-3.51,1.12,13,13,0,0,0-1.46,2.32q-4.35,8.46-8.67,17c-.18.35-.38.69-.64,1.16l-5.06-2.17c1.27-3.13,2.46-6.17,3.72-9.18,1.39-3.31,2.84-6.59,4.26-9.89.86-2,.64-3.11-1-4.21a23.71,23.71,0,0,0-1.22,2.41q-3.52,9.34-7,18.71c-.13.34-.26.67-.38,1-6.64-1.77-16.6-16.32-17.12-25.15l24.8,1.29a4.46,4.46,0,0,0-4.2-2.89c-2.07-.11-4.15,0-6.22,0H99.35v-5.81c3-.23,6.09-.49,9.15-.68,3.9-.24,7.81-.41,11.72-.62,1.94-.11,2.93-1,3.31-3Zm63.66,23.66-5.06-4.37c-3.26-2.82-6.63-5.53-9.77-8.48s-3.32-9.28-.64-12.59a7.53,7.53,0,0,1,1.4-1.3c2-1.46,4-2.88,6-4.34,3-2.22,6-4.46,9.12-6.75-.72-1-1.38-1.93-2.08-2.89-.43.24-.77.43-1.1.64q-7.82,4.89-15.63,9.8c-2.13,1.34-4,1.45-5.77.05a4.32,4.32,0,0,0-2.93-1,3.82,3.82,0,0,1-4.09-2.95c-1-3.07-2.2-6.08-3.3-9.11-1.2-3.29-2.4-6.59-3.63-9.95l-3.34,1.08c.07.3.11.45.15.6,1.68,6.07,3.35,12.15,5.06,18.21.86,3.06.29,4.66-2.3,6.32a2.09,2.09,0,0,0-.73,1.23c-.58,2.61-2.12,3.82-4.8,3.94-5.1.24-10.2.57-15.3.87-1.42.09-2.84.22-4.25.33v3.86c3,0,5.89,0,8.8,0,3.23,0,6.47-.18,9.7-.18s5.62,1.11,6.76,4.29a1.54,1.54,0,0,0,.38.59c2,2.07,2.24,3.18,1.07,5.85q-2.53,5.81-5,11.65c-.85,2-1.63,4.05-2.47,6.13l3.26,1.4c1-1.9,1.94-3.73,2.88-5.57q3.22-6.28,6.42-12.58a5.17,5.17,0,0,1,5.26-3.21,4.19,4.19,0,0,0,2.21-.69c2.23-1.35,3.14-1.37,5.21.15l14,10.23,2.24,1.62Zm-24.56-7.27c-4,7.11-7.94,14.07-11.87,21.05,9,3.31,24.87-.45,31.08-8.27Zm-38-17.52,23.57-2.35c-1.86-7.8-3.67-15.42-5.49-23C110.81,171.89,100.82,185.23,100.76,194.74Zm58.71-18.93c-7.13-8.91-23.43-12.58-29.47-9.9,2.9,7.18,5.81,14.36,8.75,21.65Zm5.77,40.1c5.45-8.17,5.37-23.57.8-30.46l-18,14.41Zm-41.13-8.33-23.42-1.23A35.09,35.09,0,0,0,116.05,229Z"/><path d="M145.66,199.47a10.91,10.91,0,1,1-11.57-10.56A10.93,10.93,0,0,1,145.66,199.47ZM134.85,190a9.87,9.87,0,1,0,9.78,10A9.89,9.89,0,0,0,134.85,190Z"/><path d="M134.52,196c.77.94,1.45,1.72,2.06,2.55a1.8,1.8,0,0,1-.33,2.65c-.72.67-1.5,1.23-2.53.5s-1.51-1.69-1-2.73S133.87,197.11,134.52,196Zm.11,1.95c-.28.9-1.86,1.52-.52,2.73.69.62,1.09.11,1.46-.33C136.63,199.12,135.06,198.78,134.63,198Z"/><path d="M143.84,197.77c-.65.53-1.22,1-1.82,1.48a1.57,1.57,0,0,1-2.33-.22c-.8-.84-.47-1.6.12-2.34a1.41,1.41,0,0,1,2.19-.25C142.58,196.87,143.16,197.28,143.84,197.77Zm-3.54.22c.73.8.73.8,1.67-.2C141.31,197.06,140.73,196.84,140.3,198Z"/><path d="M139.63,206.28l-2,1.3a1.43,1.43,0,0,1-2.16-.47c-.46-.67-.9-1.4-.15-2.14s1.51-1.08,2.43-.34C138.34,205.12,138.92,205.66,139.63,206.28Zm-3.63-.39c.64,1.19.67,1.19,1.75.18C137.2,205.53,136.7,204.82,136,205.89Z"/><path d="M131.45,201.85c-.75.52-1.38.94-2,1.38a1.38,1.38,0,0,1-2.1-.28c-.48-.62-1.06-1.3-.32-2.11s1.47-1.14,2.42-.48C130.11,200.82,130.74,201.31,131.45,201.85Zm-2,.35,0-.74-1.41-.17a3.72,3.72,0,0,0,0,.87A7.59,7.59,0,0,0,129.49,202.2Z"/></g></svg>