<svg xmlns="http://www.w3.org/2000/svg" viewBox="0 0 368.61 355.7"><g id="OBJECTS"><path d="M368.61,158.26Q350,175.63,333,194.65c-7.18,8.09-14.19,16.34-21.26,24.53a42.57,42.57,0,0,1-25.23,14.73,62.45,62.45,0,0,1-22.15-.27c-10.73-1.9-20.82-5.7-30.66-10.26a1.46,1.46,0,0,0-1.24,0c-5.89,4.69-12.7,7.61-19.6,10.39a88.5,88.5,0,0,1-23.17,5.63,107.7,107.7,0,0,1-14.46.61c-2.18,0-4.36-.54-6.54-.7-4.55-.34-9.07-.73-13.43-2.2a44.87,44.87,0,0,1-18.8-12.78c-7.61-8.3-13-17.95-17.08-28.35a140.47,140.47,0,0,1-9-36.72,158.9,158.9,0,0,1,0-35.62c1.6-13.8,5.22-27,12-39.24a56.47,56.47,0,0,1,15.27-18.08,7.41,7.41,0,0,0,.62-.55,89.15,89.15,0,0,0-14.21,3.92C109.62,74.88,97.83,83.83,87.9,95.4c-7.79,9.1-14.42,19-20.89,29.06C56.46,140.79,46.08,157.23,34.7,173Q18.89,194.93,1.46,215.59c-.41.48-.79,1-1.19,1.45L0,216.91a6.63,6.63,0,0,1,.74-1.59A639.1,639.1,0,0,0,42.87,160c8.62-12.81,16.92-25.85,25.37-38.78a251,251,0,0,1,19.7-27,86.22,86.22,0,0,1,51.15-29.43,4,4,0,0,0,1.44-.53c7.07-4.59,14.93-6.79,23.17-8.2a121.55,121.55,0,0,1,27-1.05c10.46.57,20.76,2.53,30.09,7.81,6.72,3.81,12,9.21,16.64,15.3,8.65,11.33,13.95,24.19,17.3,37.94,2.06,8.48,3,17.12,3.9,25.78a88,88,0,0,1,.67,14.59c-1,15.52-3.25,30.78-9.88,45.07a59,59,0,0,1-15.21,20.38c-.18.15-.35.32-.67.61,2.76,1.21,5.39,2.43,8.07,3.53a105.5,105.5,0,0,0,25.94,7.38c10.23,1.39,20.22.75,29.73-3.73a43.5,43.5,0,0,0,14.15-11.25c6.16-7.08,12.21-14.26,18.4-21.31q17.88-20.36,37.69-38.85a3.48,3.48,0,0,1,1.09-.48Zm-162.9-1.79a155.55,155.55,0,0,0-1.76-22,122.47,122.47,0,0,0-13.51-40.67c-4.74-8.65-10.73-16.24-18.89-22-12-8.4-25.73-7.84-36.88,1.56C128.61,78.54,124.3,85,120.9,92.07c-6.9,14.41-9.62,29.76-10.18,45.58a146.23,146.23,0,0,0,1.84,27.8,122.71,122.71,0,0,0,13.26,40.13c4.82,8.89,11,16.65,19.43,22.41,6.95,4.75,14.56,6.85,22.95,5,7.09-1.54,12.73-5.54,17.58-10.78,5.34-5.77,9-12.54,11.93-19.77C203.49,188.16,205.73,173.21,205.71,156.47ZM193.64,60.93l.11-.29c-1-.31-1.93-.69-2.92-.91a55.93,55.93,0,0,0-18.7-.67c-3.95.49-7.59,1.58-10,5.13a1.75,1.75,0,0,1-1.35.57c-2.09-.19-4.16-.5-6.36-.79a16.24,16.24,0,0,1,7.07-6.32,12.08,12.08,0,0,0-2.59.3,61.41,61.41,0,0,0-27.2,14.68,27.53,27.53,0,0,0-6.62,8.42c-.35.73-.58,1.52-.86,2.28a2.29,2.29,0,0,0,1.06-.87c2.68-3.43,5.3-6.92,8.67-9.73,7.61-6.37,16.22-9.05,26.07-7,6.76,1.42,12.37,5,17.4,9.59,6.66,6.1,11.56,13.48,15.66,21.46l2.49,4.85.31-.12c-.39-1.16-.72-2.34-1.19-3.47-1-2.39-.68-3.27,1.63-4.51,5.22-2.8,10.44-2.33,15.69-.12,5,2.13,9.19,5.58,13.25,9.13l1.23,1c-.34-2.5-.88-4.5-2.77-5.95-2.31-1.77-4.48-3.74-6.78-5.53-3.69-2.86-7.46-5.62-11.89-7.29-5.34-2-10.26-1.37-14.69,2.35-.17.15-.36.27-.59.44-2-2.51-4-5-6-7.47,1.09-.66,2.09-1.23,3-1.85a15.66,15.66,0,0,1,11.73-2,41,41,0,0,1,11.56,4.48c2.56,1.34,5.07,2.77,7.61,4.15l.37-.39L217,83.72c-2.43-1.54-4.84-3.1-7.29-4.6a38.93,38.93,0,0,0-13.63-5.63,42.19,42.19,0,0,0-5.33-.75,8.79,8.79,0,0,0-8.77,5l-6.38-5.64a15.8,15.8,0,0,1,7.83-5.16,18.74,18.74,0,0,1,11.22.43c4.6,1.65,9,3.77,13.54,5.7.44.18.87.38,1.51.67a6.13,6.13,0,0,0-3.94-3.5c-.77-.2-1.5-.54-2.25-.81-5.92-2.17-11.82-4.38-18.11-5.28-5.35-.76-10.06.09-13.09,5.19,0,.06-.12.09-.22.16l-6.7-3.6a21.32,21.32,0,0,1,6.78-5c4.62-2.1,9.46-2,14.33-1.29C188.88,60,191.25,60.49,193.64,60.93Zm13.81,172.28c.18,0,.28.06.32,0,4.16-2.91,8.34-5.8,11.64-9.72a74.12,74.12,0,0,0,13.25-22.61,137,137,0,0,0,7.36-59.4A155.56,155.56,0,0,0,232,104.28c-3.84-11.16-9.15-21.51-17-30.4-4.79-5.42-10.08-10.25-16.69-13.41-1.64-.78-3.38-1.37-5.07-2l-.13.28a1.93,1.93,0,0,0,.28.22c.63.42,1.25.86,1.91,1.24a64.72,64.72,0,0,1,24.7,25.64c11.2,20.47,16.34,42.56,16.93,65.77a153.22,153.22,0,0,1-1.81,27,109,109,0,0,1-7.23,26.72c-4,9.37-9.21,18-16.84,24.9C209.86,231.21,208.67,232.17,207.45,233.21Zm23.63-41.45c.5-1.6,1-2.87,1.28-4.18a15.28,15.28,0,0,0,.39-4,18.47,18.47,0,0,0-.89-4.05c-.37-1.24-.92-2.42-1.39-3.63l.24-.1,2.82,5,.38-.09c.24-2.09.58-4.17.69-6.27a5.53,5.53,0,0,0-.62-2.73c-1.13-2.11-2.39-4.15-3.68-6.17-2.08-3.28-4.31-6.44-7.58-8.7a15.43,15.43,0,0,0-13.35-2.19c-.92.24-1.83.61-1.86,1.73-.06,2.07,0,4.14,0,6.24l11.09,2.22a3.68,3.68,0,0,1-1.18.1c-3-.12-5.9-.29-8.85-.38-1.54-.05-2.1.5-2.23,2,0,.64-.13,1.27-.17,1.91-.14,2-.26,4-.39,6.06C221.13,174.13,224.86,176.66,231.08,191.76Zm-33.65,15c3.4.81,6.67,1.67,10,2.34,3,.61,5.46,2,6.95,4.74.59,1.09,1.09,2.22,1.58,3.35.57,1.3,1.08,2.63,1.65,4a4.2,4.2,0,0,0,1.79-4.51A45.61,45.61,0,0,0,218,211.1c-1.45-4.43-4.36-7.38-9-8.38-1.48-.31-3-.42-4.5-.59s-3.08-.3-4.7-.45c.84-2.42,1.57-4.7,2.43-6.92.56-1.47,1.5-2.13,2.85-1.86a65.83,65.83,0,0,1,9.4,2.19c4.54,1.61,7,5.39,8.6,9.72.51,1.37,1,2.77,1.43,4.21,2.46-2.75,3.09-4.81,2.38-7.76-1.22-5.14-3-10-6.7-14-1.45-1.56-3.13-2.9-5.28-3-3.45-.19-6.92-.05-10.4-.05Zm9.17-52.59c2.39-.26,4.64-.56,6.9-.75a14,14,0,0,1,12.6,5c2.31,2.75,4.37,5.7,6.5,8.58.76,1,1.42,2.15,2.23,3.38a8.42,8.42,0,0,0-.36-8.23A108.89,108.89,0,0,0,226.8,151c-2.53-3.14-5.94-5.43-10.12-5.47a71.21,71.21,0,0,0-9.83,1.08c-.23,0-.55.55-.55.84C206.36,149.65,206.49,151.84,206.6,154.13ZM228,200.24c.62-1.71,1.17-3.12,1.66-4.55a6.46,6.46,0,0,0-.16-5.24c-1.77-3.38-3.49-6.8-5.53-10a9.8,9.8,0,0,0-7.34-4.47c-3-.35-6-.56-8.94-.77-1.35-.09-2.12.65-2.31,2.06q-.23,1.66-.36,3.33c-.14,1.74.59,2.55,2.33,2.57,2,0,3.91,0,5.87.05a9.38,9.38,0,0,1,7.78,3.53,46.14,46.14,0,0,1,4.07,6.85C226.14,195.65,227,197.86,228,200.24Zm-38,20.84a66.32,66.32,0,0,0,7.58,2.26,9.29,9.29,0,0,1,6.87,4.64c.71,1.19,1.34,2.43,2,3.72.51-.33,1-.62,1.44-.94,1.72-1.18,1.9-1.76,1.18-3.71-.28-.79-.57-1.58-.86-2.36l.22-.1,2.34,4.06a3.16,3.16,0,0,0,1.86-3.4c-.18-1.42-.48-2.83-.78-4.23a7.48,7.48,0,0,0-5.74-6.09c-3.31-.87-6.65-1.62-10-2.34a2.23,2.23,0,0,0-1.79.27c-1.16,1.23-2.13,2.62-3.27,4.06a5.81,5.81,0,0,1,1.64-.23c3.51.9,7,1.78,10.5,2.82a9,9,0,0,1,3.19,1.8,13.85,13.85,0,0,1,2,2.65l-.29.21c-.6-.46-1.21-.9-1.78-1.39a14,14,0,0,0-5.61-3.09q-3.84-1-7.68-1.81a1.09,1.09,0,0,0-.89.27C191.39,219,190.77,219.94,190,221.08Zm15.63-91.36c.62-.21,1.22-.4,1.81-.61,3.37-1.18,6.78-1.8,10.32-.88,3.9,1,6.75,3.52,9.13,6.61,2.53,3.28,5,6.63,7.48,9.94.34.46.73.87,1.1,1.31l.37-.14c-.08-1-.18-2-.24-3a11.89,11.89,0,0,0-2.4-7.13,92,92,0,0,0-6.2-7.4,25.46,25.46,0,0,0-11.57-6.93,13.15,13.15,0,0,0-9,.76c-1.7.76-2.31,1.86-1.91,3.38C204.83,127,205.19,128.26,205.59,129.72Zm1.83,15.85,3.18-.64c5.85-1.12,11.22-.2,15.66,4a35.17,35.17,0,0,1,3.78,4.47c1.71,2.3,3.29,4.71,4.94,7.05a3.37,3.37,0,0,0,.67.56c.12-.18.37-.37.35-.53-.26-2-.08-4.26-.95-6a43.44,43.44,0,0,0-11.13-14.23c-4.58-3.73-9.72-4.27-15.2-2.33a2.09,2.09,0,0,0-1.67,2.08C207.12,141.86,207.29,143.64,207.42,145.57Zm-10.16-43.64.91-.65a13.67,13.67,0,0,1,14.27-1.4,33.43,33.43,0,0,1,9.24,6.52q3.66,3.43,7.35,6.85a2.48,2.48,0,0,0,.8.32c.07-.21.25-.46.19-.62-.89-2.29-1.34-5-2.81-6.78a40.25,40.25,0,0,0-17.34-12.56,15.42,15.42,0,0,0-13.39.88c-1.28.7-1.48,1.15-1,2.52C196,98.62,196.64,100.22,197.26,101.93Zm25.8-6.38a22.11,22.11,0,0,0-2.75-6.7,6.05,6.05,0,0,0-1.57-1.62c-3.4-2.22-6.72-4.61-10.3-6.51A30.88,30.88,0,0,0,194,76.8a11.09,11.09,0,0,0-8.6,3.83L190,86.26c4.46-3.76,9.38-4,14.57-2.46a31.71,31.71,0,0,1,10.47,5.4C217.68,91.21,220.23,93.31,223.06,95.55Zm11.17,11.55c1.11-3.57,2.15-7,3.21-10.34s3.09-5.53,7-5.72c-.84-1.5-1.54-2.93-2.4-4.25-1.37-2.09-2.83-2.08-4.09.1a41.61,41.61,0,0,0-2.59,5.38c-1,2.49-1.85,5-2.76,7.56a19,19,0,0,1-3.16-16.68c.91-3,1.83-5.89,5.9-6.34a43.61,43.61,0,0,0-3.5-3.61c-2.09-1.7-4.49-1.11-5.62,1.35a22.78,22.78,0,0,0-1.36,4.19,13.11,13.11,0,0,0,1,9.53c1.38,2.6,2.7,5.24,3.88,7.94C231.33,99.75,232.72,103.36,234.23,107.1Zm-30.4,20.32-.17,0c.6,3.73,1.2,7.46,1.81,11.28.34-.16.52-.22.68-.32,6.51-4.11,13.64-3,19.13,1.43a42.83,42.83,0,0,1,8.18,9.48c.66,1,1.33,1.94,2.1,3.06.19-.36.38-.55.36-.72a9,9,0,0,0-1.47-4.72c-.88-1.13-1.59-2.39-2.47-3.53-2.74-3.57-5.35-7.27-8.35-10.61A11.87,11.87,0,0,0,211.79,129c-2.29.48-4.55,1.07-6.9,1.63C204.52,129.51,204.18,128.46,203.83,127.42Zm-.89-3.48c.62-.63,1.17-1.68,2-2a27.9,27.9,0,0,1,7.05-1.66c5.34-.27,9.79,2.16,13.52,5.73,2.93,2.8,5.53,5.95,8.25,9a4,4,0,0,1,.53,1.18l.6-.48a8.1,8.1,0,0,0-.13-.86,13.51,13.51,0,0,0-2.92-5.55c-3.76-4.41-7.32-9-12-12.55-5.59-4.29-10.94-4.58-17-.94-.79.47-1.17.42-1.52-.44-.47-1.13-1-2.23-1.56-3.35l-.26.11Zm30.47,5.7a14.54,14.54,0,0,0-3.35-9.61,60.68,60.68,0,0,0-5.23-5.41c-4-3.73-8.35-6.83-13.89-7.78a14.6,14.6,0,0,0-11.06,2.42l2.33,5.83c.89-.46,1.66-.87,2.45-1.25a12.41,12.41,0,0,1,12.54.41,47.52,47.52,0,0,1,11.17,9.5C230,125.6,231.58,127.49,233.41,129.64ZM220.75,217.2a36.69,36.69,0,0,0,2.17-4.17,7.86,7.86,0,0,0,.58-3.68c-1.57-10.17-10.25-15.59-19.4-15.35a.9.9,0,0,0-.72.42c-.76,2.12-1.47,4.26-2.2,6.43,2.2.2,4.23.35,6.25.56,5.24.55,8.94,3.21,10.79,8.2.77,2.08,1.3,4.26,2,6.39C220.29,216.33,220.48,216.63,220.75,217.2Zm-18.26,17.85,1.55-1.44a2.9,2.9,0,0,0,.69-3.69,9.78,9.78,0,0,0-5.78-5.23c-2.91-1.08-5.85-2.1-8.78-3.12-.66-.24-1.27-.45-.78-1.61l-11.18,10.57c3,2.56,6.12,4.58,10.17,4.56a4.43,4.43,0,0,1,3.56,1.4,3,3,0,0,0,4.4.41,1.08,1.08,0,0,0,.38-1.51c-.93-2.36-2.81-3.17-5.12-3.53a17.65,17.65,0,0,1-9.19-4.46c1-.75,2-1.41,2.83-2.15a1.78,1.78,0,0,1,1.95-.28c2.78,1,5.56,1.93,8.4,2.7a8.14,8.14,0,0,1,6.31,6.18A5.78,5.78,0,0,0,202.49,235.05Zm-4-125.49a10.77,10.77,0,0,1,5.79-3.34,19.58,19.58,0,0,1,14.78,2.71,52.38,52.38,0,0,1,9.68,8.14c.85.85,1.72,1.66,2.58,2.49l.34-.23A15.47,15.47,0,0,0,230,116a62.18,62.18,0,0,0-19.22-15.53,9,9,0,0,0-7.65-.62,52.42,52.42,0,0,0-6.3,3.57c-.14.08-.19.5-.13.71C197.28,105.87,197.88,107.64,198.51,109.56Zm40.32,73.59.49.13c.22-.32.46-.63.68-.94,2.49-3.46,4.95-7,7.49-10.38,2.35-3.18,4.86-6.26,8.41-8.2a2.88,2.88,0,0,0,1.82-2.88c-.08-2.45,0-4.91,0-7.38a9.25,9.25,0,0,0-4.9,3,54.13,54.13,0,0,0-12.66,20.88A57.77,57.77,0,0,0,238.83,183.15Zm2.25-19.7.39.07c.17-.25.34-.5.49-.76,1.68-3,3.25-6,5-9,2.42-3.95,4.91-7.87,9-10.36a3.48,3.48,0,0,0,1.72-3.25c-.12-2.21-.46-4.4-.72-6.75-2.06,1.17-4,2.09-5.23,4-.73,1.13-1.62,2.17-2.41,3.27-3.58,5-6.66,10.17-7.71,16.3C241.33,159.12,241.28,161.3,241.08,163.45ZM181.72,76.24c2.46-3.67,6.06-4.63,10-4.22a48,48,0,0,1,8.88,1.76c4.89,1.47,9.18,4.23,13.46,6.94.38.24.78.42,1.17.63.12-.24.21-.34.18-.38-1.27-1.91-2.33-4-4.52-5.11-2-1-3.89-2-5.91-2.9a140,140,0,0,0-13.55-5.34c-5.41-1.62-10.19.18-14.07,3.94Zm74.68,97.94-.26-.32c-2,1.55-4.35,2.85-6.1,4.68-4.24,4.44-8.27,9.09-12.27,13.74a18.06,18.06,0,0,0-2.53,4.18,32.81,32.81,0,0,0-1.33,4.07l.35.16c.35-.31.71-.6,1.05-.92,5.44-5.05,10.71-10.28,16.36-15.08C255.09,181.8,255.9,178.15,256.4,174.18Zm-84.58-106c2.62-4,6.41-5.36,10.9-4.84a77,77,0,0,1,19.53,4.41l3,1.13.43-.51c-.39-.2-.8-.38-1.16-.61A57,57,0,0,0,198,63.61,43.29,43.29,0,0,0,184.27,60a22.88,22.88,0,0,0-13.47,2.33,7.43,7.43,0,0,0-3.51,3.53Zm86,96.3c-.06-.09-.16-.45-.37-.53a1,1,0,0,0-.8.21c-1,.87-2.08,1.75-3.06,2.68-7.16,6.7-12.39,14.77-16.7,23.49-.12.25,0,.61,0,.92a3.32,3.32,0,0,0,.83-.47c3.14-3.56,6.23-7.17,9.4-10.71a25.5,25.5,0,0,1,8.82-6.85,1.84,1.84,0,0,0,.91-1.26C257.18,169.56,257.44,167.14,257.78,164.49ZM241.33,146.6l.39,0c.18-.35.37-.68.52-1,.91-2.12,1.8-4.26,2.71-6.38,2.34-5.4,5.17-10.44,10.32-13.76a1.19,1.19,0,0,0,.39-1c-.27-1.52-.63-3-1-4.74a7.56,7.56,0,0,0-2.06.64,16.67,16.67,0,0,0-3.52,2.81,34.08,34.08,0,0,0-7.72,18.48A44.84,44.84,0,0,0,241.33,146.6Zm16.72-3.17c-1.18.83-2.11,1.37-2.92,2.06a38.79,38.79,0,0,0-7.46,9c-2.79,4.34-5.27,8.83-6.46,13.91a22.27,22.27,0,0,0-.32,2.71l.34.07c1.79-2.83,3.54-5.67,5.36-8.47,2.84-4.36,6.12-8.28,10.88-10.68a1.13,1.13,0,0,0,.56-.78C258.07,148.77,258.05,146.31,258.05,143.43ZM135.3,221c5.34,7,11.6,12.33,19.9,15s16.92,2.7,25.54,2.69a2.1,2.1,0,0,0-.75-.34,14.55,14.55,0,0,1-6.87-3.72,3.9,3.9,0,0,0-3.8-1,45.88,45.88,0,0,1-6,.82c-7.68.28-14.4-2.43-20.4-7C140.3,225.47,137.92,223.22,135.3,221ZM240,130.73c.21-.54.31-.79.4-1,1.47-3.83,2.9-7.68,4.42-11.5,1.37-3.47,3.65-6.06,7.37-7.12.06,0,.1-.12.16-.19-.47-1.55-.92-3.12-1.43-4.67-.36-1.1-1.09-1.5-1.87-.94-2.28,1.62-4.64,3.2-5.71,6-1.16,3-2.2,6.07-3.41,9.06a11.91,11.91,0,0,0-.69,6.46C239.4,128,239.67,129.17,240,130.73Zm.34-46.89c-.93-1.35-1.73-2.59-2.6-3.78-2.19-3-4.55-2.81-6.35.42a6.18,6.18,0,0,0-.41.86,18.16,18.16,0,0,0-.73,10.81,11,11,0,0,0,2.21,4.95C234.2,92.08,235.21,86.8,240.31,83.84Zm7.31,13.55a35.08,35.08,0,0,0-2.43-4.2c-1.28-1.64-2.83-1.59-4.29-.1a7.4,7.4,0,0,0-.9,1.11,28.61,28.61,0,0,0-3.87,9,23.34,23.34,0,0,0,.58,12.44c.24-.83.38-1.31.53-1.79,1-3.24,1.9-6.5,3-9.69C241.45,100.76,243.47,98.13,247.62,97.39Zm6.8,21c-.58-2.18-1.12-4.21-1.67-6.32a9.17,9.17,0,0,0-4.42,3.14,35.29,35.29,0,0,0-7.68,16.65,37.55,37.55,0,0,0-.25,5.1l.43.05c.17-.34.35-.68.52-1,1.68-3.57,3.34-7.15,5-10.72C248,121.9,250.28,119.17,254.42,118.44Zm-58.68,93.07a79.17,79.17,0,0,0,8.66,2.05c4.68.57,7.32,3.12,8.42,7.53.28,1.14.51,2.29.79,3.57,1.71-1.26,2.81-2.78,2.3-4.75a25,25,0,0,0-2.34-5.69,8.52,8.52,0,0,0-6.12-4.18L201,208.78c-3.33-.65-3.33-.65-5.08,2.3A4.09,4.09,0,0,0,195.74,211.51Zm41.92-90.23.44,0c.19-.42.38-.83.56-1.25q2.4-5.53,4.78-11.08a7.45,7.45,0,0,1,5.74-4.72,1.14,1.14,0,0,0,.61-1,23.91,23.91,0,0,0-1.45-3.65,1.7,1.7,0,0,0-2.79-.7,8.85,8.85,0,0,0-3.88,4.7c-1.37,4.61-2.74,9.24-4,13.89A14.89,14.89,0,0,0,237.66,121.28ZM256,126.54a16.16,16.16,0,0,0-2.17,1.53,44.7,44.7,0,0,0-12,22.05,11.85,11.85,0,0,0-.12,1.89,1.44,1.44,0,0,0,.61-.69c2.3-4.15,4.51-8.35,6.91-12.43a14,14,0,0,1,7-6c.61-.25.79-.54.68-1.16C256.59,130.14,256.35,128.53,256,126.54ZM252,191.76c-1.45,1-2.71,1.81-3.81,2.75-5.69,4.9-11.38,9.79-17,14.81a36.46,36.46,0,0,0-3.69,4.55l.37.38c.33-.21.68-.39,1-.62l19.35-14.92C250.38,197,251.35,194.7,252,191.76Zm2.48-8.4c-8.28,6.93-16.05,14-22.17,22.78a3.9,3.9,0,0,0,1.08-.69c5.09-4.11,10-8.4,15.3-12.26A13.69,13.69,0,0,0,254.44,183.36ZM223.49,83.14c.14-1,.27-1.8.34-2.57.4-4.13,1.07-8.09,6.13-9.47-1.2-1-2.17-2-3.26-2.74-1.74-1.22-3.31-1-4.39.81a17.24,17.24,0,0,0-2,4.78C219.42,77.52,220.85,80.43,223.49,83.14ZM198.23,236c.44-.11.79-.18,1.12-.29,1.73-.6,2.13-1.71,1.06-3.21a7.84,7.84,0,0,0-1.84-1.84,19.81,19.81,0,0,0-7.19-3.11,11.58,11.58,0,0,1-2.76-1.06c-2-1-3.47-.59-4.69,1.7,2.77.93,5.48,2,8.26,2.73S197.5,232.7,198.23,236ZM224.36,66.55c-.81-.59-1.5-1.12-2.21-1.61a10.53,10.53,0,0,0-1.44-.86c-1.93-.93-3.56-.32-4.07,1.78A22.05,22.05,0,0,0,216,71.4a6.54,6.54,0,0,0,3,5.31c.39-2,.66-4,1.16-5.94C220.68,68.67,222.24,67.38,224.36,66.55ZM199.57,57c.65,1.39.9,2.83,1.75,3.54,2.46,2,5.17,3.79,7.93,5.77.65-2.37,1.21-4.45,1.79-6.6l-4.85-1.43L205.36,62,205,61.9c-.08-1-.12-2.1-.26-3.15,0-.32-.32-.8-.57-.86C202.77,57.56,201.36,57.34,199.57,57ZM173.75,233.47c2.33,3.75,12.61,5.73,17.07,3.22-2-.53-3.85-.93-5.65-1.53a24.34,24.34,0,0,1-4.79-2C177.94,231.7,176.12,231.65,173.75,233.47ZM223,221.32l.22.28c.47-.26.95-.51,1.4-.8,6.24-4,12.44-7.94,18.7-11.85a10.32,10.32,0,0,0,3.67-4.54,1.61,1.61,0,0,0-1.13.15q-10.72,7.63-21.43,15.31A12.25,12.25,0,0,0,223,221.32ZM215,71.43c0-3.29,0-6.53,3-8.85-1.49-.68-2.78-1.29-4.09-1.85a1.73,1.73,0,0,0-2.41.86C209.37,65.36,210.85,69.68,215,71.43ZM174.88,57.68c-6.67-.42-13.28-.57-18.3,5.26.86.25,1.58.45,2.29.68A3.06,3.06,0,0,0,162,63C165.73,59.9,169.87,57.78,174.88,57.68Zm64.37,157.91-.3-.35a5.74,5.74,0,0,0-.72.3Q227.59,221.75,217,228c-.27.16-.39.55-.58.84a3.11,3.11,0,0,0,1-.15c6.39-3.53,12.77-7,19.11-10.66A16.55,16.55,0,0,0,239.25,215.59Zm-6.44-4,.29.37c.33-.18.68-.35,1-.56,4.17-2.82,8.37-5.59,12.47-8.5a13.82,13.82,0,0,0,2.43-2.86c.11-.15,0-.45.09-1ZM187.71,56l0,.33,11.78,3.08c-.31-2-.82-2.81-2.23-2.91C194.06,56.24,190.88,56.15,187.71,56Zm26.66,175.42a46.83,46.83,0,0,0,16.86-9.15ZM185.87,57.79l-.75-1.88-12.25-.39-.05.5Zm46.87,159.28a24,24,0,0,0,9.58-5.85l-.2-.31Z"/><path d="M196.09,156.44a96.1,96.1,0,0,1-4.15,29c-3,9.19-7.25,17.65-14.22,24.51-5.51,5.41-12.05,8.3-19.92,7.47-5.8-.61-10.73-3.21-15.11-6.92-7.93-6.72-13.36-15.19-17.07-24.79-6-15.53-9-31.6-8.18-48.27.67-13.23,3.39-26,9.28-38a40.13,40.13,0,0,1,11.54-14.19c9.11-7.06,19.91-7.21,29.79-.51,7.06,4.79,12,11.35,16,18.77a98.17,98.17,0,0,1,11,35.32c.67,5.82.92,11.69,1.37,17.54Zm-2.87,6.22a1.22,1.22,0,0,0,.12-.33c0-3.27,0-6.54,0-9.82,0-2.24-.62-2.93-2.71-3.61-2.69-.87-5.4-1.74-8-2.87-4.48-2-6.41-5.76-5.39-10.54a53.12,53.12,0,0,1,6.41-17.05,7.74,7.74,0,0,0,1.45-5.21,20.65,20.65,0,0,0-3-8.25c-.48-.75-1.09-1.42-1.76-2.28a61.11,61.11,0,0,1-11.74,19.67c-2.4-1.83-4.27-3.85-4.74-6.89-.66-4.21-1.39-8.42-2.1-12.62-.55-3.27-1.13-6.53,1.69-9.25l-13-9.14c0,1.65-.07,3,0,4.34.16,2.39.39,4.77.63,7.15.68,6.91,1.39,13.82,2.08,20.74.2,2,.46,4,.52,6s-1.12,3-3.08,2.47a7.85,7.85,0,0,1-2.92-1.52c-3-2.6-6-5.29-8.91-8a4.55,4.55,0,0,1-1.46-2.09c-.13-.6.51-1.36.84-2.12-4.23-.44-8.56-1.84-13,.66a34.84,34.84,0,0,0,2.68,4.88c4.62,6,9.35,11.84,14.09,17.72a12.41,12.41,0,0,1,3,6.51c.38,3.74-.26,7.09-3.74,9.31-2.76,1.76-5.45,3.63-8.2,5.4-3,1.9-6,3.67-8.91,5.63-2.63,1.76-2.63,3.37-.18,5.4,3.55,2.94,7.85,3.42,12.34,3.84-.6-1.18-.91-2.32.4-2.91,3.22-1.47,6.47-2.9,9.78-4.18,1.47-.57,2.49,0,3.3,1.4a5.69,5.69,0,0,1,.7,4.26c-2.39,11.28-4.79,22.55-7.13,33.84a33.3,33.3,0,0,0-.27,4.54c4.39-2.29,8.46-4.41,12.5-6.57a1.58,1.58,0,0,0,.53-1.09,133.07,133.07,0,0,1,4.36-20.71,5,5,0,0,1,3-3.28,24.2,24.2,0,0,1,1.82,3.33c2.26,6.26,4.42,12.56,6.67,18.82,1,2.78,2.11,5.51,3.19,8.24.11.26.41.44.62.66.21-.26.52-.48.61-.77.39-1.25.73-2.52,1.05-3.8.93-3.69,1.78-7.42,5.13-9.65a34.17,34.17,0,0,1-2.35-3.95A63.36,63.36,0,0,1,176,173.31a44.73,44.73,0,0,1-.53-8.08,4,4,0,0,1,4.21-4.07,37.86,37.86,0,0,1,6.19.34C188.3,161.79,190.77,162.27,193.22,162.66Zm-42.83-80c2.75,2.25,5.16,4.36,7.71,6.27a9.91,9.91,0,0,0,3.82,1.85,26.6,26.6,0,0,1,14.71,8.4,17,17,0,0,0,5.94,4.21,2.47,2.47,0,0,0-.12-.47,46.08,46.08,0,0,0-15.57-17.7c-10-6.53-20.82-5.71-29.71,2.27a46.52,46.52,0,0,0-12.12,17.89,99.6,99.6,0,0,0-6.77,37.22,124.74,124.74,0,0,0,1.31,17.05,104.37,104.37,0,0,0,10.1,32.78,52,52,0,0,0,16,19.25c9.91,7.09,20.94,6.67,30.19-1.11a43.29,43.29,0,0,0,10.52-13.68c3.4-6.62,5.34-13.73,6.83-21a106.64,106.64,0,0,0,1.49-32.77,117.4,117.4,0,0,0-5.55-25.19c-1-3-2.39-5.91-3.6-8.86l-.4.16c.79,2.29,1.51,4.61,2.38,6.86,6.17,16,8.77,32.38,6,49.43-1.33,8.3-3.52,16.36-7.6,23.81-.32.58-.56,1.21-.86,1.86l1.65.49a4.78,4.78,0,0,1-.85.63c-3.87,1.52-5.93,4.55-7,8.41-.46,1.69-.71,3.45-1.3,5.09a3.28,3.28,0,0,1-1.8,2c-1,.24-1.58-.84-2-1.76l-1.42-3.53c-.66.16-1.2.27-1.74.42a20.1,20.1,0,0,1-11.22-.1,8.21,8.21,0,0,0-6.57.79c-2.45,1.35-4.86,2.76-7.34,4.05-2.19,1.13-3.41.28-3.34-2.23a6.12,6.12,0,0,1,.08-1c.6-3.09,1.14-6.2,1.82-9.27a6.7,6.7,0,0,0-.53-4.64q-4.41-8.7-8.8-17.4a3.63,3.63,0,0,0-2.42-2,47.64,47.64,0,0,1-5.24-1.67A21,21,0,0,1,122.7,167c-1.83-1.35-2-3.15-.5-4.88a14.13,14.13,0,0,1,2.49-2.21c1.4-1,2.89-1.85,4.3-2.84a3.08,3.08,0,0,0,1.46-3.06,91.74,91.74,0,0,1,.71-28,6,6,0,0,0-1.54-5.56,61.22,61.22,0,0,1-4.66-5.77c-1.72-2.52-.72-4.6,2.32-4.86a45.64,45.64,0,0,1,6,.11,3.34,3.34,0,0,0,3.63-2c2.69-5.43,6.16-10.29,11.26-13.74a3.43,3.43,0,0,0,1.6-3c.09-2.23.14-4.47.26-6.7A12.74,12.74,0,0,1,150.39,82.62ZM183.09,192c5.89-8.82,8.64-18.4,9.91-28.65-4.32-.4-8.45-.76-12.57-1.2a3.36,3.36,0,0,0-3.09,1.4,5.61,5.61,0,0,0-1.17,4.49,73.94,73.94,0,0,0,4.94,20.4A32.54,32.54,0,0,0,183.09,192Zm10.55-42.88c-.19-2.51-.31-4.65-.52-6.79a85.64,85.64,0,0,0-5.74-24c-.21-.5-.74-1.23-1.1-1.22a2.11,2.11,0,0,0-1.44,1c-3.4,5.66-6,11.63-6.76,18.25-.46,3.83,1.12,7.18,4.34,8.54C186,146.4,189.72,147.62,193.64,149.08Zm-22,50.83c-2.73-7.84-5.43-15.6-8.14-23.36l-.32-.07a13.1,13.1,0,0,0-1.63,3c-1.34,5.53-2.54,11.1-3.79,16.65a1.72,1.72,0,0,0,.92,2.12,34.08,34.08,0,0,0,5.16,2.15A12.53,12.53,0,0,0,171.6,199.91Zm-39.13-76a93.73,93.73,0,0,0-.82,31.72c1.31-.77,2.45-1.47,3.62-2.12a3.51,3.51,0,0,0,1.89-3.21c.24-6,.53-12,.77-17.94a2.79,2.79,0,0,0-.34-1.61C136,128.5,134.32,126.34,132.47,123.88Zm32.09-7.81c.28-.31.35-.36.39-.42,3-5.54,6-11.09,9-16.61a.86.86,0,0,0-.31-1.3,13.76,13.76,0,0,0-7.61-2.87,3.29,3.29,0,0,0-1.73.35c-1.66.93-2,1.83-1.76,3.27C163.31,104.26,163.89,110.05,164.56,116.07ZM153,121.64c-.8-6.34-1.54-12.19-2.3-18,0-.26-.29-.49-.44-.74-.22.19-.53.33-.65.56q-3.4,6.31-6.74,12.65a1,1,0,0,0,0,.92c2,2.09,3.87,4.25,6,6.15a3.75,3.75,0,0,0,3.05.7C152.53,123.64,152.75,122.18,153,121.64Zm16.11-.53a4.62,4.62,0,0,0,.41-.53c2.66-4.49,5.37-9,8-13.49,2.07-3.63,1.82-4.56-1.49-7.12a3.21,3.21,0,0,0-.36-.24.91.91,0,0,0-.26.12c-.24.26-.48.53-.71.8a46,46,0,0,0-7.79,14.17c-1.35,3.7-1.23,4.05,2.07,6.24A.94.94,0,0,0,169.1,121.11Zm-23.35,62.21.41.16a4.05,4.05,0,0,0,.64-1.06q1.48-6.71,2.89-13.45a4.19,4.19,0,0,0-1-3.79,1.81,1.81,0,0,0-2.24-.6l-6.35,2.65C142,172.66,143.88,178,145.75,183.32Zm4.16-89.06c-6.32,3.92-10,9.48-13.06,16,1.19.06,2.18.06,3.15.17a5.55,5.55,0,0,0,5.69-2.68c1-1.6,2.35-3,3.34-4.64a7.9,7.9,0,0,0,1.23-3.4A38,38,0,0,0,149.91,94.26Zm-14.58,77.46c2.35,6.78,5.07,13,9.82,18.34.57-2.09.89-4,.16-5.84-1.35-3.45-2.79-6.86-4.12-10.31a3.19,3.19,0,0,0-3.1-2.18C137.26,171.69,136.43,171.72,135.33,171.72Zm3.35-38.4v17.46a7.61,7.61,0,0,0,5.33-5.09C145.19,142,142.89,136.72,138.68,133.32Zm-1-20.12,4,3.35,2.32-5.82Zm32.72,88.36a18.62,18.62,0,0,1-12.7-2.45C158,202.37,165.36,204.13,170.39,201.56Zm-31-34-3.12,1.63,4.17,2.23C140,170,139.69,168.85,139.35,167.6Z"/><path d="M148.25,149.54c.08-5.54,1.59-10.75,3.41-15.86a10.07,10.07,0,0,1,4.91-5.38c3.08-1.67,6.61-.83,9.25,2.1A22.57,22.57,0,0,1,171,141.3a37.37,37.37,0,0,1-1.11,20.27,16.6,16.6,0,0,1-4,6.58c-3.24,3.18-7.54,3.24-10.77,0a22.37,22.37,0,0,1-6-12C148.62,154,148.51,151.76,148.25,149.54Zm1-1.4c.35,2.68.57,5.39,1.07,8.05a21.57,21.57,0,0,0,4.9,10.63c3.14,3.5,7.26,3.55,10.32,0a16.64,16.64,0,0,0,2.62-4.12c3.49-8,3.39-16.21.86-24.45a16.93,16.93,0,0,0-5.09-8.11c-2.48-2.11-5.39-2.23-7.84-.09a15.64,15.64,0,0,0-3.35,4.15A30.65,30.65,0,0,0,149.23,148.14Z"/></g></svg>